<svg xmlns="http://www.w3.org/2000/svg" id="bubbles-header" class="c-bubbles" viewBox="0 0 1046 844"><circle style="fill:#b1a89e" cx="556" cy="-79.94795809783704" r="23"/><circle cx="329" cy="-131.53746018294737" r="17"/><circle cx="391" cy="-50.06001223799069" r="11"/><circle cx="940" cy="-291.40844941333864" r="23"/><circle cx="363" cy="103.20282642068241" r="22"/><circle style="fill:#b1a89e" cx="129" cy="-151.82496976490347" r="13"/><circle cx="642" cy="-18.876582830759048" r="13"/><circle cx="306" cy="-20.50300851635484" r="11"/><circle style="fill:#c16100" cx="944" cy="-119.93779269468814" r="24"/><circle cx="153" cy="37.90482675903036" r="18"/><circle cx="107" cy="-120.51556887539755" r="12"/><circle cx="370" cy="-214.1782039117685" r="12"/><circle cx="187" cy="97.88918666931215" r="11"/><circle cx="356" cy="-304.36977814101976" r="14"/><circle cx="688" cy="-357.50313218646795" r="25"/><circle cx="770" cy="-279.54007473406716" r="18"/><circle cx="176" cy="-95.55333855121137" r="21"/><circle cx="69" cy="212.17562496305027" r="25"/><circle cx="977" cy="-136.2211762078348" r="15"/><circle cx="994" cy="-72.37163302751549" r="6"/><circle cx="999" cy="-254.9971243319959" r="18"/><circle cx="822" cy="-343.6866009592137" r="25"/><circle cx="7" cy="418.4225383353048" r="10"/><circle cx="876" cy="-75.61819009798478" r="6"/><circle cx="899" cy="-191.8490003077651" r="15"/><circle cx="114" cy="222.58476520122872" r="17"/><circle cx="110" cy="135.03738693062803" r="18"/><circle cx="594" cy="-311.1893687649846" r="16"/><circle cx="57" cy="158.99260047661392" r="23"/><circle cx="408" cy="-223.36550038714893" r="19"/><circle cx="79" cy="-113.69604850063138" r="18"/><circle cx="409" cy="47.32933384124976" r="19"/><circle cx="695" cy="-171.76506789138273" r="11"/><circle cx="148" cy="-143.9532588428375" r="19"/><circle cx="117" cy="228.34665702841926" r="15"/><circle cx="833" cy="-170.34373921040776" r="24"/><circle cx="312" cy="-146.92367011776003" r="8"/><circle cx="163" cy="-23.987691834384236" r="18"/><circle cx="360" cy="-274.76264353042404" r="20"/><circle cx="615" cy="-368.52043011864134" r="6"/><circle cx="769" cy="-159.3780732097141" r="18"/><circle cx="899" cy="-251.8490003077651" r="8"/><circle cx="827" cy="-343.44257753583327" r="7"/><circle cx="1028" cy="-38.56435787409464" r="25"/><circle cx="122" cy="32.12998979890449" r="4"/><circle style="fill:#be6700" cx="725" cy="-97.03318228656724" r="12"/><circle cx="416" cy="-186.7861619885541" r="18"/><circle cx="400" cy="91.10309820982707" r="16"/><circle cx="532" cy="-263.4473530588755" r="18"/><circle cx="22" cy="60.670167274944106" r="13"/><circle cx="82" cy="48.65769363026584" r="23"/><circle cx="500" cy="-111.71401158371873" r="9"/><circle cx="53" cy="281.0627928915937" r="11"/><circle cx="724" cy="-161.86111855263096" r="24"/><circle style="fill:#66ccff" cx="547" cy="10.086432290312018" r="6"/><circle cx="701" cy="-36.83665175722592" r="5"/><circle cx="477" cy="-325.84356446835875" r="12"/><circle cx="194" cy="16.307983025010344" r="22"/><circle cx="720" cy="-392.17047880580924" r="5"/><circle style="fill:#0d004c" cx="940" cy="-344.40844941333864" r="12"/><circle cx="402" cy="77.48135050976884" r="18"/><circle style="fill:#b1a89e" cx="122" cy="-168.8700102010955" r="26"/><circle style="fill:#66ccff" cx="372" cy="-222.8502279405766" r="22"/><circle cx="266" cy="127.96048221650972" r="17"/><circle cx="18" cy="437.6858073646624" r="23"/><circle cx="212" cy="-210.75287765917665" r="15"/><circle cx="360" cy="46.23735646957596" r="21"/><circle style="fill:#110000" cx="648" cy="-164.03622054606035" r="24"/><circle cx="756" cy="-65.25266825539427" r="14"/><circle cx="519" cy="-337.36330990733916" r="8"/><circle cx="693" cy="-129.40581647431839" r="18"/><circle cx="79" cy="-18.696048500631377" r="15"/><circle style="fill:#ffffff" cx="1031" cy="-217.92762230438007" r="13"/><circle cx="110" cy="155.03738693062803" r="24"/><circle cx="169" cy="-116.4939712232565" r="5"/><circle cx="525" cy="-308.79620103330365" r="9"/><circle cx="346" cy="-212.81796650274805" r="6"/><circle cx="865" cy="-398.04291157167904" r="6"/><circle cx="454" cy="-232.68294774003357" r="8"/><circle style="fill:#66ccff" cx="819" cy="-22.230804636275934" r="18"/><circle style="fill:#be6700" cx="798" cy="-369.9926964634666" r="19"/><circle cx="1027" cy="-135.44303411225962" r="15"/><circle cx="175" cy="-71.84302235332757" r="8"/><circle cx="924" cy="-296.2683083451125" r="20"/><circle cx="208" cy="-87.37832671316892" r="18"/><circle cx="724" cy="-203.86111855263096" r="25"/><circle cx="786" cy="-355.1038700943145" r="12"/><circle cx="483" cy="12.598163298355075" r="12"/><circle cx="598" cy="-325.02601724398687" r="4"/><circle cx="730" cy="-393.8899564869396" r="26"/><circle cx="294" cy="-230.51593728475189" r="15"/><circle cx="820" cy="-405.38292198943554" r="17"/><circle cx="89" cy="67.44589240975063" r="19"/><circle cx="809" cy="-327.6993338339869" r="11"/><circle cx="1013" cy="-362.7319855086039" r="20"/><circle cx="765" cy="-402.7279535852857" r="7"/><circle style="fill:#110000" cx="172" cy="-84.68746163569756" r="15"/><circle style="fill:#cdcaa2" cx="512" cy="-257.67051747846654" r="26"/><circle cx="324" cy="-212.62838527067515" r="14"/><circle cx="133" cy="-62.63168250810509" r="14"/><circle cx="322" cy="-120.85649329705393" r="5"/><circle cx="406" cy="-128.75291853801536" r="16"/><circle cx="887" cy="-8.173810636356961" r="18"/><circle cx="688" cy="-70.50313218646795" r="5"/><circle cx="226" cy="-212.7247356084041" r="22"/><circle cx="701" cy="-115.83665175722592" r="20"/><circle cx="769" cy="-320.3780732097141" r="9"/><circle cx="83" cy="-80.85335705791033" r="25"/><circle cx="719" cy="-97.99721935408888" r="5"/><circle cx="852" cy="-382.15518531818157" r="18"/><circle cx="896" cy="-346.43230859239145" r="20"/><circle cx="744" cy="-146.25806321596178" r="12"/><circle cx="495" cy="-247.46113515393927" r="19"/><circle cx="1033" cy="-292.1692118285315" r="7"/><circle cx="993" cy="-371.24615726911543" r="19"/><circle cx="153" cy="-122.09517324096964" r="16"/><circle cx="657" cy="-221.7556982271907" r="15"/><circle cx="789" cy="-85.57876649891125" r="14"/><circle cx="175" cy="-196.84302235332757" r="26"/><circle cx="650" cy="16.579618424354408" r="8"/><circle cx="378" cy="-255.84483298000907" r="5"/><circle cx="207" cy="101.22244628307408" r="12"/><circle cx="310" cy="93.87800567046861" r="15"/><circle style="fill:#110000" cx="748" cy="-273.92648388145824" r="26"/><circle cx="765" cy="-383.7279535852857" r="22"/><circle cx="778" cy="-251.82856326391618" r="20"/><circle cx="847" cy="-309.4214565640367" r="26"/><circle cx="593" cy="-17.97932633037999" r="5"/><circle cx="384" cy="38.19197439232755" r="21"/><circle cx="865" cy="-169.04291157167904" r="12"/><circle style="fill:#0d004c" cx="791" cy="-342.8943619977142" r="16"/><circle cx="315" cy="81.88340063103624" r="10"/><circle cx="154" cy="-204.9072943897512" r="11"/><circle cx="817" cy="-19.926011928337175" r="24"/><circle cx="303" cy="-64.27481971027134" r="22"/><circle style="fill:#b1a89e" cx="573" cy="-162.70240066384417" r="25"/><circle cx="784" cy="-317.78626443093117" r="9"/><circle cx="575" cy="-11.136757045605805" r="15"/><circle cx="670" cy="-250.19825115457104" r="14"/><circle cx="834" cy="-280.49330150242804" r="5"/><circle cx="441" cy="-334.0612806893429" r="21"/><circle style="fill:#be6700" cx="771" cy="-247.70186600330055" r="15"/><circle cx="387" cy="-91.77814844487966" r="7"/><circle cx="303" cy="-149.27481971027134" r="21"/><circle cx="906" cy="-347.81589832753025" r="13"/><circle cx="629" cy="-323.3264041730845" r="12"/><circle cx="1016" cy="-34.10062103237169" r="12"/><circle style="fill:#110000" cx="339" cy="-87.2700790129951" r="25"/><circle cx="553" cy="-298.2735101653267" r="9"/><circle cx="1040" cy="-249.0111070574851" r="20"/><circle cx="412" cy="16.418293327605966" r="19"/><circle cx="465" cy="-63.667337734122384" r="18"/><circle cx="20" cy="308.55154910491353" r="16"/><circle cx="236" cy="3.8778778560821365" r="20"/><circle cx="887" cy="-92.17381063635696" r="10"/><circle cx="767" cy="-390.0534372047757" r="26"/><circle cx="296" cy="35.638905881777305" r="11"/><circle cx="817" cy="-364.9260119283372" r="8"/><circle cx="1046" cy="-300.7282336110453" r="18"/><circle cx="1039" cy="-354.8911838587745" r="8"/><circle cx="418" cy="-138.3840535684658" r="6"/><circle cx="644" cy="-226.26432857243913" r="21"/><circle cx="9" cy="458.0936426400476" r="12"/><circle cx="512" cy="-18.670517478466536" r="21"/><circle cx="654" cy="-379.18517020413015" r="14"/><circle cx="864" cy="-220.89871241685444" r="21"/><circle cx="518" cy="-339.1228852321476" r="10"/><circle cx="942" cy="-102.67340202199591" r="9"/><circle cx="774" cy="3.8140162797351422" r="15"/><circle cx="43" cy="168.12820891507278" r="20"/><circle style="fill:#be6700" cx="846" cy="-31.274191153589754" r="20"/><circle cx="239" cy="-232.69679767675882" r="17"/><circle cx="406" cy="-14.752918538015365" r="20"/><circle cx="137" cy="97.67441299614768" r="14"/><circle cx="583" cy="-333.85920455807695" r="11"/><circle cx="176" cy="161.44666144878863" r="17"/><circle cx="749" cy="-43.093030540092855" r="6"/><circle cx="224" cy="55.38336195837894" r="4"/><circle cx="169" cy="-181.4939712232565" r="20"/><circle cx="950" cy="-274.72761680742735" r="12"/><circle cx="787" cy="-394.2623699954456" r="25"/><circle cx="996" cy="-281.6222062886568" r="4"/><circle cx="1039" cy="-126.89118385877453" r="16"/><circle cx="430" cy="-96.91240670462844" r="11"/><circle cx="456" cy="-315.2309053495417" r="23"/><circle cx="666" cy="-113.4517809274048" r="17"/><circle cx="31" cy="383.9186212901699" r="5"/><circle cx="494" cy="-98.20904173042334" r="11"/><circle cx="635" cy="-228.5098955505323" r="14"/><circle cx="869" cy="-363.6180459503021" r="16"/><circle cx="265" cy="145.43001254727767" r="17"/><circle cx="760" cy="-20.910507013881556" r="8"/><circle cx="644" cy="-17.264328572439126" r="25"/><circle cx="822" cy="-350.6866009592137" r="15"/><circle cx="213" cy="-175.3395147674113" r="5"/><circle cx="941" cy="-151.54099610891558" r="15"/><circle cx="968" cy="-79.06750072549687" r="9"/><circle cx="1038" cy="-112.77114518272435" r="15"/><circle style="fill:#110000" cx="8" cy="396.7764941738445" r="15"/><circle cx="311" cy="-38.52347665866955" r="15"/><circle cx="509" cy="-294.9379385507359" r="26"/><circle cx="168" cy="-101.75414617082697" r="6"/><circle cx="966" cy="-237.80967197703012" r="12"/><circle cx="626" cy="-187.73041823097742" r="6"/><circle cx="576" cy="-325.35336901226356" r="16"/><circle cx="742" cy="-283.92250404848664" r="15"/><circle cx="993" cy="-35.24615726911543" r="6"/><circle style="fill:#0d004c" cx="1045" cy="-182.60899863739667" r="12"/><circle cx="516" cy="-187.64064031567375" r="4"/><circle cx="218" cy="-139.23199152415384" r="21"/><circle cx="748" cy="-291.92648388145824" r="15"/><circle cx="690" cy="15.135009343348997" r="10"/><circle cx="557" cy="-291.17196562522224" r="5"/><circle cx="317" cy="-265.90559032833926" r="21"/><circle cx="908" cy="-243.09078301541876" r="12"/><circle cx="149" cy="-20.792724341340545" r="26"/><circle cx="657" cy="-192.7556982271907" r="26"/><circle cx="635" cy="-258.5098955505323" r="17"/><circle cx="740" cy="-355.5860391871536" r="26"/><circle cx="639" cy="-206.29269344738748" r="11"/><circle cx="709" cy="-213.25125026093122" r="12"/><circle cx="112" cy="-66.20880276623586" r="22"/><circle cx="943" cy="-357.8056674513225" r="10"/><circle cx="95" cy="-38.68700118772597" r="11"/><circle cx="1009" cy="-377.2387696112253" r="25"/><circle cx="406" cy="94.24708146198464" r="4"/><circle cx="465" cy="-162.66733773412238" r="10"/><circle cx="788" cy="-253.4206686268068" r="25"/><circle cx="904" cy="-93.54040615917438" r="5"/><circle style="fill:#be6700" cx="460" cy="-250.31964725206" r="24"/><circle cx="581" cy="-139.4308187226054" r="6"/><circle cx="616" cy="-98.72296494052136" r="6"/><circle cx="468" cy="-114.46901352235102" r="19"/><circle cx="1034" cy="-436.2898312433081" r="24"/><circle cx="132" cy="-16.690846680417167" r="4"/><circle cx="72" cy="-33.12986318610797" r="22"/><circle cx="623" cy="-248.13156925494457" r="8"/><circle cx="385" cy="-225.13223945868208" r="17"/><circle cx="425" cy="-327.4543765696495" r="12"/><circle cx="807" cy="-205.39076893524032" r="24"/><circle cx="676" cy="-9.309641774026886" r="24"/><circle cx="109" cy="-34.824156248768645" r="19"/><circle cx="24" cy="327.8233154938682" r="6"/><circle cx="174" cy="190.87136444670364" r="5"/><circle cx="101" cy="84.67835896970485" r="8"/><circle cx="992" cy="-408.120555086756" r="20"/><circle cx="402" cy="26.481350509768845" r="7"/><circle cx="730" cy="5.110043513060418" r="23"/><circle cx="889" cy="-13.45457687091141" r="10"/><circle style="fill:#110000" cx="603" cy="-365.06399289482226" r="5"/><circle cx="190" cy="-3.0948364631111644" r="26"/><circle cx="132" cy="-155.69084668041717" r="23"/><circle cx="340" cy="57.36273322389627" r="21"/><circle cx="562" cy="-146.2860048127925" r="8"/><circle cx="706" cy="-80.7226551702089" r="24"/><circle cx="282" cy="-39.321012473613564" r="25"/><circle cx="257" cy="38.25131267667564" r="13"/><circle style="fill:#110000" cx="288" cy="-216.94553373687836" r="14"/><circle cx="208" cy="-77.37832671316892" r="12"/><circle cx="197" cy="-118.6049980760364" r="14"/><circle cx="918" cy="-252.45618719633103" r="6"/><circle cx="248" cy="124.6951154640143" r="18"/><circle cx="1021" cy="-229.7126014241552" r="10"/><circle cx="441" cy="-158.06128068934288" r="16"/><circle cx="771" cy="-271.70186600330055" r="21"/><circle cx="17" cy="144.8111841189828" r="16"/><circle cx="247" cy="78.19879354496186" r="19"/><circle cx="17" cy="187.8111841189828" r="18"/><circle cx="322" cy="-221.85649329705393" r="20"/><circle cx="316" cy="-99.51171905140177" r="4"/><circle cx="985" cy="-178.23777842035258" r="19"/><circle cx="285" cy="118.35982013229773" r="4"/><circle cx="212" cy="-228.75287765917665" r="8"/><circle cx="201" cy="-115.11081421484607" r="22"/><circle style="fill:#b1a89e" cx="605" cy="29.523224756342415" r="23"/><circle cx="358" cy="45.93184381143624" r="4"/><circle cx="54" cy="-58.267371315313824" r="13"/><circle cx="864" cy="-291.89871241685444" r="21"/><circle cx="155" cy="-64.71415905414631" r="5"/><circle cx="376" cy="-48.183504344407766" r="13"/><circle cx="727" cy="-222.37659890993746" r="22"/><circle cx="677" cy="-10.493914025534536" r="8"/><circle cx="971" cy="-164.4532467438038" r="22"/><circle cx="572" cy="-81.48465361206922" r="26"/><circle style="fill:#be6700" cx="365" cy="-58.482121211554386" r="20"/><circle cx="865" cy="-306.04291157167904" r="14"/><circle cx="796" cy="-210.67987282265676" r="24"/><circle cx="305" cy="-13.094955270026503" r="4"/><circle cx="477" cy="-99.84356446835875" r="10"/><circle cx="1010" cy="-36.362256649996425" r="22"/><circle cx="166" cy="167.73880766670447" r="14"/><circle cx="894" cy="-192.15373829670204" r="21"/><circle cx="806" cy="-196.23619959684345" r="23"/><circle cx="410" cy="-95.97508671405035" r="20"/><circle cx="596" cy="-47.60839489211094" r="10"/><circle cx="536" cy="-137.38114136102536" r="10"/><circle cx="1005" cy="-47.74359455916215" r="9"/><circle cx="424" cy="-6.160712934561843" r="9"/><circle cx="842" cy="-342.6833836238153" r="26"/><circle cx="419" cy="-120.6819274388589" r="7"/><circle cx="188" cy="-92.77566906902257" r="6"/><circle cx="332" cy="-105.6690276086805" r="6"/><circle cx="1013" cy="-54.731985508603884" r="24"/><circle cx="339" cy="-115.2700790129951" r="7"/><circle cx="1028" cy="-302.56435787409464" r="9"/><circle style="fill:#0d004c" cx="167" cy="178.9900957737476" r="18"/><circle cx="611" cy="-83.70698412988042" r="18"/><circle cx="470" cy="-295.00061413795345" r="15"/><circle style="fill:#0d004c" cx="640" cy="-61.48762727201233" r="23"/><circle cx="653" cy="-72.99441246920901" r="9"/><circle cx="433" cy="-212.77910884316123" r="26"/><circle cx="250" cy="-253.30617630833353" r="24"/><circle cx="515" cy="-129.39881646593983" r="24"/><circle cx="725" cy="-269.03318228656724" r="16"/><circle cx="574" cy="-212.91976803442947" r="23"/><circle cx="15" cy="183.41404097570768" r="25"/><circle cx="56" cy="0.1990325091491627" r="16"/><circle cx="1042" cy="-136.25060791010833" r="21"/><circle cx="172" cy="171.31253836430244" r="20"/><circle cx="1001" cy="-422.24644472599414" r="10"/><circle style="fill:#c16100" cx="79" cy="-0.6960485006313775" r="21"/><circle cx="754" cy="-318.9224424849484" r="10"/><circle cx="708" cy="-124.07530082389405" r="17"/><circle cx="441" cy="-196.06128068934288" r="20"/><circle cx="800" cy="-334.30473706555813" r="5"/><circle cx="809" cy="-10.699333833986884" r="8"/><circle cx="678" cy="13.322085711619707" r="5"/><circle cx="480" cy="-58.625135401218245" r="23"/><circle style="fill:#66ccff" cx="182" cy="148.26771744829136" r="20"/><circle cx="715" cy="-241.30176340561502" r="10"/><circle cx="326" cy="-225.39552710976943" r="17"/><circle cx="967" cy="-397.938653008139" r="20"/><circle cx="986" cy="-356.3642727543373" r="12"/><circle cx="60" cy="216.59837042493734" r="18"/><circle cx="698" cy="-34.30201124317796" r="14"/><circle cx="313" cy="-293.3225829555922" r="18"/><circle cx="912" cy="-234.63874062492675" r="9"/><circle cx="301" cy="-168.44925274962247" r="8"/><circle cx="964" cy="-64.55130886808081" r="10"/><circle cx="539" cy="-179.0769207790612" r="6"/><circle cx="519" cy="-257.36330990733916" r="16"/><circle style="fill:#c16100" cx="221" cy="162.0641985073546" r="20"/><circle cx="492" cy="-135.70332032509555" r="12"/><circle style="fill:#cdcaa2" cx="265" cy="123.43001254727767" r="18"/><circle cx="296" cy="72.6389058817773" r="21"/><circle cx="272" cy="-173.82015698255793" r="9"/><circle cx="148" cy="-118.9532588428375" r="11"/><circle cx="497" cy="-190.9637977521303" r="8"/><circle cx="215" cy="-54.50457142924324" r="15"/><circle cx="698" cy="-182.30201124317796" r="13"/><circle cx="714" cy="6.872708498926158" r="12"/><circle cx="851" cy="-388.00878464904076" r="22"/><circle cx="808" cy="-211.54514685645063" r="16"/><circle cx="541" cy="11.46137441372639" r="19"/><circle cx="301" cy="-146.44925274962247" r="26"/><circle cx="382" cy="89.84294274074693" r="12"/><circle cx="50" cy="349.3266040359826" r="22"/><circle cx="531" cy="-35.212808953099966" r="18"/><circle cx="287" cy="63.48806724095573" r="22"/><circle cx="101" cy="60.678358969704846" r="21"/><circle cx="849" cy="-416.7154665009016" r="11"/><circle cx="17" cy="163.8111841189828" r="17"/><circle cx="239" cy="15.30320232324118" r="14"/><circle cx="792" cy="-38.05186063577867" r="10"/><circle cx="1000" cy="-335.1218468591038" r="6"/><circle cx="544" cy="-9.227992257943015" r="7"/><circle cx="894" cy="-189.15373829670204" r="5"/><circle cx="70" cy="248.38192271560342" r="26"/><circle cx="309" cy="-228.71921480159995" r="9"/><circle cx="1007" cy="-347.99142795181626" r="12"/><circle cx="1012" cy="-316.60886435741463" r="14"/><circle cx="57" cy="242.99260047661392" r="26"/><circle cx="636" cy="-216.70605633915284" r="22"/><circle cx="247" cy="-144.80120645503814" r="14"/><circle cx="785" cy="-335.9451684109506" r="11"/><circle cx="20" cy="178.55154910491353" r="10"/><circle cx="1040" cy="-162.0111070574851" r="17"/><circle cx="882" cy="-66.46911596472808" r="8"/><circle cx="162" cy="97.77945000471004" r="23"/><circle cx="755" cy="-231.08766471648494" r="23"/><circle cx="33" cy="356.1248238703531" r="10"/><circle cx="621" cy="-229.73073239690223" r="24"/><circle cx="727" cy="-334.37659890993746" r="19"/><circle cx="87" cy="75.27919972208883" r="23"/><circle cx="837" cy="-100.9409147497588" r="4"/><circle cx="899" cy="-171.8490003077651" r="5"/><circle cx="431" cy="-223.20197746304643" r="24"/><circle cx="960" cy="-78.03297067660344" r="21"/><circle cx="407" cy="-291.0595857417378" r="12"/><circle style="fill:#110000" cx="144" cy="10.462301538506836" r="22"/><circle cx="967" cy="-154.938653008139" r="16"/><circle style="fill:#ffffff" cx="788" cy="-240.4206686268068" r="12"/><circle cx="674" cy="-209.94027808025874" r="8"/><circle cx="785" cy="-178.9451684109506" r="25"/><circle cx="66" cy="90.71698859496792" r="6"/><circle cx="230" cy="59.08818802332519" r="22"/><circle cx="482" cy="-18.143473592695614" r="10"/><circle cx="16" cy="426.36865889845933" r="14"/><circle cx="556" cy="-168.94795809783704" r="26"/><circle cx="237" cy="-165.64922718060768" r="25"/><circle cx="729" cy="-89.71907207985737" r="26"/><circle cx="164" cy="127.24985835488064" r="12"/><circle cx="734" cy="-217.5711612172612" r="14"/><circle cx="523" cy="-116.32039833566012" r="14"/><circle cx="906" cy="-209.81589832753025" r="23"/><circle cx="79" cy="250.30395149936862" r="23"/><circle cx="488" cy="-213.6856807518659" r="21"/><circle cx="182" cy="-65.73228255170864" r="19"/><circle cx="980" cy="-101.60337422447697" r="11"/><circle cx="1012" cy="-422.60886435741463" r="5"/><circle cx="594" cy="-249.18936876498458" r="24"/><circle cx="965" cy="-220.68055735601536" r="23"/><circle cx="532" cy="-89.44735305887548" r="12"/><circle style="fill:#be6700" cx="1034" cy="-292.2898312433081" r="15"/><circle cx="378" cy="-306.8448329800091" r="18"/><circle cx="426" cy="-121.74735004279648" r="24"/><circle cx="28" cy="148.60686778453442" r="16"/><circle cx="685" cy="-338.9583673481685" r="19"/><circle cx="706" cy="-315.7226551702089" r="8"/><circle cx="301" cy="-237.44925274962247" r="12"/><circle cx="30" cy="196.00620570032248" r="24"/><circle cx="1001" cy="-335.24644472599414" r="5"/><circle style="fill:#cdcaa2" cx="751" cy="-180.4254578182755" r="7"/><circle cx="578" cy="-49.78546703741961" r="14"/><circle style="fill:#110000" cx="287" cy="-139.51193275904427" r="21"/><circle cx="16" cy="470.36865889845933" r="6"/><circle cx="257" cy="-50.74868732332436" r="19"/><circle cx="309" cy="-134.71921480159995" r="19"/><circle cx="129" cy="-134.82496976490347" r="16"/><circle cx="945" cy="-112.06977804894007" r="19"/><circle cx="580" cy="-157.21607249302144" r="17"/><circle cx="119" cy="-60.766277545712455" r="4"/><circle cx="875" cy="-67.47580269764353" r="4"/><circle cx="247" cy="20.19879354496186" r="10"/><circle cx="744" cy="-391.2580632159618" r="16"/><circle style="fill:#c16100" cx="21" cy="129.46935965532856" r="26"/><circle cx="318" cy="75.70177893623236" r="18"/><circle cx="855" cy="-158.59335854767835" r="7"/><circle cx="241" cy="-134.73563831731042" r="14"/><circle cx="438" cy="-4.210354822599697" r="5"/><circle cx="1001" cy="-366.24644472599414" r="22"/><circle style="fill:#110000" cx="842" cy="-394.6833836238153" r="17"/><circle cx="548" cy="55.85874244537729" r="21"/><circle cx="547" cy="-309.913567709688" r="20"/><circle cx="710" cy="-67.42695170713637" r="13"/><circle cx="545" cy="-95.45693659308483" r="18"/><circle cx="843" cy="-117.8313482173836" r="15"/><circle cx="200" cy="165.51093348521226" r="8"/><circle cx="229" cy="150.63137038794378" r="8"/><circle cx="705" cy="-141.54595754254456" r="11"/><circle cx="394" cy="-82.01283335142159" r="22"/><circle cx="219" cy="-10.802519547214501" r="21"/><circle cx="883" cy="-303.61037394635366" r="20"/><circle style="fill:#ffffff" cx="484" cy="-78.65966545011179" r="9"/><circle cx="1000" cy="-215.1218468591038" r="12"/><circle cx="455" cy="-141.95722762063963" r="14"/><circle cx="716" cy="-185.47599146394884" r="19"/><circle cx="353" cy="-164.3148198948237" r="18"/><circle cx="638" cy="10.90254567700913" r="11"/><circle cx="491" cy="20.55031181823881" r="11"/><circle cx="653" cy="-351.994412469209" r="7"/><circle cx="462" cy="22.139526930272723" r="16"/><circle cx="904" cy="-420.5404061591744" r="22"/><circle cx="598" cy="-204.02601724398687" r="20"/><circle cx="523" cy="-157.32039833566012" r="19"/><circle cx="230" cy="-61.91181197667481" r="23"/><circle cx="282" cy="80.67898752638644" r="21"/><circle cx="128" cy="180.14515307230386" r="11"/><circle cx="330" cy="-87.91579174934816" r="21"/><circle cx="826" cy="-175.29174853322786" r="26"/><circle cx="894" cy="-218.15373829670204" r="12"/><circle cx="108" cy="117.32479340930092" r="10"/><circle cx="652" cy="-240.80336238515463" r="15"/><circle cx="165" cy="51.49204352603704" r="15"/><circle cx="432" cy="-69.49087714146935" r="19"/><circle cx="491" cy="-2.4496881817611893" r="25"/><circle cx="596" cy="-237.60839489211094" r="15"/><circle cx="354" cy="107.33253445149114" r="21"/><circle cx="54" cy="238.73262868468618" r="22"/><circle cx="436" cy="-21.639826799539037" r="10"/><circle cx="579" cy="10.999044308324528" r="23"/><circle cx="187" cy="-30.110813330687847" r="18"/><circle cx="444" cy="-329.9064375228138" r="23"/><circle cx="136" cy="189.58767829282726" r="21"/><circle cx="240" cy="-151.21730012583305" r="13"/><circle cx="809" cy="-346.6993338339869" r="26"/><circle cx="657" cy="-46.75569822719069" r="12"/><circle cx="626" cy="-122.73041823097742" r="10"/><circle cx="951" cy="-235.85876900831556" r="19"/><circle cx="355" cy="-111.01911643175117" r="16"/><circle cx="268" cy="-157.97330608564016" r="23"/><circle cx="506" cy="-102.20102908202944" r="10"/><circle cx="718" cy="-374.82371876178706" r="20"/><circle cx="438" cy="-177.2103548225997" r="14"/><circle cx="96" cy="12.007644943097944" r="13"/><circle cx="32" cy="122.96082362307413" r="17"/><circle cx="729" cy="-52.71907207985737" r="21"/><circle cx="572" cy="-16.484653612069224" r="8"/><circle cx="815" cy="-401.6204721787004" r="24"/><circle cx="262" cy="-238.15069141433833" r="14"/><circle cx="114" cy="47.58476520122872" r="20"/><circle style="fill:#0d004c" cx="247" cy="-86.80120645503814" r="13"/><circle style="fill:#cdcaa2" cx="316" cy="-68.51171905140177" r="22"/><circle cx="187" cy="171.88918666931215" r="24"/><circle cx="273" cy="-146.27762595629974" r="19"/><circle style="fill:#66ccff" cx="457" cy="-130.50398356486642" r="4"/><circle cx="531" cy="-220.21280895309997" r="15"/><circle cx="385" cy="-59.13223945868208" r="6"/><circle cx="648" cy="14.963779453939651" r="11"/><circle cx="379" cy="-251.17418629033568" r="22"/><circle cx="530" cy="-327.9778227281075" r="5"/><circle cx="370" cy="-13.178203911768492" r="13"/><circle cx="26" cy="167.84517911298656" r="17"/><circle cx="820" cy="-48.382921989435545" r="23"/><circle cx="260" cy="72.80456349328529" r="14"/><circle style="fill:#66ccff" cx="121" cy="142.1560051006586" r="17"/><circle cx="116" cy="1.4167078512946318" r="10"/><circle cx="82" cy="-116.34230636973416" r="15"/><circle cx="830" cy="-101.89397267761149" r="4"/><circle cx="577" cy="-26.569605242450507" r="21"/><circle cx="869" cy="-258.6180459503021" r="20"/><circle cx="496" cy="-60.7127198113709" r="17"/><circle cx="741" cy="-266.75438513501433" r="15"/><circle cx="735" cy="-53.740882353682764" r="4"/><circle cx="996" cy="-410.6222062886568" r="15"/><circle style="fill:#cdcaa2" cx="160" cy="145.32804327875806" r="8"/><circle cx="744" cy="-13.258063215961783" r="20"/><circle cx="486" cy="-313.17372867526626" r="22"/><circle cx="123" cy="-158.88764977432515" r="7"/><circle cx="513" cy="-320.91375688333846" r="4"/><circle cx="225" cy="93.82808195141536" r="26"/><circle cx="548" cy="-107.14125755462271" r="22"/><circle cx="1045" cy="-129.60899863739667" r="23"/><circle cx="599" cy="-196.2343049372987" r="24"/><circle style="fill:#b1a89e" cx="831" cy="-270.0440752309014" r="25"/><circle cx="992" cy="-422.120555086756" r="6"/><circle cx="707" cy="-254.89910269499046" r="14"/><circle cx="774" cy="-336.18598372026486" r="24"/><circle cx="557" cy="-230.17196562522224" r="8"/><circle cx="603" cy="40.93600710517774" r="4"/><circle cx="400" cy="-165.89690179017293" r="19"/><circle cx="848" cy="-122.56854820994704" r="16"/><circle cx="948" cy="-269.46489773137796" r="23"/><circle cx="584" cy="-147.07284669339379" r="15"/><circle cx="107" cy="-58.51556887539755" r="7"/><circle cx="865" cy="-183.04291157167904" r="4"/><circle cx="906" cy="-257.81589832753025" r="19"/><circle cx="610" cy="-350.5027905454117" r="12"/><circle cx="682" cy="-296.411211434886" r="20"/><circle cx="835" cy="-2.6426845705685764" r="14"/><circle cx="822" cy="-273.6866009592137" r="21"/><circle cx="261" cy="-104.67397895788747" r="6"/><circle cx="112" cy="-73.20880276623586" r="10"/><circle cx="1009" cy="-319.2387696112253" r="12"/><circle cx="476" cy="13.418051903517153" r="24"/><circle cx="986" cy="-293.3642727543373" r="22"/><circle cx="859" cy="-307.1752039701149" r="6"/><circle style="fill:#cdcaa2" cx="205" cy="-122.56725143866515" r="20"/><circle cx="129" cy="-99.82496976490347" r="21"/><circle cx="586" cy="-50.49903567413628" r="26"/><circle cx="41" cy="243.06552890565098" r="7"/><circle cx="1016" cy="-223.1006210323717" r="23"/><circle cx="359" cy="-121.41588348640187" r="5"/><circle cx="514" cy="-130.15652259870956" r="23"/><circle cx="881" cy="-308.3276977357833" r="8"/><circle cx="779" cy="-265.98869193775886" r="16"/><circle cx="795" cy="-60.523166132698634" r="12"/><circle cx="125" cy="-59.89834103294845" r="26"/><circle cx="405" cy="-89.44549506422095" r="15"/><circle cx="23" cy="135.12880364302646" r="22"/><circle cx="540" cy="-272.30798693501515" r="13"/><circle cx="455" cy="-49.95722762063963" r="16"/><circle cx="702" cy="-338.014356926942" r="6"/><circle cx="888" cy="-180.31427279819889" r="24"/><circle style="fill:#be6700" cx="442" cy="-257.3436367680306" r="19"/><circle cx="882" cy="-358.4691159647281" r="9"/><circle cx="732" cy="-400.2310241564569" r="8"/><circle cx="286" cy="-224.07681833668403" r="8"/><circle cx="156" cy="211.48416515762517" r="12"/><circle cx="468" cy="-141.46901352235102" r="11"/><circle cx="456" cy="-81.23090534954167" r="11"/><circle cx="748" cy="-334.92648388145824" r="10"/><circle cx="669" cy="-385.01205223205864" r="16"/><circle cx="460" cy="-169.31964725206" r="20"/><circle cx="717" cy="-210.649976356735" r="22"/><circle cx="424" cy="-22.160712934561843" r="12"/><circle style="fill:#be6700" cx="789" cy="-33.57876649891125" r="16"/><circle cx="891" cy="-404.73471216957546" r="5"/><circle cx="661" cy="-191.51236310233833" r="17"/><circle cx="196" cy="-10.97059388016089" r="12"/><circle cx="55" cy="86.44522220601317" r="22"/><circle cx="710" cy="-248.42695170713637" r="9"/><circle cx="218" cy="-19.23199152415384" r="18"/><circle cx="883" cy="-186.61037394635366" r="8"/><circle cx="622" cy="-126.93131193405475" r="6"/><circle cx="941" cy="-100.54099610891558" r="13"/><circle cx="913" cy="-45.775354507580914" r="15"/><circle cx="341" cy="-152.00337615950082" r="22"/><circle cx="530" cy="61.022177271892474" r="24"/><circle cx="370" cy="-36.17820391176849" r="25"/><circle cx="2" cy="486.5921647246148" r="26"/><circle cx="639" cy="-9.292693447387478" r="25"/><circle cx="110" cy="117.03738693062803" r="26"/><circle cx="288" cy="-60.94553373687836" r="15"/><circle cx="81" cy="101.18728528009513" r="16"/><circle cx="58" cy="205.82454312667988" r="13"/><circle cx="821" cy="-91.53485394662812" r="20"/><circle cx="216" cy="-107.08304186608427" r="4"/><circle style="fill:#cdcaa2" cx="87" cy="-96.72080027791117" r="5"/><circle cx="499" cy="-106.46444161958982" r="8"/><circle cx="695" cy="-238.76506789138273" r="9"/><circle cx="860" cy="-206.32024198001363" r="20"/><circle cx="709" cy="-265.2512502609312" r="12"/><circle cx="719" cy="-310.9972193540889" r="14"/><circle cx="479" cy="-182.36515583786434" r="19"/><circle cx="695" cy="-352.7650678913827" r="9"/><circle style="fill:#be6700" cx="431" cy="-209.20197746304643" r="11"/><circle cx="292" cy="29.33498858199141" r="8"/><circle cx="75" cy="134.78126063139155" r="5"/><circle cx="116" cy="214.41670785129463" r="22"/><circle cx="730" cy="-133.88995648693958" r="20"/><circle cx="919" cy="-251.5919086636793" r="4"/><circle cx="174" cy="-139.12863555329636" r="12"/><circle cx="134" cy="-46.565470810254965" r="19"/><circle cx="293" cy="-195.0912003987512" r="15"/><circle style="fill:#c16100" cx="344" cy="82.90470308891724" r="26"/><circle cx="882" cy="-81.46911596472808" r="18"/><circle cx="338" cy="59.09819350135831" r="4"/><circle cx="174" cy="-77.12863555329636" r="9"/><circle cx="7" cy="563.4225383353048" r="10"/><circle cx="248" cy="-8.304884535985707" r="18"/><circle cx="123" cy="29.112350225674845" r="22"/><circle cx="865" cy="-104.04291157167904" r="16"/><circle cx="619" cy="-262.32860251449813" r="12"/><circle style="fill:#be6700" cx="194" cy="-155.69201697498966" r="17"/><circle cx="985" cy="-397.2377784203526" r="19"/><circle cx="851" cy="-0.008784649040762815" r="24"/><circle cx="1037" cy="-107.65099080672758" r="20"/><circle cx="261" cy="-66.67397895788747" r="16"/><circle cx="608" cy="38.90660277966424" r="11"/><circle cx="613" cy="-318.11437062135053" r="10"/><circle cx="325" cy="117.98745369973949" r="23"/><circle cx="884" cy="-354.7514720434158" r="18"/><circle cx="151" cy="-89.45488437216875" r="7"/><circle style="fill:#be6700" cx="1004" cy="-68.61949285110711" r="13"/><circle cx="945" cy="-292.06977804894007" r="15"/><circle cx="763" cy="-328.40161791346395" r="15"/><circle cx="304" cy="-83.68556194495056" r="4"/><circle cx="382" cy="43.842942740746935" r="20"/><circle cx="626" cy="-175.73041823097742" r="6"/><circle cx="233" cy="-199.52730096225343" r="24"/><circle cx="553" cy="21.726489834673316" r="17"/><circle cx="123" cy="-158.88764977432515" r="17"/><circle cx="211" cy="1.8365331572794048" r="11"/><circle cx="910" cy="-355.3650628960247" r="7"/><circle cx="916" cy="-61.1843001628265" r="6"/><circle cx="801" cy="7.539535049798133" r="24"/><circle cx="639" cy="-176.29269344738748" r="23"/><circle cx="719" cy="-275.9972193540889" r="17"/><circle cx="729" cy="-162.71907207985737" r="14"/><circle cx="772" cy="-208.86344756246967" r="9"/><circle cx="1010" cy="-434.3622566499964" r="4"/><circle cx="981" cy="-164.73051360872114" r="18"/><circle cx="612" cy="-194.91084379173992" r="9"/><circle cx="853" cy="-23.3014142562929" r="18"/><circle cx="7" cy="291.4225383353048" r="18"/><circle cx="901" cy="-238.1260229894234" r="24"/><circle cx="463" cy="-65.13000864596677" r="14"/><circle cx="894" cy="-131.15373829670204" r="4"/><circle cx="206" cy="98.82612860299116" r="8"/><circle cx="725" cy="-91.03318228656724" r="24"/><circle cx="937" cy="-320.0099616298671" r="17"/><circle cx="495" cy="-68.46113515393927" r="7"/><circle cx="445" cy="17.813112065434552" r="26"/><circle cx="252" cy="144.70051042458192" r="19"/><circle cx="40" cy="140.14371382952834" r="11"/><circle cx="297" cy="-78.78153348959938" r="14"/><circle style="fill:#0d004c" cx="401" cy="-289.2081632638583" r="25"/><circle cx="1005" cy="-234.74359455916215" r="4"/><circle cx="236" cy="-61.12212214391786" r="12"/><circle cx="872" cy="-38.04766207492423" r="20"/><circle cx="430" cy="21.087593295371562" r="8"/><circle cx="174" cy="126.87136444670364" r="17"/><circle cx="244" cy="-162.2778454764807" r="26"/><circle cx="553" cy="-145.27351016532668" r="16"/><circle cx="24" cy="429.8233154938682" r="16"/><circle style="fill:#c16100" cx="168" cy="153.24585382917303" r="24"/><circle cx="517" cy="41.118004032077124" r="11"/><circle cx="26" cy="303.84517911298656" r="12"/><circle cx="957" cy="-32.642797727581865" r="4"/><circle cx="317" cy="39.09440967166074" r="11"/><circle cx="950" cy="-169.72761680742735" r="23"/><circle cx="594" cy="-177.18936876498458" r="5"/><circle cx="899" cy="-422.8490003077651" r="20"/><circle cx="419" cy="-11.681927438858906" r="25"/><circle cx="109" cy="70.17584375123135" r="6"/><circle cx="94" cy="152.63216620636263" r="12"/><circle cx="432" cy="-135.49087714146935" r="5"/><circle cx="641" cy="-188.682256750183" r="6"/><circle cx="841" cy="-120.53524319587007" r="19"/><circle cx="314" cy="73.27977665798028" r="15"/><circle cx="184" cy="-169.09470218312902" r="21"/><circle cx="244" cy="-148.2778454764807" r="9"/><circle cx="141" cy="-181.91317719822837" r="12"/><circle cx="305" cy="-47.0949552700265" r="23"/><circle cx="307" cy="-228.90973042835537" r="12"/><circle cx="620" cy="-30.529829604916586" r="8"/><circle cx="788" cy="-408.4206686268068" r="24"/><circle cx="777" cy="-144.6682286367386" r="12"/><circle cx="1035" cy="-128.4103340612421" r="20"/><circle cx="564" cy="-69.72884774899876" r="8"/><circle cx="39" cy="299.29983570839556" r="26"/><circle cx="94" cy="175.63216620636263" r="17"/><circle cx="441" cy="8.93871931065712" r="7"/><circle cx="897" cy="-261.571360648578" r="5"/><circle cx="125" cy="-169.89834103294845" r="17"/><circle cx="1015" cy="-219.97786360694636" r="17"/><circle cx="732" cy="-211.2310241564569" r="16"/><circle cx="195" cy="-27.332944635920626" r="13"/><circle cx="732" cy="-50.2310241564569" r="6"/><circle cx="191" cy="20.25077801613213" r="15"/><circle cx="937" cy="-134.00996162986712" r="10"/><circle cx="358" cy="52.93184381143624" r="21"/><circle cx="616" cy="-286.72296494052136" r="8"/><circle cx="827" cy="-336.44257753583327" r="16"/><circle cx="460" cy="-258.31964725206" r="6"/><circle cx="136" cy="-20.412321707172737" r="14"/><circle cx="96" cy="246.00764494309794" r="9"/><circle cx="483" cy="37.598163298355075" r="23"/><circle cx="928" cy="-383.80679797486084" r="18"/><circle cx="302" cy="-67.86271964755394" r="19"/><circle cx="984" cy="-287.11115560048074" r="14"/><circle cx="301" cy="32.550747250377526" r="26"/><circle cx="418" cy="-57.38405356846579" r="20"/><circle cx="390" cy="-284.7407799113057" r="22"/><circle cx="565" cy="-313.9496806773351" r="9"/><circle cx="901" cy="-152.1260229894234" r="10"/><circle cx="637" cy="-315.90190894101875" r="4"/><circle cx="790" cy="-250.73666412033276" r="5"/><circle cx="963" cy="-52.42192623535004" r="12"/><circle cx="486" cy="-251.17372867526626" r="5"/><circle cx="543" cy="22.001373318163246" r="15"/><circle cx="354" cy="25.332534451491142" r="12"/><circle cx="828" cy="-278.5932242676963" r="6"/><circle cx="260" cy="-99.19543650671471" r="14"/><circle style="fill:#110000" cx="742" cy="-222.92250404848664" r="15"/><circle style="fill:#110000" cx="862" cy="-405.60981273843163" r="11"/><circle style="fill:#0d004c" cx="704" cy="-54.369009101981646" r="19"/><circle cx="233" cy="48.472699037746565" r="26"/><circle style="fill:#110000" cx="451" cy="-44.856468544019776" r="12"/><circle cx="648" cy="-371.03622054606035" r="5"/><circle cx="794" cy="-13.366262203305268" r="18"/><circle style="fill:#cdcaa2" cx="562" cy="-283.2860048127925" r="16"/><circle cx="463" cy="78.86999135403323" r="11"/><circle cx="754" cy="-105.92244248494842" r="19"/><circle cx="551" cy="-87.82184244134487" r="5"/><circle cx="701" cy="-196.83665175722592" r="25"/><circle cx="552" cy="-322.0478808631052" r="9"/><circle cx="666" cy="-185.4517809274048" r="25"/><circle cx="629" cy="-256.3264041730845" r="25"/><circle cx="330" cy="-100.91579174934816" r="11"/><circle cx="571" cy="-328.26652555038584" r="17"/><circle cx="195" cy="-210.33294463592063" r="18"/><circle cx="125" cy="2.1016589670515486" r="23"/><circle cx="529" cy="-256.7423927139471" r="24"/><circle cx="265" cy="65.43001254727767" r="23"/><circle cx="670" cy="-231.19825115457104" r="23"/><circle cx="137" cy="68.67441299614768" r="15"/><circle cx="996" cy="-269.6222062886568" r="15"/><circle cx="769" cy="-313.3780732097141" r="23"/><circle cx="462" cy="-115.86047306972728" r="4"/><circle cx="322" cy="66.14350670294607" r="7"/><circle cx="751" cy="-400.4254578182755" r="12"/><circle cx="153" cy="202.90482675903036" r="9"/><circle style="fill:#c16100" cx="807" cy="-291.3907689352403" r="18"/><circle cx="958" cy="-218.77299111324953" r="10"/><circle style="fill:#b1a89e" cx="255" cy="1.2252250946904724" r="11"/><circle style="fill:#be6700" cx="1009" cy="-53.23876961122528" r="18"/><circle cx="59" cy="206.69354840685247" r="25"/><circle cx="529" cy="-303.7423927139471" r="4"/><circle cx="595" cy="-162.39905789002864" r="8"/><circle cx="123" cy="-130.88764977432515" r="22"/><circle cx="44" cy="210.26233199955897" r="20"/><circle cx="467" cy="-195.20236068175757" r="25"/><circle cx="968" cy="-258.06750072549687" r="6"/><circle cx="542" cy="-253.7688383118027" r="4"/><circle cx="915" cy="-26.04813395000258" r="23"/><circle cx="524" cy="-330.5585266897235" r="19"/><circle cx="709" cy="-58.251250260931215" r="20"/><circle style="fill:#c16100" cx="696" cy="-118.94430610406675" r="13"/><circle cx="838" cy="-278.0897627142441" r="21"/><circle cx="878" cy="-229.90247791890238" r="25"/><circle cx="649" cy="-349.2284490428183" r="25"/><circle cx="125" cy="220.10165896705155" r="22"/><circle cx="650" cy="-293.4203815756456" r="9"/><circle cx="599" cy="-90.2343049372987" r="23"/><circle cx="446" cy="-69.46670882746753" r="22"/><circle cx="247" cy="-86.80120645503814" r="22"/><circle cx="413" cy="-289.8839132578428" r="7"/><circle cx="404" cy="-29.137311581065546" r="4"/><circle cx="606" cy="-101.68265498565654" r="25"/><circle cx="986" cy="-157.36427275433732" r="16"/><circle cx="677" cy="-125.49391402553454" r="26"/><circle cx="795" cy="-217.52316613269863" r="21"/><circle cx="560" cy="-212.84158311055205" r="10"/><circle cx="343" cy="43.267615005914195" r="4"/><circle cx="922" cy="-273.9981887259978" r="15"/><circle cx="1032" cy="-228.04847559105895" r="4"/><circle cx="274" cy="-215.73342227923752" r="21"/><circle cx="518" cy="-274.1228852321476" r="18"/><circle cx="128" cy="188.14515307230386" r="5"/><circle cx="654" cy="-168.18517020413015" r="12"/><circle cx="136" cy="-123.41232170717274" r="16"/><circle cx="223" cy="124.94112644791755" r="20"/><circle cx="1033" cy="-158.1692118285315" r="16"/><circle cx="552" cy="-227.0478808631052" r="7"/><circle cx="120" cy="80.19053514955215" r="5"/><circle cx="262" cy="-208.15069141433833" r="4"/><circle cx="53" cy="288.0627928915937" r="11"/><circle cx="1030" cy="-387.806651741325" r="18"/><circle cx="64" cy="-77.44701165231095" r="4"/><circle cx="818" cy="-154.07850143413532" r="20"/><circle cx="122" cy="-154.8700102010955" r="20"/><circle cx="74" cy="307.4545764325477" r="17"/><circle cx="146" cy="-181.2571761426234" r="6"/><circle cx="916" cy="-190.1843001628265" r="18"/><circle cx="24" cy="230.82331549386822" r="7"/><circle cx="479" cy="-112.36515583786434" r="23"/><circle cx="835" cy="-313.6426845705686" r="13"/><circle cx="1017" cy="-228.2232576929714" r="13"/><circle cx="609" cy="-147.29826194260647" r="24"/><circle cx="323" cy="-144.24303672442704" r="8"/><circle cx="259" cy="-262.7150499567624" r="16"/><circle cx="1041" cy="-174.13091500082112" r="6"/><circle cx="501" cy="-142.96308290622858" r="22"/><circle style="fill:#110000" cx="757" cy="-309.4174536798462" r="17"/><circle cx="250" cy="148.69382369166647" r="20"/><circle style="fill:#ffffff" cx="25" cy="394.7344393113678" r="17"/><circle cx="978" cy="-310.34870578974574" r="21"/><circle cx="201" cy="-189.11081421484607" r="10"/><circle cx="946" cy="-58.20162380998306" r="24"/><circle cx="450" cy="-251.57975332396984" r="20"/><circle cx="993" cy="-26.24615726911543" r="12"/><circle cx="896" cy="-424.43230859239145" r="16"/><circle cx="50" cy="201.3266040359826" r="9"/><circle cx="616" cy="-89.72296494052136" r="25"/><circle style="fill:#66ccff" cx="1026" cy="-102.32159215872366" r="18"/><circle cx="694" cy="-373.58557159623" r="6"/><circle cx="449" cy="9.697577503305865" r="7"/><circle cx="1014" cy="-269.8549851786179" r="22"/><circle style="fill:#ffffff" cx="969" cy="-28.196215404403347" r="4"/><circle cx="752" cy="-382.59133961979285" r="11"/><circle cx="605" cy="14.523224756342415" r="7"/><circle cx="622" cy="-287.93131193405475" r="18"/><circle cx="391" cy="-139.0600122379907" r="11"/><circle cx="56" cy="91.19903250914916" r="16"/><circle cx="632" cy="-218.91955432678697" r="16"/><circle cx="257" cy="-21.74868732332436" r="24"/><circle cx="318" cy="-252.29822106376764" r="26"/><circle cx="402" cy="-251.51864949023116" r="13"/><circle style="fill:#c16100" cx="851" cy="-383.00878464904076" r="21"/><circle cx="638" cy="-187.09745432299087" r="14"/><circle cx="699" cy="-28.480479642229625" r="17"/><circle cx="989" cy="-52.74298744190082" r="5"/><circle cx="108" cy="78.32479340930092" r="16"/><circle cx="915" cy="-164.04813395000258" r="13"/><circle cx="86" cy="15.720373639687637" r="5"/><circle cx="230" cy="46.08818802332519" r="14"/><circle cx="53" cy="244.0627928915937" r="10"/><circle cx="378" cy="21.155167019990927" r="12"/><circle cx="254" cy="-109.2849504816013" r="18"/><circle cx="748" cy="-361.92648388145824" r="26"/><circle cx="779" cy="-242.98869193775886" r="22"/><circle cx="446" cy="-182.46670882746753" r="25"/><circle cx="286" cy="5.923181663315972" r="4"/><circle cx="434" cy="-78.06667564991051" r="15"/><circle cx="950" cy="-342.72761680742735" r="10"/><circle cx="541" cy="-225.5386255862736" r="8"/><circle cx="946" cy="-258.20162380998306" r="13"/><circle cx="610" cy="-78.5027905454117" r="15"/><circle cx="975" cy="-273.9657249802367" r="5"/><circle cx="735" cy="-31.740882353682764" r="5"/><circle cx="950" cy="-102.72761680742735" r="14"/><circle cx="265" cy="-4.56998745272233" r="4"/><circle style="fill:#ffffff" cx="426" cy="-25.747350042796484" r="11"/><circle cx="651" cy="-297.6120190545015" r="16"/><circle cx="544" cy="-134.22799225794301" r="8"/><circle cx="530" cy="-275.9778227281075" r="10"/><circle cx="1025" cy="-354.20003178298134" r="4"/><circle cx="158" cy="53.89611622398343" r="19"/><circle cx="637" cy="-224.90190894101875" r="20"/><circle cx="233" cy="-244.52730096225343" r="6"/><circle cx="805" cy="-352.0814383659849" r="4"/><circle cx="486" cy="30.82627132473374" r="21"/><circle cx="401" cy="26.791836736141704" r="11"/><circle cx="556" cy="-35.947958097837045" r="17"/><circle cx="788" cy="-138.4206686268068" r="6"/><circle cx="688" cy="-222.50313218646795" r="14"/><circle cx="567" cy="-239.39017638460007" r="16"/><circle cx="212" cy="-241.75287765917665" r="20"/><circle cx="511" cy="-142.4268025319335" r="9"/><circle cx="88" cy="-19.145503275826286" r="8"/><circle cx="383" cy="88.51703365198898" r="18"/><circle cx="663" cy="-336.8889801726216" r="23"/><circle cx="661" cy="-181.51236310233833" r="4"/><circle cx="266" cy="16.960482216509718" r="17"/><circle style="fill:#c16100" cx="247" cy="39.19879354496186" r="20"/><circle cx="785" cy="-389.9451684109506" r="20"/><circle style="fill:#be6700" cx="19" cy="447.94577915659016" r="14"/><circle cx="772" cy="-311.8634475624697" r="4"/><circle cx="255" cy="-107.77477490530953" r="25"/><circle cx="373" cy="-119.18488627698855" r="10"/><circle cx="913" cy="-13.775354507580914" r="14"/><circle cx="726" cy="19.794991145297217" r="22"/><circle cx="629" cy="-259.3264041730845" r="18"/><circle style="fill:#be6700" cx="905" cy="-24.67822834617664" r="19"/><circle cx="750" cy="-224.25935498830972" r="21"/><circle cx="746" cy="-124.59272155237363" r="5"/><circle cx="847" cy="-236.4214565640367" r="8"/><circle cx="612" cy="-195.91084379173992" r="21"/><circle cx="414" cy="-1.1853889923111183" r="7"/><circle cx="133" cy="-51.63168250810509" r="10"/><circle style="fill:#ffffff" cx="842" cy="-211.6833836238153" r="9"/><circle style="fill:#b1a89e" cx="355" cy="-91.01911643175117" r="26"/><circle style="fill:#be6700" cx="199" cy="26.13579772811363" r="25"/><circle cx="284" cy="133.79799336179462" r="21"/><circle cx="59" cy="79.69354840685247" r="10"/><circle cx="747" cy="-240.7597144178627" r="10"/><circle cx="537" cy="-200.61349959315476" r="19"/><circle cx="221" cy="31.064198507354604" r="24"/><circle cx="782" cy="-238.4678475133759" r="18"/><circle cx="360" cy="-181.76264353042404" r="9"/><circle cx="456" cy="-33.23090534954167" r="17"/><circle cx="476" cy="23.418051903517153" r="25"/><circle cx="372" cy="-90.85022794057659" r="24"/><circle cx="395" cy="-86.32882884494757" r="9"/><circle cx="313" cy="28.677417044407775" r="19"/><circle cx="256" cy="2.73731779691866" r="20"/><circle cx="992" cy="-297.120555086756" r="5"/><circle cx="499" cy="-64.46444161958982" r="18"/><circle cx="919" cy="-301.5919086636793" r="14"/><circle cx="830" cy="-221.8939726776115" r="10"/><circle cx="63" cy="0.516180975352313" r="8"/><circle cx="832" cy="-23.19399726393931" r="13"/><circle cx="811" cy="-343.0071368433196" r="24"/><circle cx="63" cy="96.51618097535231" r="18"/><circle cx="939" cy="-78.27576163556841" r="22"/><circle cx="1022" cy="-198.8346378073187" r="5"/><circle cx="575" cy="-307.1367570456058" r="17"/><circle cx="537" cy="-241.61349959315476" r="22"/><circle cx="484" cy="-304.6596654501118" r="21"/><circle cx="55" cy="103.44522220601317" r="20"/><circle style="fill:#66ccff" cx="886" cy="-354.0331900287265" r="22"/><circle cx="965" cy="-423.68055735601536" r="9"/><circle cx="790" cy="-235.73666412033276" r="4"/><circle style="fill:#be6700" cx="387" cy="-200.77814844487966" r="13"/><circle cx="634" cy="-45.313425603724454" r="12"/><circle cx="679" cy="-321.86164336429977" r="20"/><circle cx="865" cy="-273.04291157167904" r="6"/><circle cx="68" cy="51.99551356821246" r="25"/><circle cx="978" cy="-271.34870578974574" r="5"/><circle cx="600" cy="-281.4422451947639" r="24"/><circle cx="126" cy="238.10834569996712" r="17"/><circle cx="1014" cy="-332.8549851786179" r="15"/><circle style="fill:#110000" cx="295" cy="-109.93923193746366" r="25"/><circle cx="834" cy="-53.49330150242804" r="15"/><circle style="fill:#110000" cx="537" cy="-167.61349959315476" r="25"/><circle cx="967" cy="-246.938653008139" r="4"/><circle cx="288" cy="-123.94553373687836" r="26"/><circle cx="15" cy="259.4140409757077" r="19"/><circle cx="330" cy="-28.91579174934816" r="5"/><circle cx="265" cy="119.43001254727767" r="24"/><circle cx="57" cy="-69.00739952338608" r="10"/><circle cx="585" cy="-154.28612331589682" r="4"/><circle cx="7" cy="493.4225383353048" r="12"/><circle cx="661" cy="-53.51236310233833" r="26"/><circle cx="163" cy="-170.98769183438424" r="19"/><circle style="fill:#66ccff" cx="111" cy="159.9092330279566" r="5"/><circle cx="257" cy="82.25131267667564" r="11"/><circle cx="1006" cy="-125.86757284431462" r="18"/><circle cx="457" cy="-124.50398356486642" r="4"/><circle style="fill:#66ccff" cx="14" cy="193.0147030599196" r="5"/><circle cx="425" cy="-118.45437656964953" r="20"/><circle cx="142" cy="-130.79417136282018" r="22"/><circle cx="313" cy="-208.32258295559222" r="5"/><circle cx="783" cy="-284.62715763786366" r="15"/><circle cx="354" cy="27.332534451491142" r="13"/><circle cx="902" cy="-169.26430381940486" r="17"/><circle cx="151" cy="15.545115627831251" r="25"/><circle cx="243" cy="-4.765893399881065" r="24"/><circle cx="248" cy="13.695115464014293" r="12"/><circle cx="914" cy="-147.9118188402515" r="5"/><circle cx="198" cy="113.76380991499173" r="8"/><circle cx="429" cy="-84.62216174127514" r="4"/><circle cx="375" cy="-151.85151971292453" r="6"/><circle cx="231" cy="-241.45263779434208" r="13"/><circle cx="1046" cy="-353.7282336110453" r="7"/><circle cx="124" cy="44.10295073939949" r="7"/><circle cx="645" cy="-307.45775010921955" r="26"/><circle cx="383" cy="-234.48296634801102" r="19"/><circle cx="376" cy="-168.18350434440777" r="21"/><circle cx="78" cy="-87.10799956698963" r="25"/><circle cx="325" cy="-152.0125463002605" r="22"/><circle cx="87" cy="1.2791997220888334" r="20"/><circle cx="244" cy="-114.2778454764807" r="25"/><circle cx="644" cy="-309.2643285724391" r="5"/><circle cx="990" cy="-353.86897042932446" r="16"/><circle cx="837" cy="-343.9409147497588" r="9"/><circle cx="147" cy="-129.1081020093667" r="16"/><circle cx="376" cy="-66.18350434440777" r="17"/><circle cx="997" cy="-349.7473042975953" r="25"/><circle cx="524" cy="-52.55852668972352" r="4"/><circle cx="755" cy="-209.08766471648494" r="12"/><circle cx="546" cy="-15.685461231684826" r="19"/><circle cx="62" cy="285.5107860147847" r="26"/><circle cx="736" cy="-5.910372733899408" r="10"/><circle cx="789" cy="-83.57876649891125" r="25"/><circle cx="38" cy="300.53794388120497" r="10"/><circle cx="975" cy="-174.9657249802367" r="12"/><circle cx="652" cy="-38.80336238515463" r="15"/><circle cx="703" cy="-75.19180913547711" r="22"/><circle cx="952" cy="-35.98978337186793" r="19"/><circle cx="502" cy="-159.21165757572192" r="24"/><circle cx="289" cy="-39.37763176203441" r="23"/><circle style="fill:#c16100" cx="163" cy="-89.98769183438424" r="11"/><circle cx="1043" cy="-409.37018600603585" r="14"/><circle cx="230" cy="-133.9118119766748" r="18"/><circle style="fill:#b1a89e" cx="129" cy="-139.82496976490347" r="16"/><circle cx="851" cy="-228.00878464904076" r="11"/><circle cx="254" cy="-91.2849504816013" r="5"/><circle cx="162" cy="-146.22054999528996" r="26"/><circle cx="935" cy="-145.74359367500404" r="11"/><circle cx="759" cy="-171.74637248662032" r="6"/><circle cx="594" cy="-48.18936876498458" r="18"/><circle cx="2" cy="388.5921647246148" r="14"/><circle style="fill:#0d004c" cx="774" cy="-195.18598372026486" r="8"/><circle cx="355" cy="-236.01911643175117" r="8"/><circle cx="164" cy="58.249858354880644" r="17"/><circle cx="249" cy="-71.8065357378864" r="19"/><circle cx="676" cy="-64.30964177402689" r="23"/><circle cx="473" cy="-194.79378853459787" r="18"/><circle cx="924" cy="-241.26830834511247" r="5"/><circle cx="451" cy="-95.85646854401978" r="23"/><circle cx="478" cy="66.89536704785598" r="5"/><circle cx="876" cy="-243.61819009798478" r="5"/><circle cx="71" cy="206.61366391256502" r="7"/><circle cx="282" cy="130.67898752638644" r="10"/><circle cx="332" cy="6.330972391319506" r="4"/><circle cx="710" cy="-118.42695170713637" r="26"/><circle cx="671" cy="-66.38417237538101" r="22"/><circle cx="565" cy="-32.949680677335095" r="9"/><circle cx="55" cy="75.44522220601317" r="18"/><circle cx="836" cy="-351.79188884385087" r="19"/><circle cx="643" cy="-66.07060645816898" r="6"/><circle cx="538" cy="-194.8454255306492" r="9"/><circle cx="411" cy="-159.2787656838285" r="8"/><circle style="fill:#b1a89e" cx="897" cy="-272.571360648578" r="15"/><circle cx="814" cy="-76.467421017123" r="5"/><circle cx="452" cy="-63.1325708837893" r="16"/><circle cx="507" cy="58.552850096767315" r="25"/><circle style="fill:#0d004c" cx="505" cy="17.045578625388657" r="13"/><circle cx="809" cy="-330.6993338339869" r="5"/><circle cx="235" cy="-237.59277886256825" r="11"/><circle cx="295" cy="-278.93923193746366" r="6"/><circle style="fill:#110000" cx="598" cy="-257.02601724398687" r="6"/><circle cx="791" cy="-221.8943619977142" r="13"/><circle cx="342" cy="-237.36841347874747" r="8"/><circle cx="806" cy="-78.23619959684345" r="20"/><circle cx="88" cy="208.8544967241737" r="13"/><circle cx="648" cy="-10.036220546060349" r="16"/><circle cx="714" cy="-206.12729150107384" r="22"/><circle style="fill:#be6700" cx="713" cy="-180.95257506680366" r="13"/><circle cx="959" cy="-114.90304866854763" r="15"/><circle cx="107" cy="167.48443112460245" r="15"/><circle cx="641" cy="-359.682256750183" r="13"/><circle cx="34" cy="266.4033488435976" r="23"/><circle cx="22" cy="454.6701672749441" r="7"/><circle cx="737" cy="-71.07963298454047" r="26"/><circle cx="643" cy="-228.07060645816898" r="22"/><circle cx="755" cy="-374.08766471648494" r="11"/><circle cx="555" cy="-243.7235473163595" r="7"/><circle cx="873" cy="-22.190539059556954" r="7"/><circle cx="660" cy="-274.32362702473336" r="21"/><circle cx="581" cy="-146.4308187226054" r="8"/><circle cx="927" cy="-165.67239348157602" r="19"/><circle cx="511" cy="32.573197468066496" r="13"/><circle cx="661" cy="-245.51236310233833" r="12"/><circle style="fill:#be6700" cx="901" cy="-60.126022989423404" r="9"/><circle cx="378" cy="-27.844832980009073" r="8"/><circle cx="25" cy="230.7344393113678" r="17"/><circle cx="912" cy="-81.63874062492675" r="4"/><circle cx="1030" cy="-273.806651741325" r="4"/><circle cx="407" cy="-275.0595857417378" r="15"/><circle cx="676" cy="-175.3096417740269" r="23"/><circle cx="657" cy="-348.7556982271907" r="14"/><circle style="fill:#66ccff" cx="485" cy="-173.91696204392065" r="18"/><circle cx="378" cy="-185.84483298000907" r="19"/><circle cx="165" cy="-117.50795647396296" r="22"/><circle style="fill:#ffffff" cx="508" cy="-266.6927857569865" r="15"/><circle cx="342" cy="-48.36841347874747" r="22"/><circle cx="598" cy="-127.02601724398687" r="9"/><circle cx="1011" cy="-409.48562148484984" r="4"/><circle style="fill:#cdcaa2" cx="486" cy="-20.17372867526626" r="22"/><circle cx="374" cy="-93.51864860607304" r="17"/><circle cx="379" cy="-174.17418629033568" r="16"/><circle cx="388" cy="-265.09985225037485" r="22"/><circle style="fill:#66ccff" cx="563" cy="25.49237707471309" r="26"/><circle cx="110" cy="198.03738693062803" r="15"/><circle cx="438" cy="-27.210354822599697" r="10"/><circle cx="465" cy="-299.6673377341224" r="15"/><circle cx="371" cy="-32.51466877310145" r="14"/><circle style="fill:#cdcaa2" cx="350" cy="-11.250857628712652" r="6"/><circle cx="483" cy="-33.401836701644925" r="5"/><circle cx="466" cy="7.0648637623613695" r="16"/><circle cx="616" cy="-377.72296494052136" r="5"/><circle cx="881" cy="-410.3276977357833" r="12"/><circle cx="887" cy="-145.17381063635696" r="15"/><circle style="fill:#be6700" cx="199" cy="-44.86420227188637" r="18"/><circle cx="614" cy="-96.31756570374057" r="25"/><circle cx="328" cy="-268.15797692050455" r="4"/><circle cx="642" cy="-15.876582830759048" r="25"/><circle cx="316" cy="18.48828094859823" r="7"/><circle cx="907" cy="-199.9534164390443" r="15"/><circle cx="389" cy="-181.42072798853098" r="18"/><circle cx="586" cy="-279.4990356741363" r="16"/><circle cx="266" cy="-113.03951778349028" r="19"/><circle style="fill:#110000" cx="360" cy="-249.76264353042404" r="17"/><circle cx="369" cy="-176.84082845430146" r="24"/><circle cx="9" cy="258.0936426400476" r="21"/><circle cx="863" cy="-395.75434626818276" r="21"/><circle cx="288" cy="-232.94553373687836" r="25"/><circle cx="931" cy="-268.2091441728004" r="12"/><circle cx="640" cy="30.512372727987668" r="10"/><circle cx="687" cy="-294.3218082920324" r="19"/><circle cx="797" cy="-90.83638276844522" r="13"/><circle cx="725" cy="-117.03318228656724" r="20"/><circle cx="356" cy="-201.36977814101976" r="24"/><circle cx="573" cy="-31.702400663844173" r="19"/><circle cx="278" cy="1.459877177548151" r="12"/><circle style="fill:#cdcaa2" cx="946" cy="-320.20162380998306" r="16"/><circle cx="307" cy="66.09026957164463" r="8"/><circle style="fill:#ffffff" cx="168" cy="-141.75414617082697" r="24"/><circle cx="728" cy="-39.54795310247903" r="18"/><circle style="fill:#cdcaa2" cx="854" cy="-330.4474718657908" r="10"/><circle cx="792" cy="-133.05186063577867" r="25"/><circle cx="154" cy="-101.9072943897512" r="23"/><circle cx="201" cy="25.889185785153927" r="20"/><circle cx="1018" cy="-37.34577382612099" r="8"/><circle cx="877" cy="-377.7604150483188" r="5"/><circle cx="827" cy="-149.44257753583327" r="4"/><circle style="fill:#110000" cx="497" cy="-297.9637977521303" r="11"/><circle cx="398" cy="4.727962452728434" r="10"/><circle cx="405" cy="-72.44549506422095" r="17"/><circle style="fill:#66ccff" cx="172" cy="32.31253836430244" r="21"/><circle cx="665" cy="23.735537147578725" r="6"/><circle cx="101" cy="-104.32164103029515" r="5"/><circle cx="34" cy="349.4033488435976" r="22"/><circle cx="992" cy="-197.12055508675599" r="19"/><circle style="fill:#be6700" cx="8" cy="563.7764941738445" r="26"/><circle cx="563" cy="-27.50762292528691" r="19"/><circle cx="402" cy="26.481350509768845" r="12"/><circle cx="387" cy="-210.77814844487966" r="8"/><circle cx="643" cy="30.92939354183102" r="25"/><circle cx="99" cy="163.17164519037692" r="9"/><circle cx="774" cy="-301.18598372026486" r="4"/><circle cx="574" cy="-14.919768034429467" r="6"/><circle cx="679" cy="-196.86164336429977" r="8"/><circle cx="190" cy="-212.09483646311116" r="5"/><circle cx="133" cy="65.36831749189491" r="23"/><circle cx="529" cy="5.257607286052917" r="21"/><circle cx="594" cy="-373.1893687649846" r="7"/><circle cx="193" cy="-194.04777701169928" r="13"/><circle cx="307" cy="-26.909730428355374" r="10"/><circle cx="142" cy="15.20582863717982" r="26"/><circle cx="912" cy="-240.63874062492675" r="4"/><circle cx="685" cy="-208.9583673481685" r="14"/><circle cx="810" cy="-19.853330339606146" r="17"/><circle cx="491" cy="-44.44968818176119" r="19"/><circle cx="871" cy="-45.904621146498016" r="8"/><circle style="fill:#0d004c" cx="360" cy="74.23735646957596" r="21"/><circle cx="44" cy="68.26233199955897" r="25"/><circle cx="380" cy="15.49732826150364" r="17"/><circle cx="758" cy="-193.58202156572088" r="4"/><circle cx="820" cy="-100.38292198943554" r="23"/><circle cx="203" cy="-164.34508326263017" r="5"/><circle cx="288" cy="47.05446626312164" r="13"/><circle cx="336" cy="-104.16198144621217" r="20"/><circle cx="76" cy="52.13010860581983" r="5"/><circle cx="721" cy="-155.34349778631895" r="19"/><circle cx="376" cy="13.816495655592234" r="22"/><circle cx="338" cy="-154.9018064986417" r="10"/><circle cx="76" cy="-43.86989139418017" r="7"/><circle cx="245" cy="-107.78770367370669" r="8"/><circle cx="736" cy="-226.9103727338994" r="25"/><circle cx="627" cy="-39.92939697305678" r="22"/><circle cx="785" cy="-348.9451684109506" r="23"/><circle cx="69" cy="153.17562496305027" r="24"/><circle cx="766" cy="-398.8908016233962" r="25"/><circle cx="165" cy="35.49204352603704" r="16"/><circle cx="385" cy="-220.13223945868208" r="22"/><circle style="fill:#b1a89e" cx="168" cy="167.24585382917303" r="14"/><circle cx="340" cy="-273.63726677610373" r="9"/><circle cx="167" cy="70.99009577374761" r="7"/><circle style="fill:#c16100" cx="95" cy="-105.68700118772597" r="17"/><circle cx="937" cy="-301.0099616298671" r="23"/><circle cx="76" cy="55.13010860581983" r="18"/><circle cx="526" cy="-239.03342309432037" r="17"/><circle cx="571" cy="-64.26652555038584" r="20"/><circle cx="4" cy="520.1843294492296" r="9"/><circle cx="850" cy="-331.8622118450345" r="9"/><circle cx="768" cy="-79.21586088305764" r="26"/><circle style="fill:#0d004c" cx="165" cy="195.49204352603704" r="17"/><circle cx="260" cy="-179.1954365067147" r="8"/><circle cx="290" cy="-199.80823721763625" r="23"/><circle cx="1019" cy="-146.46816966849724" r="14"/><circle cx="375" cy="-290.8515197129245" r="21"/><circle cx="550" cy="-210.59539341368804" r="24"/><circle cx="981" cy="-422.73051360872114" r="7"/><circle cx="421" cy="-166.2755483484301" r="5"/><circle cx="880" cy="-131.18611889552744" r="8"/><circle cx="756" cy="-215.25266825539427" r="19"/><circle cx="733" cy="-190.4012086954424" r="14"/><circle cx="580" cy="-68.21607249302144" r="23"/><circle cx="123" cy="184.11235022567485" r="14"/><circle cx="757" cy="-32.417453679846176" r="23"/><circle cx="545" cy="-292.45693659308483" r="23"/><circle cx="435" cy="-222.35358062222735" r="5"/><circle style="fill:#110000" cx="134" cy="121.43452918974504" r="25"/><circle style="fill:#110000" cx="364" cy="-176.14011782709383" r="26"/><circle cx="846" cy="-340.27419115358975" r="14"/><circle cx="317" cy="45.09440967166074" r="25"/><circle cx="440" cy="-85.77828362014225" r="11"/><circle style="fill:#66ccff" cx="587" cy="-138.71158501027617" r="26"/><circle cx="546" cy="-6.685461231684826" r="14"/><circle cx="459" cy="-45.048351920945834" r="23"/><circle cx="150" cy="-183.62657464399365" r="17"/><circle cx="538" cy="-321.8454255306492" r="13"/><circle cx="699" cy="-173.48047964222962" r="23"/><circle cx="225" cy="68.82808195141536" r="19"/><circle cx="908" cy="-90.09078301541876" r="14"/><circle style="fill:#0d004c" cx="107" cy="-29.51556887539755" r="20"/><circle cx="568" cy="-285.60984191359057" r="16"/><circle cx="33" cy="216.1248238703531" r="24"/><circle style="fill:#66ccff" cx="167" cy="156.9900957737476" r="11"/><circle cx="85" cy="-111.82159622533334" r="12"/><circle cx="708" cy="-250.07530082389405" r="5"/><circle cx="679" cy="-224.86164336429977" r="4"/><circle cx="255" cy="28.225225094690472" r="18"/><circle cx="999" cy="-385.9971243319959" r="22"/><circle cx="843" cy="-22.831348217383606" r="12"/><circle style="fill:#66ccff" cx="297" cy="121.21846651040062" r="5"/><circle cx="860" cy="-231.32024198001363" r="21"/><circle cx="851" cy="-228.00878464904076" r="13"/><circle cx="166" cy="-88.26119233329553" r="10"/><circle cx="945" cy="-312.06977804894007" r="17"/><circle cx="795" cy="-156.52316613269863" r="5"/><circle cx="727" cy="-312.37659890993746" r="15"/><circle cx="236" cy="60.87787785608214" r="22"/><circle cx="975" cy="-133.9657249802367" r="19"/><circle cx="942" cy="-19.673402021995912" r="18"/><circle cx="585" cy="-234.28612331589682" r="21"/><circle cx="334" cy="-168.41773950163747" r="19"/><circle cx="551" cy="-212.82184244134487" r="18"/><circle style="fill:#0d004c" cx="822" cy="-134.6866009592137" r="20"/><circle cx="715" cy="-316.301763405615" r="6"/><circle cx="296" cy="-227.3610941182227" r="20"/><circle cx="1018" cy="-25.34577382612099" r="23"/><circle cx="593" cy="-187.97932633038" r="17"/><circle cx="196" cy="40.02940611983911" r="9"/><circle cx="259" cy="-232.7150499567624" r="22"/><circle style="fill:#b1a89e" cx="749" cy="-382.09303054009285" r="21"/><circle cx="851" cy="-16.008784649040763" r="5"/><circle cx="491" cy="-76.44968818176119" r="16"/><circle cx="1028" cy="-152.56435787409464" r="21"/><circle cx="557" cy="-293.17196562522224" r="14"/><circle cx="980" cy="-279.60337422447697" r="17"/><circle cx="874" cy="-329.3332524757685" r="21"/><circle cx="360" cy="-128.76264353042404" r="6"/><circle cx="619" cy="-363.32860251449813" r="26"/><circle cx="268" cy="64.02669391435984" r="23"/><circle cx="856" cy="-249.73907470155314" r="9"/><circle cx="335" cy="-231.79041587918596" r="16"/><circle cx="2" cy="417.5921647246148" r="10"/><circle cx="343" cy="-149.7323849940858" r="23"/><circle cx="157" cy="107.68761193336547" r="6"/><circle cx="449" cy="-110.30242249669413" r="25"/><circle cx="619" cy="-378.32860251449813" r="9"/><circle cx="577" cy="-19.569605242450507" r="7"/><circle style="fill:#be6700" cx="553" cy="-194.27351016532668" r="7"/><circle cx="955" cy="-262.38200232818406" r="20"/><circle cx="793" cy="-20.209160537338562" r="7"/><circle cx="405" cy="-145.44549506422095" r="19"/><circle cx="626" cy="-286.7304182309774" r="19"/><circle cx="676" cy="-372.3096417740269" r="13"/><circle cx="2" cy="623.5921647246148" r="8"/><circle cx="283" cy="18.237712179074606" r="5"/><circle style="fill:#cdcaa2" cx="85" cy="256.17840377466666" r="6"/><circle cx="686" cy="19.859779730529112" r="7"/><circle cx="459" cy="-29.048351920945834" r="18"/><circle cx="697" cy="-112.12328697536623" r="6"/><circle cx="347" cy="-238.17773632084482" r="19"/><circle cx="13" cy="497.25301438837175" r="24"/><circle cx="974" cy="-292.8378027982102" r="23"/><circle cx="147" cy="55.89189799063331" r="20"/><circle cx="612" cy="-240.91084379173992" r="20"/><circle cx="84" cy="201.65368910455823" r="8"/><circle cx="652" cy="-138.80336238515463" r="26"/><circle cx="90" cy="99.05302702034624" r="18"/><circle cx="294" cy="-203.51593728475189" r="6"/><circle cx="538" cy="-138.8454255306492" r="16"/><circle cx="186" cy="-56.442392665191505" r="16"/><circle cx="787" cy="-400.2623699954456" r="5"/><circle cx="215" cy="-140.50457142924324" r="10"/><circle cx="268" cy="-148.97330608564016" r="9"/><circle cx="780" cy="-313.1486151866909" r="18"/><circle cx="507" cy="-335.4471499032327" r="7"/><circle cx="709" cy="-225.25125026093122" r="14"/><circle cx="1035" cy="-320.4103340612421" r="13"/><circle cx="476" cy="-296.58194809648285" r="15"/><circle cx="474" cy="-147.05706245599288" r="21"/><circle cx="355" cy="-296.0191164317512" r="18"/><circle cx="154" cy="179.0927056102488" r="4"/><circle cx="723" cy="-363.6888169972867" r="25"/><circle cx="1008" cy="-399.11516012618836" r="18"/><circle cx="313" cy="101.67741704440778" r="17"/><circle cx="206" cy="93.82612860299116" r="23"/><circle cx="759" cy="-216.74637248662032" r="10"/><circle cx="970" cy="-221.32479731930584" r="12"/><circle style="fill:#110000" cx="177" cy="-59.25963027312366" r="13"/><circle cx="230" cy="15.088188023325188" r="23"/><circle cx="563" cy="-237.5076229252869" r="5"/><circle cx="881" cy="-80.32769773578332" r="7"/><circle cx="594" cy="-43.18936876498458" r="5"/><circle cx="591" cy="-129.5581767560127" r="22"/><circle cx="774" cy="-360.18598372026486" r="18"/><circle cx="613" cy="-308.11437062135053" r="20"/><circle cx="717" cy="-287.649976356735" r="18"/><circle cx="824" cy="-89.98954194777923" r="7"/><circle cx="486" cy="-245.17372867526626" r="23"/><circle cx="180" cy="-89.35480825503896" r="8"/><circle cx="1034" cy="-76.28983124330807" r="16"/><circle cx="685" cy="-153.9583673481685" r="20"/><circle cx="929" cy="-396.9410577136822" r="23"/><circle cx="867" cy="-230.3308104420105" r="12"/><circle style="fill:#b1a89e" cx="1016" cy="-373.1006210323717" r="17"/><circle cx="698" cy="-344.30201124317796" r="24"/><circle cx="423" cy="-127.86635587820456" r="26"/><circle cx="44" cy="293.26233199955897" r="8"/><circle cx="887" cy="-27.17381063635696" r="6"/><circle cx="989" cy="-265.7429874419008" r="17"/><circle cx="192" cy="129.59980966771275" r="17"/><circle cx="806" cy="-255.23619959684345" r="15"/><circle cx="128" cy="22.145153072303856" r="25"/><circle cx="608" cy="-63.09339722033576" r="14"/><circle style="fill:#cdcaa2" cx="777" cy="-367.6682286367386" r="6"/><circle cx="828" cy="-72.59322426769631" r="25"/><circle cx="133" cy="169.3683174918949" r="10"/><circle cx="823" cy="-317.8381634769056" r="9"/><circle cx="491" cy="-129.4496881817612" r="7"/><circle cx="848" cy="-213.56854820994704" r="8"/><circle cx="315" cy="-292.11659936896376" r="20"/><circle cx="982" cy="-308.8575234571464" r="26"/><circle cx="491" cy="43.55031181823881" r="14"/><circle cx="269" cy="-271.437590255264" r="13"/><circle cx="604" cy="-98.27055492293914" r="8"/><circle cx="241" cy="15.264361682689582" r="15"/><circle style="fill:#110000" cx="710" cy="-88.42695170713637" r="11"/><circle cx="165" cy="-122.50795647396296" r="7"/><circle cx="1031" cy="-150.92762230438007" r="9"/><circle cx="557" cy="-286.17196562522224" r="23"/><circle cx="58" cy="277.8245431266799" r="20"/><circle style="fill:#110000" cx="63" cy="-75.48381902464769" r="24"/><circle cx="957" cy="-398.64279772758186" r="8"/><circle cx="342" cy="-95.36841347874747" r="16"/><circle cx="52" cy="133.43734383760142" r="13"/><circle cx="232" cy="101.00887257590944" r="25"/><circle cx="978" cy="-95.34870578974574" r="9"/><circle cx="381" cy="-137.8302938861924" r="7"/><circle cx="237" cy="117.35077281939232" r="7"/><circle cx="870" cy="-159.76141589761255" r="15"/><circle cx="131" cy="-71.74285613895313" r="24"/><circle cx="599" cy="-26.234304937298702" r="9"/><circle cx="867" cy="-195.3308104420105" r="25"/><circle cx="108" cy="217.32479340930092" r="10"/><circle cx="438" cy="-94.2103548225997" r="22"/><circle cx="324" cy="25.371614729324847" r="7"/><circle cx="869" cy="-201.61804595030208" r="21"/><circle cx="235" cy="108.40722113743175" r="19"/><circle cx="484" cy="-29.65966545011179" r="20"/><circle cx="764" cy="-117.56489253463826" r="6"/><circle cx="256" cy="-112.26268220308134" r="9"/><circle cx="81" cy="-91.81271471990487" r="19"/><circle style="fill:#be6700" cx="998" cy="-210.87227689497502" r="26"/><circle cx="581" cy="-346.4308187226054" r="4"/><circle cx="681" cy="-390.22829114462456" r="21"/><circle cx="341" cy="-303.0033761595008" r="6"/><circle cx="584" cy="-58.072846693393785" r="14"/><circle cx="778" cy="-322.8285632639162" r="9"/><circle cx="740" cy="-279.5860391871536" r="4"/><circle cx="881" cy="-368.3276977357833" r="10"/><circle cx="572" cy="-291.4846536120692" r="18"/><circle cx="769" cy="-382.3780732097141" r="11"/><circle cx="774" cy="-355.18598372026486" r="26"/><circle cx="688" cy="-311.50313218646795" r="23"/><circle cx="918" cy="-405.45618719633103" r="26"/><circle cx="574" cy="-132.91976803442947" r="6"/><circle style="fill:#cdcaa2" cx="301" cy="-239.44925274962247" r="19"/><circle cx="88" cy="75.85449672417371" r="19"/><circle cx="317" cy="-120.90559032833926" r="26"/><circle cx="209" cy="56.02378170691941" r="10"/><circle cx="647" cy="-76.8436951711974" r="4"/><circle cx="272" cy="-119.82015698255793" r="4"/><circle style="fill:#0d004c" cx="327" cy="-25.77733492874495" r="10"/><circle cx="776" cy="-236.50768752576005" r="14"/><circle cx="581" cy="-212.4308187226054" r="20"/><circle cx="400" cy="-151.89690179017293" r="11"/><circle cx="431" cy="-172.20197746304643" r="12"/><circle cx="24" cy="102.82331549386822" r="10"/><circle cx="42" cy="210.06152437994336" r="9"/><circle cx="295" cy="118.06076806253634" r="19"/><circle cx="403" cy="-319.82836432145825" r="20"/><circle cx="492" cy="-109.70332032509555" r="11"/><circle cx="618" cy="-107.12705007698503" r="16"/><circle cx="254" cy="-229.2849504816013" r="15"/><circle cx="298" cy="91.79944038327426" r="17"/><circle cx="885" cy="-277.89241061743985" r="5"/><circle cx="16" cy="158.36865889845933" r="20"/><circle cx="919" cy="-207.5919086636793" r="18"/><circle cx="211" cy="63.836533157279405" r="5"/><circle cx="864" cy="-24.898712416854437" r="20"/><circle cx="876" cy="-70.61819009798478" r="9"/><circle cx="208" cy="-188.37832671316892" r="6"/><circle cx="113" cy="18.683099666981093" r="4"/><circle style="fill:#110000" cx="634" cy="-30.313425603724454" r="15"/><circle cx="1032" cy="-111.04847559105895" r="7"/><circle style="fill:#c16100" cx="160" cy="27.32804327875806" r="25"/><circle cx="802" cy="-220.6159985392435" r="19"/><circle cx="87" cy="32.27919972208883" r="26"/><circle cx="762" cy="-370.2381291615776" r="6"/><circle cx="200" cy="44.51093348521226" r="11"/><circle cx="246" cy="86.70451495028965" r="23"/><circle cx="175" cy="23.15697764667243" r="24"/><circle style="fill:#110000" cx="638" cy="-132.09745432299087" r="17"/><circle cx="227" cy="-217.2751124646485" r="13"/><circle style="fill:#be6700" cx="286" cy="-129.07681833668403" r="14"/><circle cx="279" cy="-151.9877360697825" r="16"/><circle cx="444" cy="-160.9064375228138" r="23"/><circle cx="507" cy="-294.4471499032327" r="21"/><circle style="fill:#66ccff" cx="340" cy="117.36273322389627" r="26"/><circle cx="438" cy="-45.2103548225997" r="12"/><circle style="fill:#110000" cx="621" cy="-220.73073239690223" r="24"/><circle cx="441" cy="-220.06128068934288" r="16"/><circle cx="750" cy="-118.25935498830972" r="13"/><circle cx="489" cy="-23.94087051436054" r="9"/><circle cx="751" cy="-217.4254578182755" r="24"/><circle cx="775" cy="-63.34693939846238" r="8"/><circle cx="809" cy="-35.699333833986884" r="13"/><circle cx="202" cy="64.27052369431965" r="11"/><circle cx="736" cy="-283.9103727338994" r="8"/><circle cx="49" cy="254.84507667060956" r="18"/><circle cx="676" cy="-36.309641774026886" r="21"/><circle cx="64" cy="85.55298834768905" r="5"/><circle cx="512" cy="-85.67051747846654" r="17"/><circle cx="334" cy="-132.41773950163747" r="20"/><circle cx="927" cy="-324.672393481576" r="9"/><circle cx="917" cy="-181.32031780364844" r="6"/><circle style="fill:#0d004c" cx="786" cy="-272.1038700943145" r="14"/><circle cx="82" cy="281.65769363026584" r="23"/><circle cx="1013" cy="-359.7319855086039" r="8"/><circle cx="862" cy="-68.60981273843163" r="14"/><circle cx="289" cy="-20.37763176203441" r="9"/><circle style="fill:#ffffff" cx="301" cy="-88.44925274962247" r="6"/><circle cx="569" cy="-254.82912104743173" r="19"/><circle cx="519" cy="36.63669009266084" r="18"/><circle cx="861" cy="-131.46511143902046" r="18"/><circle cx="446" cy="-189.46670882746753" r="7"/><circle cx="258" cy="-53.232805040288554" r="17"/><circle cx="60" cy="129.59837042493734" r="11"/><circle style="fill:#be6700" cx="991" cy="-331.99482622542166" r="7"/><circle cx="383" cy="-79.48296634801102" r="17"/><circle cx="420" cy="58.02090876024204" r="21"/><circle cx="515" cy="44.60118353406017" r="6"/><circle cx="105" cy="3.8365793110124287" r="9"/><circle cx="827" cy="-186.44257753583327" r="8"/><circle cx="284" cy="-82.20200663820538" r="17"/><circle cx="346" cy="-242.81796650274805" r="7"/><circle cx="460" cy="46.68035274793999" r="7"/><circle cx="548" cy="-26.14125755462271" r="19"/><circle cx="456" cy="-182.23090534954167" r="18"/><circle cx="542" cy="-57.76883831180271" r="17"/><circle cx="198" cy="-62.236190085008275" r="26"/><circle style="fill:#b1a89e" cx="134" cy="161.43452918974504" r="20"/><circle style="fill:#cdcaa2" cx="454" cy="-109.68294774003357" r="19"/><circle cx="243" cy="-243.76589339988107" r="14"/><circle cx="907" cy="-126.9534164390443" r="16"/><circle cx="231" cy="65.54736220565792" r="26"/><circle cx="519" cy="-190.36330990733916" r="25"/><circle cx="701" cy="-136.83665175722592" r="22"/><circle cx="868" cy="-120.4745109252957" r="22"/><circle cx="212" cy="20.247122340823353" r="19"/><circle cx="200" cy="-57.48906651478774" r="21"/><circle cx="-5" cy="180.5" r="20"/><circle cx="9" cy="31.5" r="16"/><circle cx="7" cy="300.5" r="24"/><circle cx="-10" cy="41.5" r="9"/><circle cx="-4" cy="276.5" r="6"/><circle cx="-7" cy="155.5" r="11"/><circle cx="-4" cy="287.5" r="16"/><circle cx="6" cy="212.5" r="20"/><circle cx="-5" cy="124.5" r="17"/><circle cx="3" cy="157.5" r="26"/><circle cx="-8" cy="56.5" r="26"/><circle cx="10" cy="138.5" r="12"/><circle cx="-7" cy="252.5" r="23"/><circle cx="3" cy="194.5" r="4"/><circle cx="1" cy="403.5" r="14"/><circle cx="-10" cy="342.5" r="20"/><circle cx="0" cy="218.5" r="14"/><circle cx="-6" cy="287.5" r="9"/><circle cx="3" cy="297.5" r="22"/><circle cx="-9" cy="97.5" r="21"/><circle cx="7" cy="367.5" r="24"/><circle cx="-7" cy="-21.5" r="24"/><circle cx="-3" cy="400.5" r="15"/><circle cx="-4" cy="238.5" r="4"/><circle cx="2" cy="47.5" r="5"/><circle style="fill:#c16100" cx="-1" cy="-30.5" r="4"/><circle cx="-3" cy="263.5" r="26"/><circle cx="-2" cy="-86.5" r="21"/><circle cx="3" cy="-51.5" r="7"/><circle cx="-7" cy="29.5" r="9"/><circle cx="-9" cy="491.5" r="22"/><circle cx="-2" cy="164.5" r="6"/><circle cx="-5" cy="83.5" r="24"/><circle cx="2" cy="313.5" r="14"/><circle cx="-9" cy="99.5" r="19"/><circle cx="-1" cy="355.5" r="17"/><circle cx="2" cy="244.5" r="14"/><circle cx="-1" cy="333.5" r="25"/><circle cx="-4" cy="276.5" r="5"/><circle cx="-7" cy="249.5" r="10"/><circle cx="4" cy="442.5" r="9"/><circle cx="9" cy="95.5" r="17"/><circle cx="7" cy="0.5" r="5"/><circle cx="-8" cy="22.5" r="22"/><circle cx="0" cy="227.5" r="11"/><circle cx="4" cy="255.5" r="16"/><circle cx="-7" cy="202.5" r="4"/><circle cx="-5" cy="96.5" r="8"/><circle cx="7" cy="445.5" r="20"/><circle cx="6" cy="116.5" r="15"/><circle cx="9" cy="116.5" r="9"/><circle cx="-4" cy="519.5" r="15"/><circle cx="-10" cy="144.5" r="10"/><circle cx="8" cy="245.5" r="11"/><circle cx="0" cy="81.5" r="21"/><circle cx="-3" cy="-68.5" r="11"/><circle cx="4" cy="521.5" r="15"/><circle cx="6" cy="149.5" r="16"/><circle cx="-8" cy="429.5" r="7"/><circle cx="1" cy="-22.5" r="12"/><circle cx="-1" cy="-34.5" r="6"/><circle cx="-2" cy="277.5" r="7"/><circle cx="-9" cy="-63.5" r="7"/><circle cx="-8" cy="609.5" r="6"/><circle cx="8" cy="266.5" r="21"/><circle cx="-9" cy="559.5" r="18"/><circle cx="-5" cy="222.5" r="10"/><circle cx="4" cy="222.5" r="23"/><circle cx="-8" cy="238.5" r="15"/><circle cx="-7" cy="84.5" r="23"/><circle cx="2" cy="175.5" r="21"/><circle cx="0" cy="315.5" r="11"/><circle cx="3" cy="173.5" r="8"/><circle cx="-6" cy="221.5" r="13"/><circle cx="10" cy="-47.5" r="13"/><circle cx="6" cy="115.5" r="19"/><circle cx="-6" cy="517.5" r="6"/><circle cx="-8" cy="144.5" r="19"/><circle cx="-3" cy="-156.5" r="25"/><circle cx="-1" cy="-6.5" r="24"/><circle cx="-1" cy="72.5" r="12"/><circle cx="0" cy="186.5" r="18"/><circle cx="-2" cy="206.5" r="25"/><circle style="fill:#b1a89e" cx="-2" cy="16.5" r="24"/><circle cx="-6" cy="531.5" r="7"/><circle cx="2" cy="-82.5" r="5"/><circle cx="3" cy="440.5" r="19"/><circle cx="4" cy="357.5" r="19"/><circle cx="-10" cy="24.5" r="23"/><circle cx="-10" cy="-40.5" r="15"/><circle cx="4" cy="121.5" r="4"/><circle cx="-1" cy="25.5" r="16"/><circle cx="8" cy="114.5" r="4"/><circle cx="5" cy="-101.5" r="10"/><circle cx="1" cy="119.5" r="17"/><circle cx="-7" cy="216.5" r="19"/><circle cx="3" cy="-155.5" r="19"/><circle cx="-9" cy="454.5" r="11"/><circle cx="-2" cy="102.5" r="19"/></svg>