<?xml version="1.0" encoding="UTF-8"?>
<svg version="1.1" viewBox="0 0 300 300" xmlns="http://www.w3.org/2000/svg">
<title>Autotrack</title>
<desc>Created with Sketch.</desc>
<g fill="#070808" fill-rule="evenodd">
<g transform="translate(69 40)">
<path d="m81.273 72.344h-37.016c3.1061-6.6416 5.8884-16.114 9.4769-22.643 0.25142-0.45765 1.0099-1.5017 1.555-1.7392h51.424c0.5408 0.23758 1.3032 1.2816 1.5546 1.7392 3.5846 6.5293 6.3711 16.001 9.4749 22.643h-36.469zm24.923 23.024c-3.9328 0-7.1199-3.2028-7.1199-7.1463 0-3.949 3.1871-7.1459 7.1199-7.1459 3.9305 0 7.1199 3.197 7.1199 7.1459 0 3.9435-3.1894 7.1463-7.1199 7.1463zm-52.645 0c-3.9305 0-7.1199-3.2028-7.1199-7.1463 0-3.949 3.1894-7.1459 7.1199-7.1459 3.9328 0 7.1199 3.197 7.1199 7.1459 0 3.9435-3.1871 7.1463-7.1199 7.1463zm79.461-28.741h-5.8617c-1.3071 0-2.4875 0.51637-3.3765 1.3407-3.2196-7.1844-7.4585-18.31-9.8573-22.682-1.0684-1.95-3.2475-4.3063-5.6668-4.2853h-54.502c-2.4193-0.020997-4.5984 2.3353-5.6672 4.2853-2.4003 4.3724-6.6357 15.498-9.8569 22.682-0.89101-0.82432-2.0695-1.3407-3.3765-1.3407h-5.8601c-2.7559 0-4.9881 2.2385-4.9881 5.0047 0 2.7665 2.2322 5.0066 4.9881 5.0066h5.2302c-0.0077479 0.017109-0.015108 0.034217-0.022856 0.051326v18.502c-0.0034866 0.13687-0.015108 0.27529-0.015108 0.41761 0 0.13881 0.011622 0.27179 0.015108 0.41022v0.21658l0.0077479 0.0073879c0.19873 5.9048 3.1495 10.6 6.7717 10.6 0.020919 0 0.039902-0.003888 0.039902-0.003888-0.018982 0.24108-0.053073 0.49187-0.053073 0.75006v9.7966c0 2.5461 2.0582 4.6139 4.593 4.6139h4.2788c2.5363 0 4.5945-2.0678 4.5945-4.6139v-9.7966c0-0.27529-0.034091-0.53542-0.079416-0.7936l0.73373-0.003889h51.833l0.73218 0.003889c-0.041839 0.25818-0.075542 0.51831-0.075542 0.7936v9.7966c0 2.5461 2.0578 4.6139 4.5964 4.6139h4.2749c2.5347 0 4.5945-2.0678 4.5945-4.6139v-9.7966c0-0.25818-0.03409-0.50509-0.073605-0.74617h0.024406c3.7531 0 6.7965-5.0311 6.7965-11.234 0-0.050937-0.007361-0.10226-0.007361-0.15553l0.026343-18.764c-0.003874-0.017109-0.017045-0.034217-0.024406-0.051326h5.2337c2.7505 0 4.9866-2.2401 4.9866-5.0066 0-2.7661-2.236-5.0047-4.9866-5.0047z"/>
<path d="m81.501 151.59c-38.71 0-70.091-31.38-70.091-70.09 0-38.71 31.381-70.092 70.091-70.092 38.708 0 70.089 31.381 70.089 70.092 0 38.71-31.381 70.09-70.089 70.09m81.499-70.096c0-45.01-36.487-81.495-81.497-81.495-45.012 0-81.503 36.486-81.503 81.495 0 45.021 36.491 81.505 81.503 81.505h70.079c6.2818 0 11.418-5.1384 11.418-11.417v-70.088"/>
</g>
<g transform="translate(49 239)">
<path d="m11.094 19.711h10.465l-5.401-12.241h0.015418l-5.0791 12.241zm3.3759-19.711h3.3826l15.147 34h-5.2872l-4.36-10.025h-14.048l-4.0826 10.025h-5.2225l14.47-34z"/>
<path d="m41.479 26.029c0 1.7111 0.37846 3.0156 1.1329 3.911 0.75445 0.89604 1.8453 1.3446 3.2726 1.3446 1.854 0 3.5855-0.96139 5.1933-2.8848l0.44278-0.53738v-15.863h4.4797v22.487h-4.4797v-3.2266c-2.1162 2.4932-4.2818 3.7394-6.4969 3.7394-2.6257 0-4.6182-0.79102-5.9799-2.3709-1.3622-1.5816-2.0434-3.8948-2.0434-6.9415v-13.688h4.4787v14.029"/>
<path d="m77 33.606c-1.2683 0.92882-3.0135 1.3942-5.233 1.3942-2.4712 0-4.3975-0.67241-5.7841-2.016-1.3853-1.3436-2.0773-3.2191-2.0773-5.6248v-11.598h-3.9056v-0.62238l8.4251-8.1385h0.036489v4.5792h7.0109v4.1817h-7.0109v10.976c0 1.3106 0.31707 2.2975 0.95248 2.9613 0.63415 0.66328 1.5854 0.99674 2.8537 0.99674 2.0534-0.01651 3.63-0.4818 4.7322-1.3949v4.3057"/>
<path d="m96.36 29.059c1.3828-1.4268 2.0761-3.2725 2.0761-5.5354 0-2.2793-0.69325-4.1368-2.0761-5.5707-1.3828-1.4344-3.1742-2.152-5.3718-2.152-2.1975 0-3.984 0.71756-5.3583 2.152-1.3767 1.4339-2.0638 3.2914-2.0638 5.5707 0 2.2629 0.68712 4.1085 2.0638 5.5354 1.3742 1.4256 3.1607 2.1391 5.3583 2.1391 2.1975 0 3.989-0.71347 5.3718-2.1391m-14.002 2.7257c-2.2393-2.1443-3.3571-4.8982-3.3571-8.2611 0-3.3793 1.1178-6.1438 3.3571-8.2964 2.238-2.152 5.1153-3.2269 8.6307-3.2269 3.5166 0 6.3975 1.0749 8.6429 3.2269 2.2466 2.1526 3.3693 4.9171 3.3693 8.2964 0 3.3629-1.1227 6.1168-3.3693 8.2611-2.2454 2.1432-5.1264 3.2157-8.6429 3.2157-3.5153 0-6.3926-1.0725-8.6307-3.2157"/>
<polyline points="109.69 2.1899 97 2.1899 97 0 125 0 125 2.1899 112.31 2.1899 112.31 34 109.69 34 109.69 2.1899"/>
<path d="m122 12.512h2.4691v6.16c0.97499-1.7113 2.0905-3.1616 3.3504-4.3522 1.6815-1.5475 3.3606-2.3201 5.0396-2.3201 0.73947 0 1.5169 0.21951 2.3311 0.65866 0.81418 0.44025 1.7512 1.1408 2.8098 2.1035l-1.2561 2.1185c-1.1257-0.92559-2.0627-1.5841-2.8098-1.974-0.74834-0.38989-1.4498-0.58656-2.1045-0.58656-1.0586 0-2.1944 0.547-3.4036 1.6393-1.2092 1.0915-2.5286 2.762-3.9569 5.0101v14.031h-2.4691v-22.488"/>
<path d="m150.88 23.094c-2.845 0.062841-5.3046 0.67587-7.3778 1.8405-2.1543 1.2268-3.2303 2.7098-3.2303 4.447 0 1.0045 0.42529 1.8446 1.2771 2.5223 0.8518 0.67695 1.9047 1.0161 3.1588 1.0161 1.2371 0 2.4197-0.25881 3.5441-0.77619 1.1256-0.5187 2.0017-1.2086 2.6281-2.0687v-6.9811zm-7.0397 11.906c-1.6394 0-3.0219-0.52976-4.1475-1.5899-1.1244-1.0602-1.6878-2.3632-1.6878-3.9086 0-2.4869 1.2298-4.4875 3.6883-6.0024 2.3639-1.4655 5.4258-2.223 9.1868-2.271v-2.7739c0-1.4655-0.40227-2.5415-1.2056-3.2273-0.80333-0.68524-2.0659-1.0279-3.7852-1.0279-1.2226 0-2.3748 0.2224-3.4605 0.66938-1.0844 0.44649-2.1568 1.1305-3.2182 2.0564v-2.5111c1.1741-0.8442 2.3385-1.459 3.4956-1.8404 1.1571-0.38257 2.4282-0.57325 3.8095-0.57325 2.0744 0 3.7137 0.50513 4.9181 1.5172 1.2068 1.0127 1.809 2.379 1.809 4.101v14.01c0 0.36659 0.060583 0.63357 0.18175 0.80143 0.11995 0.16834 0.30897 0.251 0.56584 0.251 0.19265 0 0.58281-0.18299 1.1705-0.5497 0.58644-0.36671 1.1923-0.80551 1.8199-1.3147l0.024233 1.8164c-0.72457 0.62252-1.5352 1.1598-2.4354 1.6151-0.90026 0.45298-1.6151 0.68115-2.1458 0.68115-0.4992 0-0.88088-0.22817-1.145-0.68115-0.26535-0.45526-0.39864-1.1047-0.39864-1.9501v-0.047581c-0.69064 0.57446-1.5025 1.1001-2.4354 1.5788-1.5752 0.78028-3.1103 1.171-4.6043 1.171z"/>
<path d="m177 33.829c-1.1552 0.42943-2.1714 0.73342-3.0535 0.90824s-1.8524 0.26278-2.9097 0.26278c-3.2383 0-5.887-1.0725-7.9472-3.2157-2.059-2.1443-3.0897-4.8982-3.0897-8.2611 0-3.3793 1.0307-6.1438 3.0897-8.2964 2.0602-2.152 4.7089-3.2269 7.9472-3.2269 0.9135 0 1.775 0.086271 2.5846 0.2623 0.80958 0.17482 1.7678 0.47749 2.8734 0.90812v2.4155c-1.1866-0.45466-2.204-0.77211-3.0535-0.95222-0.85066-0.17711-1.7642-0.26806-2.7417-0.26806-2.291 0-4.2437 0.89347-5.8556 2.6776-1.6107 1.7858-2.4155 3.9461-2.4155 6.48 0 2.8219 0.78542 5.0449 2.3562 6.6706 1.5708 1.6252 3.7277 2.4389 6.4682 2.4389 0.99325 0 1.9164-0.087953 2.7659-0.26806 0.84825-0.17903 1.8427-0.49636 2.981-0.95114v2.4155"/>
<path d="m185.97 22.804h0.023092l12.231-11.195h3.1842l-12.02 11.099 13.616 11.292h-3.5744l-13.46-11.196zm-2.9655 11.196h2.3687v-34h-2.3687v34z"/>
</g>
</g>
</svg>
