<?xml version="1.0" encoding="UTF-8"?>
<svg width="300px" height="300px" viewBox="0 0 300 300" version="1.1" xmlns="http://www.w3.org/2000/svg" xmlns:xlink="http://www.w3.org/1999/xlink">
    <!-- Generator: Sketch 51.2 (57519) - http://www.bohemiancoding.com/sketch -->
    <title>Autotrack</title>
    <desc>Created with Sketch.</desc>
    <defs></defs>
    <g id="Autotrack" stroke="none" stroke-width="1" fill="none" fill-rule="evenodd">
        <g id="Group" transform="translate(69.000000, 40.000000)" fill="#070808">
            <path d="M81.2733074,72.34425 L44.2569043,72.34425 C47.3630404,65.7026161 50.145314,56.2306763 53.7337574,49.7014147 C53.985177,49.2437598 54.7436972,48.1997468 55.2887625,47.9621706 L106.713175,47.9621706 C107.253978,48.1997468 108.016373,49.2437598 108.267792,49.7014147 C111.852362,56.2306763 114.638897,65.7026161 117.742708,72.34425 L81.2733074,72.34425 Z M106.196776,95.3681404 C102.263939,95.3681404 99.0768368,92.1653339 99.0768368,88.221803 C99.0768368,84.2728284 102.263939,81.0758543 106.196776,81.0758543 C110.12729,81.0758543 113.316716,84.2728284 113.316716,88.221803 C113.316716,92.1653339 110.12729,95.3681404 106.196776,95.3681404 Z M53.552069,95.3681404 C49.6215555,95.3681404 46.4321293,92.1653339 46.4321293,88.221803 C46.4321293,84.2728284 49.6215555,81.0758543 53.552069,81.0758543 C57.4849069,81.0758543 60.6720086,84.2728284 60.6720086,88.221803 C60.6720086,92.1653339 57.4849069,95.3681404 53.552069,95.3681404 Z M133.013447,66.6272578 L127.151767,66.6272578 C125.844695,66.6272578 124.664302,67.1436263 123.775229,67.9679495 C120.555586,60.7835065 116.316706,49.6578656 113.917954,45.2854533 C112.849517,43.3354624 110.670418,40.9791424 108.251134,41.0001393 L53.7488658,41.0001393 C51.3295817,40.9791424 49.1504827,43.3354624 48.0816589,45.2854533 C45.6813571,49.6578656 41.4459634,60.7835065 38.2247709,67.9679495 C37.3337615,67.1436263 36.1553048,66.6272578 34.8482328,66.6272578 L28.9881029,66.6272578 C26.2321722,66.6272578 24,68.8657618 24,71.6319104 C24,74.3984478 26.2321722,76.6385071 28.9881029,76.6385071 L34.2183279,76.6385071 C34.21058,76.6556157 34.2032195,76.6727243 34.1954716,76.6898329 L34.1954716,95.1916109 C34.191985,95.3284796 34.1803631,95.4669037 34.1803631,95.6092161 C34.1803631,95.748029 34.191985,95.8810094 34.1954716,96.0194335 L34.1954716,96.2360127 L34.2032195,96.2434006 C34.4019533,102.148198 37.3527439,106.843341 40.9748907,106.843341 C40.99581,106.843341 41.0147924,106.839453 41.0147924,106.839453 C40.99581,107.080528 40.9617192,107.331325 40.9617192,107.589509 L40.9617192,117.386123 C40.9617192,119.932193 43.0199509,122 45.5546788,122 L49.8334608,122 C52.3697383,122 54.4279699,119.932193 54.4279699,117.386123 L54.4279699,107.589509 C54.4279699,107.314216 54.3938792,107.054088 54.3485539,106.795904 L55.0822807,106.792015 L106.915395,106.792015 L107.647572,106.795904 C107.605733,107.054088 107.57203,107.314216 107.57203,107.589509 L107.57203,117.386123 C107.57203,119.932193 109.629874,122 112.168476,122 L116.443384,122 C118.978112,122 121.037893,119.932193 121.037893,117.386123 L121.037893,107.589509 C121.037893,107.331325 121.003803,107.084417 120.964288,106.843341 L120.988694,106.843341 C124.741781,106.843341 127.785159,101.812248 127.785159,95.6092161 C127.785159,95.5582791 127.777798,95.5069533 127.777798,95.4536834 L127.804141,76.6898329 C127.800267,76.6727243 127.787096,76.6556157 127.779735,76.6385071 L133.013447,76.6385071 C135.763954,76.6385071 138,74.3984478 138,71.6319104 C138,68.8657618 135.763954,66.6272578 133.013447,66.6272578 Z" id="Fill-13"></path>
            <path d="M81.5009693,151.5909 C42.7913532,151.5909 11.4104071,120.21122 11.4104071,81.5007755 C11.4104071,42.7903306 42.7913532,11.4091004 81.5009693,11.4091004 C120.208647,11.4091004 151.589593,42.7903306 151.589593,81.5007755 C151.589593,120.21122 120.208647,151.5909 81.5009693,151.5909 M163,81.495347 C163,36.4855463 126.513296,0 81.502908,0 C36.4905813,0 0,36.4855463 0,81.495347 C0,126.516005 36.4905813,163 81.502908,163 L151.581838,163 C157.863611,163 163,157.861562 163,151.583145 L163,81.495347" id="Fill-14"></path>
        </g>
        <g id="Group-4" transform="translate(49.000000, 239.000000)" fill="#070808">
            <path d="M11.0942917,19.7111751 L21.5589737,19.7111751 L16.1580003,7.47056477 L16.1734188,7.47056477 L11.0942917,19.7111751 Z M14.4702188,0 L17.8528232,0 L33,34 L27.7127836,34 L23.3527423,23.9753122 L9.30513656,23.9753122 L5.22250714,34 L0,34 L14.4702188,0 Z" id="Fill-4"></path>
            <path d="M41.4787075,26.0294952 C41.4787075,27.7406369 41.8571689,29.0450892 42.6116181,29.9405183 C43.3660674,30.8365616 44.4569267,31.285136 45.8841963,31.285136 C47.7381625,31.285136 49.4696853,30.3237473 51.077528,28.4003557 L51.5203031,27.8629754 L51.5203031,12 L56,12 L56,34.4871856 L51.5203031,34.4871856 L51.5203031,31.26057 C49.4041348,33.753769 47.2384945,35 45.0233821,35 C42.3976514,35 40.4051633,34.2089762 39.0434443,32.6291395 C37.6812306,31.0475832 37,28.7343299 37,25.6876599 L37,12 L41.4787075,12 L41.4787075,26.0294952" id="Fill-5"></path>
            <path d="M77,33.6057661 C75.7317001,34.5345883 73.9865295,35 71.7670047,35 C69.295833,35 67.3694767,34.3275857 65.9829028,32.984008 C64.5975872,31.6404303 63.9055584,29.7648998 63.9055584,27.3591677 L63.9055584,15.7608973 L60,15.7608973 L60,15.1385139 L68.4251351,7 L68.4616239,7 L68.4616239,11.5791961 L75.4725039,11.5791961 L75.4725039,15.7608973 L68.4616239,15.7608973 L68.4616239,26.7369093 C68.4616239,28.0474667 68.7786988,29.0344498 69.414107,29.6982337 C70.048257,30.3615174 70.9994819,30.6949728 72.2677818,30.6949728 C74.3212197,30.6784626 75.897787,30.213176 77,29.3001135 L77,33.6057661" id="Fill-6"></path>
            <path d="M96.3595092,29.0586247 C97.7423313,27.6317959 98.4355828,25.7861102 98.4355828,23.5232498 C98.4355828,21.2439283 97.7423313,19.3864675 96.3595092,17.9525496 C94.9766871,16.5181511 93.1852761,15.8005914 90.9877301,15.8005914 C88.790184,15.8005914 87.003681,16.5181511 85.6294479,17.9525496 C84.2527607,19.3864675 83.5656442,21.2439283 83.5656442,23.5232498 C83.5656442,25.7861102 84.2527607,27.6317959 85.6294479,29.0586247 C87.003681,30.484252 88.790184,31.1977265 90.9877301,31.1977265 C93.1852761,31.1977265 94.9766871,30.484252 96.3595092,29.0586247 M82.3570552,31.7843183 C80.1177914,29.6400499 79,26.8861201 79,23.5232498 C79,20.1439184 80.1177914,17.379415 82.3570552,15.226856 C84.595092,13.0748977 87.4723926,12 90.9877301,12 C94.5042945,12 97.3852761,13.0748977 99.6306748,15.226856 C101.877301,17.379415 103,20.1439184 103,23.5232498 C103,26.8861201 101.877301,29.6400499 99.6306748,31.7843183 C97.3852761,33.9275053 94.5042945,35 90.9877301,35 C87.4723926,35 84.595092,33.9275053 82.3570552,31.7843183" id="Fill-7"></path>
            <polyline id="Fill-8" points="109.692084 2.18987528 97 2.18987528 97 0 125 0 125 2.18987528 112.307916 2.18987528 112.307916 34 109.692084 34 109.692084 2.18987528"></polyline>
            <path d="M122,12.5122385 L124.469136,12.5122385 L124.469136,18.6722443 C125.444128,16.9609746 126.559671,15.5106149 127.819563,14.3200596 C129.501108,12.7725343 131.18012,12 132.859133,12 C133.598607,12 134.376068,12.2195132 135.19025,12.6586626 C136.004432,13.0989174 136.941437,13.7994681 138,14.7621571 L136.743906,16.8806379 C135.618234,15.9550463 134.681228,15.2965066 133.934156,14.9066157 C133.185818,14.5167248 132.48433,14.3200596 131.829693,14.3200596 C130.77113,14.3200596 129.635328,14.8670615 128.426084,15.9593456 C127.216841,17.0508927 125.897436,18.7213799 124.469136,20.9694558 L124.469136,35 L122,35 L122,12.5122385" id="Fill-9"></path>
            <path d="M150.875072,23.0936992 C148.0301,23.1565398 145.570436,23.7695655 143.49729,24.9342183 C141.342963,26.1609907 140.267011,27.6440516 140.267011,29.3812382 C140.267011,30.3857257 140.692303,31.2258425 141.544098,31.9035111 C142.395893,32.5804588 143.448823,32.9196535 144.702889,32.9196535 C145.939991,32.9196535 147.122569,32.6608418 148.246987,32.1434587 C149.372617,31.6247538 150.248645,30.9348295 150.875072,30.0747671 L150.875072,23.0936992 Z M143.835342,35 C142.19597,35 140.813469,34.470241 139.687839,33.4101222 C138.563421,32.3498832 138,31.0469332 138,29.5015124 C138,27.0145648 139.229832,25.0140006 141.688285,23.4990988 C144.052229,22.0335804 147.114087,21.2761296 150.875072,21.228068 L150.875072,18.4541926 C150.875072,16.9886742 150.472801,15.9126951 149.669473,15.226856 C148.866144,14.5416177 147.603597,14.1989385 145.884255,14.1989385 C144.661692,14.1989385 143.509406,14.4213435 142.423761,14.8683164 C141.339328,15.3148087 140.267011,15.9988455 139.205599,16.9247522 L139.205599,14.4136537 C140.379695,13.5694516 141.544098,12.9546236 142.701231,12.5732548 C143.858364,12.1906844 145.129392,12 146.510682,12 C148.585039,12 150.224412,12.5051274 151.428799,13.5171846 C152.63561,14.5298426 153.237804,15.896234 153.237804,17.618161 L153.237804,31.6283584 C153.237804,31.9949483 153.298387,32.2619305 153.419552,32.4297857 C153.539506,32.5981214 153.728525,32.6807874 153.985396,32.6807874 C154.17805,32.6807874 154.568204,32.4977928 155.155857,32.1310828 C155.7423,31.7643728 156.348128,31.3255703 156.975767,30.8163577 L157,32.6327258 C156.275429,33.2552437 155.46483,33.7925724 154.564569,34.2478359 C153.664307,34.7008165 152.949429,34.928989 152.418723,34.928989 C151.91952,34.928989 151.537848,34.7008165 151.273707,34.2478359 C151.008354,33.7925724 150.875072,33.14314 150.875072,32.2977364 L150.875072,32.2501554 C150.184427,32.8246117 149.372617,33.3502855 148.43964,33.8289791 C146.864486,34.6092592 145.329316,35 143.835342,35 Z" id="Fill-10"></path>
            <path d="M177,33.8289791 C175.844836,34.2584095 174.82863,34.5623991 173.946549,34.7372232 C173.064468,34.9120473 172.094179,35 171.03689,35 C167.798564,35 165.149904,33.9275053 163.089701,31.7843183 C161.030706,29.6400499 160,26.8861201 160,23.5232498 C160,20.1439184 161.030706,17.379415 163.089701,15.226856 C165.149904,13.0748977 167.798564,12 171.03689,12 C171.950387,12 172.811927,12.0862706 173.621508,12.2622962 C174.43109,12.4371203 175.389296,12.7397882 176.494918,13.1704202 L176.494918,15.5858762 C175.308337,15.1312134 174.290923,14.8137665 173.441467,14.6336557 C172.590802,14.4565487 171.677305,14.3655921 170.699765,14.3655921 C168.408771,14.3655921 166.456109,15.2590573 164.844196,17.0432241 C163.233492,18.8290731 162.428744,20.989322 162.428744,23.5232498 C162.428744,26.3451868 163.214159,28.5681561 164.784988,30.1938398 C166.355818,31.8190428 168.512687,32.6327258 171.253181,32.6327258 C172.246428,32.6327258 173.169593,32.544773 174.019049,32.3646622 C174.867297,32.1856327 175.861753,31.868306 177,31.4135231 L177,33.8289791" id="Fill-11"></path>
            <path d="M185.965484,22.8038116 L185.988576,22.8038116 L198.219981,11.6088463 L201.404229,11.6088463 L189.384298,22.7076797 L203,34 L199.42562,34 L185.965484,22.8038116 Z M183,34 L185.368741,34 L185.368741,0 L183,0 L183,34 Z" id="Fill-12"></path>
        </g>
    </g>
</svg>