<?xml version="1.0" encoding="UTF-8"?>
<svg version="1.1" viewBox="0 0 300 300" xmlns="http://www.w3.org/2000/svg">
<title>Carsom</title>
<desc>Created with Sketch.</desc>
<g fill="none" fill-rule="evenodd">
<path d="m206.23 98.086h-5.5002c0.005482 0.016447 0.017818 0.034265 0.024671 0.049342l-0.027412 19.664c0 0.053454 0.005482 0.10554 0.005482 0.15899 0 6.5008-3.199 11.772-7.1463 11.772h-0.024671c0.041118 0.25219 0.076754 0.50849 0.076754 0.7785v10.267c0 2.6686-2.1628 4.8314-4.8341 4.8314h-4.4942c-2.6699 0-4.8327-2.1628-4.8327-4.8314v-10.267c0-0.28646 0.035635-0.5592 0.080865-0.82784l-0.77165-0.004112h-54.509l-0.77302 0.004112c0.047971 0.26864 0.083607 0.54139 0.083607 0.82784v10.267c0 2.6686-2.1656 4.8314-4.8341 4.8314h-4.4956c-2.6686 0-4.8327-2.1628-4.8327-4.8314v-10.267c0-0.27001 0.035635-0.52905 0.079494-0.78124-0.0233 0-0.042488 0.002741-0.063047 0.002741-3.8116 0-6.9133-4.915-7.1244-11.102l-0.008223-0.015077v-0.22341c-0.002741-0.14117-0.012336-0.28646-0.012336-0.43174 0-0.14666 0.009595-0.29057 0.012336-0.43448v-19.389c0.008223-0.015077 0.017818-0.032894 0.024671-0.049342h-5.5002c-2.8975 0-5.2453-2.3492-5.2453-5.2453s2.3478-5.2453 5.2453-5.2453h6.1636c1.3747 0 2.6137 0.54139 3.5499 1.4049 3.3881-7.5301 7.8426-19.184 10.37-23.769 1.1212-2.0422 3.4114-4.5134 5.9553-4.4832h57.319c2.5438-0.030153 4.8341 2.441 5.958 4.4832 2.5246 4.5847 6.9805 16.239 10.369 23.769 0.93475-0.86348 2.1751-1.4049 3.5499-1.4049h6.1622c2.8961 0 5.2439 2.3492 5.2439 5.2453s-2.3478 5.2453-5.2439 5.2453zm-15.93-58.086h-79.596c-18.059 0-32.703 14.645-32.703 32.7v79.602c0 18.056 14.644 32.7 32.703 32.7h32.57v-23.466h-42.974c-2.8536 0-5.1644-2.071-5.1644-4.6176v-1.0951c0-2.5507 2.3108-4.623 5.1644-4.623h100.41c2.8508 0 5.1644 2.0723 5.1644 4.623v1.0951c0 2.5466-2.3136 4.6176-5.1644 4.6176h-43.666v23.466h33.259c18.058 0 32.701-14.644 32.701-32.7v-79.602c0-18.055-14.644-32.7-32.701-32.7zm-11.725 28.04h-54.083c-0.57154 0.25082-1.3692 1.3446-1.6324 1.8202-3.7733 6.8407-6.7009 16.767-9.9684 23.725h77.283c-3.2661-6.9585-6.1951-16.884-9.967-23.725-0.26316-0.4756-1.0636-1.5693-1.6324-1.8202zm-55.908 34.689c-4.1337 0-7.4862 3.3539-7.4862 7.4876 0 4.1351 3.3525 7.489 7.4862 7.489 4.1365 0 7.489-3.3539 7.489-7.489 0-4.1337-3.3525-7.4876-7.489-7.4876zm62.853 7.4876c0 4.1351-3.3539 7.489-7.4903 7.489-4.1337 0-7.4862-3.3539-7.4862-7.489 0-4.1337 3.3525-7.4876 7.4862-7.4876 4.1365 0 7.4903 3.3539 7.4903 7.4876z" fill="#6CB644"/>
<g transform="translate(34 229)">
<polyline points="164.55 1 171 1 171 32 163.59 32 163.59 12.636 155.57 23.229 154.43 23.229 146.41 12.636 146.41 32 139 32 139 1 145.45 1 155 13.366 164.55 1" fill="#133D57"/>
<path d="m40.238 13.535c-0.28592-0.81947-0.6673-1.8318-0.90483-2.8445h-0.0959c-0.23842 1.0128-0.57096 2.0732-0.85644 2.8445l-2.0485 5.6886h5.9529l-2.0472-5.6886zm6.4275 18.465l-2.5231-6.9423h-9.6668l-2.5236 6.9423h-6.9523l11.952-31h5.0951l11.953 31h-7.3341z" fill="#133D57"/>
<path d="m65.254 6.0741h-2.9782v6.9483h2.9782c1.9525 0 3.9055-1.0693 3.9055-3.45 0-2.3319-1.953-3.4983-3.9055-3.4983zm6.8108 24.926l-7.7878-12.196h-2.0012v12.196h-7.2756v-31h11.376c5.3222 0 10.058 3.5466 10.058 9.3777 0 3.5954-2.1483 6.5598-4.7845 7.7741l9.3501 13.848h-8.9354z" fill="#133D57"/>
<path d="m120.52 6.6488c-4.6103 0-8.9344 3.7302-8.9344 9.4224 0 5.6926 4.3241 9.4241 8.9344 9.4241 4.5633 0 8.9344-3.7316 8.9344-9.4241 0-5.6921-4.3712-9.4224-8.9344-9.4224zm0 25.351c-8.4534 0-16.524-6.1702-16.524-16.024 0-9.7573 8.0217-15.976 16.524-15.976 8.4548 0 16.476 6.1702 16.476 15.976 0 9.8064-7.9733 16.024-16.476 16.024z" fill="#133D57"/>
<path d="m89.267 32c-2.9939 0-5.4167-0.27429-7.6506-0.82376l0.71327-6.7756c2.0907 0.82376 4.4659 1.3732 7.1268 1.3732 2.3765 0 4.3714-0.96203 4.3714-3.2041 0-5.265-12.828-2.5641-12.828-12.91 0-5.814 4.6085-9.6599 12.685-9.6599 1.6632 0 3.9911 0.18331 5.8438 0.59586l-0.66465 6.2252c-1.7582-0.59496-3.5636-0.91519-5.5121-0.91519-3.0398 0-4.4182 1.1899-4.4182 2.9302 0 4.8056 13.066 3.0207 13.066 12.818 0 5.9059-5.1791 10.346-12.733 10.346" fill="#133D57"/>
<path d="m23.983 24.355l0.0098427-0.099001c-1.5838 0.87648-3.8387 1.3642-6.3821 1.3642-5.8058 0-10.125-3.7997-10.125-9.4982 0-5.7484 4.367-9.4491 9.789-9.4491 2.5434 0 4.895 0.73025 6.3342 1.6076l1.3914-6.381c-1.8231-1.0718-4.7983-1.8992-8.5895-1.8992-7.8692 0-16.41 5.5041-16.41 16.025 0 10.52 8.4934 15.975 16.41 15.975 1.9068 0 3.47-0.14714 4.7728-0.43824l2.7994-7.2071" fill="#133D57"/>
<path d="m177.5 27c1.3728 0 2.5004 1.3531 2.5004 3.0005 0 1.6464-1.1276 2.9995-2.5004 2.9995-1.3724 0-2.4996-1.3531-2.4996-2.9995 0-1.6474 1.1272-3.0005 2.4996-3.0005" fill="#6CB644"/>
<polyline points="184 32 184 1 188.48 1 205.81 25.339 205.81 1 210 1 210 32 205.52 32 188.19 7.6399 188.19 32 184 32" fill="#6CB644"/>
<polyline points="216 32 216 1 220.48 1 220.48 28.342 233 28.342 233 32 216 32" fill="#6CB644"/>
</g>
</g>
</svg>
