<?xml version="1.0" encoding="UTF-8"?>
<svg width="300px" height="300px" viewBox="0 0 300 300" version="1.1" xmlns="http://www.w3.org/2000/svg" xmlns:xlink="http://www.w3.org/1999/xlink">
    <!-- Generator: Sketch 51.2 (57519) - http://www.bohemiancoding.com/sketch -->
    <title>Carsom</title>
    <desc>Created with Sketch.</desc>
    <defs></defs>
    <g id="Carsom" stroke="none" stroke-width="1" fill="none" fill-rule="evenodd">
        <path d="M206.229325,98.0860737 L200.729103,98.0860737 C200.734585,98.102521 200.746921,98.1203388 200.753774,98.1354154 L200.726362,117.799429 C200.726362,117.852883 200.731844,117.904965 200.731844,117.958419 C200.731844,124.45918 197.532861,129.730511 193.58553,129.730511 C193.577307,129.730511 193.569083,129.730511 193.560859,129.730511 C193.601977,129.982702 193.637613,130.239004 193.637613,130.509013 L193.637613,140.776186 C193.637613,143.444746 191.474805,145.607554 188.803503,145.607554 L184.309302,145.607554 C181.639371,145.607554 179.476563,143.444746 179.476563,140.776186 L179.476563,130.509013 C179.476563,130.222557 179.512198,129.949808 179.557428,129.68117 L178.78578,129.677058 L124.276975,129.677058 L123.503956,129.68117 C123.551927,129.949808 123.587563,130.222557 123.587563,130.509013 L123.587563,140.776186 C123.587563,143.444746 121.422013,145.607554 118.753452,145.607554 L114.257881,145.607554 C111.589321,145.607554 109.425142,143.444746 109.425142,140.776186 L109.425142,130.509013 C109.425142,130.239004 109.460777,129.979961 109.504636,129.72777 C109.481336,129.72777 109.462148,129.730511 109.441589,129.730511 C105.629947,129.730511 102.528277,124.815536 102.317204,118.628643 L102.308981,118.613566 L102.308981,118.390158 C102.30624,118.248986 102.296645,118.103703 102.296645,117.958419 C102.296645,117.811764 102.30624,117.667851 102.308981,117.523938 L102.308981,98.1354154 C102.317204,98.1203388 102.326799,98.102521 102.333652,98.0860737 L96.8334294,98.0860737 C93.9359788,98.0860737 91.5881391,95.7368635 91.5881391,92.8407834 C91.5881391,89.9447033 93.9359788,87.5954931 96.8334294,87.5954931 L102.997022,87.5954931 C104.371735,87.5954931 105.610759,88.1368805 106.546879,89.0003592 C109.935005,81.4702769 114.389459,69.8160559 116.916847,65.2313953 C118.037999,63.1891997 120.328273,60.7180059 122.872109,60.7481591 L180.190646,60.7481591 C182.734481,60.7180059 185.024756,63.1891997 186.148649,65.2313953 C188.673296,69.8160559 193.12912,81.4702769 196.517246,89.0003592 C197.451996,88.1368805 198.69239,87.5954931 200.067103,87.5954931 L206.229325,87.5954931 C209.125405,87.5954931 211.473245,89.9447033 211.473245,92.8407834 C211.473245,95.7368635 209.125405,98.0860737 206.229325,98.0860737 Z M190.298829,40 L110.702542,40 C92.6435019,40 78,54.6448725 78,72.6998006 L78,152.30157 C78,170.357869 92.6435019,185.001371 110.702542,185.001371 L143.272135,185.001371 L143.272135,161.53531 L100.298309,161.53531 C97.4447175,161.53531 95.1338841,159.464331 95.1338841,156.917754 L95.1338841,155.822644 C95.1338841,153.271956 97.4447175,151.199607 100.298309,151.199607 L200.705803,151.199607 C203.556653,151.199607 205.870228,153.271956 205.870228,155.822644 L205.870228,156.917754 C205.870228,159.464331 203.556653,161.53531 200.705803,161.53531 L157.039823,161.53531 L157.039823,185.001371 L190.298829,185.001371 C208.356498,185.001371 223,170.357869 223,152.30157 L223,72.6998006 C223,54.6448725 208.356498,40 190.298829,40 Z M178.573337,68.0397569 L124.490789,68.0397569 C123.919248,68.2905769 123.121558,69.3843165 122.858403,69.8599151 C119.085138,76.7005851 116.157534,86.6264781 112.890021,93.5850198 L190.172734,93.5850198 C186.906591,86.6264781 183.977617,76.7005851 180.205722,69.8599151 C179.942567,69.3843165 179.142136,68.2905769 178.573337,68.0397569 Z M122.665148,102.7283 C118.531415,102.7283 115.178925,106.08216 115.178925,110.215893 C115.178925,114.350997 118.531415,117.704858 122.665148,117.704858 C126.801622,117.704858 130.154112,114.350997 130.154112,110.215893 C130.154112,106.08216 126.801622,102.7283 122.665148,102.7283 Z M185.518172,110.215893 C185.518172,114.350997 182.164311,117.704858 178.027837,117.704858 C173.894105,117.704858 170.541614,114.350997 170.541614,110.215893 C170.541614,106.08216 173.894105,102.7283 178.027837,102.7283 C182.164311,102.7283 185.518172,106.08216 185.518172,110.215893 Z" id="Fill-1" fill="#6CB644"></path>
        <g id="Group-16" transform="translate(34.000000, 229.000000)">
            <polyline id="Fill-2" fill="#133D57" points="164.547357 1 171 1 171 32 163.588799 32 163.588799 12.6359621 155.566483 23.2294036 154.433059 23.2294036 146.412116 12.6359621 146.412116 32 139 32 139 1 145.452643 1 154.999771 13.3657266 164.547357 1"></polyline>
            <path d="M40.2383417,13.534765 C39.9524174,12.7152966 39.5710371,11.7029857 39.3335068,10.6902252 L39.2376068,10.6902252 C38.9991886,11.7029857 38.6666463,12.7633949 38.381166,13.534765 L36.3326342,19.2233952 L42.2855415,19.2233952 L40.2383417,13.534765 Z M46.6658655,32 L44.1427172,25.0576686 L34.4759025,25.0576686 L31.9523102,32 L25,32 L36.9519887,1 L42.0471233,1 L54,32 L46.6658655,32 Z" id="Fill-3" fill="#133D57"></path>
            <path d="M65.2537776,6.07413985 L62.2756115,6.07413985 L62.2756115,13.022408 L65.2537776,13.022408 C67.2062928,13.022408 69.1592632,11.9531338 69.1592632,9.57244337 C69.1592632,7.24053941 67.2062928,6.07413985 65.2537776,6.07413985 Z M72.0645912,31 L64.2768371,18.803829 L62.2756115,18.803829 L62.2756115,31 L55,31 L55,0 L66.3759389,0 C71.6981248,0 76.4344195,3.54664241 76.4344195,9.37774505 C76.4344195,12.9731739 74.286152,15.9375117 71.6498696,17.1518026 L81,31 L72.0645912,31 Z" id="Fill-4" fill="#133D57"></path>
            <path d="M120.523513,6.64877145 C115.913196,6.64877145 111.589064,10.3790052 111.589064,16.0711349 C111.589064,21.7637106 115.913196,25.4952823 120.523513,25.4952823 C125.086804,25.4952823 129.457962,21.7637106 129.457962,16.0711349 C129.457962,10.3790052 125.086804,6.64877145 120.523513,6.64877145 Z M120.523513,32 C112.07007,32 104,25.8297724 104,15.9756937 C104,6.21839417 112.021701,0 120.523513,0 C128.978299,0 137,6.17022759 137,15.9756937 C137,25.7820518 129.026668,32 120.523513,32 Z" id="Fill-5" fill="#133D57"></path>
            <path d="M89.2670691,32 C86.2731698,32 83.8503375,31.7257143 81.6164979,31.1762421 L82.3297638,24.4006193 C84.4204958,25.2243772 86.7956256,25.7738494 89.4565161,25.7738494 C91.8330088,25.7738494 93.8278816,24.8118227 93.8278816,22.5697959 C93.8278816,17.3047713 81,20.0057424 81,9.65990148 C81,3.84585503 85.6085151,0 93.6852285,0 C95.3484553,0 97.676337,0.18330753 99.5290109,0.595862069 L98.8643562,6.82111189 C97.1061786,6.2261506 95.3007529,5.9059254 93.3522196,5.9059254 C90.3124351,5.9059254 88.9340602,7.09584799 88.9340602,8.83614356 C88.9340602,13.6417734 102,11.8568895 102,21.654159 C102,27.5600844 96.8208723,32 89.2670691,32" id="Fill-6" fill="#133D57"></path>
            <path d="M23.9826232,24.3546776 L23.9924659,24.2556767 C22.4086866,25.1321526 20.1538145,25.619891 17.6103724,25.619891 C11.8045241,25.619891 7.48537017,21.8201635 7.48537017,16.1217075 C7.48537017,10.373297 11.8523954,6.67257039 17.2743786,6.67257039 C19.8178206,6.67257039 22.1693302,7.40281562 23.6086007,8.28019982 L25,1.89918256 C23.1768643,0.827429609 20.2016858,0 16.4104583,0 C8.541223,0 0,5.50408719 0,16.0245232 C0,26.5449591 8.49335171,32 16.4104583,32 C18.3172569,32 19.880456,31.852861 21.183271,31.561762 L23.9826232,24.3546776" id="Fill-7" fill="#133D57"></path>
            <path d="M177.499582,27 C178.872385,27 180,28.3531002 180,30.0004769 C180,31.6468998 178.872385,33 177.499582,33 C176.127197,33 175,31.6468998 175,30.0004769 C175,28.3531002 176.127197,27 177.499582,27" id="Fill-8" fill="#6CB644"></path>
            <polyline id="Fill-9" fill="#6CB644" points="184 32 184 1 188.479728 1 205.813062 25.3391566 205.813062 1 210 1 210 32 205.520272 32 188.186938 7.63985943 188.186938 32 184 32"></polyline>
            <polyline id="Fill-10" fill="#6CB644" points="216 32 216 1 220.476926 1 220.476926 28.3420947 233 28.3420947 233 32 216 32"></polyline>
        </g>
    </g>
</svg>