<?xml version="1.0" encoding="UTF-8"?>
<svg version="1.1" viewBox="0 0 300 300" xmlns="http://www.w3.org/2000/svg" xmlns:xlink="http://www.w3.org/1999/xlink">
<title>DeMorgen</title>
<desc>Created with Sketch.</desc>
<defs>
<polygon id="b" points="0 0.039614 106.56 0.039614 106.56 35.808 0 35.808"/>
</defs>
<g fill="none" fill-rule="evenodd">
<g transform="translate(48 68)">
<path d="m56.31 42.242c0-30.766-5.8167-38.219-15.707-38.219-2.5577 0-4.1872 0.23543-5.8167 0.70861v66.027c0 6.2713 1.7452 7.3354 6.0504 7.3354 9.8881 0 15.473-11.121 15.473-35.853zm-56.31 37.748l3.141-0.83094c4.3052-1.1818 5.1199-1.4195 5.1199-9.5835v-57.153c0-8.164-0.81474-8.3994-5.1199-9.5835l-3.141-0.82863v-2.0104h42.816c25.827 0 41.184 12.66 41.184 39.165 0 26.389-15.589 42.835-41.652 42.835h-42.348v-2.0104z" fill="#1A1919"/>
<path d="m84 79.99l3.1595-0.83094c4.3307-1.1818 5.1502-2.6013 5.1502-11.949v-54.787c0-8.164-0.81956-8.3994-5.1502-9.5835l-3.1595-0.82863v-2.0104h35.579l14.629 41.531h0.46799l15.213-41.531h35.111v2.0104l-3.1595 0.82863c-4.3307 1.1841-5.1502 1.4195-5.1502 9.5835v57.153c0 8.164 0.81956 8.4017 5.1502 9.5835l3.1595 0.83094v2.0104h-43.654v-2.0104l3.1595-0.83094c4.5635-1.1818 5.2666-1.4195 5.2666-9.5835v-55.968h-0.468l-23.991 66.618h-5.1502l-22.822-66.618h-0.46799v52.774c0 9.939 0.35157 11.479 5.6182 12.778l3.276 0.83094v2.0104h-21.767v-2.0104" fill="#D82333"/>
<path d="m206 72.501c0 5.2454-4.253 9.4989-9.5 9.4989s-9.5-4.2535-9.5-9.4989c0-5.2476 4.253-9.5011 9.5-9.5011s9.5 4.2535 9.5 9.5011" fill="#1A1919"/>
</g>
<g transform="translate(26 222)">
<mask id="a" fill="white">
<use xlink:href="#b"/>
</mask>
<path d="m24.582 18.14c0-13.2-2.5393-16.398-6.8569-16.398-1.1166 0-1.8279 0.10102-2.5393 0.30404v28.33c0 2.6908 0.76188 3.1473 2.6413 3.1473 4.3167 0 6.7549-4.7715 6.7549-15.383zm-24.582 16.196l1.3712-0.35653c1.8794-0.50706 2.2351-0.60906 2.2351-4.1119v-24.522c0-3.5029-0.35568-3.6039-2.2351-4.1119l-1.3712-0.35553v-0.86259h18.691c11.275 0 17.979 5.4321 17.979 16.804 0 11.323-6.8054 18.379-18.183 18.379h-18.487v-0.86259z" fill="#1A1919" mask="url(#a)"/>
<path d="m47.546 18.851l6.8064-0.50805c0-7.2087-0.66082-9.0874-3.098-9.0874-2.0825 0-3.6578 1.8272-3.7083 9.5955zm-9.8529 3.3503c0-9.5955 7.2621-14.368 13.967-14.368 7.4652 0 12.139 3.5544 12.392 12.388h-16.507c0.15257 8.8339 3.098 10.763 8.5332 10.763 2.7424 0 4.926-0.76158 6.9065-1.7767v0.9646c-1.7259 2.4372-5.7384 5.6351-11.529 5.6351-9.1416 0-13.763-4.7725-13.763-13.606z" fill="#1A1919" mask="url(#a)"/>
<path d="m62.726 34.336l1.3712-0.35653c1.8794-0.50706 2.2351-1.1161 2.2351-5.127v-23.507c0-3.5029-0.35568-3.6039-2.2351-4.1119l-1.3712-0.35553v-0.86259h15.441l6.3487 17.819h0.2031l6.6023-17.819h15.238v0.86259l-1.3712 0.35553c-1.8794 0.50805-2.2351 0.60906-2.2351 4.1119v24.522c0 3.5029 0.35568 3.6049 2.2351 4.1119l1.3712 0.35653v0.86259h-18.945v-0.86259l1.3712-0.35653c1.9805-0.50706 2.2856-0.60906 2.2856-4.1119v-24.014h-0.2031l-10.412 28.583h-2.2351l-9.9044-28.583h-0.2031v22.643c0 4.2644 0.15257 4.925 2.4382 5.4826l1.4217 0.35653v0.86259h-9.4467v-0.86259" fill="#D82333" mask="url(#a)"/>
<path d="m123.62 22.842c0-12-1.7298-13.316-4.2744-13.316-2.3908 0-3.9678 1.7895-3.9678 12.368 0 12.105 1.2713 13.58 4.2228 13.58 2.6448 0 4.0194-1.2115 4.0194-12.632zm-18.621-0.21046c0-10.684 7.3768-14.632 14.5-14.632 7.479 0 14.5 4.5789 14.5 14.421 0 10.632-7.2249 14.579-14.5 14.579-7.5296 0-14.5-4.5789-14.5-14.368z" fill="#D82333"/>
<path d="m133.2 35.117l0.91863-0.26042c2.0403-0.57151 2.1428-0.72756 2.1428-3.117v-17.091c0-2.2334-0.050758-2.4411-1.6332-3.5841l-1.6322-1.1947v-0.51983l12.705-1.3508 0.40806 0.3121v4.1556h0.15327c1.479-1.8696 4.2348-4.415 7.5511-4.415 2.4493 0 4.1831 1.4541 4.1831 4.3633 0 3.0126-1.7845 4.7271-4.2846 4.7271-2.4493 0-3.368-1.143-4.0826-2.7532-0.3573-0.77924-0.61209-1.0397-1.2242-1.0397-0.7146 0-1.5825 0.26042-2.092 0.72858v17.661c0 2.5981 0.25479 2.7542 2.1428 3.117l1.1227 0.20773v0.93529h-16.378v-0.8826" fill="#D82333"/>
<path d="m171.93 16.22c0-6.2259-0.67533-7.3149-2.5434-7.3149-2.024 0-2.5434 1.0889-2.5434 7.159 0 6.0701 0.62268 7.3159 2.5434 7.3159 2.024 0 2.5434-1.1416 2.5434-7.16zm5.9686 23.295c0-2.5938-1.5572-3.5795-4.8792-3.5795h-9.0314c-0.57003 0.62239-0.93453 1.7113-0.93453 3.7354 0 2.8529 1.4539 4.8253 6.1255 4.8253 5.8653 0 8.7195-1.7639 8.7195-4.9812zm-21.903 0.98571c0-2.4896 2.3358-4.3577 6.8505-4.8769v-0.10323c-3.6844-0.93409-5.19-2.8539-5.19-5.7068 0-3.114 2.2842-5.3961 4.2049-6.5376v-0.10323c-2.6993-1.4006-4.2565-3.5289-4.2565-6.6409 0-5.7594 5.0351-9.0798 11.782-9.0798 2.7509 0 5.2943 0.67502 7.0591 1.5565 1.6088-1.5565 3.6844-3.0087 6.0729-3.0087 1.9723 0 3.4769 0.98571 3.4769 3.1646 0 1.5049-0.72595 2.9055-2.7499 2.9055-1.7131 0-2.1282-0.72663-2.595-2.023-0.57206-1.6081-2.025-1.1942-3.2703-0.3117v0.10323c2.024 1.349 3.7887 3.3731 3.7887 5.9152 0 5.811-5.0351 9.0788-11.782 9.0788-2.3885 0-4.9308-0.46755-6.488-1.0899-0.31185 0.41594-0.77962 1.1942-0.77962 2.1789 0 0.83087 0.52042 1.4016 2.2325 1.4016h10.589c5.0867 0 9.084 1.6081 9.084 7.2116 0 7.2633-6.7999 11.465-16.039 11.465-8.1495 0-11.99-1.8682-11.99-5.4993z" fill="#D82333"/>
<path d="m192.09 19.422l6.9705-0.52668c0-7.473-0.67584-9.4206-3.1732-9.4206-2.133 0-3.7455 1.8942-3.7973 9.9473zm-10.093 3.4732c0-9.9473 7.4393-14.895 14.307-14.895 7.6463 0 12.433 3.6847 12.693 12.842h-16.907c0.15628 9.1578 3.1732 11.158 8.7392 11.158 2.8099 0 5.0465-0.7895 7.075-1.8418v0.99996c-1.7677 2.5266-5.8776 5.8417-11.809 5.8417-9.3643 0-14.098-4.9475-14.098-14.105z" fill="#D82333"/>
<path d="m207.2 35.117l0.92258-0.26042c2.0501-0.57151 2.152-0.72756 2.152-3.117v-17.038c0-2.286-0.050977-2.4938-1.6393-3.6368l-1.6403-1.1947v-0.51983l12.759-1.3508 0.40981 0.3121v3.9479h0.15393c2.7667-2.1817 5.8923-4.26 9.9405-4.26 3.8942 0 6.611 2.3377 6.611 6.9615v16.779c0 2.4421 0.15293 2.5455 2.203 3.117l0.92258 0.26042v0.8826h-15.834v-0.8826l0.76865-0.20874c1.7932-0.46714 1.8442-0.5705 1.8442-3.1686v-14.805c0-2.8049-1.1265-3.5851-3.0226-3.5851-1.4353 0-2.5109 0.10437-3.3825 0.3121v18.078c0 2.6498 0.10295 2.7015 1.8452 3.1686l0.76865 0.20874v0.8826h-15.783v-0.8826" fill="#D82333"/>
<path d="m249 31c0 2.2086-1.7907 3.9995-4 3.9995s-4-1.7909-4-3.9995c0-2.2095 1.7907-4.0005 4-4.0005s4 1.7909 4 4.0005" fill="#1A1919"/>
</g>
</g>
</svg>
