<?xml version="1.0" encoding="UTF-8"?>
<svg width="300px" height="300px" viewBox="0 0 300 300" version="1.1" xmlns="http://www.w3.org/2000/svg" xmlns:xlink="http://www.w3.org/1999/xlink">
    <!-- Generator: Sketch 51.2 (57519) - http://www.bohemiancoding.com/sketch -->
    <title>DeMorgen</title>
    <desc>Created with Sketch.</desc>
    <defs>
        <polygon id="path-1" points="0 0.0396138996 106.55813 0.0396138996 106.55813 35.8079942 0 35.8079942"></polygon>
    </defs>
    <g id="DeMorgen" stroke="none" stroke-width="1" fill="none" fill-rule="evenodd">
        <g id="Group" transform="translate(48.000000, 68.000000)">
            <path d="M56.3101613,42.2417947 C56.3101613,11.4762146 50.4935023,4.02313798 40.6031394,4.02313798 C38.0454435,4.02313798 36.415962,4.25857119 34.7864804,4.73174576 L34.7864804,70.7592186 C34.7864804,77.0305129 36.5317051,78.0945786 40.8368951,78.0945786 C50.7249885,78.0945786 56.3101613,66.973822 56.3101613,42.2417947 Z M0,79.9895851 L3.14095048,79.1586444 C7.44614055,77.976862 8.26088131,77.7391206 8.26088131,69.5751281 L8.26088131,12.4225638 C8.26088131,4.25857119 7.44614055,4.02313798 3.14095048,2.83904746 L0,2.01041491 L0,0 L42.8158755,0 C68.642477,0 84,12.6603051 84,39.1650059 C84,65.5542983 68.4109907,82 42.3483641,82 L0,82 L0,79.9895851 Z" id="Fill-1" fill="#1A1919"></path>
            <path d="M84,79.9895851 L87.1595317,79.1586444 C91.4901903,77.976862 92.3097509,76.5573383 92.3097509,67.2092552 L92.3097509,12.4225638 C92.3097509,4.25857119 91.4901903,4.02313798 87.1595317,2.83904746 L84,2.01041491 L84,0 L119.578975,0 L134.207789,41.5308788 L134.675783,41.5308788 L149.889019,0 L185,0 L185,2.01041491 L181.840468,2.83904746 C177.50981,4.02313798 176.690249,4.25857119 176.690249,12.4225638 L176.690249,69.5751281 C176.690249,77.7391206 177.50981,77.976862 181.840468,79.1586444 L185,79.9895851 L185,82 L141.346413,82 L141.346413,79.9895851 L144.505945,79.1586444 C149.069459,77.976862 149.772592,77.7391206 149.772592,69.5751281 L149.772592,13.6066543 L149.304597,13.6066543 L125.313616,80.2250183 L120.163397,80.2250183 L97.3412594,13.6066543 L96.8732652,13.6066543 L96.8732652,66.3806226 C96.8732652,76.3195969 97.2248316,77.8591454 102.491479,79.1586444 L105.767438,79.9895851 L105.767438,82 L84,82 L84,79.9895851" id="Fill-4" fill="#D82333"></path>
            <path d="M206,72.5010901 C206,77.746529 201.747017,82 196.5,82 C191.252983,82 187,77.746529 187,72.5010901 C187,67.253471 191.252983,63 196.5,63 C201.747017,63 206,67.253471 206,72.5010901" id="Fill-11" fill="#1A1919"></path>
        </g>
        <g id="Logo_DeMorgen-Copy" transform="translate(26.000000, 222.000000)">
            <g id="Group-5">
                <mask id="mask-2" fill="white">
                    <use xlink:href="#path-1"></use>
                </mask>
                <g id="Clip-2"></g>
                <path d="M24.5822593,18.140195 C24.5822593,4.93985328 22.0429907,1.74202124 17.7253426,1.74202124 C16.6087778,1.74202124 15.8974259,1.84303668 15.1860741,2.04605792 L15.1860741,30.3759382 C15.1860741,33.0667124 15.9479537,33.5232625 17.8273889,33.5232625 C22.1440463,33.5232625 24.5822593,28.7517683 24.5822593,18.140195 Z M0,34.3363378 L1.37118519,33.9798127 C3.25062037,33.4727548 3.6062963,33.370749 3.6062963,29.86789 L3.6062963,5.34589575 C3.6062963,1.84303668 3.25062037,1.74202124 1.37118519,1.23397297 L0,0.878438224 L0,0.0158455598 L18.6913148,0.0158455598 C29.9659444,0.0158455598 36.670287,5.44790154 36.670287,16.8200618 C36.670287,28.1427046 29.8648889,35.1989305 18.4872222,35.1989305 L0,35.1989305 L0,34.3363378 Z" id="Fill-1" fill="#1A1919" mask="url(#mask-2)"></path>
                <path d="M47.5456481,18.8512645 L54.352037,18.3432162 C54.352037,11.1344768 53.691213,9.25578764 51.2539907,9.25578764 C49.1714537,9.25578764 47.5961759,11.0829788 47.5456481,18.8512645 Z M37.6927315,22.20161 C37.6927315,12.6061332 44.9548611,7.83364865 51.6601944,7.83364865 C59.1254259,7.83364865 63.79875,11.3880058 64.0523796,20.2219054 L47.5456481,20.2219054 C47.6982222,29.055805 50.6436944,30.9850019 56.0788981,30.9850019 C58.8212685,30.9850019 61.0048611,30.2234247 62.9853519,29.2083185 L62.9853519,30.172917 C61.2594815,32.6101622 57.2469815,35.8079942 51.4561019,35.8079942 C42.314537,35.8079942 37.6927315,31.0355097 37.6927315,22.20161 Z" id="Fill-3" fill="#1A1919" mask="url(#mask-2)"></path>
                <path d="M62.7257778,34.3363378 L64.096963,33.9798127 C65.9763981,33.4727548 66.3320741,32.8636911 66.3320741,28.8527838 L66.3320741,5.34589575 C66.3320741,1.84303668 65.9763981,1.74202124 64.096963,1.23397297 L62.7257778,0.878438224 L62.7257778,0.0158455598 L78.1664722,0.0158455598 L84.5151389,17.835168 L84.7182407,17.835168 L91.320537,0.0158455598 L106.55813,0.0158455598 L106.55813,0.878438224 L105.186944,1.23397297 C103.307509,1.74202124 102.951833,1.84303668 102.951833,5.34589575 L102.951833,29.86789 C102.951833,33.370749 103.307509,33.4727548 105.186944,33.9798127 L106.55813,34.3363378 L106.55813,35.1989305 L87.6131852,35.1989305 L87.6131852,34.3363378 L88.9843704,33.9798127 C90.9648611,33.4727548 91.2700093,33.370749 91.2700093,29.86789 L91.2700093,5.85394402 L91.0669074,5.85394402 L80.655213,34.4373533 L78.4201019,34.4373533 L68.5156667,5.85394402 L68.3125648,5.85394402 L68.3125648,28.497249 C68.3125648,32.7616853 68.4651389,33.4222471 70.7507778,33.9798127 L72.1724907,34.3363378 L72.1724907,35.1989305 L62.7257778,35.1989305 L62.7257778,34.3363378" id="Fill-4" fill="#D82333" mask="url(#mask-2)"></path>
            </g>
            <path d="M123.621094,22.8423903 C123.621094,10.8428152 121.891277,9.52664 119.346668,9.52664 C116.955888,9.52664 115.378906,11.3161044 115.378906,21.8947853 C115.378906,34.0001062 116.650217,35.4743867 119.601725,35.4743867 C122.246569,35.4743867 123.621094,34.2629306 123.621094,22.8423903 Z M105,22.6319255 C105,11.9474988 112.376784,8 119.499504,8 C126.978509,8 134,12.5788933 134,22.4214607 C134,33.0535278 126.775059,37 119.499504,37 C111.969885,37 105,32.4211067 105,22.6319255 Z" id="Fill-6" fill="#D82333"></path>
            <path d="M133.204029,35.1174001 L134.122656,34.8569774 C136.162944,34.2854661 136.265456,34.1294152 136.265456,31.7400116 L136.265456,14.649392 C136.265456,12.4160394 136.214698,12.2083092 134.632231,11.0652866 L133,9.87058483 L133,9.35075275 L145.704526,8 L146.112584,8.31210191 L146.112584,12.4677186 L146.265855,12.4677186 C147.744815,10.5981471 150.500697,8.05269253 153.816912,8.05269253 C156.266253,8.05269253 158,9.50680371 158,12.4160394 C158,15.4286335 156.215494,17.1431673 153.715395,17.1431673 C151.266054,17.1431673 150.347426,16.0001448 149.632828,14.3899826 C149.275528,13.6107412 149.020741,13.3503185 148.408655,13.3503185 C147.694056,13.3503185 146.826187,13.6107412 146.316613,14.078894 L146.316613,31.7400116 C146.316613,34.3381587 146.5714,34.4942096 148.459413,34.8569774 L149.582069,35.0647076 L149.582069,36 L133.204029,36 L133.204029,35.1174001" id="Fill-7" fill="#D82333"></path>
            <path d="M171.934526,16.2203669 C171.934526,9.9944339 171.259197,8.90550285 169.391158,8.90550285 C167.367195,8.90550285 166.847789,9.9944339 166.847789,16.0645161 C166.847789,22.1345984 167.470469,23.3803922 169.391158,23.3803922 C171.41512,23.3803922 171.934526,22.2388362 171.934526,16.2203669 Z M177.903139,39.5149905 C177.903139,36.9211891 176.345933,35.9354839 173.023962,35.9354839 L163.992575,35.9354839 C163.422545,36.5578748 163.058049,37.6468058 163.058049,39.6708412 C163.058049,42.5237192 164.511981,44.4961417 169.183598,44.4961417 C175.048937,44.4961417 177.903139,42.7321948 177.903139,39.5149905 Z M156,40.5006958 C156,38.0111322 158.335808,36.1429475 162.850489,35.6237824 L162.850489,35.5205566 C159.166048,34.5864643 157.660479,32.6666667 157.660479,29.8137887 C157.660479,26.6998102 159.944651,24.4177103 161.865339,23.2761543 L161.865339,23.1729285 C159.166048,21.772296 157.608842,19.6440228 157.608842,16.5320683 C157.608842,10.7726755 162.643942,7.45224541 169.391158,7.45224541 C172.142086,7.45224541 174.685454,8.12726123 176.450219,9.00872865 C178.059062,7.45224541 180.134661,6 182.523118,6 C184.495444,6 186,6.98570525 186,9.16457938 C186,10.6694497 185.274047,12.0700822 183.250084,12.0700822 C181.536956,12.0700822 181.121836,11.3434535 180.655079,10.0470588 C180.083024,8.43896268 178.630105,8.85287793 177.384745,9.73535737 L177.384745,9.83858318 C179.408707,11.1876028 181.173473,13.2116382 181.173473,15.7538267 C181.173473,21.5648324 176.138373,24.8326376 169.391158,24.8326376 C167.0027,24.8326376 164.460344,24.3650854 162.903139,23.7426945 C162.591293,24.1586338 162.123523,24.9368754 162.123523,25.9215686 C162.123523,26.7524352 162.643942,27.3232132 164.356058,27.3232132 L174.944651,27.3232132 C180.031387,27.3232132 184.028687,28.9313093 184.028687,34.5348514 C184.028687,41.7981025 177.228822,46 167.989875,46 C159.840364,46 156,44.1318153 156,40.5006958 Z" id="Fill-8" fill="#D82333"></path>
            <path d="M192.092908,19.4215669 L199.063367,18.8948915 C199.063367,11.4218501 198.38753,9.47428045 195.890179,9.47428045 C193.757132,9.47428045 192.144661,11.3684639 192.092908,19.4215669 Z M182,22.8947499 C182,12.9474634 189.439283,8 196.30725,8 C203.953546,8 208.740219,11.6846745 209,20.8424611 L192.092908,20.8424611 C192.249183,30.0002478 195.266095,32.000177 200.832112,32.000177 C203.642012,32.000177 205.878566,31.2106772 207.907092,30.1583531 L207.907092,31.1583177 C206.139362,33.6849223 202.029541,37 196.098207,37 C186.733905,37 182,32.0525366 182,22.8947499 Z" id="Fill-9" fill="#D82333"></path>
            <path d="M207.204907,35.1174001 L208.127488,34.8569774 C210.177556,34.2854661 210.279509,34.1294152 210.279509,31.7400116 L210.279509,14.7020845 C210.279509,12.4160394 210.228532,12.2083092 208.640254,11.0652866 L207,9.87058483 L207,9.35075275 L219.7592,8 L220.169014,8.31210191 L220.169014,12.2599884 L220.322944,12.2599884 C223.089687,10.078315 226.215266,8 230.263426,8 C234.157656,8 236.874421,10.3377244 236.874421,14.9614939 L236.874421,31.7400116 C236.874421,34.1821077 237.027351,34.2854661 239.077419,34.8569774 L240,35.1174001 L240,36 L224.166197,36 L224.166197,35.1174001 L224.934848,34.9086566 C226.728033,34.4415171 226.77901,34.3381587 226.77901,31.7400116 L226.77901,16.9354372 C226.77901,14.1305732 225.652522,13.3503185 223.756383,13.3503185 C222.321036,13.3503185 221.245525,13.4546902 220.373921,13.6624204 L220.373921,31.7400116 C220.373921,34.3898379 220.476874,34.4415171 222.219082,34.9086566 L222.987733,35.1174001 L222.987733,36 L207.204907,36 L207.204907,35.1174001" id="Fill-10" fill="#D82333"></path>
            <path d="M249,31.000459 C249,33.2090648 247.20927,35 245,35 C242.79073,35 241,33.2090648 241,31.000459 C241,28.7909352 242.79073,27 245,27 C247.20927,27 249,28.7909352 249,31.000459" id="Fill-11" fill="#1A1919"></path>
        </g>
    </g>
</svg>