<?xml version="1.0" encoding="UTF-8"?>
<svg width="300px" height="300px" viewBox="0 0 300 300" version="1.1" xmlns="http://www.w3.org/2000/svg" xmlns:xlink="http://www.w3.org/1999/xlink">
    <!-- Generator: Sketch 51.2 (57519) - http://www.bohemiancoding.com/sketch -->
    <title>HLN</title>
    <desc>Created with Sketch.</desc>
    <defs>
        <polygon id="path-1" points="0 0.023125 148 0.023125 148 148 0 148"></polygon>
    </defs>
    <g id="HLN" stroke="none" stroke-width="1" fill="none" fill-rule="evenodd">
        <g id="Group" transform="translate(76.000000, 47.000000)">
            <g id="Group-3">
                <mask id="mask-2" fill="white">
                    <use xlink:href="#path-1"></use>
                </mask>
                <g id="Clip-2"></g>
                <path d="M139.328125,148 L8.671875,148 C3.8826875,148 0,144.117312 0,139.328125 L0,8.671875 C0,3.8826875 3.8826875,0 8.671875,0 L139.328125,0 C144.117312,0 148,3.8826875 148,8.671875 L148,139.328125 C148,144.117312 144.117312,148 139.328125,148" id="Fill-1" fill="#008FC5" mask="url(#mask-2)"></path>
            </g>
            <path d="M52.9167527,42.1941901 L52.9167527,106.684312 C52.9167527,108.842931 53.6112923,109.874509 55.8705683,110.908401 L55.8705683,115 L37.9997524,115 L37.9997524,110.908401 C40.2879194,109.874509 41.8827025,108.842931 41.8827025,106.684312 L41.8827025,79.2332252 C41.8827025,77.2904101 40.3994387,75.5882773 38.4527632,75.5882773 L31.8627265,75.5848059 C29.9304965,75.5848059 28.5633745,77.2967743 28.5633745,79.2257039 L28.5633745,106.808703 C28.5633745,108.954015 29.4832639,110.456543 31.745429,111.467293 L31.745429,115 L14,115 L14,110.908401 C16.2812332,109.874509 17.5270131,108.842931 17.5270131,106.684312 L17.5200792,42.1941901 C17.5200792,40.1518621 16.2812332,39.1121841 14,38.0968058 L14,34.1076127 L31.4189607,34.1076127 L31.4189607,37.4123655 C29.1354162,38.4370009 28.5633745,39.2307896 28.5633745,41.2771675 L28.5633745,69.6562692 L41.8827025,69.6562692 L41.8827025,42.0778989 C41.8827025,40.0257353 40.2879194,39.0011 37.9997524,37.9863002 L37.9997524,34 L56,34 L56,37.1925115 C54.3930827,37.9863002 52.9167527,39.8110884 52.9167527,42.1941901" id="Fill-4" fill="#FFFFFE"></path>
            <path d="M59,115 L59,110.455616 C61.3489608,109.413374 63.0230569,108.947001 63.0230569,107.013725 L63.0230569,41.9845365 C63.0230569,40.0501026 61.5716434,39.013654 59.4493417,37.88451 L59.4493417,34 L77.2332754,34 L77.2332754,37.88451 C74.9916795,39.013654 73.8822429,40.0501026 73.8822429,41.9845365 L73.8822429,109.197278 L79.1431197,109.197278 C81.5914923,109.197278 83.9665842,107.812643 85.8485932,105.082188 C86.7410279,103.931609 87.52837,101.534857 87.9737352,98.9220101 C88.3100314,96.6417071 90.9850632,95.9511276 93,95.9511276 L93,115 L59,115" id="Fill-5" fill="#FFFFFE"></path>
            <g id="Group-9" transform="translate(95.000000, 34.000000)" fill="#FFFFFE">
                <path d="M37.1011765,8.11916312 L37.1011765,81.4190213 L32.5817647,81.4190213 L11.1482353,23.5816879 L11.1482353,73.2963688 C11.1482353,75.3417163 11.6064706,76.4978582 13.9276471,77.5155887 L13.9276471,81.4190213 L0.264117647,81.4190213 L0.264117647,77.5155887 C2.46117647,76.4978582 4.42941176,75.3417163 4.42941176,73.2963688 L4.42941176,8.11916312 C4.42941176,5.84060993 2.46117647,5.02642553 0.264117647,4.00636879 L0.264117647,0.107588652 L12.8776471,0.107588652 L30.4923529,46.9365674 L30.4923529,8.11916312 C30.4923529,5.9522695 29.09,5.02642553 26.78,4.00636879 L26.78,0.107588652 L40,0.107588652 L40,4.00636879 C37.6623529,5.02642553 37.1011765,6.05636879 37.1011765,8.11916312" id="Fill-6"></path>
            </g>
        </g>
        <g id="Group-10" transform="translate(30.000000, 228.000000)" fill="#008FC5">
            <g id="Group-6">
                <path d="M16.7222277,3.41677333 L16.7222277,30.30896 C16.7222277,31.20928 17.0195842,31.63904 17.9879703,32.0706133 L17.9879703,33.7765067 L10.3288317,33.7765067 L10.3288317,32.0706133 C11.3093168,31.63904 11.9929109,31.20928 11.9929109,30.30896 L11.9929109,18.86184 C11.9929109,18.0517333 11.3572475,17.3422667 10.5228812,17.3422667 L7.69869307,17.3409067 C6.87037624,17.3409067 6.28450495,18.0544533 6.28450495,18.85912 L6.28450495,30.3610933 C6.28450495,31.25552 6.67865347,31.8820267 7.64843564,32.3036267 L7.64843564,33.7765067 L0.0428118812,33.7765067 L0.0428118812,32.0706133 C1.02050495,31.63904 1.55425743,31.20928 1.55425743,30.30896 L1.55146535,3.41677333 C1.55146535,2.56541333 1.02050495,2.13157333 0.0428118812,1.70861333 L0.0428118812,0.04488 L7.50836634,0.04488 L7.50836634,1.42301333 C6.52974257,1.85050667 6.28450495,2.18144 6.28450495,3.03461333 L6.28450495,14.8684267 L11.9929109,14.8684267 L11.9929109,3.36872 C11.9929109,2.51282667 11.3093168,2.08578667 10.3288317,1.66237333 L10.3288317,0 L18.0438119,0 L18.0438119,1.33144 C17.3546337,1.66237333 16.7222277,2.42352 16.7222277,3.41677333" id="Fill-8"></path>
                <path d="M46.129802,10.2104267 C45.7356535,10.2104267 45.3526733,9.97832 45.1567624,8.59792 C45.0599703,7.78736 44.8091485,7.02757333 44.5713564,6.55474667 C44.2735347,6.22245333 44.0334158,6.12453333 43.5969208,6.12453333 L41.9872871,6.12453333 L41.9872871,30.7831467 C41.9872871,31.63904 42.2753366,32.0706133 43.2539604,32.4904 L43.2539604,33.7765067 L36.7628416,33.7765067 L36.7628416,32.4904 C37.6893465,32.0706133 37.9848416,31.63904 37.9848416,30.7831467 L37.9848416,6.12453333 L36.4217426,6.12453333 C35.9880396,6.12453333 35.6920792,6.22245333 35.4528911,6.55474667 C35.204396,7.02757333 34.9107624,7.78736 34.8595743,8.59792 C34.6683168,9.97832 34.2774257,10.2104267 33.8437228,10.2104267 L33.0656634,10.2104267 L33.0656634,3.98797333 C33.3090396,4.03512 33.6436238,4.08272 33.8902574,4.12896 C34.1285149,4.17928 34.5268515,4.23005333 34.9652079,4.23005333 L45.0087822,4.23005333 C45.4471386,4.23005333 45.8454752,4.17928 46.129802,4.12896 C46.3722475,4.08272 46.7161386,4.03512 46.9148416,3.98797333 L46.9148416,10.2104267 L46.129802,10.2104267" id="Fill-10"></path>
                <path d="M19.9428911,33.7765067 L19.9428911,32.4904 C20.869396,32.0706133 21.0108614,31.63904 21.0108614,30.7831467 L21.0108614,7.12277333 C21.0108614,6.31810667 20.7674851,5.88834667 19.7460495,5.41688 L19.7460495,4.23005333 L29.8412772,4.23005333 C30.3261683,4.23005333 30.5760594,4.23005333 30.960901,4.12896 C31.2554653,4.08272 31.4043762,4.03512 31.6970792,3.98797333 L31.6970792,10.4021867 L30.6235248,10.3069867 C30.1805149,10.2566667 30.0827921,9.92346667 29.6928317,8.59792 C29.1609406,6.69437333 28.3293663,6.12453333 27.3046733,6.12453333 L25.061703,6.12453333 L25.061703,17.76296 L25.7429703,17.76296 C26.4772871,17.76296 27.5005842,17.4850667 27.6960297,16.6278133 C27.9394059,15.4405333 28.1343861,15.0556533 28.6220693,15.0556533 L29.599297,15.0556533 L29.599297,22.1371733 L28.6220693,22.1371733 C28.1343861,22.1371733 27.9394059,21.6648 27.6960297,20.4276533 C27.5005842,19.6161867 26.4772871,19.3382933 25.7429703,19.3382933 L25.061703,19.3382933 L25.061703,31.63904 L26.9649703,31.63904 C29.2042178,31.63904 30.960901,29.97576 31.1591386,27.7444533 C31.2103267,26.7901867 31.3531881,26.6020533 31.9399901,26.6020533 L32.7641188,26.6020533 L32.7641188,33.7765067 L19.9428911,33.7765067" id="Fill-11"></path>
            </g>
            <g id="Group-7" transform="translate(50.000000, 0.000000)">
                <path d="M0.0425607477,34.3644737 L0.0425607477,32.4417763 C1.06031776,32.0010526 1.78570093,31.8039474 1.78570093,30.9860526 L1.78570093,3.47605263 C1.78570093,2.65769737 1.15700467,2.21927632 0.23732243,1.74171053 L0.23732243,0.0980921053 L7.94451869,0.0980921053 L7.94451869,1.74171053 C6.97302336,2.21927632 6.49236449,2.65769737 6.49236449,3.47605263 L6.49236449,31.9094079 L8.77214019,31.9094079 C9.83338318,31.9094079 10.8627056,31.3240789 11.6787617,30.1686184 C12.0650467,29.6823026 12.4064579,28.6682237 12.5993692,27.5629605 C12.7450935,26.5981579 13.9044112,26.3057237 14.7778318,26.3057237 L14.7778318,34.3644737 L0.0425607477,34.3644737" id="Fill-12"></path>
                <path d="M35.8231963,24.3715132 L37.7115981,13.3727632 L38.5864065,13.3727632 L40.4748084,24.3715132 L35.8231963,24.3715132 Z M20.0151168,24.3715132 L21.8614206,13.3727632 L22.7348411,13.2286184 L24.5723551,24.3715132 L20.0151168,24.3715132 Z M45.4659813,31.1325 L40.2411869,3.67223684 L36.0244346,5.79296053 L36.6522056,8.06657895 L32.2809393,31.1325 C32.0931168,31.8536842 31.7540187,32.6748026 30.9708084,32.6748026 C30.3499766,32.6748026 29.858215,31.9522368 29.6611402,31.1325 L24.2855327,3.67223684 L20.1636168,5.79296053 L20.7455888,8.06657895 L16.6241355,30.5531579 C16.3840374,31.6667105 16.2350748,32.1493421 15.7030654,32.4417763 L15.7030654,34.3644737 L20.3098037,34.3644737 L20.3098037,32.9216447 C19.0982103,32.6748026 18.8109252,32.1958553 18.8109252,31.6667105 C18.8109252,31.2319737 18.896972,30.6954605 19.0491729,29.7348026 L19.6265187,26.3057237 L24.7703551,26.3057237 L25.6955888,31.4217105 C25.8861869,32.2469737 25.7376869,32.4846053 24.5723551,32.9216447 L24.5723551,34.3644737 L36.1151075,34.3644737 L36.1151075,32.9216447 C34.9497757,32.6748026 34.6120654,32.1958553 34.6120654,31.6667105 C34.6120654,31.2319737 34.7601028,30.6954605 34.9067523,29.7348026 L35.5317477,26.3057237 L40.7676449,26.3057237 L41.6901028,31.4217105 C41.8857897,32.2469737 41.3514673,32.4846053 40.2411869,32.9216447 L40.2411869,34.3644737 L46.8774252,34.3644737 L46.8774252,32.9216447 C46.2491916,32.6319737 45.6186449,32.0010526 45.4659813,31.1325 Z" id="Fill-13"></path>
                <path d="M85.8117196,34.3663158 L85.8117196,32.9211842 C86.7263131,32.4417763 87.0705,32.0024342 87.0705,31.1785526 L87.0705,7.28782895 C87.0705,6.47223684 86.8313271,5.99144737 86.0037056,5.55625 L86.0037056,4.35059211 L96.237715,4.35059211 C96.7197617,4.35059211 96.9159112,4.35059211 97.3470701,4.29763158 C97.6408318,4.24789474 97.8342056,4.10467105 98.0817056,4.05585526 L98.0817056,10.5709211 L97.057472,10.5244079 C96.6184486,10.4728289 96.4310888,10.1343421 96.0906028,8.73894737 C95.6006916,6.80657895 94.9266589,6.22539474 93.4675654,6.22539474 L91.0503925,6.22539474 L91.0503925,17.5713816 L92.1615981,17.5713816 C92.8934579,17.5713816 93.9065888,17.2315132 94.0990374,16.415 C94.3414486,15.2047368 94.538986,14.8178947 95.0210327,14.8178947 L95.9883645,14.8178947 L95.9883645,22.2982237 L95.0210327,22.2982237 C94.538986,22.2982237 94.3414486,21.9606579 94.0990374,20.7080263 C93.9065888,19.8896711 92.8934579,19.5986184 92.1615981,19.5986184 L91.0503925,19.5986184 L91.0503925,32.0024342 L92.8934579,32.0024342 C95.1690701,32.0024342 96.8640981,30.6015132 97.1074346,28.3306579 C97.1550841,27.4151316 97.3008084,27.2240132 97.8809299,27.2240132 L98.7067009,27.2240132 L98.7067009,34.3663158 L85.8117196,34.3663158" id="Fill-14"></path>
                <path d="M84.3054393,10.4258553 C83.8247804,10.4258553 83.4357196,10.1877632 83.2377196,8.78914474 C83.2377196,7.92013158 82.9458084,7.14 82.658986,6.66427632 C82.4151869,6.37460526 82.1283645,6.22539474 81.7383785,6.22539474 L80.2815981,6.22539474 L80.2815981,31.1785526 C80.2815981,32.0024342 80.5758224,32.4417763 81.5413037,32.9211842 L81.5413037,34.3663158 L75.0452383,34.3663158 L75.0452383,32.9211842 C76.0190467,32.4417763 76.3104953,32.0024342 76.3104953,31.1785526 L76.3104953,6.22539474 L74.7033645,6.22539474 C74.3217056,6.22539474 74.0284065,6.37460526 73.7850701,6.66427632 C73.4936215,7.14 73.3978598,7.92013158 73.1600748,8.78914474 C72.9611495,9.65953947 72.6234393,10.4258553 72.1844159,10.4258553 L71.4109206,10.4258553 L71.4109206,4.10467105 C71.6066075,4.15256579 71.9942804,4.24789474 72.1844159,4.29763158 C72.4763271,4.35059211 72.8630748,4.35059211 73.2988598,4.35059211 L83.2377196,4.35059211 C83.6753551,4.35059211 83.9705047,4.35059211 84.2601028,4.29763158 C84.4571776,4.24789474 84.8379112,4.15256579 85.0335981,4.10467105 L85.0335981,10.4258553 L84.3054393,10.4258553" id="Fill-15"></path>
                <path d="M57.9335047,10.4258553 C57.4954065,10.4258553 57.1535327,9.94552632 56.9694112,8.78914474 C56.8195234,7.92013158 56.4808879,7.14 56.2366262,6.66427632 C55.990514,6.37460526 55.7069299,6.22539474 55.319257,6.22539474 L53.6746542,6.22539474 L53.6746542,31.1785526 C53.6746542,32.0024342 54.0063505,32.4417763 54.9746075,32.9211842 L54.9746075,34.3663158 L48.7639766,34.3663158 L48.7639766,32.9211842 C49.7428738,32.4417763 49.6910607,32.0024342 49.6910607,31.1785526 L49.6910607,6.22539474 L48.1366682,6.22539474 C47.7508458,6.22539474 47.4168364,6.37460526 47.2146729,6.66427632 C46.9283131,7.14 46.6863645,7.92013158 46.5850514,8.78914474 C46.4462664,10.1877632 46.0562804,10.4258553 45.6195701,10.4258553 L44.8405234,10.4258553 L44.8405234,4.10467105 C45.0857103,4.15256579 45.3766963,4.24789474 45.6672196,4.29763158 C45.9091682,4.35059211 46.2973037,4.35059211 46.7881402,4.35059211 L56.671486,4.35059211 C57.1105093,4.35059211 57.5462944,4.35059211 57.7863925,4.29763158 C58.0810794,4.24789474 58.3720654,4.15256579 58.6144766,4.10467105 L58.6144766,10.4258553 L57.9335047,10.4258553" id="Fill-16"></path>
                <path d="M65.692514,34.6080921 C64.235271,34.6080921 63.0264533,33.8321053 62.0517196,33.8321053 C61.565972,33.8321053 61.2791495,34.1213158 60.9400514,34.5123026 L59.4828084,34.5123026 L59.4828084,25.62875 C60.3576168,25.62875 60.746215,25.7240789 60.9886262,25.9672368 C61.3762991,26.3048026 61.565972,26.8380921 61.7653598,27.8521711 C62.1058458,30.3578947 62.926528,32.5320395 65.302528,32.5320395 C67.1451308,32.5320395 68.6019112,30.6484868 68.6019112,28.6253947 C68.6019112,25.4334868 67.0984065,23.2206579 64.6247944,20.8521711 C61.3291121,17.7136842 59.9694813,15.4414474 59.9694813,11.0051974 C59.9694813,7.81881579 61.4762243,4.05585526 64.7177804,4.05585526 C65.5875,4.05585526 66.4692477,4.35059211 67.2390421,4.87467105 C67.5799907,5.07223684 67.8251776,5.16894737 68.2179393,5.16894737 C68.6463224,5.16894737 68.8878084,4.87467105 69.036771,4.35059211 L70.1521402,4.35059211 L70.1521402,11.2483553 L68.4557243,11.2483553 C68.4048364,10.5709211 68.1638131,9.84881579 67.876528,8.83151316 C67.2903925,6.91019737 66.6094206,6.03335526 65.1063785,6.03335526 C63.5552243,6.03335526 62.490743,7.62815789 62.490743,9.36388158 C62.490743,15.1094079 71.703757,17.3788816 71.703757,26.6446711 C71.703757,30.6015132 69.036771,34.6080921 65.692514,34.6080921" id="Fill-17"></path>
            </g>
            <g id="Group-8" transform="translate(153.000000, 0.000000)">
                <path d="M80.7094421,34.9023684 C79.2670737,34.9023684 78.0705947,34.1263816 77.1058105,34.1263816 C76.6250211,34.1263816 76.3411263,34.4155921 76.0054895,34.8070395 L74.5631211,34.8070395 L74.5631211,25.9230263 C75.429,25.9230263 75.8136316,26.0183553 76.0535684,26.2615132 C76.4372842,26.5990789 76.6250211,27.1323684 76.8223737,28.1464474 C77.1593842,30.6521711 77.9716895,32.8263158 80.3234368,32.8263158 C82.1472316,32.8263158 83.5891421,30.9427632 83.5891421,28.9196711 C83.5891421,25.7282237 82.1009842,23.5149342 79.6526211,21.1464474 C76.3905789,18.0079605 75.0448263,15.7361842 75.0448263,11.2994737 C75.0448263,8.11309211 76.5361895,4.35013158 79.7446579,4.35013158 C80.6055,4.35013158 81.4782474,4.64486842 82.2401842,5.16894737 C82.5776526,5.36651316 82.8203368,5.46322368 83.2090895,5.46322368 C83.6331,5.46322368 83.8721211,5.16894737 84.0195632,4.64486842 L85.1235474,4.64486842 L85.1235474,11.5426316 L83.4444474,11.5426316 C83.3940789,10.8656579 83.1555158,10.1430921 82.8716211,9.12578947 C82.2910105,7.20447368 81.6169895,6.32763158 80.1292895,6.32763158 C78.5939684,6.32763158 77.5403526,7.92289474 77.5403526,9.65815789 C77.5403526,15.4036842 86.6593263,17.6736184 86.6593263,26.9394079 C86.6593263,30.8957895 84.0195632,34.9023684 80.7094421,34.9023684" id="Fill-18"></path>
                <path d="M15.3023842,3.76986842 L15.3023842,34.6605921 L13.4300526,34.6605921 L4.55101579,10.2863158 L4.55101579,31.2375 C4.55101579,32.0991447 4.74104211,32.5863816 5.70216316,33.0151316 L5.70216316,34.6605921 L0.0421263158,34.6605921 L0.0421263158,33.0151316 C0.952421053,32.5863816 1.76747368,32.0991447 1.76747368,31.2375 L1.76747368,3.76986842 C1.76747368,2.80967105 0.952421053,2.46657895 0.0421263158,2.03644737 L0.0421263158,0.39375 L5.26716316,0.39375 L12.5646316,20.1282237 L12.5646316,3.76986842 C12.5646316,2.85664474 11.9835632,2.46657895 11.0265632,2.03644737 L11.0265632,0.39375 L16.5034421,0.39375 L16.5034421,2.03644737 C15.5349947,2.46657895 15.3023842,2.90039474 15.3023842,3.76986842" id="Fill-19"></path>
                <path d="M25.9507263,34.7075658 L25.9507263,33.5042105 C26.9113895,33.0634868 27.0043421,32.6319737 27.0043421,31.7164474 L27.0043421,7.68434211 C27.0043421,6.81348684 26.7666947,6.28664474 26.1892895,5.8975 L26.1892895,4.68953947 L36.1274368,4.68953947 C36.5528211,4.68953947 36.7991684,4.68953947 37.2305053,4.64486842 C37.4681526,4.59328947 37.6600105,4.54263158 37.9026947,4.49565789 L37.9026947,10.9153947 L36.8934947,10.8656579 C36.4607842,10.8186842 36.3133421,10.4848026 35.9314579,9.0825 C35.4525,7.20447368 34.7807684,6.61592105 33.3915158,6.61592105 L30.9426947,6.61592105 L30.9426947,17.8656579 L32.0961316,17.8656579 C32.8168579,17.8656579 33.7734,17.5755263 33.9606789,16.7557895 C34.2523579,15.5482895 34.3956789,15.1582237 34.9314158,15.1582237 L35.8394211,15.1582237 L35.8394211,22.6380921 L34.9314158,22.6380921 C34.3956789,22.6380921 34.2523579,22.2558553 33.9606789,21.0497368 C33.7734,20.2267763 32.8168579,19.9389474 32.0961316,19.9389474 L30.9426947,19.9389474 L30.9426947,32.5863816 L32.8168579,32.5863816 C35.0193316,32.5863816 36.7497158,30.9446053 36.9456947,28.6792763 C36.9891947,27.7591447 37.1293105,27.51875 37.7094632,27.51875 L38.5258895,27.51875 L38.5258895,34.7075658 L25.9507263,34.7075658" id="Fill-20"></path>
                <path d="M17.7915,34.6605921 L17.7915,33.4530921 C18.7526211,33.0151316 19.0415526,32.5863816 19.0415526,31.6690132 L19.0415526,7.63322368 C19.0415526,6.76651316 18.7526211,6.28664474 17.7915,5.85098684 L17.7915,4.64486842 L24.2253789,4.64486842 L24.2253789,5.85098684 C23.2587632,6.28664474 22.9771579,6.71677632 22.9771579,7.63322368 L22.9771579,31.6690132 C22.9771579,32.5863816 23.2587632,33.0151316 24.2253789,33.4530921 L24.2253789,34.6605921 L17.7915,34.6605921" id="Fill-21"></path>
                <path d="M73.7888211,8.59940789 L69.5162053,34.65875 L67.6438737,34.65875 L64.4326579,17.3857895 L61.5067105,34.65875 L59.5377632,34.65875 L54.9299684,9.36572368 C54.4006421,6.47269737 54.0691263,5.85236842 53.2975737,5.85236842 C52.4806895,5.85236842 52.1052158,6.71723684 52.1052158,7.63322368 L52.1052158,29.05875 C52.1052158,31.9107895 49.5579474,35 46.1035895,35 C44.0888526,35 39.9156,33.8426974 39.9156,28.6797368 L39.9156,7.63322368 C39.9156,6.76559211 39.4783105,6.23138158 38.7617053,5.85236842 L38.7617053,4.64302632 L45.0431053,4.64302632 L45.0431053,5.85236842 C44.1328105,6.28710526 43.8447947,6.71723684 43.8447947,7.63322368 L43.8447947,28.0455921 C43.8447947,31.2365789 44.8562842,32.6794079 46.9158947,32.6794079 C48.0656684,32.6794079 49.5094105,32.0056579 49.5094105,29.5455263 L49.5094105,7.63322368 C49.5094105,6.76559211 49.2232263,6.28710526 48.2625632,5.85236842 L48.2625632,4.64302632 L59.8720263,4.64302632 L59.8720263,5.85236842 C59.4416053,6.04394737 58.7222526,6.51967105 58.7222526,7.05710526 C58.7222526,7.58302632 58.9131947,8.54967105 58.9640211,9.08342105 L61.2177789,22.1126316 L63.3836211,11.1106579 L62.6564842,7.63322368 C62.4705789,6.76559211 62.0401579,6.23138158 61.3116474,5.85236842 L61.3116474,4.64302632 L68.0353737,4.64302632 L68.0353737,5.85236842 C67.3091526,6.14065789 66.8361474,6.37967105 66.8361474,6.85953947 C66.8361474,7.63322368 67.0248,8.54967105 67.1237053,9.08342105 L69.3280105,22.1126316 L71.1540947,9.70973684 C71.2932947,8.69335526 71.3944895,7.68296053 71.3944895,7.20401316 C71.3944895,6.56940789 70.7168053,6.14065789 70.0931526,5.85236842 L70.0931526,4.64302632 L75.5622474,4.64302632 L75.5622474,5.85236842 C74.4610105,6.28710526 73.9385526,7.72993421 73.7888211,8.59940789" id="Fill-22"></path>
            </g>
        </g>
    </g>
</svg>