<?xml version="1.0" encoding="UTF-8"?>
<svg version="1.1" viewBox="0 0 300 300" xmlns="http://www.w3.org/2000/svg" xmlns:xlink="http://www.w3.org/1999/xlink">
<title>HLN</title>
<desc>Created with Sketch.</desc>
<defs>
<polygon id="a" points="0 0.023125 148 0.023125 148 148 0 148"/>
</defs>
<g fill="none" fill-rule="evenodd">
<g transform="translate(76 47)">
<mask id="b" fill="white">
<use xlink:href="#a"/>
</mask>
<path d="m139.33 148h-130.66c-4.7892 0-8.6719-3.8827-8.6719-8.6719v-130.66c0-4.7892 3.8827-8.6719 8.6719-8.6719h130.66c4.7892 0 8.6719 3.8827 8.6719 8.6719v130.66c0 4.7892-3.8827 8.6719-8.6719 8.6719" fill="#008FC5" mask="url(#b)"/>
<path d="m52.917 42.194v64.49c0 2.1586 0.69454 3.1902 2.9538 4.2241v4.0916h-17.871v-4.0916c2.2882-1.0339 3.883-2.0655 3.883-4.2241v-27.451c0-1.9428-1.4833-3.6449-3.4299-3.6449l-6.59-0.0034714c-1.9322 0-3.2994 1.712-3.2994 3.6409v27.583c0 2.1453 0.91989 3.6478 3.1821 4.6586v3.5327h-17.745v-4.0916c2.2812-1.0339 3.527-2.0655 3.527-4.2241l-0.0069339-64.49c0-2.0423-1.2388-3.082-3.5201-4.0974v-3.9892h17.419v3.3048c-2.2835 1.0246-2.8556 1.8184-2.8556 3.8648v28.379h13.319v-27.578c0-2.0522-1.5948-3.0768-3.883-4.0916v-3.9863h18v3.1925c-1.6069 0.79379-3.0832 2.6186-3.0832 5.0017" fill="#FFFFFE"/>
<path d="m59 115v-4.5444c2.349-1.0422 4.0231-1.5086 4.0231-3.4419v-65.029c0-1.9344-1.4514-2.9709-3.5737-4.1v-3.8845h17.784v3.8845c-2.2416 1.1291-3.351 2.1656-3.351 4.1v67.213h5.2609c2.4484 0 4.8235-1.3846 6.7055-4.1151 0.89243-1.1506 1.6798-3.5473 2.1251-6.1602 0.3363-2.2803 3.0113-2.9709 5.0263-2.9709v19.049h-34" fill="#FFFFFE"/>
<g transform="translate(95 34)" fill="#FFFFFE">
<path d="m37.101 8.1192v73.3h-4.5194l-21.434-57.837v49.715c0 2.0453 0.45824 3.2015 2.7794 4.2192v3.9034h-13.664v-3.9034c2.1971-1.0177 4.1653-2.1739 4.1653-4.2192v-65.177c0-2.2786-1.9682-3.0927-4.1653-4.1128v-3.8988h12.614l17.615 46.829v-38.817c0-2.1669-1.4024-3.0927-3.7124-4.1128v-3.8988h13.22v3.8988c-2.3376 1.0201-2.8988 2.05-2.8988 4.1128"/>
</g>
</g>
<g transform="translate(30 228)" fill="#008FC5">
<path d="m16.722 3.4168v26.892c0 0.90032 0.29736 1.3301 1.2657 1.7617v1.7059h-7.6591v-1.7059c0.98049-0.43157 1.6641-0.86133 1.6641-1.7617v-11.447c0-0.81011-0.63566-1.5196-1.47-1.5196l-2.8242-0.00136c-0.82832 0-1.4142 0.71355-1.4142 1.5182v11.502c0 0.89443 0.39415 1.5209 1.3639 1.9425v1.4729h-7.6056v-1.7059c0.97769-0.43157 1.5114-0.86133 1.5114-1.7617l-0.0027921-26.892c0-0.85136-0.53096-1.2852-1.5087-1.7082v-1.6637h7.4656v1.3781c-0.97862 0.42749-1.2239 0.75843-1.2239 1.6116v11.834h5.7084v-11.5c0-0.85589-0.68359-1.2829-1.6641-1.7063v-1.6624h7.715v1.3314c-0.68918 0.33093-1.3216 1.0921-1.3216 2.0853"/>
<path d="m46.13 10.21c-0.39415 0-0.77713-0.23211-0.97304-1.6125-0.096792-0.81056-0.34761-1.5703-0.58541-2.0432-0.29782-0.33229-0.53794-0.43021-0.97444-0.43021h-1.6096v24.659c0 0.85589 0.28805 1.2875 1.2667 1.7073v1.2861h-6.4911v-1.2861c0.9265-0.41979 1.222-0.85136 1.222-1.7073v-24.659h-1.5631c-0.4337 0-0.72966 0.09792-0.96885 0.43021-0.2485 0.47283-0.54213 1.2326-0.59332 2.0432-0.19126 1.3804-0.58215 1.6125-1.0159 1.6125h-0.77806v-6.2225c0.24338 0.047147 0.57796 0.094747 0.82459 0.14099 0.23826 0.05032 0.63659 0.10109 1.075 0.10109h10.044c0.43836 0 0.83669-0.050773 1.121-0.10109 0.24245-0.04624 0.58634-0.09384 0.78504-0.14099v6.2225h-0.78504"/>
<path d="m19.943 33.777v-1.2861c0.9265-0.41979 1.068-0.85136 1.068-1.7073v-23.66c0-0.80467-0.24338-1.2344-1.2648-1.7059v-1.1868h10.095c0.48489 0 0.73478 0 1.1196-0.10109 0.29456-0.04624 0.44348-0.09384 0.73618-0.14099v6.4142l-1.0736-0.0952c-0.44301-0.05032-0.54073-0.38352-0.93069-1.7091-0.53189-1.9035-1.3635-2.4734-2.3882-2.4734h-2.243v11.638h0.68127c0.73432 0 1.7576-0.27789 1.9531-1.1351 0.24338-1.1873 0.43836-1.5722 0.92604-1.5722h0.97723v7.0815h-0.97723c-0.48768 0-0.68266-0.47237-0.92604-1.7095-0.19545-0.81147-1.2187-1.0894-1.9531-1.0894h-0.68127v12.301h1.9033c2.2392 0 3.9959-1.6633 4.1942-3.8946 0.051188-0.95427 0.19405-1.1424 0.78085-1.1424h0.82413v7.1745h-12.821"/>
<g transform="translate(50)">
<path d="m0.042561 34.364v-1.9227c1.0178-0.44072 1.7431-0.63783 1.7431-1.4557v-27.51c0-0.81836-0.6287-1.2568-1.5484-1.7343v-1.6436h7.7072v1.6436c-0.9715 0.47757-1.4522 0.91599-1.4522 1.7343v28.433h2.2798c1.0612 0 2.0906-0.58533 2.9066-1.7408 0.38628-0.48632 0.7277-1.5004 0.92061-2.6057 0.14572-0.9648 1.305-1.2572 2.1785-1.2572v8.0588h-14.735"/>
<path d="m35.823 24.372l1.8884-10.999h0.87481l1.8884 10.999h-4.6516zm-15.808 0l1.8463-10.999 0.87342-0.14414 1.8375 11.143h-4.5572zm25.451 6.761l-5.2248-27.46-4.2168 2.1207 0.62777 2.2736-4.3713 23.066c-0.18782 0.72118-0.52692 1.5423-1.3101 1.5423-0.62083 0-1.1126-0.72257-1.3097-1.5423l-5.3756-27.46-4.1219 2.1207 0.58197 2.2736-4.1215 22.487c-0.2401 1.1136-0.38906 1.5962-0.92107 1.8886v1.9227h4.6067v-1.4428c-1.2116-0.24684-1.4989-0.72579-1.4989-1.2549 0-0.43474 0.086047-0.97125 0.23825-1.9319l0.57735-3.4291h5.1438l0.92523 5.116c0.1906 0.82526 0.042098 1.0629-1.1232 1.4999v1.4428h11.543v-1.4428c-1.1653-0.24684-1.503-0.72579-1.503-1.2549 0-0.43474 0.14804-0.97125 0.29469-1.9319l0.625-3.4291h5.2359l0.92246 5.116c0.19569 0.82526-0.33864 1.0629-1.4489 1.4999v1.4428h6.6362v-1.4428c-0.62823-0.28967-1.2588-0.92059-1.4114-1.7891z"/>
<path d="m85.812 34.366v-1.4451c0.91459-0.47941 1.2588-0.91875 1.2588-1.7426v-23.891c0-0.81559-0.23917-1.2964-1.0668-1.7316v-1.2057h10.234c0.48205 0 0.6782 0 1.1094-0.052961 0.29376-0.049737 0.48714-0.19296 0.73464-0.24178v6.5151l-1.0242-0.046513c-0.43902-0.051579-0.62638-0.39007-0.96687-1.7855-0.48991-1.9324-1.1639-2.5136-2.623-2.5136h-2.4172v11.346h1.1112c0.73186 0 1.745-0.33987 1.9374-1.1564 0.24241-1.2103 0.43995-1.5971 0.922-1.5971h0.96733v7.4803h-0.96733c-0.48205 0-0.67958-0.33757-0.922-1.5902-0.19245-0.81836-1.2056-1.1094-1.9374-1.1094h-1.1112v12.404h1.8431c2.2756 0 3.9706-1.4009 4.214-3.6718 0.04765-0.91553 0.19337-1.1066 0.7735-1.1066h0.82577v7.1423h-12.895"/>
<path d="m84.305 10.426c-0.48066 0-0.86972-0.23809-1.0677-1.6367 0-0.86901-0.29191-1.6491-0.57873-2.1249-0.2438-0.28967-0.53062-0.43888-0.92061-0.43888h-1.4568v24.953c0 0.82388 0.29422 1.2632 1.2597 1.7426v1.4451h-6.4961v-1.4451c0.97381-0.47941 1.2653-0.91875 1.2653-1.7426v-24.953h-1.6071c-0.38166 0-0.67496 0.14921-0.91829 0.43888-0.29145 0.47572-0.38721 1.2559-0.625 2.1249-0.19893 0.87039-0.53664 1.6367-0.97566 1.6367h-0.7735v-6.3212c0.19569 0.047895 0.58336 0.14322 0.7735 0.19296 0.29191 0.052961 0.67866 0.052961 1.1144 0.052961h9.9389c0.43764 0 0.73279 0 1.0224-0.052961 0.19707-0.049737 0.57781-0.14507 0.7735-0.19296v6.3212h-0.72816"/>
<path d="m57.934 10.426c-0.4381 0-0.77997-0.48033-0.96409-1.6367-0.14989-0.86901-0.48852-1.6491-0.73278-2.1249-0.24611-0.28967-0.5297-0.43888-0.91737-0.43888h-1.6446v24.953c0 0.82388 0.3317 1.2632 1.3 1.7426v1.4451h-6.2106v-1.4451c0.9789-0.47941 0.92708-0.91875 0.92708-1.7426v-24.953h-1.5544c-0.38582 0-0.71983 0.14921-0.922 0.43888-0.28636 0.47572-0.52831 1.2559-0.62962 2.1249-0.13878 1.3986-0.52877 1.6367-0.96548 1.6367h-0.77905v-6.3212c0.24519 0.047895 0.53617 0.14322 0.8267 0.19296 0.24195 0.052961 0.63008 0.052961 1.1209 0.052961h9.8833c0.43902 0 0.87481 0 1.1149-0.052961 0.29469-0.049737 0.58567-0.14507 0.82808-0.19296v6.3212h-0.68097"/>
<path d="m65.693 34.608c-1.4572 0-2.6661-0.77599-3.6408-0.77599-0.48575 0-0.77257 0.28921-1.1117 0.6802h-1.4572v-8.8836c0.87481 0 1.2634 0.095329 1.5058 0.33849 0.38767 0.33757 0.57735 0.87086 0.77673 1.8849 0.34049 2.5057 1.1612 4.6799 3.5372 4.6799 1.8426 0 3.2994-1.8836 3.2994-3.9066 0-3.1919-1.5035-5.4047-3.9771-7.7732-3.2957-3.1385-4.6553-5.4107-4.6553-9.847 0-3.1864 1.5067-6.9493 4.7483-6.9493 0.86972 0 1.7515 0.29474 2.5213 0.81882 0.34095 0.19757 0.58614 0.29428 0.9789 0.29428 0.42838 0 0.66987-0.29428 0.81883-0.81836h1.1154v6.8978h-1.6964c-0.050888-0.67743-0.29191-1.3995-0.5792-2.4168-0.58614-1.9213-1.2671-2.7982-2.7701-2.7982-1.5512 0-2.6156 1.5948-2.6156 3.3305 0 5.7455 9.213 8.015 9.213 17.281 0 3.9568-2.667 7.9634-6.0112 7.9634"/>
</g>
<g transform="translate(153)">
<path d="m80.709 34.902c-1.4424 0-2.6388-0.77599-3.6036-0.77599-0.48079 0-0.76468 0.28921-1.1003 0.68066h-1.4424v-8.884c0.86588 0 1.2505 0.095329 1.4904 0.33849 0.38372 0.33757 0.57145 0.87086 0.76881 1.8849 0.33701 2.5057 1.1493 4.6799 3.5011 4.6799 1.8238 0 3.2657-1.8836 3.2657-3.9066 0-3.1914-1.4882-5.4047-3.9365-7.7732-3.262-3.1385-4.6078-5.4103-4.6078-9.847 0-3.1864 1.4914-6.9493 4.6998-6.9493 0.86084 0 1.7336 0.29474 2.4955 0.81882 0.33747 0.19757 0.58015 0.29428 0.96891 0.29428 0.42401 0 0.66303-0.29428 0.81047-0.81836h1.104v6.8978h-1.6791c-0.050368-0.67697-0.28893-1.3995-0.57283-2.4168-0.58061-1.9213-1.2546-2.7982-2.7423-2.7982-1.5353 0-2.5889 1.5953-2.5889 3.3305 0 5.7455 9.119 8.0155 9.119 17.281 0 3.9564-2.6398 7.963-5.9499 7.963"/>
<path d="m15.302 3.7699v30.891h-1.8723l-8.879-24.374v20.951c0 0.86164 0.19003 1.3489 1.1511 1.7776v1.6455h-5.66v-1.6455c0.91029-0.42875 1.7253-0.91599 1.7253-1.7776v-27.468c0-0.9602-0.81505-1.3033-1.7253-1.7334v-1.6427h5.225l7.2975 19.734v-16.358c0-0.91322-0.58107-1.3033-1.5381-1.7334v-1.6427h5.4769v1.6427c-0.96845 0.43013-1.2011 0.86395-1.2011 1.7334"/>
<path d="m25.951 34.708v-1.2034c0.96066-0.44072 1.0536-0.87224 1.0536-1.7878v-24.032c0-0.87086-0.23765-1.3977-0.81505-1.7868v-1.208h9.9381c0.42538 0 0.67173 0 1.1031-0.044671 0.23765-0.051579 0.42951-0.10224 0.67219-0.14921v6.4197l-1.0092-0.049737c-0.43271-0.046974-0.58015-0.38086-0.96204-1.7832-0.47896-1.878-1.1507-2.4666-2.5399-2.4666h-2.4488v11.25h1.1534c0.72073 0 1.6773-0.29013 1.8645-1.1099 0.29168-1.2075 0.435-1.5976 0.97074-1.5976h0.90801v7.4799h-0.90801c-0.53574 0-0.67906-0.38224-0.97074-1.5884-0.18728-0.82296-1.1438-1.1108-1.8645-1.1108h-1.1534v12.647h1.8742c2.2025 0 3.9329-1.6418 4.1288-3.9071 0.0435-0.92013 0.18362-1.1605 0.76377-1.1605h0.81643v7.1888h-12.575"/>
<path d="m17.792 34.661v-1.2075c0.96112-0.43796 1.2501-0.86671 1.2501-1.7841v-24.036c0-0.86671-0.28893-1.3466-1.2501-1.7822v-1.2061h6.4339v1.2061c-0.96662 0.43566-1.2482 0.86579-1.2482 1.7822v24.036c0 0.91737 0.28161 1.3461 1.2482 1.7841v1.2075h-6.4339"/>
<path d="m73.789 8.5994l-4.2726 26.059h-1.8723l-3.2112-17.273-2.9259 17.273h-1.9689l-4.6078-25.293c-0.52933-2.893-0.86084-3.5134-1.6324-3.5134-0.81688 0-1.1924 0.86487-1.1924 1.7809v21.426c0 2.852-2.5473 5.9412-6.0016 5.9412-2.0147 0-6.188-1.1573-6.188-6.3203v-21.047c0-0.86763-0.43729-1.4018-1.1539-1.7809v-1.2093h6.2814v1.2093c-0.91029 0.43474-1.1983 0.86487-1.1983 1.7809v20.412c0 3.191 1.0115 4.6338 3.0711 4.6338 1.1498 0 2.5935-0.67375 2.5935-3.1339v-21.912c0-0.86763-0.28618-1.3461-1.2468-1.7809v-1.2093h11.609v1.2093c-0.43042 0.19158-1.1498 0.6673-1.1498 1.2047 0 0.52592 0.19094 1.4926 0.24177 2.0263l2.2538 13.029 2.1658-11.002-0.72714-3.4774c-0.18591-0.86763-0.61633-1.4018-1.3448-1.7809v-1.2093h6.7237v1.2093c-0.72622 0.28829-1.1992 0.5273-1.1992 1.0072 0 0.77368 0.18865 1.6901 0.28756 2.2239l2.2043 13.029 1.8261-12.403c0.1392-1.0164 0.24039-2.0268 0.24039-2.5057 0-0.63461-0.67768-1.0634-1.3013-1.3516v-1.2093h5.4691v1.2093c-1.1012 0.43474-1.6237 1.8776-1.7734 2.747"/>
</g>
</g>
</g>
</svg>
