<?xml version="1.0" encoding="UTF-8"?>
<svg width="300px" height="300px" viewBox="0 0 300 300" version="1.1" xmlns="http://www.w3.org/2000/svg" xmlns:xlink="http://www.w3.org/1999/xlink">
    <!-- Generator: Sketch 51.2 (57519) - http://www.bohemiancoding.com/sketch -->
    <title>Intermediair</title>
    <desc>Created with Sketch.</desc>
    <defs>
        <polygon id="path-1" points="0.434600823 0.15683871 171.751556 0.15683871 171.751556 65.9574194 0.434600823 65.9574194"></polygon>
    </defs>
    <g id="Intermediair" stroke="none" stroke-width="1" fill="none" fill-rule="evenodd">
        <g id="Intermediair_rechts_cmyk" transform="translate(18.000000, 112.000000)">
            <path d="M0,38 L7,38 L7,10.4951362 L0,10.4951362 L0,38 Z M0,6.23984977 L7,6.23984977 L7,0 L0,0 L0,6.23984977 Z" id="Fill-1" fill="#1C1B19"></path>
            <path d="M17.6706949,10.7327989 L17.6706949,14.5341492 L17.823379,14.5341492 C18.709505,12.9538524 19.8647455,11.8004906 21.2856147,11.0804359 C22.7092726,10.3625054 24.1601208,10 25.6381594,10 C27.5184755,10 29.0697188,10.2754191 30.2695794,10.8170531 C31.4798977,11.3608112 32.4204044,12.1212228 33.1182896,13.0834197 C33.8105973,14.0534048 34.2951429,15.2301312 34.5823844,16.6199712 C34.8577736,18.005563 35,19.5469189 35,21.2312944 L35,38 L27.9758308,38 L27.9758308,22.5977697 C27.9758308,20.3505196 27.6432721,18.6718082 26.9823379,17.5630516 C26.3207065,16.457835 25.1557053,15.9006246 23.4657216,15.9006246 C21.5540321,15.9006246 20.1603532,16.5102283 19.3021148,17.7216477 C18.4487567,18.9316509 18.0151057,20.9310946 18.0151057,23.7079424 L18.0151057,38 L11,38 L11,10.7327989 L17.6706949,10.7327989" id="Fill-2" fill="#1C1B19"></path>
            <path d="M54,11.2508772 L54,16.3132991 L48.6786503,16.3132991 L48.6786503,29.9177553 C48.6786503,31.1929946 48.8830954,32.0422027 49.2927078,32.4675204 C49.7044875,32.8935516 50.5193779,33.1069241 51.7539946,33.1069241 C52.1592725,33.1069241 52.550102,33.0905108 52.9250382,33.0541162 C53.3014193,33.0162943 53.6590175,32.9634864 54,32.8935516 L54,38.7017067 C53.3881098,38.8201677 52.7025327,38.9008068 51.9584396,38.9386287 C51.204955,38.9764505 50.4695309,39 49.7550569,39 C48.6251912,39 47.5646779,38.9193609 46.554734,38.7573691 C45.5426228,38.5989454 44.654768,38.287807 43.8890022,37.8289492 C43.1210692,37.3722322 42.5106238,36.7142744 42.0713921,35.8636391 C41.6249363,35.0122901 41.4024307,33.8976153 41.4024307,32.5160465 L41.4024307,16.3132991 L37,16.3132991 L37,11.2508772 L41.4024307,11.2508772 L41.4024307,3 L48.6786503,3 L48.6786503,11.2508772 L54,11.2508772" id="Fill-3" fill="#1C1B19"></path>
            <path d="M71.0098659,17.2144739 C70.1500203,16.216173 68.8534954,15.7170225 67.1082008,15.7170225 C65.9638736,15.7170225 65.0208171,15.9191106 64.2576952,16.3318559 C63.5016854,16.7417448 62.9014292,17.2523208 62.4462586,17.8607274 C61.9903769,18.4669917 61.6724687,19.1103888 61.4882668,19.7880623 C61.3047762,20.4657359 61.1916948,21.0755707 61.1596906,21.6111398 L72.7949879,21.6111398 C72.4635669,19.6830908 71.8704227,18.2163453 71.0098659,17.2144739 M62.9227653,31.6976927 C64.0016618,32.7966807 65.547108,33.3443895 67.561949,33.3443895 C69.0049819,33.3443895 70.2503,32.9652065 71.2872355,32.210411 C72.3291493,31.4506168 72.9685217,30.6472631 73.2053526,29.803206 L79.499508,29.803206 C78.4931543,33.1015981 76.9477081,35.4588166 74.8617467,36.8777179 C72.7814751,38.2944769 70.2680801,39 67.3116051,39 C65.257648,39 63.4120737,38.6558075 61.764214,37.962424 C60.1177768,37.2704686 58.7231057,36.2835931 57.5780673,35.0046539 C56.4337401,33.7214302 55.5511359,32.1982714 54.9330996,30.4173254 C54.3072401,28.6385216 54,26.6861934 54,24.5510576 C54,22.4923297 54.3179082,20.5735638 54.9572806,18.79476 C55.596653,17.0166704 56.5077053,15.4785157 57.6840367,14.1781537 C58.8603681,12.8842186 60.2628624,11.8587821 61.8915195,11.1168403 C63.5159094,10.3720421 65.3280572,10 67.3116051,10 C69.5206048,10 71.452946,10.4477358 73.0993832,11.3582034 C74.7451093,12.2651006 76.1013753,13.4883406 77.1539572,15.016498 C78.2172072,16.5482259 78.9803291,18.2898968 79.4539909,20.2472237 C79.9198295,22.2052646 80.0898073,24.2497107 79.9553897,26.3862747 L61.1596906,26.3862747 C61.262104,28.8284701 61.8524033,30.5987048 62.9227653,31.6976927" id="Fill-4" fill="#1C1B19"></path>
            <path d="M88.8997925,10.7286245 L88.8997925,15.7978403 L88.9977129,15.7978403 C89.3339545,14.9552133 89.7969167,14.1685254 90.3779594,13.4505222 C90.9554021,12.7311029 91.6192453,12.1157727 92.3594088,11.605948 C93.1175723,11.0982475 93.9110161,10.7038414 94.7656601,10.4191892 C95.6116641,10.1394937 96.5001482,10 97.4152725,10 C97.8926348,10 98.4239973,10.0870951 99,10.2627014 L99,17.2218092 C98.6529584,17.1502921 98.2454364,17.0879802 97.7731142,17.0355815 C97.295752,16.9824748 96.8363898,16.9562754 96.4000678,16.9562754 C95.0680615,16.9562754 93.9455762,17.1849885 93.0282919,17.6409984 C92.1088476,18.0977164 91.3758841,18.7236679 90.8106815,19.5153124 C90.2497988,20.3048327 89.8487569,21.2295982 89.6097158,22.2853602 C89.3713947,23.3404142 89.2554741,24.4783147 89.2554741,25.7118074 L89.2554741,38 L82,38 L82,10.7286245 L88.8997925,10.7286245" id="Fill-5" fill="#1C1B19"></path>
            <path d="M106.790404,10.7327989 L106.790404,14.4265305 L106.89187,14.4265305 C107.835796,13.0218221 108.974794,11.93289 110.308866,11.159026 C111.641508,10.387286 113.169939,10 114.892728,10 C116.544061,10 118.058915,10.3348927 119.422998,11.0011379 C120.787081,11.6687992 121.8289,12.8448176 122.538452,14.5341492 C123.308741,13.3411384 124.366995,12.2847751 125.701066,11.3721395 C127.031565,10.4587959 128.610729,10 130.434985,10 C131.819075,10 133.10027,10.1741725 134.284285,10.5295977 C135.460441,10.8779427 136.471534,11.4408173 137.320424,12.2097251 C138.160739,12.9871292 138.820986,13.9995954 139.289019,15.2464157 C139.764912,16.49536 140,17.9984828 140,19.7529522 L140,38 L132.801586,38 L132.801586,22.5467924 C132.801586,21.6327408 132.768002,20.7724985 132.702978,19.9646497 C132.638668,19.1532607 132.447168,18.4509065 132.150628,17.8561711 C131.845513,17.2586037 131.396774,16.7842314 130.803694,16.4344704 C130.214902,16.0804612 129.420318,15.9006246 128.40851,15.9006246 C127.395273,15.9006246 126.574251,16.1080739 125.950446,16.5102283 C125.328069,16.9159228 124.842173,17.4455205 124.492042,18.0912332 C124.126905,18.7426101 123.894675,19.4796571 123.776773,20.3094546 C123.663159,21.1350039 123.599564,21.9683415 123.599564,22.8108833 L123.599564,38 L116.40258,38 L116.40258,22.7053885 C116.40258,21.8982477 116.386859,21.098895 116.356848,20.3094546 C116.317548,19.5178901 116.176066,18.7865072 115.919541,18.1160139 C115.671591,17.4518927 115.242144,16.9159228 114.661927,16.5102283 C114.069562,16.1080739 113.194948,15.9006246 112.055235,15.9006246 C111.717966,15.9006246 111.272799,15.9820467 110.717591,16.1399348 C110.156666,16.2999469 109.617178,16.6001467 109.098412,17.03841 C108.576788,17.4787974 108.126619,18.1089337 107.750764,18.9316509 C107.390629,19.7614484 107.203416,20.8425924 107.203416,22.181455 L107.203416,38 L100,38 L100,10.7327989 L106.790404,10.7327989" id="Fill-6" fill="#1C1B19"></path>
            <path d="M159.012706,17.2144739 C158.154032,16.216173 156.854282,15.7170225 155.106343,15.7170225 C153.961681,15.7170225 153.019772,15.9191106 152.260695,16.3318559 C151.504464,16.7417448 150.899764,17.2523208 150.448017,17.8607274 C149.988445,18.4669917 149.672578,19.1103888 149.4869,19.7880623 C149.306201,20.4657359 149.193087,21.0755707 149.161784,21.6111398 L160.799773,21.6111398 C160.468255,19.6830908 159.87138,18.2163453 159.012706,17.2144739 M150.925375,31.6976927 C151.998895,32.7966807 153.542659,33.3443895 155.560224,33.3443895 C157.005101,33.3443895 158.24865,32.9652065 159.29158,32.210411 C160.330241,31.4506168 160.971935,30.6472631 161.208835,29.803206 L167.502697,29.803206 C166.492492,33.1015981 164.951573,35.4588166 162.865713,36.8777179 C160.782699,38.2944769 158.267146,39 155.311941,39 C153.256672,39 151.408423,38.6558075 149.765773,37.962424 C148.115297,37.2704686 146.721641,36.2835931 145.579114,35.0046539 C144.430895,33.7214302 143.548744,32.1982714 142.928393,30.4173254 C142.310176,28.6385216 142,26.6861934 142,24.5510576 C142,22.4923297 142.321558,20.5735638 142.951869,18.79476 C143.593563,17.0166704 144.500613,15.4785157 145.680846,14.1781537 C146.854675,12.8842186 148.254023,11.8587821 149.889559,11.1168403 C151.521538,10.3720421 153.324256,10 155.311941,10 C157.521587,10 159.45805,10.4477358 161.1007,11.3582034 C162.747619,12.2651006 164.100725,13.4883406 165.160017,15.016498 C166.217175,16.5482259 166.987634,18.2898968 167.451475,20.2472237 C167.921718,22.2052646 168.089612,24.2497107 167.955155,26.3862747 L149.161784,26.3862747 C149.257114,28.8284701 149.8547,30.5987048 150.925375,31.6976927" id="Fill-7" fill="#1C1B19"></path>
            <path d="M188.910928,21.0474022 C188.716544,19.9918323 188.380728,19.0678491 187.906962,18.2610716 C187.426229,17.4564512 186.808243,16.8049891 186.052307,16.3066853 C185.290798,15.8047863 184.339086,15.5552749 183.187416,15.5552749 C182.03505,15.5552749 181.06383,15.8047863 180.276542,16.3066853 C179.482287,16.8049891 178.853154,17.4650798 178.370331,18.2905527 C177.894475,19.1095542 177.553781,20.0493565 177.335013,21.1063645 C177.124605,22.1612154 177.01313,23.2570523 177.01313,24.4025038 C177.01313,25.4746119 177.134359,26.5488772 177.361488,27.6159519 C177.5921,28.6859029 177.962056,29.6451197 178.475535,30.4864117 C178.981349,31.3291419 179.623024,32.0093661 180.401951,32.5270843 C181.173214,33.0455216 182.098451,33.3050997 183.187416,33.3050997 C184.339086,33.3050997 185.297765,33.0541502 186.078086,32.5536893 C186.847955,32.0525093 187.467335,31.3823519 187.929257,30.5417788 C188.391875,29.6990486 188.716544,28.7463033 188.910928,27.6749143 C189.112975,26.600649 189.214695,25.4911501 189.214695,24.3464176 C189.214695,23.2024042 189.112975,22.1036911 188.910928,21.0474022 M189.214695,34.7633394 C188.391875,36.2661603 187.313361,37.3447399 185.976365,38.011302 C184.640763,38.6699546 183.138646,39 181.456777,39 C179.546385,39 177.87009,38.5987684 176.418833,37.7927099 C174.975937,36.9873705 173.781768,35.896567 172.838416,34.5188613 C171.904121,33.1397175 171.193472,31.5585199 170.717616,29.7687968 C170.234793,27.9769166 170,26.1160072 170,24.1853498 C170,22.3230023 170.234793,20.5239316 170.717616,18.7881375 C171.193472,17.0523434 171.904121,15.5214794 172.838416,14.1969837 C173.781768,12.8768022 174.954338,11.8068513 176.374243,11.0051071 C177.790664,10.1976105 179.434214,9.79853608 181.311164,9.79853608 C182.821641,9.79853608 184.263144,10.1465578 185.632188,10.8461964 C186.997052,11.5429588 188.074173,12.5748 188.863551,13.9388436 L188.979206,13.9388436 L188.979206,0 L196,0 L196,38.3032376 L189.310145,38.3032376 L189.310145,34.7633394 L189.214695,34.7633394" id="Fill-8" fill="#1C1B19"></path>
            <path d="M201,38 L208,38 L208,10.4951362 L201,10.4951362 L201,38 Z M201,6.23984977 L208,6.23984977 L208,0 L201,0 L201,6.23984977 Z" id="Fill-9" fill="#1C1B19"></path>
            <path d="M226.950432,25.4993721 C226.507558,25.6621851 226.025567,25.7921499 225.512141,25.9006919 C224.998715,26.0056635 224.457347,26.0934968 223.902708,26.1663342 C223.331303,26.2370294 222.771075,26.3262909 222.207354,26.4312625 C221.682053,26.5369481 221.158149,26.6804807 220.637738,26.8561473 C220.132694,27.0346704 219.683534,27.2731772 219.298639,27.5759523 C218.927017,27.8801556 218.611277,28.2607668 218.384252,28.7227845 C218.150242,29.1812317 218.032189,29.7696437 218.032189,30.4773091 C218.032189,31.1506981 218.150242,31.7212578 218.384252,32.179705 C218.611277,32.6417227 218.930509,33.0087661 219.323088,33.2722661 C219.728939,33.5414789 220.189975,33.7264288 220.713879,33.8342567 C221.250356,33.9385142 221.793121,33.9892147 222.358937,33.9892147 C223.739249,33.9892147 224.825477,33.7421388 225.58898,33.2458447 C226.348291,32.7502647 226.913409,32.1547118 227.271061,31.4634705 C227.641985,30.7700869 227.857833,30.0695624 227.944452,29.3568984 C228.027578,28.6470907 228.068792,28.0793874 228.068792,27.6545025 L228.068792,24.8366945 C227.772612,25.1173327 227.394702,25.3415577 226.950432,25.4993721 M213.046718,14.7822757 C213.775294,13.6118786 214.701556,12.6764177 215.81852,11.9623255 C216.948057,11.2525178 218.208919,10.7490828 219.617871,10.4463077 C221.01914,10.1463889 222.435078,10 223.855207,10 C225.144709,10 226.443293,10.0978306 227.772612,10.2899214 C229.090754,10.4855827 230.298527,10.8661939 231.388946,11.4353254 C232.478667,12.005171 233.370002,12.7935288 234.062254,13.8061116 C234.757998,14.822979 235.107268,16.1676147 235.107268,17.8357342 L235.107268,32.1782768 C235.107268,33.4200832 235.168739,34.6154736 235.302858,35.748738 C235.434184,36.8855729 235.663304,37.7424836 236,38.3094728 L228.856045,38.2944769 C228.723323,37.8688779 228.613652,37.4397085 228.530526,36.9962572 C228.453687,36.5528059 228.391517,36.1022137 228.355193,35.640196 C227.232641,36.8855729 225.915896,37.7589077 224.391685,38.2552018 C222.866775,38.7507818 221.313923,39 219.732432,39 C218.503702,39 217.365783,38.8400433 216.3061,38.5215582 C215.247814,38.2052153 214.320154,37.7060649 213.532203,37.0319618 C212.735869,36.3542882 212.119757,35.5052326 211.6692,34.471227 C211.221437,33.4393637 211,32.2146955 211,30.793652 C211,29.2290759 211.254268,27.9429957 211.76979,26.9275566 C212.279723,25.9135456 212.942636,25.1059073 213.750845,24.5032134 C214.56604,23.8969491 215.490905,23.4463569 216.531728,23.1435818 C217.573947,22.843663 218.621755,22.6022999 219.687027,22.4209204 C220.739724,22.2481101 221.785437,22.1060058 222.814384,22.0003201 C223.825868,21.8924922 224.743748,21.7325355 225.539384,21.5147374 C226.334321,21.302652 226.960211,20.9955923 227.426835,20.5857034 C227.888569,20.1758144 228.103719,19.5802615 228.068792,18.7990446 C228.068792,17.9835513 227.944452,17.331585 227.701361,16.851001 C227.44849,16.3725592 227.116684,15.9983748 226.701752,15.7320184 C226.291011,15.465662 225.813909,15.287139 225.267652,15.2007338 C224.720696,15.1129004 224.136718,15.0657704 223.510129,15.0657704 C222.115846,15.0657704 221.022633,15.3849696 220.231887,16.0169412 C219.43695,16.6539115 218.973819,17.7100539 218.840398,19.1925094 L211.808209,19.1925094 C211.905306,17.4172761 212.31465,15.9526729 213.046718,14.7822757" id="Fill-10" fill="#1C1B19"></path>
            <path d="M240,38 L247,38 L247,10.4951362 L240,10.4951362 L240,38 Z M240,6.23984977 L247,6.23984977 L247,0 L240,0 L240,6.23984977 Z" id="Fill-11" fill="#1C1B19"></path>
            <g id="Group-15" transform="translate(96.000000, 10.000000)">
                <mask id="mask-2" fill="white">
                    <use xlink:href="#path-1"></use>
                </mask>
                <g id="Clip-13"></g>
                <path d="M161.822272,0.887096774 L161.822272,5.96767742 L161.922782,5.96767742 C162.254749,5.12316129 162.706337,4.33470968 163.274716,3.61509677 C163.847342,2.89406452 164.495704,2.27735484 165.231835,1.7663871 C165.967259,1.25754839 166.754354,0.862258065 167.588165,0.576967742 C168.42056,0.296645161 169.291177,0.15683871 170.19223,0.15683871 C170.660099,0.15683871 171.184593,0.244129032 171.751556,0.420129032 L171.751556,7.39483871 C171.416049,7.32316129 171.010469,7.26070968 170.54614,7.20819355 C170.076856,7.15496774 169.626683,7.12870968 169.187128,7.12870968 C167.886156,7.12870968 166.786206,7.35793548 165.882321,7.81496774 C164.982683,8.27270968 164.258584,8.90006452 163.702947,9.69348387 C163.147309,10.4847742 162.7573,11.4116129 162.532214,12.4697419 C162.282354,13.5271613 162.170519,14.6676129 162.170519,15.903871 L162.170519,28.2196129 L155.04986,28.2196129 L155.04986,0.887096774 L161.822272,0.887096774" id="Fill-12" fill="#1C1B19" mask="url(#mask-2)"></path>
                <path d="M26.2961811,53.0334839 C26.2961811,60.194129 20.511177,66 13.3685761,66 C6.22243621,66 0.434600823,60.194129 0.434600823,53.0334839 C0.434600823,45.8742581 6.22243621,40.0662581 13.3685761,40.0662581 C20.511177,40.0662581 26.2961811,45.8742581 26.2961811,53.0334839" id="Fill-14" fill="#C7D533" mask="url(#mask-2)"></path>
            </g>
            <path d="M29.3950256,58.84903 C28.7915143,59.1749559 28.2896854,59.6038801 27.8902707,60.1329806 C27.4908559,60.664903 27.1887345,61.2680776 26.9846379,61.9446208 C26.7798098,62.621164 26.6781273,63.3104056 26.6781273,64.0130511 C26.6781273,64.7156966 26.7798098,65.4042328 26.9846379,66.080776 C27.1887345,66.7580247 27.4908559,67.3611993 27.8902707,67.8917108 C28.2896854,68.4236332 28.7915143,68.8518519 29.3950256,69.1770723 C29.9992685,69.5022928 30.7008047,69.6652557 31.5003658,69.6652557 C32.2991953,69.6652557 33.0007315,69.5022928 33.6042429,69.1770723 C34.2084857,68.8518519 34.7103146,68.4236332 35.1097293,67.8917108 C35.5091441,67.3611993 35.8112655,66.7580247 36.0153621,66.080776 C36.2194587,65.4042328 36.3218727,64.7156966 36.3218727,64.0130511 C36.3218727,63.3104056 36.2194587,62.621164 36.0153621,61.9446208 C35.8112655,61.2680776 35.5091441,60.664903 35.1097293,60.1329806 C34.7103146,59.6038801 34.2084857,59.1749559 33.6042429,58.84903 C33.0007315,58.5238095 32.2991953,58.3608466 31.5003658,58.3608466 C30.7008047,58.3608466 29.9992685,58.5238095 29.3950256,58.84903 Z M34.2838332,57.5643739 C35.0921726,57.940388 35.7710315,58.447619 36.3218727,59.0804233 C36.8719824,59.713933 37.2896854,60.4553792 37.5742502,61.3012346 C37.8573519,62.1513228 38,63.0536155 38,64.0130511 C38,64.9717813 37.8573519,65.875485 37.5742502,66.7234568 C37.2896854,67.5707231 36.8719824,68.3121693 36.3218727,68.945679 C35.7710315,69.5791887 35.0921726,70.0793651 34.2838332,70.44903 C33.4754938,70.8151675 32.5479151,71 31.5003658,71 C30.4513533,71 29.5237747,70.8151675 28.7161668,70.44903 C27.9078274,70.0793651 27.228237,69.5791887 26.6781273,68.945679 C26.1280176,68.3121693 25.7103146,67.5707231 25.4264813,66.7234568 C25.1419166,65.875485 25,64.9717813 25,64.0130511 C25,63.0536155 25.1419166,62.1513228 25.4264813,61.3012346 C25.7103146,60.4553792 26.1280176,59.713933 26.6781273,59.0804233 C27.228237,58.447619 27.9078274,57.940388 28.7161668,57.5643739 C29.5237747,57.1883598 30.4513533,57 31.5003658,57 C32.5479151,57 33.4754938,57.1883598 34.2838332,57.5643739 Z" id="Fill-16" fill="#1C1B19"></path>
            <path d="M50.172378,62.0989907 C50.0131533,61.4035422 49.7604708,60.7848029 49.4157148,60.2406018 C49.0716511,59.6964007 48.6299758,59.2527899 48.0927657,58.9090459 C47.5548633,58.5667492 46.9075805,58.3959627 46.1516096,58.3959627 C45.2772586,58.3959627 44.5462098,58.5544468 43.9577709,58.8706913 C43.3700242,59.1862122 42.8992731,59.6073891 42.5462098,60.1342221 C42.1938387,60.6632261 41.9453098,61.278347 41.8026999,61.9803085 C41.66009,62.6829937 41.588785,63.4204152 41.588785,64.1940202 C41.588785,64.8967054 41.6683974,65.5943249 41.827622,66.288326 C41.9875389,66.9837745 42.2478366,67.6032375 42.6098996,68.1474386 C42.9705781,68.6916397 43.4413292,69.1352504 44.0214607,69.4775471 C44.6009,69.8205675 45.3111803,69.9920777 46.1516096,69.9920777 C46.9075805,69.9920777 47.5548633,69.8205675 48.0927657,69.4775471 C48.6299758,69.1352504 49.0716511,68.6916397 49.4157148,68.1474386 C49.7604708,67.6032375 50.0131533,66.9837745 50.172378,66.288326 C50.3316026,65.5943249 50.4119072,64.8967054 50.4119072,64.1940202 C50.4119072,63.491335 50.3316026,62.7929918 50.172378,62.0989907 Z M41.4627899,57.3936774 L41.4627899,59.977909 L41.5126341,59.977909 C41.8823122,59.0277281 42.4832122,58.2953723 43.315334,57.7772234 C44.1467636,57.2583508 45.0931118,57 46.1516096,57 C47.142956,57 48.004846,57.1932203 48.7352025,57.5789373 C49.4669436,57.9646544 50.0754586,58.487869 50.5635168,59.1464102 C51.0508827,59.8063988 51.4115611,60.5698724 51.6469367,61.4404494 C51.8823122,62.3095791 52,63.2271948 52,64.1940202 C52,65.1593982 51.8823122,66.0777376 51.6469367,66.9475909 C51.4115611,67.818168 51.0508827,68.5823653 50.5635168,69.2401828 C50.0754586,69.8987241 49.4669436,70.416873 48.7352025,70.7960769 C48.004846,71.1716625 47.142956,71.3612645 46.1516096,71.3612645 C45.6808584,71.3612645 45.2101073,71.3004761 44.7393562,71.1774519 C44.2692973,71.0544277 43.8317757,70.8698914 43.4288681,70.6238431 C43.0252683,70.3777947 42.6680512,70.0709579 42.357217,69.7018854 C42.0463828,69.3328128 41.8068536,68.9022281 41.6386293,68.4115787 L41.588785,68.4115787 L41.588785,76 L40,76 L40,57.3936774 L41.4627899,57.3936774 Z" id="Fill-17" fill="#1C1B19"></path>
            <path d="M71.0250617,61.3153439 C70.8246034,60.7502646 70.54253,60.2486772 70.1774095,59.8134039 C69.8115732,59.3753086 69.3691331,59.0253968 68.8472257,58.7594356 C68.3260341,58.4934744 67.7346822,58.3608466 67.0746017,58.3608466 C66.3966232,58.3608466 65.7966802,58.4934744 65.2754887,58.7594356 C64.7542972,59.0253968 64.3111412,59.3753086 63.9460208,59.8134039 C63.5809003,60.2486772 63.2895199,60.7544974 63.0725954,61.3287478 C62.8556709,61.9022928 62.7117705,62.4892416 62.642326,63.0881834 L71.3508064,63.0881834 C71.3329083,62.4723104 71.2240881,61.8797178 71.0250617,61.3153439 Z M62.8900352,66.2599647 C63.0546974,66.8857143 63.3203046,67.4465608 63.685425,67.9439153 C64.0498295,68.4412698 64.5108836,68.8518519 65.0671553,69.1770723 C65.623427,69.5022928 66.2928145,69.6652557 67.0746017,69.6652557 C68.2737718,69.6652557 69.2123461,69.357672 69.8903246,68.740388 C70.5683032,68.124515 71.0372324,67.30194 71.298544,66.2740741 L72.9408701,66.2740741 C72.5929318,67.7802469 71.954329,68.945679 71.0250617,69.766843 C70.0943625,70.589418 68.7777812,71 67.0746017,71 C66.0143206,71 65.097224,70.8151675 64.3240278,70.44903 C63.5501157,70.0793651 62.9201039,69.5742504 62.4339926,68.9322751 C61.9471654,68.2910053 61.5870564,67.5460317 61.3515179,66.6973545 C61.1174113,65.8493827 61,64.9541446 61,64.0130511 C61,63.1396825 61.1174113,62.2839506 61.3515179,61.4430335 C61.5870564,60.6056437 61.9471654,59.854321 62.4339926,59.1961199 C62.9201039,58.5372134 63.5501157,58.005291 64.3240278,57.6031746 C65.097224,57.2010582 66.0143206,57 67.0746017,57 C68.152065,57 69.0727412,57.2130511 69.8380623,57.6419753 C70.6026674,58.070194 71.2240881,58.6296296 71.7023243,59.3238095 C72.1805605,60.017284 72.5234873,60.8151675 72.7325366,61.7132275 C72.9408701,62.6134039 73.0274967,63.5248677 72.9924165,64.4497354 L62.642326,64.4497354 C62.642326,65.0324515 62.7246571,65.6363316 62.8900352,66.2599647 Z" id="Fill-18" fill="#1C1B19"></path>
            <polygon id="Fill-19" fill="#1C1B19" points="76 71 78 71 78 52 76 52"></polygon>
            <polyline id="Fill-20" fill="#1C1B19" points="81.6880172 52 81.6880172 63.921583 89.3484523 57.2677102 91.5984064 57.2677102 85.70616 62.3512807 92 71 89.884646 71 84.420472 63.5218829 81.6880172 65.7841704 81.6880172 71 80 71 80 52 81.6880172 52"></polyline>
            <path d="M128,71 L130,71 L130,57.2677102 L128,57.2677102 L128,71 Z M128,54.6875625 L130,54.6875625 L130,52 L128,52 L128,54.6875625 Z" id="Fill-21" fill="#1C1B19"></path>
            <path d="M134.654433,57.3938563 L134.654433,59.7417904 L134.705616,59.7417904 C135.021364,58.9157056 135.581493,58.2510731 136.386723,57.7507886 C137.191231,57.2497802 138.075038,57 139.038141,57 C139.983944,57 140.774756,57.1223561 141.413461,57.3685163 C142.052887,57.6146765 142.564716,57.9614728 142.951111,58.4096292 C143.334622,58.8577856 143.605675,59.4080261 143.763549,60.0581786 C143.920703,60.7083312 144,61.4366758 144,62.2461085 L144,71 L142.345567,71 L142.345567,62.5089207 C142.345567,61.9304442 142.293663,61.3888918 142.188413,60.8886073 C142.083885,60.3875989 141.899338,59.9524745 141.636936,59.5832342 C141.375254,59.2139939 141.020578,58.9243936 140.57435,58.7137095 C140.128121,58.5030253 139.571597,58.3965972 138.90694,58.3965972 C138.241562,58.3965972 137.651157,58.5138853 137.134281,58.7513575 C136.618848,58.9888297 136.18127,59.316078 135.822269,59.7287583 C135.463268,60.1414387 135.182843,60.6337591 134.983157,61.2049956 C134.780589,61.7762321 134.671014,62.3959766 134.654433,63.0627812 L134.654433,71 L133,71 L133,57.3938563 L134.654433,57.3938563" id="Fill-22" fill="#1C1B19"></path>
            <path d="M154.353321,54.5696841 L156,54.5696841 L156,52 L154.353321,52 L154.353321,54.5696841 Z M156,57.0366646 L156,71.3620595 C156,71.8532199 155.961221,72.3199271 155.882944,72.7607837 C155.80395,73.2016403 155.655296,73.5880012 155.439138,73.9191677 C155.220108,74.2496355 154.924237,74.5116343 154.547935,74.7065614 C154.173788,74.9021871 153.699102,75 153.12316,75 C152.9307,75 152.744704,74.9923147 152.56158,74.9741495 C152.378456,74.9566829 152.191023,74.9482989 152,74.9482989 L152,73.6264277 C152.1386,73.6438943 152.287253,73.6564702 152.443806,73.6655529 C152.601077,73.6739368 152.740395,73.6683475 152.862478,73.6522783 C153.506643,73.6522783 153.917415,73.4692284 154.091203,73.1045261 C154.264991,72.7405225 154.353321,72.2863913 154.353321,71.7428311 L154.353321,57.0366646 L156,57.0366646 Z" id="Fill-23" fill="#1C1B19"></path>
            <path d="M168.024003,61.3153439 C167.823538,60.7502646 167.542886,60.2486772 167.177036,59.8134039 C166.811186,59.3753086 166.368729,59.0253968 165.846802,58.7594356 C165.324875,58.4934744 164.734217,58.3608466 164.074828,58.3608466 C163.396824,58.3608466 162.796143,58.4934744 162.274932,58.7594356 C161.753721,59.0253968 161.309833,59.3753086 160.945415,59.8134039 C160.580281,60.2486772 160.289605,60.7544974 160.071957,61.3287478 C159.854308,61.9022928 159.711118,62.4892416 159.641671,63.0881834 L168.349044,63.0881834 C168.332577,62.4723104 168.223037,61.8797178 168.024003,61.3153439 Z M159.88939,66.2599647 C160.054058,66.8857143 160.319675,67.4465608 160.684093,67.9439153 C161.049943,68.4412698 161.510298,68.8518519 162.067307,69.1770723 C162.622883,69.5022928 163.29158,69.6652557 164.074828,69.6652557 C165.274043,69.6652557 166.212652,69.357672 166.88994,68.740388 C167.567944,68.124515 168.037606,67.30194 168.298212,66.2740741 L169.941315,66.2740741 C169.591932,67.7802469 168.954021,68.945679 168.024003,69.766843 C167.093985,70.589418 165.778071,71 164.074828,71 C163.013076,71 162.095945,70.8151675 161.32272,70.44903 C160.549495,70.0793651 159.920175,69.5742504 159.434046,68.9322751 C158.946485,68.2910053 158.585646,67.5460317 158.350815,66.6973545 C158.1167,65.8493827 158,64.9541446 158,64.0130511 C158,63.1396825 158.1167,62.2839506 158.350815,61.4430335 C158.585646,60.6056437 158.946485,59.854321 159.434046,59.1961199 C159.920175,58.5372134 160.549495,58.005291 161.32272,57.6031746 C162.095945,57.2010582 163.013076,57 164.074828,57 C165.152332,57 166.073042,57.2130511 166.837676,57.6419753 C167.603025,58.070194 168.223037,58.6296296 168.702007,59.3238095 C169.179545,60.017284 169.522485,60.8151675 169.732974,61.7132275 C169.941315,62.6134039 170.027945,63.5248677 169.992147,64.4497354 L159.641671,64.4497354 C159.641671,65.0324515 159.724005,65.6363316 159.88939,66.2599647 Z" id="Fill-24" fill="#1C1B19"></path>
            <path d="M187.979808,59.2081129 C187.368269,58.643739 186.510096,58.3608466 185.406731,58.3608466 C184.619231,58.3608466 183.927644,58.5238095 183.332692,58.84903 C182.737019,59.1749559 182.242308,59.6038801 181.848558,60.1329806 C181.454087,60.664903 181.156971,61.2680776 180.95649,61.9446208 C180.754567,62.621164 180.652885,63.3104056 180.652885,64.0130511 C180.652885,64.7156966 180.754567,65.4042328 180.95649,66.080776 C181.156971,66.7580247 181.454087,67.3611993 181.848558,67.8917108 C182.242308,68.4236332 182.737019,68.8518519 183.332692,69.1770723 C183.927644,69.5022928 184.619231,69.6652557 185.406731,69.6652557 C185.915144,69.6652557 186.395433,69.5714286 186.851923,69.3823633 C187.30625,69.1940035 187.708654,68.9322751 188.059856,68.5985891 C188.410337,68.264903 188.698077,67.8670194 188.926683,67.4035273 C189.153846,66.9407407 189.293029,66.4363316 189.345673,65.8881834 L191,65.8881834 C190.772115,67.4987654 190.169952,68.7530864 189.189183,69.6525573 C188.207692,70.5506173 186.947837,71 185.406731,71 C184.373317,71 183.459615,70.8151675 182.66274,70.44903 C181.865144,70.0793651 181.196635,69.5791887 180.652885,68.945679 C180.111298,68.3121693 179.699519,67.5707231 179.41899,66.7234568 C179.139904,65.875485 179,64.9717813 179,64.0130511 C179,63.0536155 179.139904,62.1513228 179.41899,61.3012346 C179.699519,60.4553792 180.111298,59.713933 180.652885,59.0804233 C181.196635,58.447619 181.865144,57.940388 182.66274,57.5643739 C183.459615,57.1883598 184.373317,57 185.406731,57 C186.859856,57 188.090144,57.3760141 189.098317,58.1294533 C190.103606,58.8828924 190.702885,60.0229277 190.896154,61.5467372 L189.241827,61.5467372 C189.013221,60.5534392 188.594231,59.7731922 187.979808,59.2081129" id="Fill-25" fill="#1C1B19"></path>
            <path d="M200.935892,63.3971781 C200.837316,63.5848325 200.644301,63.7209877 200.359605,63.8077601 C200.074908,63.8931217 199.824678,63.952381 199.606847,63.9883598 C198.9375,64.1068783 198.246783,64.2141093 197.536075,64.3093474 C196.824678,64.4031746 196.1767,64.5435626 195.589384,64.7319224 C195.004825,64.9209877 194.522978,65.1911817 194.146599,65.5425044 C193.77091,65.8924162 193.582031,66.3940035 193.582031,67.0444444 C193.582031,67.4550265 193.661305,67.8197531 193.819853,68.1372134 C193.978401,68.4525573 194.192096,68.7276896 194.460248,68.9583774 C194.727711,69.1897707 195.037914,69.3647266 195.389476,69.4846561 C195.740349,69.6045855 196.100184,69.6652557 196.46898,69.6652557 C197.070772,69.6652557 197.648438,69.5714286 198.200597,69.3823633 C198.753447,69.1940035 199.233226,68.9195767 199.644761,68.5597884 C200.054228,68.2 200.380974,67.7633157 200.623621,67.2497354 C200.866958,66.7368607 200.988281,66.1541446 200.988281,65.5022928 L200.988281,63.3971781 L200.935892,63.3971781 Z M193.030561,59.4395062 C193.296645,58.8751323 193.661305,58.4116402 194.121783,58.0525573 C194.581572,57.692769 195.121324,57.4282187 195.740349,57.2560847 C196.360064,57.0853616 197.045956,57 197.799403,57 C198.368796,57 198.9375,57.0550265 199.505515,57.1664903 C200.074908,57.2779541 200.585708,57.487478 201.038603,57.7943563 C201.490119,58.103351 201.856847,58.5372134 202.142233,59.0924162 C202.425551,59.64903 202.568244,60.3728395 202.568244,61.2638448 L202.568244,68.3037037 C202.568244,68.9541446 202.878447,69.2793651 203.497472,69.2793651 C203.682215,69.2793651 203.849035,69.2447972 204,69.1770723 L204,70.5386243 C203.815257,70.5731922 203.652574,70.5978836 203.51057,70.6155203 C203.367188,70.6338624 203.18727,70.6416226 202.970818,70.6416226 C202.568244,70.6416226 202.246324,70.5851852 202.002987,70.4737213 C201.761029,70.3622575 201.57284,70.2035273 201.439108,69.9982363 C201.305377,69.7929453 201.217831,69.5488536 201.175781,69.2652557 C201.134421,68.9844797 201.112362,68.6712522 201.112362,68.3283951 L201.06273,68.3283951 C200.776654,68.7566138 200.488511,69.1389771 200.196232,69.4719577 C199.903263,69.8070547 199.577895,70.0850088 199.217371,70.307231 C198.857537,70.5301587 198.44807,70.7008818 197.988281,70.8208113 C197.527114,70.9407407 196.977711,71 196.34352,71 C195.740349,71 195.175092,70.9287478 194.649127,70.782716 C194.121783,70.6373898 193.661305,70.4059965 193.268382,70.0878307 C192.87546,69.7710758 192.565257,69.3689594 192.339844,68.880776 C192.113741,68.3932981 192,67.8162257 192,67.1474427 C192,66.2218695 192.199908,65.4994709 192.602482,64.9760141 C193.004366,64.4539683 193.535156,64.0553792 194.196921,63.7816578 C194.857996,63.508642 195.603171,63.3146384 196.431066,63.2038801 C197.259651,63.0924162 198.100643,62.9851852 198.953355,62.8828924 C199.289062,62.84903 199.582031,62.8059965 199.832261,62.7552028 C200.083869,62.7022928 200.292739,62.6134039 200.459559,62.4850088 C200.627757,62.3552028 200.757353,62.1802469 200.849035,61.9573192 C200.940717,61.735097 200.988281,61.4430335 200.988281,61.0832451 C200.988281,60.535097 200.900735,60.0857143 200.723575,59.7358025 C200.547794,59.3844797 200.304458,59.1065256 199.995634,58.9012346 C199.686121,58.6945326 199.325597,58.5527337 198.916131,58.4751323 C198.505974,58.3996473 198.066866,58.3608466 197.598805,58.3608466 C196.595129,58.3608466 195.773438,58.6049383 195.138557,59.0924162 C194.502298,59.5820106 194.167279,60.3643739 194.133502,61.4430335 L192.553539,61.4430335 C192.602482,60.6733686 192.76034,60.0059965 193.030561,59.4395062 Z" id="Fill-26" fill="#1C1B19"></path>
            <path d="M207.592828,57.1929996 L207.592828,60.4322411 L207.647103,60.4322411 C208.087336,59.3066984 208.768792,58.4434394 209.692979,57.8358521 C210.617166,57.2289994 211.720009,56.9534912 213,57.0063888 L213,58.6924988 C212.21527,58.6572338 211.499892,58.7586208 210.859143,58.9995986 C210.218393,59.2413111 209.665841,59.5851453 209.199978,60.0303665 C208.731854,60.474853 208.370773,61.0060328 208.11372,61.6217017 C207.858174,62.2373707 207.730778,62.9103453 207.730778,63.642095 L207.730778,71 L206,71 L206,57.1929996 L207.592828,57.1929996" id="Fill-27" fill="#1C1B19"></path>
            <path d="M215.591663,57.1929996 L215.591663,60.4322411 L215.646704,60.4322411 C216.084769,59.3066984 216.767126,58.4434394 217.692266,57.8358521 C218.615898,57.2289994 219.718225,56.9534912 221,57.0063888 L221,58.6924988 C220.212839,58.6572338 219.498815,58.7586208 218.857928,58.9995986 C218.21704,59.2413111 217.665123,59.5851453 217.196898,60.0303665 C216.729427,60.474853 216.369022,61.0060328 216.112667,61.6217017 C215.857066,62.2373707 215.72738,62.9103453 215.72738,63.642095 L215.72738,71 L214,71 L214,57.1929996 L215.591663,57.1929996" id="Fill-28" fill="#1C1B19"></path>
            <path d="M222,71 L224,71 L224,57.2677102 L222,57.2677102 L222,71 Z M222,54.6875625 L224,54.6875625 L224,52 L222,52 L222,54.6875625 Z" id="Fill-29" fill="#1C1B19"></path>
            <path d="M231.692082,52 L234.429726,55.6059061 L233.100279,55.6059061 L229.658894,52 L231.692082,52 Z M237.024188,61.3599069 C236.823733,60.7974277 236.541664,60.2981484 236.176549,59.8648779 C235.811435,59.4287985 235.36757,59.0804967 234.847102,58.8157593 C234.325203,58.5510219 233.734576,58.4190043 233.074506,58.4190043 C232.396538,58.4190043 231.796605,58.5510219 231.275421,58.8157593 C230.754238,59.0804967 230.310373,59.4287985 229.945259,59.8648779 C229.58086,60.2981484 229.288768,60.801641 229.071847,61.3732491 C228.85421,61.9441549 228.711028,62.528403 228.641584,63.1245888 L237.349928,63.1245888 C237.331314,62.5115497 237.223211,61.9216839 237.024188,61.3599069 Z M228.88929,66.2817755 C229.055381,66.9046457 229.318836,67.4629116 229.684667,67.9579776 C230.050497,68.4530436 230.510828,68.8617363 231.067091,69.1854603 C231.622638,69.5091843 232.291299,69.6713974 233.074506,69.6713974 C234.273657,69.6713974 235.211501,69.365229 235.889469,68.7507854 C236.566721,68.1377462 237.036359,67.3189563 237.298382,66.2958199 L238.939966,66.2958199 C238.591318,67.7950623 237.953441,68.9551318 237.024188,69.7725173 C236.09422,70.5913072 234.776943,71 233.074506,71 C232.014242,71 231.095728,70.816018 230.323976,70.4515652 C229.550791,70.0836013 228.920074,69.5808109 228.43397,68.9417896 C227.94715,68.3034705 227.584899,67.5619248 227.351512,66.7171527 C227.116694,65.8730828 227,64.981964 227,64.0452009 C227,63.175851 227.116694,62.3240566 227.351512,61.4870089 C227.584899,60.6534723 227.94715,59.9056067 228.43397,59.2504343 C228.920074,58.5945596 229.550791,58.0650848 230.323976,57.6648187 C231.095728,57.2645526 232.014242,57.0644196 233.074506,57.0644196 C234.151953,57.0644196 235.072614,57.2764904 235.837923,57.7034409 C236.601801,58.1296892 237.223211,58.6865506 237.702156,59.3775363 C238.178953,60.0678198 238.523306,60.862032 238.731636,61.7559596 C238.939966,62.6519939 239.026592,63.5592638 238.992944,64.4798758 L228.641584,64.4798758 C228.641584,65.0599106 228.723914,65.6610119 228.88929,66.2817755 Z" id="Fill-30" fill="#1C1B19"></path>
            <path d="M242.592828,57.1929996 L242.592828,60.4322411 L242.647103,60.4322411 C243.087336,59.3066984 243.768038,58.4434394 244.692979,57.8358521 C245.617166,57.2289994 246.719255,56.9534912 248,57.0063888 L248,58.6924988 C247.213763,58.6572338 246.500646,58.7586208 245.859897,58.9995986 C245.217639,59.2413111 244.665087,59.5851453 244.199978,60.0303665 C243.732608,60.474853 243.370773,61.0060328 243.11372,61.6217017 C242.858174,62.2373707 242.730778,62.9103453 242.730778,63.642095 L242.730778,71 L241,71 L241,57.1929996 L242.592828,57.1929996" id="Fill-31" fill="#1C1B19"></path>
            <path d="M258.025414,61.3153439 C257.823503,60.7502646 257.541399,60.2486772 257.17624,59.8134039 C256.811797,59.3753086 256.367161,59.0253968 255.847346,58.7594356 C255.324667,58.4934744 254.733968,58.3608466 254.073817,58.3608466 C253.396483,58.3608466 252.796476,58.4934744 252.273797,58.7594356 C251.753265,59.0253968 251.310062,59.3753086 250.944903,59.8134039 C250.579743,60.2486772 250.288332,60.7544974 250.069952,61.3287478 C249.854437,61.9022928 249.710521,62.4892416 249.640353,63.0881834 L258.350478,63.0881834 C258.331862,62.4723104 258.22303,61.8797178 258.025414,61.3153439 Z M249.888089,66.2599647 C250.0542,66.8857143 250.31912,67.4465608 250.683563,67.9439153 C251.049439,68.4412698 251.509826,68.8518519 252.066157,69.1770723 C252.623204,69.5022928 253.291231,69.6652557 254.073817,69.6652557 C255.273831,69.6652557 256.211074,69.357672 256.889124,68.740388 C257.567891,68.124515 258.03687,67.30194 258.298926,66.2740741 L259.939279,66.2740741 C259.59202,67.7802469 258.954065,68.945679 258.025414,69.766843 C257.094616,70.589418 255.776462,71 254.073817,71 C253.013423,71 252.095513,70.8151675 251.322234,70.44903 C250.548956,70.0793651 249.918161,69.5742504 249.432713,68.9322751 C248.945834,68.2910053 248.584255,67.5460317 248.349407,66.6973545 C248.116708,65.8493827 248,64.9541446 248,64.0130511 C248,63.1396825 248.116708,62.2839506 248.349407,61.4430335 C248.584255,60.6056437 248.945834,59.854321 249.432713,59.1961199 C249.918161,58.5372134 250.548956,58.005291 251.322234,57.6031746 C252.095513,57.2010582 253.013423,57 254.073817,57 C255.151395,57 256.072886,57.2130511 256.837572,57.6419753 C257.602259,58.070194 258.22303,58.6296296 258.702033,59.3238095 C259.179604,60.017284 259.522568,60.8151675 259.731639,61.7132275 C259.939279,62.6134039 260.026631,63.5248677 259.992979,64.4497354 L249.640353,64.4497354 C249.640353,65.0324515 249.722693,65.6363316 249.888089,66.2599647 Z" id="Fill-32" fill="#1C1B19"></path>
        </g>
    </g>
</svg>