<?xml version="1.0" encoding="UTF-8"?>
<svg version="1.1" viewBox="0 0 300 300" xmlns="http://www.w3.org/2000/svg" xmlns:xlink="http://www.w3.org/1999/xlink">
<title>Intermediair</title>
<desc>Created with Sketch.</desc>
<defs>
<polygon id="b" points="0.4346 0.15684 171.75 0.15684 171.75 65.957 0.4346 65.957"/>
</defs>
<g fill="none" fill-rule="evenodd">
<g transform="translate(18 112)">
<path d="m0 38h7v-27.505h-7v27.505zm0-31.76h7v-6.2398h-7v6.2398z" fill="#1C1B19"/>
<path d="m17.671 10.733v3.8014h0.15268c0.88613-1.5803 2.0414-2.7337 3.4622-3.4537 1.4237-0.71793 2.8745-1.0804 4.3525-1.0804 1.8803 0 3.4316 0.27542 4.6314 0.81705 1.2103 0.54376 2.1508 1.3042 2.8487 2.2664 0.69231 0.96999 1.1769 2.1467 1.4641 3.5366 0.27539 1.3856 0.41762 2.9269 0.41762 4.6113v16.769h-7.0242v-15.402c0-2.2473-0.33256-3.926-0.99349-5.0347-0.66163-1.1052-1.8266-1.6624-3.5166-1.6624-1.9117 0-3.3054 0.6096-4.1636 1.821-0.85336 1.21-1.287 3.2094-1.287 5.9863v14.292h-7.0151v-27.267h6.6707" fill="#1C1B19"/>
<path d="m54 11.251v5.0624h-5.3213v13.604c0 1.2752 0.20445 2.1244 0.61406 2.5498 0.41178 0.42603 1.2267 0.6394 2.4613 0.6394 0.40528 0 0.79611-0.016413 1.171-0.052808 0.37638-0.037822 0.73398-0.09063 1.075-0.16056v5.8082c-0.61189 0.11846-1.2975 0.1991-2.0416 0.23692-0.75348 0.037822-1.4889 0.061371-2.2034 0.061371-1.1299 0-2.1904-0.080639-3.2003-0.24263-1.0121-0.15842-1.9-0.46956-2.6657-0.92842-0.76793-0.45672-1.3784-1.1147-1.8176-1.9653-0.44646-0.85135-0.66896-1.966-0.66896-3.3476v-16.203h-4.4024v-5.0624h4.4024v-8.2509h7.2762v8.2509h5.3213" fill="#1C1B19"/>
<path d="m71.01 17.214c-0.85985-0.9983-2.1564-1.4975-3.9017-1.4975-1.1443 0-2.0874 0.20209-2.8505 0.61483-0.75601 0.40989-1.3563 0.92046-1.8114 1.5289-0.45588 0.60626-0.77379 1.2497-0.95799 1.9273-0.18349 0.67767-0.29657 1.2875-0.32858 1.8231h11.635c-0.33142-1.928-0.92457-3.3948-1.7851-4.3967m-8.0871 14.483c1.0789 1.099 2.6243 1.6467 4.6392 1.6467 1.443 0 2.6884-0.37918 3.7253-1.134 1.0419-0.75979 1.6813-1.5631 1.9181-2.4072h6.2942c-1.0064 3.2984-2.5518 5.6556-4.6378 7.0745-2.0803 1.4168-4.5937 2.1223-7.5501 2.1223-2.054 0-3.8995-0.34419-5.5474-1.0376-1.6464-0.69196-3.0411-1.6788-4.1861-2.9578-1.1443-1.2832-2.0269-2.8064-2.645-4.5873-0.62586-1.7788-0.9331-3.7311-0.9331-5.8663 0-2.0587 0.31791-3.9775 0.95728-5.7563 0.63937-1.7781 1.5504-3.3162 2.7268-4.6166 1.1763-1.2939 2.5788-2.3194 4.2075-3.0613 1.6244-0.7448 3.4365-1.1168 5.4201-1.1168 2.209 0 4.1413 0.44774 5.7878 1.3582 1.6457 0.9069 3.002 2.1301 4.0546 3.6583 1.0632 1.5317 1.8264 3.2734 2.3 5.2307 0.46584 1.958 0.63582 4.0025 0.5014 6.1391h-18.796c0.10241 2.4422 0.69271 4.2124 1.7631 5.3114" fill="#1C1B19"/>
<path d="m88.9 10.729v5.0692h0.09792c0.33624-0.84263 0.7992-1.6293 1.3802-2.3473 0.57744-0.71942 1.2413-1.3347 1.9814-1.8446 0.75816-0.5077 1.5516-0.90211 2.4063-1.1868 0.846-0.2797 1.7345-0.41919 2.6496-0.41919 0.47736 0 1.0087 0.087095 1.5847 0.2627v6.9591c-0.34704-0.071517-0.75456-0.13383-1.2269-0.18623-0.47736-0.053107-0.93672-0.079306-1.373-0.079306-1.332 0-2.4545 0.22871-3.3718 0.68472-0.91944 0.45672-1.6524 1.0827-2.2176 1.8743-0.56088 0.78952-0.96192 1.7143-1.201 2.77-0.23832 1.0551-0.35424 2.193-0.35424 3.4264v12.288h-7.2555v-27.271h6.8998" fill="#1C1B19"/>
<path d="m106.79 10.733v3.6937h0.10147c0.94393-1.4047 2.0829-2.4936 3.417-3.2675 1.3326-0.77174 2.8611-1.159 4.5839-1.159 1.6513 0 3.1662 0.33489 4.5303 1.0011 1.3641 0.66766 2.4059 1.8437 3.1155 3.533 0.77029-1.193 1.8285-2.2494 3.1626-3.162 1.3305-0.91334 2.9097-1.3721 4.7339-1.3721 1.3841 0 2.6653 0.17417 3.8493 0.5296 1.1762 0.34834 2.1872 0.91122 3.0361 1.6801 0.84032 0.7774 1.5006 1.7899 1.9686 3.0367 0.47589 1.2489 0.71098 2.7521 0.71098 4.5065v18.247h-7.1984v-15.453c0-0.91405-0.033584-1.7743-0.098608-2.5821-0.06431-0.81139-0.25581-1.5137-0.55235-2.1085-0.30512-0.59757-0.75385-1.0719-1.3469-1.4217-0.58879-0.35401-1.3834-0.53385-2.3952-0.53385-1.0132 0-1.8343 0.20745-2.4581 0.6096-0.62238 0.40569-1.1083 0.93529-1.4584 1.581-0.36514 0.65138-0.59737 1.3884-0.71527 2.2182-0.11361 0.82555-0.17721 1.6589-0.17721 2.5014v15.189h-7.197v-15.295c0-0.80714-0.015721-1.6065-0.045732-2.3959-0.0393-0.79156-0.18078-1.5229-0.43731-2.1934-0.24795-0.66412-0.6774-1.2001-1.2576-1.6058-0.59236-0.40215-1.467-0.6096-2.6067-0.6096-0.33727 0-0.78244 0.081422-1.3376 0.23931-0.56092 0.16001-1.1004 0.46021-1.6192 0.89848-0.52162 0.44039-0.97179 1.0705-1.3476 1.8932-0.36014 0.8298-0.54735 1.9109-0.54735 3.2498v15.819h-7.2034v-27.267h6.7904" fill="#1C1B19"/>
<path d="m159.01 17.214c-0.85867-0.9983-2.1584-1.4975-3.9064-1.4975-1.1447 0-2.0866 0.20209-2.8456 0.61483-0.75623 0.40989-1.3609 0.92046-1.8127 1.5289-0.45957 0.60626-0.77544 1.2497-0.96112 1.9273-0.1807 0.67767-0.29381 1.2875-0.32512 1.8231h11.638c-0.33152-1.928-0.92839-3.3948-1.7871-4.3967m-8.0873 14.483c1.0735 1.099 2.6173 1.6467 4.6348 1.6467 1.4449 0 2.6884-0.37918 3.7314-1.134 1.0387-0.75979 1.6804-1.5631 1.9173-2.4072h6.2939c-1.0102 3.2984-2.5511 5.6556-4.637 7.0745-2.083 1.4168-4.5986 2.1223-7.5538 2.1223-2.0553 0-3.9035-0.34419-5.5462-1.0376-1.6505-0.69196-3.0441-1.6788-4.1867-2.9578-1.1482-1.2832-2.0304-2.8064-2.6507-4.5873-0.61822-1.7788-0.92839-3.7311-0.92839-5.8663 0-2.0587 0.32156-3.9775 0.95187-5.7563 0.64169-1.7781 1.5487-3.3162 2.729-4.6166 1.1738-1.2939 2.5732-2.3194 4.2087-3.0613 1.632-0.7448 3.4347-1.1168 5.4224-1.1168 2.2096 0 4.1461 0.44774 5.7888 1.3582 1.6469 0.9069 3 2.1301 4.0593 3.6583 1.0572 1.5317 1.8276 3.2734 2.2915 5.2307 0.47024 1.958 0.63814 4.0025 0.50368 6.1391h-18.793c0.09533 2.4422 0.69292 4.2124 1.7636 5.3114" fill="#1C1B19"/>
<path d="m188.91 21.047c-0.19438-1.0556-0.5302-1.9796-1.004-2.7863-0.48073-0.80462-1.0987-1.4561-1.8547-1.9544-0.76151-0.5019-1.7132-0.75141-2.8649-0.75141-1.1524 0-2.1236 0.24951-2.9109 0.75141-0.79426 0.4983-1.4234 1.1584-1.9062 1.9839-0.47586 0.819-0.81655 1.7588-1.0353 2.8158-0.21041 1.0549-0.32188 2.1507-0.32188 3.2961 0 1.0721 0.12123 2.1464 0.34836 3.2134 0.23061 1.07 0.60057 2.0292 1.114 2.8705 0.50581 0.84273 1.1475 1.523 1.9264 2.0407 0.77126 0.51844 1.6965 0.77802 2.7855 0.77802 1.1517 0 2.1103-0.25095 2.8907-0.75141 0.76987-0.50118 1.3892-1.1713 1.8512-2.0119 0.46262-0.84273 0.78729-1.7955 0.98167-2.8669 0.20205-1.0743 0.30377-2.1838 0.30377-3.3285 0-1.144-0.10172-2.2427-0.30377-3.299m0.30377 13.716c-0.82282 1.5028-1.9013 2.5814-3.2383 3.248-1.3356 0.65865-2.8377 0.9887-4.5196 0.9887-1.9104 0-3.5867-0.40123-5.0379-1.2073-1.4429-0.80534-2.6371-1.8961-3.5804-3.2738-0.9343-1.3791-1.6449-2.9603-2.1208-4.7501-0.48282-1.7919-0.71762-3.6528-0.71762-5.5834 0-1.8623 0.23479-3.6614 0.71762-5.3972 0.47586-1.7358 1.1865-3.2667 2.1208-4.5912 0.94335-1.3202 2.1159-2.3901 3.5358-3.1919 1.4164-0.8075 3.06-1.2066 4.9369-1.2066 1.5105 0 2.952 0.34802 4.321 1.0477 1.3649 0.69676 2.442 1.7286 3.2314 3.0926h0.11566v-13.939h7.0208v38.303h-6.6899v-3.5399h-0.09545" fill="#1C1B19"/>
<path d="m201 38h7v-27.505h-7v27.505zm0-31.76h7v-6.2398h-7v6.2398z" fill="#1C1B19"/>
<path d="m226.95 25.499c-0.44287 0.16281-0.92486 0.29278-1.4383 0.40132-0.51343 0.10497-1.0548 0.1928-1.6094 0.26564-0.5714 0.070695-1.1316 0.15996-1.6954 0.26493-0.5253 0.10569-1.0492 0.24922-1.5696 0.42488-0.50504 0.17852-0.9542 0.41703-1.3391 0.7198-0.37162 0.3042-0.68736 0.68481-0.91439 1.1468-0.23401 0.45845-0.35206 1.0469-0.35206 1.7545 0 0.67339 0.11805 1.2439 0.35206 1.7024 0.22702 0.46202 0.54626 0.82906 0.93884 1.0926 0.40585 0.26921 0.86689 0.45416 1.3908 0.56199 0.53648 0.10426 1.0792 0.15496 1.6451 0.15496 1.3803 0 2.4665-0.24708 3.23-0.74337 0.75931-0.49558 1.3244-1.0911 1.6821-1.7824 0.37092-0.69338 0.58677-1.3939 0.67339-2.1066 0.083126-0.70981 0.12434-1.2775 0.12434-1.7024v-2.8178c-0.29618 0.28064-0.67409 0.50486-1.1184 0.66268m-13.904-10.717c0.72858-1.1704 1.6548-2.1059 2.7718-2.82 1.1295-0.70981 2.3904-1.2132 3.7994-1.516 1.4013-0.29992 2.8172-0.44631 4.2373-0.44631 1.2895 0 2.5881 0.097831 3.9174 0.28992 1.3181 0.19566 2.5259 0.57627 3.6163 1.1454 1.0897 0.56985 1.9811 1.3582 2.6733 2.3708 0.69574 1.0169 1.045 2.3615 1.045 4.0296v14.343c0 1.2418 0.061471 2.4372 0.19559 3.5705 0.13133 1.1368 0.36045 1.9937 0.69714 2.5607l-7.144-0.014996c-0.13272-0.4256-0.24239-0.85477-0.32552-1.2982-0.076839-0.44345-0.13901-0.89404-0.17533-1.3561-1.1226 1.2454-2.4393 2.1187-3.9635 2.615-1.5249 0.49558-3.0778 0.7448-4.6593 0.7448-1.2287 0-2.3666-0.15996-3.4263-0.47844-1.0583-0.31634-1.9859-0.81549-2.7739-1.4896-0.79633-0.67767-1.4124-1.5267-1.863-2.5607-0.44776-1.0319-0.6692-2.2565-0.6692-3.6776 0-1.5646 0.25427-2.8507 0.76979-3.8661 0.50993-1.014 1.1728-1.8216 1.9811-2.4243 0.8152-0.60626 1.7401-1.0569 2.7809-1.3596 1.0422-0.29992 2.09-0.54128 3.1553-0.72266 1.0527-0.17281 2.0984-0.31491 3.1274-0.4206 1.0115-0.10783 1.9294-0.26778 2.725-0.48558 0.79494-0.21209 1.4208-0.51915 1.8875-0.92903 0.46173-0.40989 0.67688-1.0054 0.64196-1.7867 0-0.81549-0.12434-1.4675-0.36743-1.948-0.25287-0.47844-0.58468-0.85263-0.99961-1.119-0.41074-0.26636-0.88784-0.44488-1.4341-0.53128-0.54696-0.087833-1.1309-0.13496-1.7575-0.13496-1.3943 0-2.4875 0.3192-3.2782 0.95117-0.79494 0.63697-1.2581 1.6931-1.3915 3.1756h-7.0322c0.097097-1.7752 0.50644-3.2398 1.2385-4.4102" fill="#1C1B19"/>
<path d="m240 38h7v-27.505h-7v27.505zm0-31.76h7v-6.2398h-7v6.2398z" fill="#1C1B19"/>
<g transform="translate(96 10)">
<mask id="a" fill="white">
<use xlink:href="#b"/>
</mask>
<path d="m161.82 0.8871v5.0806h0.10051c0.33197-0.84452 0.78356-1.633 1.3519-2.3526 0.57263-0.72103 1.221-1.3377 1.9571-1.8487 0.73542-0.50884 1.5225-0.90413 2.3563-1.1894 0.8324-0.28032 1.703-0.42013 2.6041-0.42013 0.46787 0 0.99236 0.08729 1.5593 0.26329v6.9747c-0.33551-0.071677-0.74109-0.13413-1.2054-0.18665-0.46928-0.053226-0.91946-0.079484-1.359-0.079484-1.301 0-2.4009 0.22923-3.3048 0.68626-0.89964 0.45774-1.6237 1.0851-2.1794 1.8785-0.55564 0.79129-0.94565 1.7181-1.1707 2.7763-0.24986 1.0574-0.3617 2.1979-0.3617 3.4341v12.316h-7.1207v-27.333h6.7724" fill="#1C1B19" mask="url(#a)"/>
<path d="m26.296 53.033c0 7.1606-5.785 12.967-12.928 12.967-7.1461 0-12.934-5.8059-12.934-12.967 0-7.1592 5.7878-12.967 12.934-12.967 7.1426 0 12.928 5.808 12.928 12.967" fill="#C7D533" mask="url(#a)"/>
</g>
<path d="m29.395 58.849c-0.60351 0.32593-1.1053 0.75485-1.5048 1.284-0.39941 0.53192-0.70154 1.1351-0.90563 1.8116-0.20483 0.67654-0.30651 1.3658-0.30651 2.0684s0.10168 1.3912 0.30651 2.0677c0.2041 0.67725 0.50622 1.2804 0.90563 1.8109 0.39941 0.53192 0.90124 0.96014 1.5048 1.2854 0.60424 0.32522 1.3058 0.48818 2.1053 0.48818 0.79883 0 1.5004-0.16296 2.1039-0.48818 0.60424-0.32522 1.1061-0.75344 1.5055-1.2854 0.39941-0.53051 0.70154-1.1337 0.90563-1.8109 0.2041-0.67654 0.30651-1.3651 0.30651-2.0677s-0.10241-1.3919-0.30651-2.0684-0.50622-1.2797-0.90563-1.8116c-0.39941-0.5291-0.90124-0.95802-1.5055-1.284-0.60351-0.32522-1.305-0.48818-2.1039-0.48818-0.79956 0-1.5011 0.16296-2.1053 0.48818zm4.8888-1.2847c0.80834 0.37601 1.4872 0.88325 2.038 1.516 0.55011 0.63351 0.96781 1.375 1.2524 2.2208 0.2831 0.85009 0.42575 1.7524 0.42575 2.7118 0 0.95873-0.14265 1.8624-0.42575 2.7104-0.28456 0.84727-0.70227 1.5887-1.2524 2.2222-0.55084 0.63351-1.2297 1.1337-2.038 1.5034-0.80834 0.36614-1.7359 0.55097-2.7835 0.55097-1.049 0-1.9766-0.18483-2.7842-0.55097-0.80834-0.36966-1.4879-0.86984-2.038-1.5034s-0.96781-1.375-1.2516-2.2222c-0.28456-0.84797-0.42648-1.7517-0.42648-2.7104 0-0.95944 0.14192-1.8617 0.42648-2.7118 0.28383-0.84586 0.70154-1.5873 1.2516-2.2208 0.55011-0.6328 1.2297-1.14 2.038-1.516 0.80761-0.37601 1.7352-0.56437 2.7842-0.56437 1.0475 0 1.9751 0.18836 2.7835 0.56437z" fill="#1C1B19"/>
<path d="m50.172 62.099c-0.15922-0.69545-0.41191-1.3142-0.75666-1.8584-0.34406-0.5442-0.78574-0.98781-1.3229-1.3316-0.5379-0.3423-1.1852-0.51308-1.9412-0.51308-0.87435 0-1.6054 0.15848-2.1938 0.47473-0.58775 0.31552-1.0585 0.7367-1.4116 1.2635-0.35237 0.529-0.6009 1.1441-0.74351 1.8461-0.14261 0.70269-0.21391 1.4401-0.21391 2.2137 0 0.70269 0.079612 1.4003 0.23884 2.0943 0.15992 0.69545 0.42021 1.3149 0.78228 1.8591 0.36068 0.5442 0.83143 0.98781 1.4116 1.3301 0.57944 0.34302 1.2897 0.51453 2.1301 0.51453 0.75597 0 1.4033-0.17151 1.9412-0.51453 0.53721-0.3423 0.97889-0.78591 1.3229-1.3301 0.34476-0.5442 0.59744-1.1637 0.75666-1.8591 0.15922-0.694 0.23953-1.3916 0.23953-2.0943s-0.080305-1.401-0.23953-2.095zm-8.7096-4.7053v2.5842h0.049844c0.36968-0.95018 0.97058-1.6825 1.8027-2.2007 0.83143-0.51887 1.7778-0.77722 2.8363-0.77722 0.99135 0 1.8532 0.19322 2.5836 0.57894 0.73174 0.38572 1.3403 0.90893 1.8283 1.5675 0.48737 0.65999 0.84804 1.4235 1.0834 2.294 0.23538 0.86913 0.35306 1.7867 0.35306 2.7536 0 0.96538-0.11769 1.8837-0.35306 2.7536-0.23538 0.87058-0.59605 1.6348-1.0834 2.2926-0.48806 0.65854-1.0966 1.1767-1.8283 1.5559-0.73036 0.37559-1.5922 0.56519-2.5836 0.56519-0.47075 0-0.9415-0.060788-1.4123-0.18381-0.47006-0.12302-0.90758-0.30756-1.3105-0.55361-0.4036-0.24605-0.76082-0.55289-1.0717-0.92196-0.31083-0.36907-0.55036-0.79966-0.71859-1.2903h-0.049844v7.5884h-1.5888v-18.606h1.4628z" fill="#1C1B19"/>
<path d="m71.025 61.315c-0.20046-0.56508-0.48253-1.0667-0.84765-1.5019-0.36584-0.4381-0.80828-0.78801-1.3302-1.054-0.52119-0.26596-1.1125-0.39859-1.7726-0.39859-0.67798 0-1.2779 0.13263-1.7991 0.39859s-0.96435 0.61587-1.3295 1.054c-0.36512 0.43527-0.6565 0.94109-0.87343 1.5153-0.21692 0.57354-0.36082 1.1605-0.43027 1.7594h8.7085c-0.017898-0.61587-0.12672-1.2085-0.32574-1.7728zm-8.135 4.9446c0.16466 0.62575 0.43027 1.1866 0.79539 1.684 0.3644 0.49735 0.82546 0.90794 1.3817 1.2332 0.55627 0.32522 1.2257 0.48818 2.0074 0.48818 1.1992 0 2.1377-0.30758 2.8157-0.92487 0.67798-0.61587 1.1469-1.4384 1.4082-2.4663h1.6423c-0.34794 1.5062-0.98654 2.6716-1.9158 3.4928-0.9307 0.82258-2.2473 1.2332-3.9505 1.2332-1.0603 0-1.9774-0.18483-2.7506-0.55097-0.77391-0.36966-1.4039-0.87478-1.89-1.5168-0.48683-0.64127-0.84694-1.3862-1.0825-2.2349-0.23411-0.84797-0.35152-1.7432-0.35152-2.6843 0-0.87337 0.11741-1.7291 0.35152-2.57 0.23554-0.83739 0.59565-1.5887 1.0825-2.2469 0.48611-0.65891 1.1161-1.1908 1.89-1.5929 0.7732-0.40212 1.6903-0.60317 2.7506-0.60317 1.0775 0 1.9981 0.21305 2.7635 0.64198 0.76461 0.42822 1.386 0.98765 1.8643 1.6818 0.47824 0.69347 0.82116 1.4914 1.0302 2.3894 0.20833 0.90018 0.29496 1.8116 0.25988 2.7365h-10.35c0 0.58272 0.082331 1.1866 0.24771 1.8102z" fill="#1C1B19"/>
<polygon points="76 71 78 71 78 52 76 52" fill="#1C1B19"/>
<polyline points="81.688 52 81.688 63.922 89.348 57.268 91.598 57.268 85.706 62.351 92 71 89.885 71 84.42 63.522 81.688 65.784 81.688 71 80 71 80 52 81.688 52" fill="#1C1B19"/>
<path d="m128 71h2v-13.732h-2v13.732zm0-16.312h2v-2.6876h-2v2.6876z" fill="#1C1B19"/>
<path d="m134.65 57.394v2.3479h0.051183c0.31575-0.82608 0.87588-1.4907 1.6811-1.991 0.80451-0.50101 1.6883-0.75079 2.6514-0.75079 0.9458 0 1.7366 0.12236 2.3753 0.36852 0.63943 0.24616 1.1513 0.59296 1.5376 1.0411 0.38351 0.44816 0.65456 0.9984 0.81244 1.6485 0.15715 0.65015 0.23645 1.3785 0.23645 2.1879v8.7539h-1.6544v-8.4911c0-0.57848-0.051904-1.12-0.15715-1.6203-0.10453-0.50101-0.28908-0.93613-0.55148-1.3054-0.26168-0.36924-0.61636-0.65884-1.0626-0.86952-0.44623-0.21068-1.0028-0.31711-1.6674-0.31711-0.66538 0-1.2558 0.11729-1.7727 0.35476-0.51543 0.23747-0.95301 0.56472-1.312 0.9774-0.359 0.41268-0.63943 0.905-0.83911 1.4762-0.20257 0.57124-0.31214 1.191-0.32872 1.8578v7.9372h-1.6544v-13.606h1.6544" fill="#1C1B19"/>
<path d="m154.35 54.57h1.6467v-2.5697h-1.6467v2.5697zm1.6467 2.467v14.325c0 0.49116-0.038779 0.95787-0.11706 1.3987-0.078994 0.44086-0.22765 0.82722-0.44381 1.1584-0.21903 0.33047-0.5149 0.59247-0.8912 0.78739-0.37415 0.19563-0.84883 0.29344-1.4248 0.29344-0.19246 0-0.37846-0.0076853-0.56158-0.02585-0.18312-0.017467-0.37056-0.025851-0.56158-0.025851v-1.3219c0.1386 0.017467 0.28725 0.030042 0.44381 0.039125 0.15727 0.0083839 0.29659 0.0027946 0.41867-0.013275 0.64416 0 1.0549-0.18305 1.2287-0.54775 0.17379-0.364 0.26212-0.81813 0.26212-1.3617v-14.706h1.6467z" fill="#1C1B19"/>
<path d="m168.02 61.315c-0.20046-0.56508-0.48112-1.0667-0.84697-1.5019-0.36585-0.4381-0.80831-0.78801-1.3302-1.054s-1.1126-0.39859-1.772-0.39859c-0.678 0-1.2787 0.13263-1.7999 0.39859s-0.9651 0.61587-1.3295 1.054c-0.36513 0.43527-0.65581 0.94109-0.87346 1.5153-0.21765 0.57354-0.36084 1.1605-0.43029 1.7594h8.7074c-0.016467-0.61587-0.12601-1.2085-0.32504-1.7728zm-8.1346 4.9446c0.16467 0.62575 0.43028 1.1866 0.7947 1.684 0.36585 0.49735 0.8262 0.90794 1.3832 1.2332 0.55558 0.32522 1.2243 0.48818 2.0075 0.48818 1.1992 0 2.1378-0.30758 2.8151-0.92487 0.678-0.61587 1.1477-1.4384 1.4083-2.4663h1.6431c-0.34938 1.5062-0.98729 2.6716-1.9173 3.4928-0.93002 0.82258-2.2459 1.2332-3.9492 1.2332-1.0618 0-1.9789-0.18483-2.7521-0.55097-0.77322-0.36966-1.4025-0.87478-1.8887-1.5168-0.48756-0.64127-0.8484-1.3862-1.0832-2.2349-0.23412-0.84797-0.35082-1.7432-0.35082-2.6843 0-0.87337 0.1167-1.7291 0.35082-2.57 0.23483-0.83739 0.59567-1.5887 1.0832-2.2469 0.48613-0.65891 1.1154-1.1908 1.8887-1.5929s1.6904-0.60317 2.7521-0.60317c1.0775 0 1.9982 0.21305 2.7628 0.64198 0.76535 0.42822 1.3854 0.98765 1.8643 1.6818 0.47754 0.69347 0.82048 1.4914 1.031 2.3894 0.20834 0.90018 0.29497 1.8116 0.25917 2.7365h-10.35c0 0.58272 0.082334 1.1866 0.24772 1.8102z" fill="#1C1B19"/>
<path d="m187.98 59.208c-0.61154-0.56437-1.4697-0.84727-2.5731-0.84727-0.7875 0-1.4791 0.16296-2.074 0.48818-0.59567 0.32593-1.0904 0.75485-1.4841 1.284-0.39447 0.53192-0.69159 1.1351-0.89207 1.8116-0.20192 0.67654-0.3036 1.3658-0.3036 2.0684s0.10168 1.3912 0.3036 2.0677c0.20048 0.67725 0.4976 1.2804 0.89207 1.8109 0.39375 0.53192 0.88846 0.96014 1.4841 1.2854 0.59495 0.32522 1.2865 0.48818 2.074 0.48818 0.50841 0 0.9887-0.093827 1.4452-0.28289 0.45433-0.18836 0.85673-0.45009 1.2079-0.78377 0.35048-0.33369 0.63822-0.73157 0.86683-1.1951 0.22716-0.46279 0.36635-0.9672 0.41899-1.5153h1.6543c-0.22788 1.6106-0.83005 2.8649-1.8108 3.7644-0.98149 0.89806-2.2413 1.3474-3.7825 1.3474-1.0334 0-1.9471-0.18483-2.744-0.55097-0.7976-0.36966-1.4661-0.86984-2.0099-1.5034-0.54159-0.63351-0.95337-1.375-1.2339-2.2222-0.27909-0.84797-0.41899-1.7517-0.41899-2.7104 0-0.95944 0.1399-1.8617 0.41899-2.7118 0.28053-0.84586 0.69231-1.5873 1.2339-2.2208 0.54375-0.6328 1.2123-1.14 2.0099-1.516 0.79688-0.37601 1.7106-0.56437 2.744-0.56437 1.4531 0 2.6834 0.37601 3.6916 1.1295 1.0053 0.75344 1.6046 1.8935 1.7978 3.4173h-1.6543c-0.22861-0.9933-0.6476-1.7735-1.262-2.3386" fill="#1C1B19"/>
<path d="m200.94 63.397c-0.098576 0.18765-0.29159 0.32381-0.57629 0.41058-0.2847 0.085362-0.53493 0.14462-0.75276 0.1806-0.66935 0.11852-1.3601 0.22575-2.0708 0.32099-0.7114 0.093827-1.3594 0.23422-1.9467 0.42258-0.58456 0.18907-1.0664 0.45926-1.4428 0.81058-0.37569 0.34991-0.56457 0.8515-0.56457 1.5019 0 0.41058 0.079274 0.77531 0.23782 1.0928 0.15855 0.31534 0.37224 0.59048 0.6404 0.82116 0.26746 0.23139 0.57767 0.40635 0.92923 0.52628 0.35087 0.11993 0.71071 0.1806 1.0795 0.1806 0.60179 0 1.1795-0.093827 1.7316-0.28289 0.55285-0.18836 1.0326-0.46279 1.4442-0.82257 0.40947-0.35979 0.73621-0.79647 0.97886-1.3101 0.24334-0.51287 0.36466-1.0956 0.36466-1.7474v-2.1051h-0.052389zm-7.9053-3.9577c0.26608-0.56437 0.63074-1.0279 1.0912-1.3869 0.45979-0.35979 0.99954-0.62434 1.6186-0.79647 0.61972-0.17072 1.3056-0.25608 2.0591-0.25608 0.56939 0 1.1381 0.055026 1.7061 0.16649 0.56939 0.11146 1.0802 0.32099 1.5331 0.62787 0.45152 0.30899 0.81824 0.74286 1.1036 1.2981 0.28332 0.55661 0.42601 1.2804 0.42601 2.1714v7.0399c0 0.65044 0.3102 0.97566 0.92923 0.97566 0.18474 0 0.35156-0.034568 0.50253-0.10229v1.3616c-0.18474 0.034568-0.34743 0.059259-0.48943 0.076896-0.14338 0.018342-0.3233 0.026102-0.53975 0.026102-0.40257 0-0.72449-0.056437-0.96783-0.1679-0.24196-0.11146-0.43015-0.27019-0.56388-0.47548-0.13373-0.20529-0.22128-0.44938-0.26333-0.73298-0.04136-0.28078-0.063419-0.594-0.063419-0.93686h-0.049632c-0.28608 0.42822-0.57422 0.81058-0.8665 1.1436-0.29297 0.3351-0.61834 0.61305-0.97886 0.83527-0.35983 0.22293-0.7693 0.39365-1.2291 0.51358-0.46117 0.11993-1.0106 0.17919-1.6448 0.17919-0.60317 0-1.1684-0.071252-1.6944-0.21728-0.52734-0.14533-0.98782-0.37672-1.3807-0.69489-0.39292-0.31675-0.70312-0.71887-0.92854-1.2071-0.2261-0.48748-0.33984-1.0646-0.33984-1.7333 0-0.92557 0.19991-1.648 0.60248-2.1714 0.40188-0.52205 0.93267-0.92063 1.5944-1.1944 0.66108-0.27302 1.4062-0.46702 2.2341-0.57778 0.82858-0.11146 1.6696-0.21869 2.5223-0.32099 0.33571-0.033862 0.62868-0.076896 0.87891-0.12769 0.25161-0.05291 0.46048-0.1418 0.6273-0.27019 0.1682-0.12981 0.29779-0.30476 0.38948-0.52769 0.091682-0.22222 0.13925-0.51429 0.13925-0.87407 0-0.54815-0.087546-0.99753-0.26471-1.3474-0.17578-0.35132-0.41912-0.62928-0.72794-0.83457-0.30951-0.2067-0.67004-0.3485-1.0795-0.4261-0.41016-0.075485-0.84926-0.11429-1.3173-0.11429-1.0037 0-1.8254 0.24409-2.4602 0.73157-0.63626 0.48959-0.97128 1.272-1.0051 2.3506h-1.58c0.048943-0.76966 0.2068-1.437 0.47702-2.0035z" fill="#1C1B19"/>
<path d="m207.59 57.193v3.2392h0.054275c0.44023-1.1255 1.1217-1.9888 2.0459-2.5964 0.92419-0.60685 2.027-0.88236 3.307-0.82946v1.6861c-0.78473-0.035265-1.5001 0.066122-2.1409 0.3071-0.64075 0.24171-1.1933 0.58555-1.6592 1.0308-0.46812 0.44449-0.8292 0.97567-1.0863 1.5913-0.25555 0.61567-0.38294 1.2886-0.38294 2.0204v7.3579h-1.7308v-13.807h1.5928" fill="#1C1B19"/>
<path d="m215.59 57.193v3.2392h0.055041c0.43806-1.1255 1.1204-1.9888 2.0456-2.5964 0.92363-0.60685 2.026-0.88236 3.3077-0.82946v1.6861c-0.78716-0.035265-1.5012 0.066122-2.1421 0.3071-0.64089 0.24171-1.1928 0.58555-1.661 1.0308-0.46747 0.44449-0.82788 0.97567-1.0842 1.5913-0.2556 0.61567-0.38529 1.2886-0.38529 2.0204v7.3579h-1.7274v-13.807h1.5917" fill="#1C1B19"/>
<path d="m222 71h2v-13.732h-2v13.732zm0-16.312h2v-2.6876h-2v2.6876z" fill="#1C1B19"/>
<path d="m231.69 52l2.7376 3.6059h-1.3294l-3.4414-3.6059h2.0332zm5.3321 9.3599c-0.20046-0.56248-0.48252-1.0618-0.84764-1.495-0.36511-0.43608-0.80898-0.78438-1.3294-1.0491-0.5219-0.26474-1.1125-0.39676-1.7726-0.39676-0.67797 0-1.2779 0.13202-1.7991 0.39676-0.52118 0.26474-0.96505 0.61304-1.3302 1.0491-0.3644 0.43327-0.65649 0.93676-0.87341 1.5084-0.21764 0.57091-0.36082 1.1552-0.43026 1.7513h8.7083c-0.018614-0.61304-0.12672-1.2029-0.32574-1.7647zm-8.1349 4.9219c0.16609 0.62287 0.42955 1.1811 0.79538 1.6762 0.36583 0.49507 0.82616 0.90376 1.3824 1.2275 0.55555 0.32372 1.2242 0.48594 2.0074 0.48594 1.1992 0 2.137-0.30617 2.815-0.92061 0.67725-0.61304 1.1469-1.4318 1.4089-2.455h1.6416c-0.34865 1.4992-0.98652 2.6593-1.9158 3.4767-0.92997 0.81879-2.2472 1.2275-3.9497 1.2275-1.0603 0-1.9788-0.18398-2.7505-0.54843-0.77318-0.36796-1.4039-0.87075-1.89-1.5098-0.48682-0.63832-0.84907-1.3799-1.0825-2.2246-0.23482-0.84407-0.35151-1.7352-0.35151-2.672 0-0.86935 0.11669-1.7211 0.35151-2.5582 0.23339-0.83354 0.59564-1.5814 1.0825-2.2366 0.4861-0.65587 1.1168-1.1853 1.89-1.5856 0.77175-0.40027 1.6903-0.6004 2.7505-0.6004 1.0774 0 1.9981 0.21207 2.7634 0.63902 0.76388 0.42625 1.3853 0.98311 1.8642 1.6741 0.4768 0.69028 0.82115 1.4845 1.0295 2.3784 0.20833 0.89603 0.29496 1.8033 0.26131 2.7239h-10.351c0 0.58003 0.08233 1.1811 0.24771 1.8019z" fill="#1C1B19"/>
<path d="m242.59 57.193v3.2392h0.054275c0.44023-1.1255 1.1209-1.9888 2.0459-2.5964 0.92419-0.60685 2.0263-0.88236 3.307-0.82946v1.6861c-0.78624-0.035265-1.4994 0.066122-2.1401 0.3071-0.64226 0.24171-1.1948 0.58555-1.6599 1.0308-0.46737 0.44449-0.8292 0.97567-1.0863 1.5913-0.25555 0.61567-0.38294 1.2886-0.38294 2.0204v7.3579h-1.7308v-13.807h1.5928" fill="#1C1B19"/>
<path d="m258.03 61.315c-0.20191-0.56508-0.48402-1.0667-0.84917-1.5019-0.36444-0.4381-0.80908-0.78801-1.3289-1.054-0.52268-0.26596-1.1134-0.39859-1.7735-0.39859-0.67733 0-1.2773 0.13263-1.8 0.39859-0.52053 0.26596-0.96374 0.61587-1.3289 1.054-0.36516 0.43527-0.65657 0.94109-0.87495 1.5153-0.21552 0.57354-0.35943 1.1605-0.4296 1.7594h8.7101c-0.018616-0.61587-0.12745-1.2085-0.32506-1.7728zm-8.1373 4.9446c0.16611 0.62575 0.43103 1.1866 0.79547 1.684 0.36588 0.49735 0.82626 0.90794 1.3826 1.2332 0.55705 0.32522 1.2251 0.48818 2.0077 0.48818 1.2 0 2.1373-0.30758 2.8153-0.92487 0.67877-0.61587 1.1477-1.4384 1.4098-2.4663h1.6404c-0.34726 1.5062-0.98521 2.6716-1.9139 3.4928-0.9308 0.82258-2.249 1.2332-3.9516 1.2332-1.0604 0-1.9783-0.18483-2.7516-0.55097-0.77328-0.36966-1.4041-0.87478-1.8895-1.5168-0.48688-0.64127-0.84846-1.3862-1.0833-2.2349-0.2327-0.84797-0.34941-1.7432-0.34941-2.6843 0-0.87337 0.11671-1.7291 0.34941-2.57 0.23485-0.83739 0.59643-1.5887 1.0833-2.2469 0.48545-0.65891 1.1162-1.1908 1.8895-1.5929 0.77328-0.40212 1.6912-0.60317 2.7516-0.60317 1.0776 0 1.9991 0.21305 2.7638 0.64198 0.76469 0.42822 1.3855 0.98765 1.8645 1.6818 0.47757 0.69347 0.82054 1.4914 1.0296 2.3894 0.20764 0.90018 0.29499 1.8116 0.26134 2.7365h-10.353c0 0.58272 0.08234 1.1866 0.24774 1.8102z" fill="#1C1B19"/>
</g>
</g>
</svg>
