<?xml version="1.0" encoding="UTF-8"?>
<svg width="300px" height="300px" viewBox="0 0 300 300" version="1.1" xmlns="http://www.w3.org/2000/svg" xmlns:xlink="http://www.w3.org/1999/xlink">
    <!-- Generator: Sketch 51.2 (57519) - http://www.bohemiancoding.com/sketch -->
    <title>NVB</title>
    <desc>Created with Sketch.</desc>
    <defs>
        <polygon id="path-1" points="0.0685074627 0.0422074074 152.023769 0.0422074074 152.023769 153.931556 0.0685074627 153.931556"></polygon>
    </defs>
    <g id="NVB" stroke="none" stroke-width="1" fill="none" fill-rule="evenodd">
        <g id="Group-11" transform="translate(74.000000, 31.000000)">
            <g id="Group-3">
                <mask id="mask-2" fill="white">
                    <use xlink:href="#path-1"></use>
                </mask>
                <g id="Clip-2"></g>
                <path d="M152.023769,77.0182519 C152.023769,119.539363 117.992687,154 76.0124552,154 C34.0310821,154 0,119.539363 0,77.0182519 C0,34.5051259 34.0310821,0.0422074074 76.0124552,0.0422074074 C117.992687,0.0422074074 152.023769,34.5051259 152.023769,77.0182519" id="Fill-1" fill="#EA862E" mask="url(#mask-2)"></path>
            </g>
            <path d="M90,31.0023011 C90,39.285265 83.4995529,46 75.4971811,46 C67.4835336,46 61,39.285265 61,31.0023011 C61,22.7193373 67.4835336,16 75.4971811,16 C83.4995529,16 90,22.7193373 90,31.0023011" id="Fill-4" fill="#FFFFFE"></path>
            <path d="M114.738707,116.260227 L114.765215,116.239662 C106.164925,107.604813 100.842473,95.6761996 100.842473,82.497715 C100.842473,69.3283703 106.160315,57.4168939 114.738707,48.7854721 C116.124066,47.4270657 117,45.532837 117,43.4375322 C117,39.336036 113.674908,36 109.579916,36 C107.545674,36 105.69584,36.8214417 104.351972,38.1638535 L104.341599,38.1478588 C93.0086255,49.4823837 86,65.1628953 86,82.497715 C86,99.6520233 92.8657099,115.188583 103.998141,126.493403 C105.351229,128.030036 107.322081,129 109.529204,129 C113.617281,129 116.937763,125.673104 116.937763,121.547616 C116.937763,119.47973 116.097557,117.612921 114.738707,116.260227" id="Fill-5" fill="#FFFFFE"></path>
            <path d="M66,82.5142675 C66,65.2483339 59.0203027,49.6100345 47.7536534,38.2930694 C46.3946008,36.8845838 44.5087569,36 42.4085078,36 C38.311754,36 35,39.3328833 35,43.437352 C35,45.4895863 35.820734,47.3466415 37.157885,48.6912088 L37.1394415,48.7049056 C45.7986465,57.3293118 51.1668464,69.3002982 51.1668464,82.5142675 C51.1668464,95.7099743 45.8182427,107.65585 37.1832447,116.28368 L37.2005355,116.300801 C35.8576209,117.636238 35.0195962,119.496717 35.0195962,121.560365 C35.0195962,125.66141 38.3394192,129 42.436173,129 C44.5398803,129 46.4360986,128.113133 47.7893876,126.695517 C59.0479679,115.3854 66,99.774494 66,82.5142675" id="Fill-6" fill="#FFFFFE"></path>
        </g>
        <g id="Group-13" transform="translate(50.000000, 217.000000)" fill="#1D5D9B">
            <path d="M56,3.35814595 C56,4.2754282 55.8130183,4.91306113 55.4483234,5.26333306 C55.0795987,5.61319912 54.3993722,5.78853803 53.40442,5.78853803 C52.3969755,5.78853803 51.7183609,5.61969316 51.3689792,5.28362692 C51.0179855,4.93944314 50.8451081,4.32900398 50.8451081,3.44622128 C50.8451081,2.52934491 51.026851,1.89049436 51.389934,1.53575777 C51.7501962,1.17655654 52.4344525,1 53.4382702,1 C54.4332223,1 55.1078072,1.17290364 55.4636366,1.51546392 C55.8210779,1.8596477 56,2.472928 56,3.35814595 M54.3078962,8.22014774 C54.8063798,8.22014774 55.1533437,8.33135806 55.3520117,8.54728468 C55.5450381,8.76524069 55.6417527,9.07979544 55.6417527,9.48932543 L55.6417527,25.0198068 C55.6417527,25.1419758 55.6058877,25.2462862 55.5381874,25.3372027 C55.4636366,25.4309603 55.345967,25.5032064 55.1791342,25.5677409 C55.0175401,25.6237519 54.7866339,25.6732689 54.4968928,25.702898 C54.2059429,25.7296859 53.8476956,25.7459209 53.42336,25.7459209 C52.9829053,25.7459209 52.6186133,25.7296859 52.3300812,25.702898 C52.0375194,25.6732689 51.8118518,25.6237519 51.644213,25.5677409 C51.4789921,25.5032064 51.3601137,25.4309603 51.2891896,25.3372027 C51.2178625,25.2462862 51.1828035,25.1419758 51.1828035,25.0198068 L51.1828035,11.9225586 L44.0561412,11.9225586 L44.0561412,19.5246367 C44.0561412,20.4094488 44.1939596,21.0698109 44.4647607,21.5101875 C44.7383826,21.9497524 45.2227619,22.1729848 45.9235403,22.1729848 C46.1592823,22.1729848 46.3728605,22.1502557 46.5622601,22.1100739 C46.7476299,22.0658333 46.9221192,22.0195633 47.0679972,21.9639581 C47.2179049,21.9079471 47.3428281,21.8624888 47.4387368,21.8210894 C47.542705,21.7764429 47.633375,21.7553373 47.7167914,21.7553373 C47.7889245,21.7553373 47.8574307,21.7764429 47.9206982,21.8210894 C47.9859806,21.8624888 48.0391737,21.9452878 48.0746357,22.0727332 C48.1088888,22.2001786 48.1399181,22.3710528 48.1709474,22.5910382 C48.2003648,22.8089942 48.2136631,23.0849907 48.2136631,23.4247098 C48.2136631,23.9568147 48.1850516,24.3598506 48.1266199,24.6313824 C48.0665762,24.9008848 47.9843687,25.1042292 47.8755647,25.2328923 C47.7724024,25.355873 47.6112113,25.4642422 47.397633,25.5551587 C47.1848608,25.6476987 46.9374324,25.7256271 46.6597807,25.7938144 C46.3809201,25.8567254 46.0798956,25.9090835 45.7546926,25.943989 C45.4286835,25.9813297 45.1010626,26 44.767397,26 C43.8800399,26 43.1079344,25.8863544 42.4571253,25.6545986 C41.8051072,25.4256839 41.265117,25.0721649 40.8387665,24.5952594 C40.411207,24.1171361 40.1005111,23.5148145 39.8982163,22.7903239 C39.6955185,22.0629921 39.5939681,21.2061856 39.5939681,20.2125984 L39.5939681,11.9225586 L37.6939278,11.9225586 C37.4698721,11.9225586 37.2978006,11.7780664 37.1781162,11.4943583 C37.0600437,11.2102443 37,10.7361799 37,10.0721649 C37,9.72148713 37.0165221,9.42519685 37.0467454,9.18045296 C37.0741479,8.93814433 37.1204904,8.74778797 37.1781162,8.60857212 C37.236548,8.47057391 37.3098899,8.3715399 37.398545,8.31106421 C37.4888121,8.24977677 37.5939893,8.22014774 37.7092409,8.22014774 L39.5939681,8.22014774 L39.5939681,4.61108856 C39.5939681,4.48973131 39.631445,4.37852098 39.6935036,4.28192223 C39.7563681,4.18978813 39.8780674,4.10252456 40.0497359,4.03677247 C40.2189866,3.97142625 40.4515048,3.92556214 40.7424548,3.89349785 C41.0313898,3.86305707 41.3900401,3.84682198 41.8171965,3.84682198 C42.2564423,3.84682198 42.6195253,3.86305707 42.9112813,3.89349785 C43.1990074,3.92556214 43.4274958,3.97142625 43.5943286,4.03677247 C43.7599525,4.10252456 43.8800399,4.18978813 43.9493521,4.28192223 C44.0194702,4.37852098 44.0561412,4.48973131 44.0561412,4.61108856 L44.0561412,8.22014774 L54.3078962,8.22014774" id="Fill-7"></path>
            <path d="M71.3939933,17.0178091 C71.3939933,16.2322076 71.3355159,15.5098384 71.2100918,14.8442982 C71.082248,14.1815595 70.8729391,13.6072659 70.5769222,13.1198168 C70.2829217,12.6315672 69.8864849,12.2461703 69.3956777,11.9728306 C68.9036605,11.6982902 68.2829929,11.5606199 67.5360947,11.5606199 C66.8734847,11.5606199 66.2903233,11.6862841 65.7934667,11.9304089 C65.2945935,12.1721324 64.8876711,12.5323165 64.5650369,12.9997554 C64.2436126,13.4751984 64.0056698,14.0390866 63.844756,14.7018254 C63.6826323,15.3629633 63.6035869,16.115748 63.6035869,16.9633813 C63.6035869,17.7533851 63.67255,18.4753541 63.8016037,19.1380928 C63.9330771,19.803633 64.1444025,20.3751251 64.4303371,20.8665763 C64.7227244,21.3548258 65.1139183,21.7338195 65.6144047,22.0003557 C66.1108581,22.2700936 66.730719,22.4033617 67.463502,22.4033617 C68.1406306,22.4033617 68.7282281,22.2804989 69.2246815,22.0363741 C69.7227481,21.7906486 70.1328968,21.4368677 70.4547245,20.9706294 C70.7721159,20.505992 71.0104619,19.9409031 71.1657296,19.2833671 C71.3185776,18.6206283 71.3939933,17.8638415 71.3939933,17.0178091 M76,16.8381173 C76,18.1992129 75.8233578,19.4394468 75.4676535,20.5592192 C75.111546,21.6821931 74.5727469,22.6498877 73.8488364,23.4583009 C73.1273456,24.2703159 72.218727,24.894635 71.1298365,25.3344598 C70.0361066,25.7766859 68.7612981,26 67.3037981,26 C65.89308,26 64.66707,25.8018987 63.622945,25.4068969 C62.5800299,25.0122952 61.713757,24.4456055 61.0257396,23.693221 C60.3361089,22.942037 59.8287666,22.0135625 59.4992764,20.9178024 C59.1637369,19.8208418 59,18.5678013 59,17.1614825 C59,15.8003869 59.1794653,14.5565511 59.5448485,13.4303755 C59.9033758,12.3041999 60.4486276,11.3373057 61.1685052,10.533695 C61.8916091,9.72928386 62.7957915,9.10496476 63.8818589,8.66393935 C64.9663132,8.22171332 66.2354755,8 67.6978151,8 C69.1190188,8 70.3522881,8.19409921 71.3939933,8.5806968 C72.4389249,8.97009583 73.3011648,9.5391867 73.9831329,10.2919715 C74.6618746,11.0431554 75.1736531,11.9676279 75.5039499,13.063388 C75.8362631,14.1619494 76,15.4185917 76,16.8381173" id="Fill-8"></path>
            <path d="M120,24.2830968 C120,24.4047143 119.971578,24.5075291 119.90394,24.597142 C119.840979,24.6895553 119.733405,24.7607656 119.579781,24.8243747 C119.425796,24.8795827 119.221802,24.9283897 118.969239,24.9575939 C118.717755,24.9851979 118.393956,25 118.001079,25 C117.610002,25 117.288001,24.9851979 117.034718,24.9575939 C116.782155,24.9283897 116.574564,24.8795827 116.423098,24.8243747 C116.269113,24.7607656 116.160101,24.6895553 116.099298,24.597142 C116.033459,24.5075291 116,24.4047143 116,24.2830968 L116,0.767310493 C116,0.650893729 116.033459,0.544078347 116.099298,0.447664464 C116.160101,0.350450465 116.269113,0.273639404 116.423098,0.204829495 C116.574564,0.139220048 116.782155,0.0900129619 117.034718,0.0544078347 C117.288001,0.0160023043 117.610002,0 118.001079,0 C118.393956,0 118.717755,0.0160023043 118.969239,0.0544078347 C119.221802,0.0900129619 119.425796,0.139220048 119.579781,0.204829495 C119.733405,0.273639404 119.840979,0.350450465 119.90394,0.447664464 C119.971578,0.544078347 120,0.650893729 120,0.767310493 L120,24.2830968" id="Fill-9"></path>
            <path d="M133.822957,15.2445027 C133.858293,13.9822576 133.612105,12.9881495 133.094489,12.2697823 C132.578037,11.5478133 131.773849,11.187229 130.689689,11.187229 C130.141396,11.187229 129.664941,11.2924828 129.259934,11.5065923 C128.853374,11.7219023 128.514769,12.01085 128.249942,12.3754363 C127.97929,12.7388221 127.775039,13.1678413 127.63253,13.6628944 C127.489244,14.1567468 127.405369,14.6862174 127.383624,15.2445027 L133.822957,15.2445027 Z M138,16.5367632 C138,17.0838429 137.885837,17.4904507 137.649745,17.7533851 C137.416759,18.0147186 137.094851,18.1455855 136.682467,18.1455855 L127.383624,18.1455855 C127.383624,18.8239322 127.460121,19.4434489 127.616609,19.9977322 C127.769215,20.5524157 128.016568,21.0234564 128.349349,21.4092536 C128.686013,21.7998533 129.124803,22.0932032 129.652515,22.2965071 C130.184499,22.499811 130.818219,22.5974609 131.56222,22.5974609 C132.315928,22.5974609 132.975666,22.5422327 133.54881,22.4285746 C134.117684,22.3137159 134.613555,22.1884519 135.032152,22.0547836 C135.450361,21.9175134 135.791685,21.7906486 136.06855,21.6773907 C136.341919,21.5637326 136.563256,21.5109056 136.736442,21.5109056 C136.836237,21.5109056 136.920112,21.5309158 136.990008,21.5729373 C137.06068,21.6113569 137.115043,21.6865954 137.160087,21.7946506 C137.207461,21.9003046 137.238914,22.0547836 137.254834,22.2528848 C137.271532,22.4485848 137.280075,22.6963114 137.280075,22.9920626 C137.280075,23.2561976 137.27658,23.4831136 137.263377,23.6656069 C137.254834,23.8505014 137.238914,24.0065811 137.21445,24.1358472 C137.190375,24.2703159 137.157757,24.3811726 137.109607,24.4724192 C137.063786,24.5592636 137.003987,24.6469084 136.930208,24.7297508 C136.857206,24.8101919 136.655673,24.9266514 136.32561,25.0691242 C135.993606,25.2131979 135.571125,25.3528692 135.056227,25.4889388 C134.541329,25.6250083 133.956924,25.7438691 133.290973,25.8471219 C132.627353,25.9499744 131.92063,26 131.170416,26 C129.810169,26 128.620777,25.8203082 127.598747,25.4613247 C126.576717,25.1023412 125.722048,24.5608644 125.037847,23.832092 C124.352481,23.1069213 123.842243,22.1884519 123.505967,21.0802855 C123.170468,19.9689174 123,18.6694533 123,17.1786913 C123,15.7607666 123.176292,14.4801121 123.529266,13.3395291 C123.885345,12.2013474 124.39869,11.236054 125.072407,10.443649 C125.745347,9.64924295 126.563903,9.04813571 127.530016,8.62832114 C128.4938,8.21210841 129.582231,8 130.791814,8 C132.072847,8 133.165161,8.19810125 134.071863,8.59230273 C134.978954,8.9849034 135.725672,9.53278342 136.303865,10.2283389 C136.885941,10.9242946 137.315022,11.7523179 137.592664,12.7056051 C137.862927,13.6628944 138,14.6962225 138,15.8199969 L138,16.5367632 Z" id="Fill-10"></path>
            <path d="M16,37.6827545 C16,37.7387051 15.9952941,37.8130452 15.9913725,37.8916891 C15.9847059,37.9730719 15.9713725,38.06541 15.9545098,38.1628346 C15.9364706,38.262998 15.912549,38.3733343 15.8843137,38.5059725 C15.8560784,38.631568 15.8188235,38.7786831 15.7721569,38.9394923 L11.1396078,53.0582292 C11.0811765,53.2558172 11.0027451,53.4154526 10.9058824,53.5371355 C10.8043137,53.6603834 10.6462745,53.7597643 10.4219608,53.8278441 C10.1956863,53.8967065 9.88901961,53.9417018 9.50509804,53.9663514 C9.11843137,53.9910009 8.61490196,54 7.99019608,54 C7.38078431,54 6.88196078,53.9910009 6.49686275,53.9581348 C6.10588235,53.9268338 5.80392157,53.8783171 5.58666667,53.8102373 C5.36666667,53.7405924 5.20862745,53.646298 5.11137255,53.5222675 C5.01372549,53.3994108 4.93333333,53.2401666 4.8772549,53.0582292 L0.242352941,38.9394923 C0.17372549,38.7113858 0.116862745,38.5001036 0.0776470588,38.3122972 C0.0396078431,38.123317 0.0180392157,37.9922438 0.00941176471,37.9089047 C0.00196078431,37.8314346 0,37.7523994 0,37.6827545 C0,37.5677231 0.0298039216,37.462082 0.0952941176,37.3752215 C0.160784314,37.2875785 0.272941176,37.2151948 0.433333333,37.1584616 C0.595686275,37.1005547 0.816470588,37.0606458 1.09882353,37.03717 C1.38117647,37.0140855 1.7372549,37 2.16196078,37 C2.63529412,37 3.01647059,37.0140855 3.30392157,37.0438215 C3.59176471,37.0735575 3.81960784,37.1107275 3.9854902,37.1662869 C4.15490196,37.2202812 4.27098039,37.2965776 4.34117647,37.3947847 C4.40980392,37.4929918 4.46627451,37.6111533 4.51333333,37.7523994 L8.02627451,49.2101544 L8.12745098,49.6479781 L8.23372549,49.2101544 L11.6909804,37.7523994 C11.7239216,37.6111533 11.7807843,37.4929918 11.8556863,37.3947847 C11.9341176,37.2965776 12.0505882,37.2202812 12.2098039,37.1662869 C12.3705882,37.1107275 12.5870588,37.0735575 12.8576471,37.0438215 C13.1313725,37.0140855 13.4854902,37 13.9243137,37 C14.3462745,37 14.6968627,37.0140855 14.967451,37.03717 C15.2403922,37.0606458 15.4517647,37.1005547 15.5996078,37.1584616 C15.7505882,37.2151948 15.8521569,37.2875785 15.912549,37.3752215 C15.9698039,37.462082 16,37.5677231 16,37.6827545" id="Fill-11"></path>
            <path d="M48,51.4509245 C48,51.7608822 47.9906984,52.0203163 47.975735,52.2280241 C47.9530876,52.4349298 47.9304402,52.614168 47.8988956,52.7585208 C47.8734173,52.9012698 47.8354021,53.0151481 47.7949603,53.1077746 C47.7529009,53.1971931 47.6610981,53.3094676 47.5191476,53.4458008 C47.3739617,53.5857429 47.1329289,53.7533526 46.7863431,53.9506349 C46.4425883,54.1455112 46.0478768,54.3199376 45.6086794,54.4807307 C45.1686732,54.6347071 44.6906517,54.758209 44.1725929,54.8544442 C43.6545341,54.9506794 43.1243428,55 42.5775704,55 C41.3529942,55 40.2655156,54.8091334 39.3244361,54.4229895 C38.3760772,54.0428603 37.5862498,53.4806861 36.9416083,52.7296503 C36.2969669,51.9846291 35.8140924,51.0748051 35.4873231,49.9997772 C35.1601493,48.9223435 35,47.6917354 35,46.303141 C35,44.7008242 35.1965469,43.3198485 35.5981335,42.1562041 C35.994867,40.9873468 36.5501322,40.0229895 37.2623114,39.2615282 C37.9773215,38.496859 38.8193187,37.9270662 39.7943693,37.5561595 C40.7698242,37.1856538 41.8403173,37 43.0066573,37 C43.4798258,37 43.9485457,37.0425039 44.4079639,37.1271107 C44.8625292,37.2101136 45.2936382,37.3251949 45.6891585,37.4671419 C46.0858921,37.6086879 46.4446104,37.7698819 46.7604604,37.951526 C47.0722663,38.1299621 47.2983357,38.2847405 47.4269404,38.4170639 C47.561207,38.5493874 47.6509877,38.6596569 47.7063929,38.7490755 C47.7601804,38.8364892 47.7990045,38.9551793 47.8313579,39.0975273 C47.8608804,39.2406772 47.8819101,39.4171085 47.8988956,39.6268211 C47.9191165,39.8353308 47.9284181,40.0899532 47.9284181,40.3894854 C47.9284181,41.0815772 47.8693732,41.570773 47.7504744,41.8474493 C47.6307668,42.1325462 47.4742573,42.2692805 47.2853943,42.2692805 C47.0823767,42.2692805 46.8708664,42.1862776 46.6435838,42.0190688 C46.4211541,41.853063 46.1501944,41.6670082 45.8424327,41.4653152 C45.5326489,41.2628202 45.1638202,41.0795723 44.7339244,40.9111606 C44.304433,40.740744 43.7944626,40.660147 43.2027998,40.660147 C42.0372686,40.660147 41.1418883,41.1092448 40.5267693,42.0102473 C39.9092238,42.9108487 39.59944,44.2356872 39.59944,45.9819559 C39.59944,46.8412564 39.6746617,47.6035197 39.8315757,48.2603252 C39.9852543,48.9135219 40.2149634,49.4676765 40.5166589,49.9071508 C40.8191632,50.3502339 41.2017421,50.6842504 41.657925,50.9019826 C42.1165345,51.1249276 42.6491523,51.2335932 43.2565873,51.2335932 C43.8721107,51.2335932 44.4079639,51.1413678 44.8508011,50.9569169 C45.2952559,50.7740699 45.6839011,50.5639563 46.0191632,50.3386055 C46.3507855,50.1088438 46.635091,49.9071508 46.8575206,49.7190911 C47.0823767,49.5346402 47.2728574,49.438405 47.4269404,49.438405 C47.5357287,49.438405 47.625105,49.4716863 47.6970913,49.5346402 C47.7658423,49.5903765 47.823674,49.7042548 47.8649246,49.8650479 C47.9065796,50.0230341 47.938933,50.2303408 47.9619848,50.4825574 C47.9862498,50.732368 48,51.0535531 48,51.4509245" id="Fill-12"></path>
            <path d="M110,39.5488023 C110,39.984053 109.988922,40.3423511 109.965976,40.6228822 C109.941051,40.902599 109.90584,41.1208351 109.859155,41.2792192 C109.813262,41.4355674 109.754708,41.5442783 109.67756,41.6061662 C109.601598,41.6684612 109.507042,41.6949264 109.387166,41.6949264 C109.298148,41.6949264 109.190536,41.6778258 109.075803,41.6314099 C108.959092,41.5931371 108.828137,41.5442783 108.682545,41.4970481 C108.538139,41.4490036 108.377117,41.4009591 108.205412,41.3582076 C108.029356,41.3166776 107.837474,41.2967269 107.626602,41.2967269 C107.383288,41.2967269 107.140766,41.3504716 106.895078,41.4510394 C106.648995,41.5573073 106.396186,41.7148771 106.133486,41.932706 C105.876721,42.1501278 105.598987,42.4449094 105.315319,42.8064647 C105.030464,43.1712773 104.725431,43.622 104.399826,44.1541541 L104.399826,54.276075 C104.399826,54.3965935 104.364615,54.5028614 104.297357,54.5944717 C104.222187,54.680789 104.105476,54.7601846 103.936936,54.820851 C103.767606,54.880703 103.54526,54.9238617 103.267131,54.9564342 C102.987023,54.9906354 102.63135,55 102.201298,55 C101.767289,55 101.417946,54.9906354 101.136256,54.9564342 C100.859313,54.9238617 100.631033,54.880703 100.464472,54.820851 C100.29712,54.7601846 100.179221,54.680789 100.108799,54.5944717 C100.035607,54.5028614 100,54.3965935 100,54.276075 L100,38.0374358 C100,37.9136601 100.033233,37.8090208 100.091391,37.7198534 C100.147571,37.6306861 100.253205,37.5541406 100.404732,37.4918456 C100.554676,37.4287362 100.750514,37.3859848 100.989872,37.3550408 C101.225669,37.3240969 101.527932,37.3094393 101.886374,37.3094393 C102.261434,37.3094393 102.570027,37.3240969 102.812549,37.3550408 C103.055468,37.3859848 103.244975,37.4287362 103.380677,37.4918456 C103.512027,37.5541406 103.606979,37.6306861 103.669489,37.7198534 C103.722108,37.8090208 103.756132,37.9136601 103.756132,38.0374358 L103.756132,40.0605985 C104.162447,39.449456 104.54344,38.9527246 104.905444,38.5573752 C105.265469,38.1632473 105.607691,37.8481079 105.937648,37.617657 C106.259693,37.3884277 106.587672,37.2271936 106.913277,37.1355833 C107.236113,37.0460087 107.562906,37 107.889698,37 C108.040829,37 108.205412,37.007736 108.377117,37.0297225 C108.552777,37.0460087 108.733186,37.0765455 108.921507,37.1201113 C109.105871,37.1587912 109.267685,37.2084643 109.406552,37.2638377 C109.546605,37.3188039 109.6467,37.376213 109.712375,37.4381008 C109.777259,37.4987672 109.821966,37.565541 109.854803,37.6355719 C109.88131,37.7092673 109.90584,37.8090208 109.930369,37.939311 C109.95292,38.0643082 109.972701,38.2552648 109.98101,38.5129951 C109.994461,38.7662467 110,39.1127372 110,39.5488023" id="Fill-13"></path>
            <path d="M121.820283,44.2479488 C121.854063,42.9843906 121.610618,41.9885932 121.090337,41.2677607 C120.575104,40.5469282 119.770611,40.1847108 118.683845,40.1847108 C118.136386,40.1847108 117.661921,40.2927757 117.255403,40.5069041 C116.851604,40.7206324 116.514198,41.0152091 116.248233,41.375025 C115.976057,41.741645 115.770274,42.1707024 115.629721,42.6625976 C115.487614,43.1568941 115.404525,43.6876126 115.38084,44.2479488 L121.820283,44.2479488 Z M126,45.5347208 C126,46.085051 125.880413,46.4892936 125.644734,46.7498499 C125.413714,47.0140084 125.090286,47.1444867 124.680273,47.1444867 L115.38084,47.1444867 C115.38084,47.8240945 115.460435,48.4436662 115.609142,48.9943966 C115.76678,49.5511307 116.011777,50.023414 116.349572,50.410046 C116.685813,50.7986792 117.121062,51.0928557 117.649885,51.294977 C118.178319,51.4974985 118.818963,51.5995597 119.557839,51.5995597 C120.313023,51.5995597 120.974633,51.5435261 121.544612,51.4342606 C122.115756,51.3189914 122.610023,51.1929157 123.023529,51.0524315 C123.440918,50.9167501 123.786866,50.7938763 124.061372,50.6774064 C124.335102,50.5637382 124.561075,50.5101061 124.731137,50.5101061 C124.832863,50.5101061 124.918282,50.5293176 124.985841,50.5721433 C125.055341,50.6141685 125.113193,50.6910146 125.159009,50.7938763 C125.203272,50.9031419 125.235498,51.0524315 125.252582,51.2545527 C125.269278,51.4478687 125.278596,51.6928157 125.278596,51.993396 C125.278596,52.2575545 125.272384,52.4796878 125.258018,52.6645988 C125.247923,52.8507104 125.231227,53.008405 125.212979,53.1404843 C125.186576,53.2677607 125.149691,53.3810286 125.106593,53.4714829 C125.059224,53.5603362 125.00176,53.6467881 124.927212,53.7304383 C124.854606,53.8168901 124.648824,53.9297579 124.318018,54.0682409 C123.986436,54.2155293 123.565553,54.3524114 123.053426,54.4892936 C122.538581,54.6273764 121.948024,54.7482489 121.287578,54.8479087 C120.624803,54.948369 119.918541,55 119.163746,55 C117.808299,55 116.614371,54.8210927 115.595553,54.4652792 C114.57324,54.105063 113.71866,53.5627376 113.035695,52.8371023 C112.352341,52.1090654 111.841767,51.1905143 111.506303,50.0794477 C111.166179,48.9715829 111,47.668401 111,46.1803082 C111,44.7614569 111.174721,43.4822894 111.527658,42.3432059 C111.882536,41.2001201 112.394663,40.236742 113.070251,39.4410646 C113.741568,38.6525916 114.563145,38.0438263 115.526053,37.6255753 C116.490125,37.2069242 117.580773,37 118.787125,37 C120.064142,37 121.160226,37.1965179 122.066446,37.589954 C122.97849,37.9841905 123.720084,38.5301181 124.301711,39.2289374 C124.886444,39.9273564 125.310434,40.7506504 125.586493,41.7048229 C125.857894,42.656594 126,43.6996198 126,44.8186912 L126,45.5347208 Z" id="Fill-14"></path>
            <path d="M201,53.302333 C201,53.4263449 200.965944,53.5267546 200.899882,53.6183634 C200.837104,53.7067719 200.713598,53.7743783 200.540444,53.8323839 C200.364828,53.8871892 200.126843,53.9251928 199.822387,53.9571959 C199.523265,53.9907991 199.133463,54 198.650108,54 C198.154033,54 197.752332,53.9907991 197.442542,53.9655967 C197.136444,53.9403943 196.884099,53.8999904 196.686325,53.8495856 C196.487731,53.7955804 196.3314,53.7247736 196.225128,53.6271642 C196.114752,53.5327551 196.015866,53.4071431 195.934623,53.249928 L190.562738,44.8455212 L190.562738,53.2887317 C190.562738,53.4071431 190.522526,53.5115531 190.448669,53.6015617 C190.380556,53.6863699 190.254999,53.7643774 190.082255,53.8239831 C189.903356,53.8827887 189.673578,53.9251928 189.382663,53.9571959 C189.091747,53.9907991 188.724923,54 188.279728,54 C187.833301,54 187.464425,53.9907991 187.178434,53.9571959 C186.885467,53.9251928 186.654457,53.8827887 186.480893,53.8239831 C186.302815,53.7643774 186.181361,53.6863699 186.107093,53.6015617 C186.036518,53.5115531 186,53.4071431 186,53.2887317 L186,29.7680737 C186,29.6508625 186.036518,29.5456524 186.107093,29.4464429 C186.181361,29.3552341 186.302815,29.2696259 186.480893,29.2072199 C186.654457,29.1412136 186.885467,29.0904087 187.178434,29.0528051 C187.464425,29.0188018 187.833301,29 188.279728,29 C188.724923,29 189.091747,29.0188018 189.382663,29.0528051 C189.673578,29.0904087 189.903356,29.1412136 190.082255,29.2072199 C190.254999,29.2696259 190.380556,29.3552341 190.448669,29.4464429 C190.522526,29.5456524 190.562738,29.6508625 190.562738,29.7680737 L190.562738,43.7734182 L195.335148,37.4236087 C195.433214,37.281195 195.544,37.1555829 195.663813,37.0487727 C195.784446,36.9395622 195.940777,36.8587544 196.141833,36.7979486 C196.342889,36.7359427 196.586618,36.6939386 196.884099,36.6635357 C197.178707,36.6331328 197.555379,36.6187314 198.014525,36.6187314 C198.461772,36.6187314 198.836803,36.6331328 199.145772,36.6635357 C199.453101,36.6939386 199.702164,36.7359427 199.884755,36.7979486 C200.073091,36.8587544 200.205214,36.9339617 200.27825,37.0223701 C200.349235,37.1091785 200.384523,37.2215893 200.384523,37.3504016 C200.384523,37.5304189 200.338977,37.7228374 200.249938,37.927257 C200.159668,38.1272762 200.021391,38.3388965 199.842903,38.5673185 L195.116448,43.8630269 L200.585579,52.2154287 C200.728369,52.4534515 200.837104,52.6574711 200.899882,52.8314878 C200.965944,53.0051045 201,53.1623196 201,53.302333" id="Fill-15"></path>
            <path d="M107.757505,18.1992129 L106.108338,18.1992129 C105.412681,18.1992129 104.812843,18.2520399 104.322065,18.361696 C103.828172,18.4685506 103.427761,18.6282322 103.119662,18.8435423 C102.810784,19.0600529 102.58526,19.316584 102.439974,19.6239411 C102.297805,19.9276964 102.225357,20.2722725 102.225357,20.6668742 C102.225357,21.333615 102.427121,21.8602841 102.839218,22.2408787 C103.245862,22.6222736 103.805192,22.8151722 104.528114,22.8151722 C105.136522,22.8151722 107.757505,22.8087689 107.757505,22.8087689 L107.757505,18.1992129 Z M112,25.3040443 C112,25.4705294 111.944301,25.5997955 111.830176,25.6938435 C111.715661,25.792694 111.532983,25.8599284 111.287984,25.9011495 C111.044153,25.9403695 110.67607,25.962781 110.196979,25.962781 C109.681663,25.962781 104.568623,26 103.583952,26 C102.770275,26 102.025151,25.8875425 101.344295,25.66743 C100.661881,25.4477177 100.070222,25.1191498 99.5724341,24.6849279 C99.0758145,24.2503057 98.6886459,23.7064277 98.4132654,23.063299 C98.136327,22.4217711 98,21.6689864 98,20.809347 C98,19.880072 98.174888,19.0732597 98.5242745,18.385308 C98.8748296,17.7029593 99.3955986,17.1338684 100.08775,16.6864397 C100.78107,16.2386108 101.640319,15.9072415 102.674067,15.6943327 C103.705478,15.4806234 104.899313,15.3713676 106.263361,15.3713676 L107.757505,15.3713676 L107.757505,14.4072748 C107.757505,13.9042177 107.708427,13.4687952 107.612609,13.0898015 C107.515232,12.7160104 107.356314,12.4030504 107.130401,12.1521222 C106.909551,11.9011939 106.6108,11.7179003 106.236875,11.5962381 C105.864508,11.4789781 105.404891,11.4181471 104.85413,11.4181471 C104.132766,11.4181471 103.488134,11.5065923 102.921403,11.6702759 C102.355062,11.8351602 101.854158,12.0212553 101.41947,12.2233586 C100.983613,12.4242613 100.620594,12.6103564 100.330023,12.7768415 C100.037504,12.948129 99.7975684,13.0289704 99.6164483,13.0289704 C99.4898589,13.0289704 99.3804079,12.9881495 99.2838105,12.9037063 C99.1848761,12.8212642 99.1015219,12.7000022 99.0403695,12.5459235 C98.9788276,12.3882429 98.9266338,12.1985459 98.8935259,11.9724304 C98.8615864,11.7455144 98.8432796,11.4961869 98.8432796,11.2212464 C98.8432796,10.8530582 98.8748296,10.5613091 98.9266338,10.3459991 C98.9873967,10.130689 99.0952898,9.93819063 99.2561556,9.76370145 C99.4166319,9.59081308 99.6966864,9.3991151 100.09554,9.19220935 C100.498289,8.9849034 100.969201,8.78800276 101.503603,8.60871112 C102.043458,8.4314205 102.629274,8.28614625 103.266895,8.17128755 C103.899452,8.05802966 104.557716,8 105.233898,8 C106.434354,8 107.465376,8.12406341 108.315666,8.36858839 C109.169852,8.61231296 109.870962,8.99010605 110.420555,9.49436379 C110.970537,10.0030238 111.372117,10.6537564 111.62179,11.4541655 C111.873411,12.2549748 112,13.1994575 112,14.2992196 L112,25.3040443 Z" id="Fill-16"></path>
            <path d="M27.7565251,47.1993864 L26.1079081,47.1993864 C25.4086482,47.1993864 24.81418,47.2542132 24.319439,47.3618658 C23.8289832,47.4663169 23.4273471,47.6283961 23.1184262,47.8437014 C22.807947,48.0586064 22.5843397,48.3171328 22.4386443,48.6216817 C22.2960654,48.9274312 22.2228282,49.274801 22.2228282,49.6713949 C22.2228282,50.3361199 22.4253993,50.859976 22.8356058,51.2421628 C23.2415271,51.6223487 23.8048305,51.8156432 24.5255162,51.8156432 C25.1340086,51.8156432 27.7565251,51.8076393 27.7565251,51.8076393 L27.7565251,47.1993864 Z M32,54.3032594 C32,54.4721419 31.9439034,54.6002045 31.8293728,54.6978523 C31.7152318,54.7906977 31.5352552,54.8623327 31.2874951,54.9031527 C31.0432411,54.9455734 30.6782236,54.9623816 30.1982859,54.9623816 C29.6821192,54.9623816 24.5687573,55 23.5843397,55 C22.7697702,55 22.0206467,54.8871448 21.3424231,54.6698386 C20.6595247,54.4473298 20.0701208,54.1207702 19.5718738,53.6837565 C19.0724581,53.2503446 18.6879626,52.7084797 18.4121543,52.0665659 C18.1351772,51.4198497 18,50.6690827 18,49.8102628 C18,48.8822091 18.1737437,48.0714127 18.5239579,47.3894793 C18.8733931,46.7019432 19.3930658,46.1352661 20.0868718,45.6882476 C20.7791196,45.24323 21.6408259,44.9094669 22.6727698,44.6937614 C23.7023763,44.4784561 24.8975458,44.3740051 26.2606155,44.3740051 L27.7565251,44.3740051 L27.7565251,43.4067322 C27.7565251,42.9056872 27.7086093,42.4710747 27.6104402,42.0904887 C27.5118816,41.7191071 27.354889,41.4045533 27.1312817,41.1500289 C26.9072848,40.900707 26.608882,40.7178176 26.2360732,40.5993597 C25.8624854,40.4797012 25.4028048,40.4204722 24.8519673,40.4204722 C24.1328399,40.4204722 23.4877289,40.5017119 22.922088,40.6685935 C22.3552785,40.8362755 21.8519673,41.0235671 21.4176081,41.2248655 C20.9809116,41.4297657 20.6201792,41.6114545 20.3287885,41.7783361 C20.0350604,41.9428165 19.7989871,42.0308595 19.6135567,42.0308595 C19.4877289,42.0308595 19.3782626,41.9884388 19.2785353,41.9031971 C19.1803662,41.8195562 19.1012855,41.7042999 19.0377873,41.5466228 C18.9738995,41.3889457 18.9259836,41.2020543 18.8940397,40.9771444 C18.8574211,40.7478323 18.8398909,40.4993108 18.8398909,40.2199742 C18.8398909,39.8521944 18.8702766,39.5616524 18.9259836,39.3471475 C18.984028,39.1310418 19.091157,38.9361466 19.2543825,38.767264 C19.4148812,38.5923785 19.6934164,38.4006848 20.0954422,38.1901819 C20.4947409,37.9832807 20.9637709,37.7879852 21.5037008,37.6098982 C22.0412933,37.4294099 22.6310869,37.2849393 23.263732,37.1708835 C23.8998831,37.059229 24.5559018,37 25.2325672,37 C26.4343592,37 27.4624075,37.1236605 28.3155434,37.3693806 C29.1679003,37.6134999 29.8714453,37.9872827 30.4195559,38.495131 C30.9700039,39.0037796 31.3689131,39.6544978 31.625633,40.4536885 C31.8768991,41.2536796 32,42.2033439 32,43.2998799 L32,54.3032594 Z" id="Fill-17"></path>
            <path d="M59.7549317,47.1993864 L58.1072313,47.1993864 C57.4080298,47.1993864 56.8108845,47.2542132 56.3212487,47.3618658 C55.8296653,47.4663169 55.425336,47.6283961 55.1199466,47.8437014 C54.8075457,48.0586064 54.5816199,48.3171328 54.4382738,48.6216817 C54.2968754,48.9274312 54.2259815,49.274801 54.2259815,49.6713949 C54.2259815,50.3361199 54.4285357,50.859976 54.832865,51.2421628 C55.2414791,51.6223487 55.8055146,51.8156432 56.5273086,51.8156432 C57.1330236,51.8156432 59.7549317,51.8076393 59.7549317,51.8076393 L59.7549317,47.1993864 Z M64,54.3032594 C64,54.4721419 63.943129,54.6002045 63.8254918,54.6978523 C63.7125289,54.7906977 63.5341254,54.8623327 63.286386,54.9031527 C63.0417629,54.9455734 62.6763863,54.9623816 62.1976573,54.9623816 C61.6799755,54.9623816 56.5658718,55 55.5838736,55 C54.7678139,55 54.0214796,54.8871448 53.3398069,54.6698386 C52.6589132,54.4473298 52.0695584,54.1207702 51.570574,53.6837565 C51.0727581,53.2503446 50.6859575,52.7084797 50.4097827,52.0665659 C50.1339974,51.4198497 50,50.6690827 50,49.8102628 C50,48.8822091 50.1717815,48.0714127 50.5223561,47.3894793 C50.8725411,46.7019432 51.3929496,46.1352661 52.0863081,45.6882476 C52.7784981,45.24323 53.6385743,44.9094669 54.6704321,44.6937614 C55.7019003,44.4784561 56.8989177,44.3740051 58.2614841,44.3740051 L59.7549317,44.3740051 L59.7549317,43.4067322 C59.7549317,42.9056872 59.7081884,42.4710747 59.6092485,42.0904887 C59.5106981,41.7191071 59.3513814,41.4045533 59.1277928,41.1500289 C58.9069308,40.900707 58.6081634,40.7178176 58.2361648,40.5993597 C57.8637767,40.4797012 57.4045241,40.4204722 56.854122,40.4204722 C56.1327175,40.4204722 55.4880499,40.5017119 54.9205086,40.6685935 C54.3533569,40.8362755 53.8539829,41.0235671 53.41966,41.2248655 C52.9810523,41.4297657 52.6172338,41.6114545 52.327815,41.7783361 C52.0360591,41.9428165 51.7968893,42.0308595 51.6142011,42.0308595 C51.4868256,42.0308595 51.3750313,41.9884388 51.2784285,41.9031971 C51.1822153,41.8195562 51.1015832,41.7042999 51.0400378,41.5466228 C50.9761554,41.3889457 50.927854,41.2020543 50.8912384,40.9771444 C50.8565705,40.7478323 50.8402103,40.4993108 50.8402103,40.2199742 C50.8402103,39.8521944 50.8705935,39.5616524 50.927854,39.3471475 C50.9843354,39.1310418 51.091845,38.9361466 51.2534988,38.767264 C51.413984,38.5923785 51.692496,38.4006848 52.0956568,38.1901819 C52.4980385,37.9832807 52.9639131,37.7879852 53.5030188,37.6098982 C54.0425141,37.4294099 54.6271946,37.2849393 55.2656298,37.1708835 C55.8990011,37.059229 56.5588604,37 57.2304054,37 C58.4324866,37 59.4612281,37.1236605 60.3139033,37.3693806 C61.1704738,37.6134999 61.8712334,37.9872827 62.4181297,38.495131 C62.9665841,39.0037796 63.3681868,39.6544978 63.6229376,40.4536885 C63.8734036,41.2536796 64,42.2033439 64,43.2998799 L64,54.3032594 Z" id="Fill-18"></path>
            <path d="M157.75708,47.1993864 L156.110388,47.1993864 C155.409336,47.1993864 154.817727,47.2542132 154.320759,47.3618658 C153.829633,47.4663169 153.430034,47.6283961 153.120013,47.8437014 C152.812719,48.0586064 152.586046,48.3171328 152.441941,48.6216817 C152.298225,48.9274312 152.227341,49.274801 152.227341,49.6713949 C152.227341,50.3361199 152.429088,50.859976 152.836477,51.2421628 C153.241529,51.6223487 153.809381,51.8156432 154.530685,51.8156432 C155.136705,51.8156432 157.75708,51.8076393 157.75708,51.8076393 L157.75708,47.1993864 Z M162,54.3032594 C162,54.4721419 161.942358,54.6002045 161.829021,54.6978523 C161.716074,54.7906977 161.533022,54.8623327 161.286096,54.9031527 C161.040728,54.9455734 160.678907,54.9623816 160.198297,54.9623816 C159.684193,54.9623816 154.57158,55 153.582707,55 C152.771824,55 152.023647,54.8871448 151.34129,54.6698386 C150.660491,54.4473298 150.072386,54.1207702 149.57425,53.6837565 C149.076114,53.2503446 148.690925,52.7084797 148.41362,52.0665659 C148.14021,51.4198497 148,50.6690827 148,49.8102628 C148,48.8822091 148.176042,48.0714127 148.528904,47.3894793 C148.873199,46.7019432 149.397429,46.1352661 150.088744,45.6882476 C150.783954,45.24323 151.643131,44.9094669 152.674456,44.6937614 C153.704612,44.4784561 154.903411,44.3740051 156.266177,44.3740051 L157.75708,44.3740051 L157.75708,43.4067322 C157.75708,42.9056872 157.70567,42.4710747 157.612975,42.0904887 C157.515607,41.7191071 157.35787,41.4045533 157.130807,41.1500289 C156.907639,40.900707 156.61125,40.7178176 156.236967,40.5993597 C155.86502,40.4797012 155.405831,40.4204722 154.855116,40.4204722 C154.133422,40.4204722 153.488844,40.5017119 152.924887,40.6685935 C152.355867,40.8362755 151.854226,41.0235671 151.417626,41.2248655 C150.984922,41.4297657 150.619596,41.6114545 150.326323,41.7783361 C150.036165,41.9428165 149.799755,42.0308595 149.617871,42.0308595 C149.489345,42.0308595 149.381461,41.9884388 149.282924,41.9031971 C149.183998,41.8195562 149.104935,41.7042999 149.040672,41.5466228 C148.979135,41.3889457 148.928114,41.2020543 148.895009,40.9771444 C148.861904,40.7478323 148.843209,40.4993108 148.843209,40.2199742 C148.843209,39.8521944 148.873199,39.5616524 148.928114,39.3471475 C148.989651,39.1310418 149.096756,38.9361466 149.25644,38.767264 C149.416514,38.5923785 149.698103,38.4006848 150.097702,38.1901819 C150.49808,37.9832807 150.967396,37.7879852 151.507595,37.6098982 C152.044678,37.4294099 152.629277,37.2849393 153.267624,37.1708835 C153.902854,37.059229 154.557559,37 155.232515,37 C156.438714,37 157.461859,37.1236605 158.3187,37.3693806 C159.16892,37.6134999 159.870361,37.9872827 160.420687,38.495131 C160.969065,39.0037796 161.371001,39.6544978 161.622601,40.4536885 C161.875758,41.2536796 162,42.2033439 162,43.2998799 L162,54.3032594 Z" id="Fill-19"></path>
            <path d="M30.7562537,17.1959302 L29.1076825,17.1959302 C28.4088316,17.1959302 27.8112635,17.2523741 27.3196527,17.3568553 C26.8268733,17.4677416 26.4248588,17.6262649 26.1175047,17.8416324 C25.809761,18.0553986 25.5842121,18.3131992 25.4404686,18.6206383 C25.2959459,18.9244746 25.2231003,19.2727455 25.2231003,19.6690537 C25.2231003,20.3391749 25.4276135,20.8607806 25.8362503,21.2422773 C26.2417708,21.6253753 26.804669,21.8143223 27.5257241,21.8143223 C28.1357578,21.8143223 30.7562537,21.8087179 30.7562537,21.8087179 L30.7562537,17.1959302 Z M35,24.3022573 C35,24.4711887 34.9431259,24.6008896 34.8270403,24.6973646 C34.7152397,24.7934393 34.5317622,24.859891 34.2855672,24.9007228 C34.0424887,24.9455577 33.6770917,24.9651729 33.1956092,24.9651729 C32.6794569,24.9651729 27.5666268,25 26.581847,25 C25.7669106,25 25.0213139,24.8915156 24.3399928,24.6709441 C23.6586716,24.4475703 23.0696736,24.1201156 22.5683241,23.6865784 C22.0724283,23.2470366 21.6852166,22.7082175 21.4105846,22.0653175 C21.1336153,21.4220171 21,20.6690315 21,19.8091627 C21,18.8772379 21.1737388,18.0742133 21.5219956,17.387279 C21.8722001,16.6991438 22.3926375,16.1339041 23.0864242,15.6871567 C23.7786527,15.2400089 24.6391664,14.9085511 25.6726398,14.6919827 C26.7018281,14.4766151 27.8981329,14.3705326 29.2599961,14.3705326 L30.7562537,14.3705326 L30.7562537,13.4029801 C30.7562537,12.9009897 30.7056123,12.4622484 30.6101728,12.0899589 C30.5116169,11.710864 30.3542391,11.3994218 30.1286903,11.1484266 C29.9074265,10.8974313 29.6063051,10.7140887 29.2338963,10.5931947 C28.8622666,10.4775047 28.4025988,10.4142555 27.8517766,10.4142555 C27.1322797,10.4142555 26.4867971,10.4995219 25.9215615,10.6652508 C25.3500932,10.8353831 24.8514705,11.0163238 24.417513,11.2208829 C23.9816077,11.4246414 23.6197167,11.6091849 23.3252177,11.7753141 C23.0350038,11.9446458 22.7969893,12.0239075 22.6135118,12.0239075 C22.4865188,12.0239075 22.3758869,11.9830757 22.2784997,11.9014122 C22.1799438,11.8177471 22.1004758,11.7000556 22.038148,11.5431335 C21.9734828,11.3870121 21.9259579,11.1972645 21.8916776,10.9698877 C21.85506,10.7413099 21.8425944,10.490715 21.8425944,10.2197042 C21.8425944,9.85021684 21.8694733,9.55678861 21.9259579,9.34302235 C21.9843902,9.12645391 22.0919057,8.93350384 22.2547372,8.76056933 C22.4136732,8.58763483 22.6933693,8.39588569 23.0934361,8.18972534 C23.4950611,7.97996219 23.9656362,7.78581119 24.5036033,7.60487045 C25.0407913,7.42913377 25.6290103,7.27981764 26.2635855,7.16773046 C26.8981608,7.0528411 27.5549403,7 28.232366,7 C29.4341245,7 30.4621442,7.11769154 31.3148669,7.36428333 C32.1675895,7.60727232 32.8699463,7.98236406 33.4211581,8.49236073 C33.9688639,8.99715334 34.3693202,9.65326365 34.6229166,10.4522851 C34.8741757,11.2513066 35,12.1996442 35,13.2984988 L35,24.3022573 Z" id="Fill-20"></path>
            <path d="M94.8925882,37.6278968 C94.8263971,37.5398421 94.7070947,37.4638497 94.5453825,37.4027341 C94.3812921,37.3404123 94.1601268,37.2981943 93.8799049,37.2680386 C93.6024574,37.2370787 93.2473246,37.222604 92.8152992,37.222604 C92.3824812,37.222604 92.0273484,37.2370787 91.7479191,37.2680386 C91.470868,37.2981943 91.2457392,37.3404123 91.0780816,37.4027341 C90.9068569,37.4638497 90.7899326,37.5398421 90.7249306,37.6278968 C90.6642885,37.7155494 90.6305985,37.819285 90.6305985,37.9415162 L90.6305985,51.0785511 C90.6305985,51.0785511 87.6936187,51.0664888 87.1335711,51.0664888 C86.6916369,51.0664888 86.3055886,50.978032 85.9726516,50.8011185 C85.6405073,50.6302361 85.3638526,50.3829593 85.1498216,50.0629066 C84.9357907,49.7496893 84.7752675,49.3717377 84.6698375,48.9254331 C84.5648038,48.4819431 84.5128815,47.8418379 84.5128815,47.003107 L84.5247721,38.0488705 C84.5247721,37.9302581 84.489893,37.824512 84.4221165,37.734447 C84.351962,37.6439798 84.2290924,37.5716061 84.0630202,37.5100885 C83.8925882,37.4505812 83.6686484,37.407157 83.3892192,37.3753929 C83.1101863,37.3452372 82.7530717,37.3295563 82.3226318,37.3295563 L72.9421324,37.3295563 L72.9421324,33.7538928 C72.9421324,33.6324658 72.9048751,33.5263177 72.8343242,33.4298194 C72.7641696,33.3329191 72.6484344,33.2537101 72.4839477,33.1873675 C72.3230281,33.1218291 72.0998811,33.0751882 71.8129211,33.0434242 C71.5263575,33.015681 71.1696393,33 70.7403884,33 C70.3202537,33 69.9678954,33.015681 69.680539,33.0434242 C69.3947681,33.0751882 69.1700357,33.1218291 69.0019818,33.1873675 C68.8303607,33.2537101 68.7158145,33.3329191 68.6508125,33.4298194 C68.5850178,33.5263177 68.5533096,33.6324658 68.5533096,33.7538928 L68.5533096,37.3295563 L66.7011494,37.3295563 C66.5866033,37.3295563 66.4819659,37.3613203 66.3947681,37.4200234 C66.3059849,37.481541 66.2330559,37.5792456 66.175981,37.7155494 C66.1204915,37.8566781 66.0753072,38.0452518 66.0432025,38.2820747 C66.0154578,38.520908 66,38.8192485 66,39.1662402 C66,39.8224285 66.0610384,40.294466 66.175981,40.5759193 C66.2940943,40.8561664 66.4637337,40.9980993 66.6825208,40.9980993 L68.5533096,40.9980993 L68.5533096,49.2105052 C68.5533096,50.1935814 68.6531906,51.0475912 68.8505747,51.7677096 C69.051526,52.4866218 69.3567182,53.0800863 69.7748712,53.553732 C70.1973841,54.0261715 70.7273088,54.377184 71.366627,54.6047591 C72.0083234,54.8299218 72.7641696,54.9481322 73.6397146,54.9481322 C73.9686881,54.9481322 74.2893381,54.9276263 74.6107808,54.8914394 C74.9302418,54.8540463 75.2282996,54.8066014 75.5009909,54.7382484 C75.7732858,54.6715038 76.0174396,54.5918927 76.2282996,54.5078588 C76.4359889,54.4177937 76.5949267,54.3088311 76.698375,54.1805688 C76.8030123,54.0547189 76.8878319,53.859712 76.9421324,53.5895168 C77.0015854,53.3205278 77.0309156,52.9220703 77.0309156,52.392536 C77.0309156,52.0620294 77.0154578,51.7829885 76.9825604,51.5658674 C76.9587792,51.3519629 76.9266746,51.1810805 76.8921918,51.0540244 C76.8561237,50.9293808 76.8053904,50.846151 76.7419738,50.8011185 C76.6789536,50.7621171 76.6099881,50.7396008 76.5418153,50.7396008 C76.4581847,50.7396008 76.3717796,50.7621171 76.2695204,50.8011185 C76.1716211,50.846151 76.0491478,50.8960085 75.9056679,50.9470722 C75.757828,50.9985379 75.5897741,51.0504057 75.4066587,51.0918196 C75.2199762,51.1340376 75.0103052,51.1513269 74.7764566,51.1513269 C74.090765,51.1513269 73.6119699,50.9362161 73.3444312,50.4959427 C73.0745145,50.059288 72.9421324,49.4039038 72.9421324,48.5301923 L72.9421324,40.9980993 L80.1319857,40.9980993 L80.1264368,47.7561956 C80.1264368,48.977703 80.2215616,50.0005848 80.4141895,50.8208202 C80.6056282,51.6418598 80.9246928,52.3643907 81.3757432,52.9868046 C81.8208482,53.6092185 82.4098296,54.1009577 83.1403092,54.4628262 C83.8660325,54.8202719 84.7701149,55 85.8418549,55 L93.1284185,55 C93.491082,55 93.7883472,54.9835149 94.0293302,54.9557716 C94.267935,54.9248118 94.4617519,54.8809855 94.6095918,54.8202719 C94.75109,54.7595584 94.85652,54.683164 94.9124059,54.5918927 C94.9694808,54.5078588 95,54.4013086 95,54.2810878 L95,37.9415162 C95,37.819285 94.9631391,37.7155494 94.8925882,37.6278968" id="Fill-21"></path>
            <path d="M2,8.72783193 C2,8.61100432 2.02558363,8.50109681 2.08794372,8.41113548 C2.14430764,8.32076709 2.2462424,8.2442389 2.39614647,8.18236505 C2.5412536,8.1249689 2.73632875,8.07815645 2.97617525,8.04844072 C3.215622,8.01628259 3.51942757,8 3.88479373,8 L11.2340902,8 C12.3201951,8 13.2216182,8.18236505 13.9587464,8.54913046 C14.6930764,8.91304643 15.285897,9.41007259 15.7404061,10.0414302 C16.1913176,10.6699383 16.5123121,11.4018408 16.7089862,12.2330672 C16.9032619,13.066736 17,14.0986454 17,15.3340872 L17,25.2721681 C17,25.3926593 16.9692197,25.4972749 16.9032619,25.5900857 C16.8393028,25.6812682 16.7225776,25.7565752 16.5510873,25.8172279 C16.381196,25.8750311 16.1533419,25.9234718 15.8639271,25.9527805 C15.5733131,25.9824962 15.2199392,26 14.7970099,26 C14.3620883,26 14.0003198,25.9824962 13.7196994,25.9527805 C13.4382795,25.9234718 13.2160217,25.8750311 13.0429325,25.8172279 C12.8730413,25.7565752 12.7495203,25.6812682 12.6787656,25.5900857 C12.6100096,25.4972749 12.5776303,25.3926593 12.5776303,25.2721681 L12.5776303,16.099369 C12.5776303,15.2494177 12.5232651,14.5981139 12.4165334,14.1560415 C12.3106012,13.7037925 12.1507035,13.3195233 11.9340422,12.9959067 C11.7165814,12.6747326 11.4399584,12.4288654 11.1049728,12.2534205 C10.7691877,12.0743119 10.3786377,11.9872001 9.92852574,11.9872001 C9.36568596,11.9872001 6.40358171,11.974174 6.40358171,11.974174 L6.40358171,25.2721681 C6.40358171,25.3926593 6.37320115,25.4972749 6.30924209,25.5900857 C6.24568276,25.6812682 6.12376079,25.7565752 5.95386952,25.8172279 C5.78717621,25.8750311 5.55892229,25.9234718 5.27830189,25.9527805 C4.99488327,25.9824962 4.63551327,26 4.20338983,26 C3.76806844,26 3.40909818,25.9824962 3.12887752,25.9527805 C2.84425967,25.9234718 2.61920371,25.8750311 2.45650783,25.8172279 C2.29061401,25.7565752 2.17308922,25.6812682 2.10313399,25.5900857 C2.03237928,25.4972749 2,25.3926593 2,25.2721681 L2,8.72783193" id="Fill-22"></path>
            <path d="M79,8.72783193 C79,8.61100432 79.0255836,8.50109681 79.0883435,8.41113548 C79.1419092,8.32076709 79.2486409,8.2442389 79.3941477,8.18236505 C79.5412536,8.1249689 79.73433,8.07815645 79.9761752,8.04844072 C80.217221,8.01628259 80.5186281,8 80.8863927,8 L88.2356892,8 C89.3177966,8 90.2228174,8.18236505 90.9587464,8.54913046 C91.6938759,8.91304643 92.2886952,9.41007259 92.7388072,10.0414302 C93.1941158,10.6699383 93.5131116,11.4018408 93.7121842,12.2330672 C93.9032619,13.066736 94,14.0986454 94,15.3340872 L94,25.2721681 C94,25.3926593 93.9692197,25.4972749 93.9032619,25.5900857 C93.8373041,25.6812682 93.7181804,25.7565752 93.5502878,25.8172279 C93.3791973,25.8750311 93.1521426,25.9234718 92.8647266,25.9527805 C92.5737128,25.9824962 92.2199392,26 91.7954109,26 C91.3636872,26 91.0011193,25.9824962 90.7200991,25.9527805 C90.4378798,25.9234718 90.2132235,25.8750311 90.043732,25.8172279 C89.870243,25.7565752 89.7511193,25.6812682 89.6795651,25.5900857 C89.6116086,25.4972749 89.5748321,25.3926593 89.5748321,25.2721681 L89.5748321,16.099369 C89.5748321,15.2494177 89.5240646,14.5981139 89.4145347,14.1560415 C89.3106012,13.7037925 89.1475056,13.3195233 88.9308443,12.9959067 C88.7161816,12.6747326 88.4379597,12.4288654 88.1049728,12.2534205 C87.768788,12.0743119 87.3774384,11.9872001 86.9285257,11.9872001 C86.3652862,11.9872001 83.4047809,11.974174 83.4047809,11.974174 L83.4047809,25.2721681 C83.4047809,25.3926593 83.3716022,25.4972749 83.3064439,25.5900857 C83.243684,25.6812682 83.12496,25.7565752 82.9538695,25.8172279 C82.787576,25.8750311 82.5581228,25.9234718 82.2775024,25.9527805 C81.9980812,25.9824962 81.6347138,26 81.2017909,26 C80.7652702,26 80.4082987,25.9824962 80.1268788,25.9527805 C79.8434602,25.9234718 79.6196035,25.8750311 79.4565078,25.8172279 C79.2902143,25.7565752 79.1746882,25.6812682 79.101535,25.5900857 C79.0331788,25.4972749 79,25.3926593 79,25.2721681 L79,8.72783193" id="Fill-23"></path>
            <path d="M167,37.7279142 C167,37.6041525 167.028781,37.4991179 167.084744,37.4107749 C167.144704,37.3208034 167.247435,37.2446736 167.395736,37.1823857 C167.541239,37.1192835 167.736309,37.0765368 167.976949,37.0455964 C168.218787,37.014656 168.522585,37 168.881546,37 L176.237042,37 C177.31952,37 178.224517,37.1823857 178.959227,37.5463428 C179.694337,37.910707 180.285543,38.4090107 180.73964,39.0404397 C181.191739,39.6686118 181.511526,40.4014113 181.708994,41.2306962 C181.904064,42.0612023 182,43.0972995 182,44.3361379 L182,54.2720858 C182,54.3938119 181.970819,54.5016963 181.904064,54.5892251 C181.842505,54.6791966 181.721386,54.7565477 181.547502,54.8180214 C181.378814,54.8794952 181.151366,54.9238703 180.863158,54.9552178 C180.573351,54.9833085 180.218787,55 179.796269,55 C179.36056,55 179.005996,54.9833085 178.720586,54.9552178 C178.439174,54.9238703 178.210926,54.8794952 178.042239,54.8180214 C177.869154,54.7565477 177.752432,54.6791966 177.678881,54.5892251 C177.608927,54.5016963 177.57575,54.3938119 177.57575,54.2720858 L177.57575,45.1006921 C177.57575,44.2506446 177.524184,43.6029312 177.416656,43.1510381 C177.309527,42.7044375 177.150433,42.3152395 176.93058,41.9944362 C176.714724,41.6740399 176.438108,41.4265165 176.10553,41.2506446 C175.767355,41.0755869 175.379214,40.9868367 174.933511,40.9868367 C174.36549,40.9868367 171.405063,40.972995 171.405063,40.972995 L171.405063,54.2720858 C171.405063,54.3938119 171.371486,54.5016963 171.309927,54.5892251 C171.240773,54.6791966 171.12565,54.7565477 170.956562,54.8180214 C170.783078,54.8794952 170.558428,54.9238703 170.276216,54.9552178 C169.995203,54.9833085 169.635843,55 169.201332,55 C168.766023,55 168.407062,54.9833085 168.126849,54.9552178 C167.843438,54.9238703 167.620786,54.8794952 167.457695,54.8180214 C167.292205,54.7565477 167.175883,54.6791966 167.101532,54.5892251 C167.032778,54.5016963 167,54.3938119 167,54.2720858 L167,37.7279142" id="Fill-24"></path>
            <path d="M141.354969,45.5802495 C141.354969,44.9091987 141.303245,44.6234686 141.200202,44.0033987 C141.097967,43.3746344 140.924208,42.8233295 140.678116,42.338023 C140.425155,41.855483 140.103094,41.4725336 139.703043,41.1812706 C139.305821,40.8919837 138.803132,40.7481307 138.199419,40.7481307 C137.903624,40.7481307 134.49188,40.7576155 134.49188,40.7576155 L134.49188,50.2531023 C134.49188,50.2531023 137.478924,50.2167439 138.108094,50.2167439 C138.692007,50.2167439 139.183786,50.0709148 139.58909,49.7776759 C139.989544,49.4848322 140.327365,49.0983259 140.595681,48.6311987 C140.862786,48.1573531 141.054729,47.8609526 141.176361,47.2653852 C141.293951,46.6619137 141.354969,46.1841161 141.354969,45.5802495 M146,45.2636937 C146,46.6678417 145.850082,47.8068101 145.538932,48.925228 C145.231014,50.0408796 144.786109,50.7561928 144.202601,51.544223 C143.624347,52.3330435 142.908297,52.9432334 142.05728,53.3637269 C141.205455,53.787382 140.242909,54 139.161965,54 L131.904887,54 C131.539992,54 131.234499,53.9893296 130.991236,53.9656175 C130.745953,53.9415103 130.549968,53.9011998 130.400859,53.8403389 C130.251749,53.7806636 130.148302,53.7099227 130.090516,53.6210025 C130.031923,53.5320824 130,53.4257734 130,53.2933812 L130,29.7587853 C130,29.6429915 130.035156,29.5390537 130.108297,29.441044 C130.179821,29.3509382 130.303069,29.2667605 130.473191,29.204714 C130.647759,29.1395058 130.87405,29.0893154 131.160551,29.0525617 C131.446243,29.0189696 131.805885,29 132.244728,29 C132.685996,29 133.049274,29.0189696 133.332138,29.0525617 C133.621063,29.0893154 133.850183,29.1395058 134.021114,29.204714 C134.193661,29.2667605 134.312868,29.3509382 134.384796,29.441044 C134.456724,29.5390537 134.49188,29.6429915 134.49188,29.7587853 L134.49188,36.9810778 C134.49188,36.9810778 139.039929,36.9514377 139.517161,36.9514377 C140.691855,36.9514377 141.690365,37.1834205 142.510266,37.6481765 C143.328956,38.1121421 143.999343,38.7413016 144.513348,39.5301222 C145.033009,40.3189428 145.411239,41.2397604 145.64844,42.2957366 C145.882813,43.348156 146,44.0962709 146,45.2636937" id="Fill-25"></path>
        </g>
    </g>
</svg>