<?xml version="1.0" encoding="UTF-8"?>
<svg version="1.1" viewBox="0 0 300 300" xmlns="http://www.w3.org/2000/svg" xmlns:xlink="http://www.w3.org/1999/xlink">
<title>NVB</title>
<desc>Created with Sketch.</desc>
<defs>
<polygon id="a" points="0.068507 0.042207 152.02 0.042207 152.02 153.93 0.068507 153.93"/>
</defs>
<g fill="none" fill-rule="evenodd">
<g transform="translate(74 31)">
<mask id="b" fill="white">
<use xlink:href="#a"/>
</mask>
<path d="m152.02 77.018c0 42.521-34.031 76.982-76.011 76.982-41.981 0-76.012-34.461-76.012-76.982 0-42.513 34.031-76.976 76.012-76.976 41.98 0 76.011 34.463 76.011 76.976" fill="#EA862E" mask="url(#b)"/>
<path d="m90 31.002c0 8.283-6.5004 14.998-14.503 14.998-8.0136 0-14.497-6.7147-14.497-14.998 0-8.283 6.4835-15.002 14.497-15.002 8.0024 0 14.503 6.7193 14.503 15.002" fill="#FFFFFE"/>
<path d="m114.74 116.26l0.026508-0.020565c-8.6003-8.6348-13.923-20.563-13.923-33.742 0-13.169 5.3178-25.081 13.896-33.712 1.3854-1.3584 2.2613-3.2526 2.2613-5.3479 0-4.1015-3.3251-7.4375-7.4201-7.4375-2.0342 0-3.8841 0.82144-5.2279 2.1639l-0.010373-0.015995c-11.333 11.335-18.342 27.015-18.342 44.35 0 17.154 6.8657 32.691 17.998 43.996 1.3531 1.5366 3.3239 2.5066 5.5311 2.5066 4.0881 0 7.4086-3.3269 7.4086-7.4524 0-2.0679-0.84021-3.9347-2.1991-5.2874" fill="#FFFFFE"/>
<path d="m66 82.514c0-17.266-6.9797-32.904-18.246-44.221-1.3591-1.4085-3.2449-2.2931-5.3451-2.2931-4.0968 0-7.4085 3.3329-7.4085 7.4374 0 2.0522 0.82073 3.9093 2.1579 5.2539l-0.018444 0.013697c8.6592 8.6244 14.027 20.595 14.027 33.809 0 13.196-5.3486 25.142-13.984 33.769l0.017291 0.017121c-1.3429 1.3354-2.1809 3.1959-2.1809 5.2596 0 4.101 3.3198 7.4396 7.4166 7.4396 2.1037 0 3.9999-0.88687 5.3532-2.3045 11.259-11.31 18.211-26.921 18.211-44.181" fill="#FFFFFE"/>
</g>
<g transform="translate(50 217)" fill="#1D5D9B">
<path d="m56 3.3581c0 0.91728-0.18698 1.5549-0.55168 1.9052-0.36872 0.34987-1.049 0.5252-2.0439 0.5252-1.0074 0-1.6861-0.16884-2.0354-0.50491-0.35099-0.34418-0.52387-0.95462-0.52387-1.8374 0-0.91688 0.18174-1.5557 0.54483-1.9105 0.36026-0.3592 1.0445-0.53576 2.0483-0.53576 0.99495 0 1.6695 0.1729 2.0254 0.51546 0.35744 0.34418 0.53636 0.95746 0.53636 1.8427m-1.6921 4.862c0.49848 0 0.84545 0.11121 1.0441 0.32714 0.19303 0.21796 0.28974 0.53251 0.28974 0.94204v15.53c0 0.12217-0.035865 0.22648-0.10357 0.3174-0.074551 0.093758-0.19222 0.166-0.35905 0.23054-0.16159 0.056011-0.3925 0.10553-0.68224 0.13516-0.29095 0.026788-0.6492 0.043023-1.0735 0.043023-0.44045 0-0.80475-0.016235-1.0933-0.043023-0.29256-0.029629-0.51823-0.079146-0.68587-0.13516-0.16522-0.064534-0.2841-0.13678-0.35502-0.23054-0.071327-0.090916-0.10639-0.19523-0.10639-0.3174v-13.097h-7.1267v7.6021c0 0.88481 0.13782 1.5452 0.40862 1.9856 0.27362 0.43956 0.758 0.6628 1.4588 0.6628 0.23574 0 0.44932-0.022729 0.63872-0.062911 0.18537-0.044241 0.35986-0.090511 0.50574-0.14612 0.14991-0.056011 0.27483-0.10147 0.37074-0.14287 0.10397-0.044646 0.19464-0.065752 0.27805-0.065752 0.072133 0 0.14064 0.021106 0.20391 0.065752 0.065282 0.041399 0.11848 0.1242 0.15394 0.25164 0.034253 0.12745 0.065282 0.29832 0.096312 0.5183 0.029417 0.21796 0.042716 0.49395 0.042716 0.83367 0 0.5321-0.028612 0.93514-0.087043 1.2067-0.060044 0.2695-0.14225 0.47285-0.25106 0.60151-0.10316 0.12298-0.26435 0.23135-0.47793 0.32227-0.21277 0.09254-0.4602 0.17047-0.73785 0.23866-0.27886 0.062911-0.57989 0.11527-0.90509 0.15017-0.32601 0.037341-0.65363 0.056011-0.9873 0.056011-0.88736 0-1.6595-0.11365-2.3103-0.3454-0.65202-0.22891-1.192-0.58243-1.6184-1.0593-0.42756-0.47812-0.73826-1.0804-0.94055-1.8049-0.2027-0.72733-0.30425-1.5841-0.30425-2.5777v-8.29h-1.9c-0.22406 0-0.39613-0.14449-0.51581-0.4282-0.11807-0.28411-0.17812-0.75818-0.17812-1.4222 0-0.35068 0.016522-0.64697 0.046745-0.89171 0.027402-0.24231 0.073745-0.43266 0.13137-0.57188 0.058432-0.138 0.13177-0.23703 0.22043-0.29751 0.090267-0.061287 0.19544-0.090916 0.3107-0.090916h1.8847v-3.6091c0-0.12136 0.037477-0.23257 0.099536-0.32917 0.062864-0.092134 0.18456-0.1794 0.35623-0.24515 0.16925-0.065346 0.40177-0.11121 0.69272-0.14327 0.28894-0.030441 0.64759-0.046676 1.0747-0.046676 0.43925 0 0.80233 0.016235 1.0941 0.046676 0.28773 0.032064 0.51621 0.077928 0.68305 0.14327 0.16562 0.065752 0.28571 0.15302 0.35502 0.24515 0.070118 0.096599 0.10679 0.20781 0.10679 0.32917v3.6091h10.252"/>
<path d="m71.394 17.018c0-0.7856-0.058477-1.508-0.1839-2.1735-0.12784-0.66274-0.33715-1.237-0.63317-1.7245-0.294-0.48825-0.69044-0.87365-1.1812-1.147-0.49202-0.27454-1.1127-0.41221-1.8596-0.41221-0.66261 0-1.2458 0.12566-1.7426 0.36979-0.49887 0.24172-0.9058 0.60191-1.2284 1.0693-0.32142 0.47544-0.55937 1.0393-0.72028 1.7021-0.16212 0.66114-0.24117 1.4139-0.24117 2.2616 0 0.79 0.068963 1.512 0.19802 2.1747 0.13147 0.66554 0.3428 1.237 0.62873 1.7285 0.29239 0.48825 0.68358 0.86724 1.1841 1.1338 0.49645 0.26974 1.1163 0.40301 1.8491 0.40301 0.67713 0 1.2647-0.12286 1.7612-0.36699 0.49807-0.24573 0.90822-0.59951 1.23-1.0657 0.31739-0.46464 0.55574-1.0297 0.71101-1.6873 0.15285-0.66274 0.22826-1.4195 0.22826-2.2656m4.606-0.17969c0 1.3611-0.17664 2.6013-0.53235 3.7211-0.35611 1.123-0.89491 2.0907-1.6188 2.8991-0.72149 0.81202-1.6301 1.4363-2.719 1.8762-1.0937 0.44223-2.3685 0.66554-3.826 0.66554-1.4107 0-2.6367-0.1981-3.6809-0.5931-1.0429-0.3946-1.9092-0.96129-2.5972-1.7137-0.68963-0.75118-1.197-1.6797-1.5265-2.7754-0.33554-1.097-0.49928-2.35-0.49928-3.7563 0-1.3611 0.17947-2.6049 0.54485-3.7311 0.35853-1.1262 0.90378-2.0931 1.6237-2.8967 0.7231-0.80441 1.6273-1.4287 2.7134-1.8698 1.0845-0.44223 2.3536-0.66394 3.816-0.66394 1.4212 0 2.6545 0.1941 3.6962 0.5807 1.0449 0.3894 1.9072 0.95849 2.5891 1.7113 0.67874 0.75118 1.1905 1.6757 1.5208 2.7714 0.33231 1.0986 0.49605 2.3552 0.49605 3.7747"/>
<path d="m120 24.283c0 0.12162-0.028422 0.22443-0.09606 0.31405-0.062961 0.092413-0.17054 0.16362-0.32416 0.22723-0.15398 0.055208-0.35798 0.10402-0.61054 0.13322-0.25148 0.027604-0.57528 0.042406-0.96816 0.042406-0.39108 0-0.71308-0.014802-0.96636-0.042406-0.25256-0.029204-0.46015-0.078011-0.61162-0.13322-0.15398-0.063609-0.263-0.13482-0.3238-0.22723-0.065839-0.089613-0.099298-0.19243-0.099298-0.31405v-23.516c0-0.11642 0.033459-0.22323 0.099298-0.31965 0.060803-0.097214 0.16982-0.17403 0.3238-0.24283 0.15147-0.065609 0.35906-0.11482 0.61162-0.15042 0.25328-0.038406 0.57528-0.054408 0.96636-0.054408 0.39288 0 0.71668 0.016002 0.96816 0.054408 0.25256 0.035605 0.45656 0.084812 0.61054 0.15042 0.15362 0.06881 0.2612 0.14562 0.32416 0.24283 0.067638 0.096414 0.09606 0.20323 0.09606 0.31965v23.516"/>
<path d="m133.82 15.245c0.035336-1.2622-0.21085-2.2564-0.72847-2.9747-0.51645-0.72197-1.3206-1.0826-2.4048-1.0826-0.54829 0-1.0247 0.10525-1.4298 0.31936-0.40656 0.21531-0.74516 0.50426-1.01 0.86884-0.27065 0.36339-0.4749 0.7924-0.61741 1.2875-0.14329 0.49385-0.22716 1.0233-0.24891 1.5816h6.4393zm4.177 1.2923c0 0.54708-0.11416 0.95369-0.35026 1.2166-0.23299 0.26133-0.55489 0.3922-0.96728 0.3922h-9.2988c0 0.67835 0.076497 1.2979 0.23298 1.8521 0.15261 0.55468 0.39996 1.0257 0.73274 1.4115 0.33666 0.3906 0.77545 0.68395 1.3032 0.88725 0.53198 0.2033 1.1657 0.30095 1.9097 0.30095 0.75371 0 1.4134-0.055228 1.9866-0.16889 0.56887-0.11486 1.0647-0.24012 1.4833-0.37379 0.41821-0.13727 0.75953-0.26414 1.0364-0.37739 0.27337-0.11366 0.49471-0.16649 0.66789-0.16649 0.099795 0 0.18367 0.02001 0.25357 0.062032 0.070672 0.03842 0.12504 0.11366 0.17008 0.22171 0.047374 0.10565 0.078827 0.26013 0.094747 0.45823 0.016698 0.1957 0.025241 0.44343 0.025241 0.73918 0 0.26414-0.003495 0.49105-0.016698 0.67354-0.008543 0.18489-0.024463 0.34097-0.048927 0.47024-0.024075 0.13447-0.056693 0.24533-0.10484 0.33657-0.045821 0.086844-0.10562 0.17449-0.1794 0.25733-0.073002 0.080441-0.27454 0.1969-0.6046 0.33937-0.332 0.14407-0.75448 0.28374-1.2694 0.41981-0.5149 0.13607-1.0993 0.25493-1.7653 0.35818-0.66362 0.10285-1.3703 0.15288-2.1206 0.15288-1.3602 0-2.5496-0.17969-3.5717-0.53868s-1.8767-0.90046-2.5609-1.6292c-0.68537-0.72517-1.1956-1.6436-1.5319-2.7518-0.3355-1.1114-0.50597-2.4108-0.50597-3.9016 0-1.4179 0.17629-2.6986 0.52927-3.8392 0.35608-1.1382 0.86942-2.1035 1.5431-2.8959 0.67294-0.79441 1.4915-1.3955 2.4576-1.8153 0.96378-0.41621 2.0522-0.62832 3.2618-0.62832 1.281 0 2.3733 0.1981 3.28 0.5923 0.90709 0.3926 1.6538 0.94048 2.232 1.636 0.58208 0.69596 1.0112 1.524 1.2888 2.4773 0.27026 0.95729 0.40734 1.9906 0.40734 3.1144v0.71677z"/>
<path d="m16 37.683c0 0.055951-0.0047059 0.13029-0.0086275 0.20893-0.0066666 0.081383-0.02 0.17372-0.036863 0.27115-0.018039 0.10016-0.041961 0.2105-0.070196 0.34314-0.028235 0.1256-0.06549 0.27271-0.11216 0.43352l-4.6325 14.119c-0.058431 0.19759-0.13686 0.35722-0.23373 0.47891-0.10157 0.12325-0.25961 0.22263-0.48392 0.29071-0.22627 0.068862-0.53294 0.11386-0.91686 0.13851-0.38667 0.02465-0.8902 0.033649-1.5149 0.033649-0.60941 0-1.1082-0.0089991-1.4933-0.041865-0.39098-0.031301-0.69294-0.079818-0.9102-0.1479-0.22-0.069645-0.37804-0.16394-0.47529-0.28797-0.097647-0.12286-0.17804-0.2821-0.23412-0.46404l-4.6349-14.119c-0.068627-0.22811-0.12549-0.43939-0.16471-0.6272-0.038039-0.18898-0.059608-0.32005-0.068235-0.40339-0.007451-0.07747-0.0094118-0.15651-0.0094118-0.22615 0-0.11503 0.029804-0.22067 0.095294-0.30753 0.06549-0.087643 0.17765-0.16003 0.33804-0.21676 0.16235-0.057907 0.38314-0.097816 0.66549-0.12129 0.28235-0.023084 0.63843-0.03717 1.0631-0.03717 0.47333 0 0.85451 0.014086 1.142 0.043822 0.28784 0.029736 0.51569 0.066906 0.68157 0.12247 0.16941 0.053994 0.28549 0.13029 0.35569 0.2285 0.068627 0.098207 0.1251 0.21637 0.17216 0.35761l3.5129 11.458 0.10118 0.43782 0.10627-0.43782 3.4573-11.458c0.032941-0.14125 0.089804-0.25941 0.16471-0.35761 0.078431-0.098207 0.1949-0.1745 0.35412-0.2285 0.16078-0.055559 0.37725-0.092729 0.64784-0.12247 0.27373-0.029736 0.62784-0.043822 1.0667-0.043822 0.42196 0 0.77255 0.014086 1.0431 0.03717 0.27294 0.023476 0.48431 0.063385 0.63216 0.12129 0.15098 0.056733 0.25255 0.12912 0.31294 0.21676 0.057255 0.08686 0.087451 0.1925 0.087451 0.30753"/>
<path d="m48 51.451c0 0.30996-0.0093016 0.56939-0.024265 0.7771-0.022647 0.20691-0.045295 0.38614-0.076839 0.5305-0.025478 0.14275-0.063494 0.25663-0.10394 0.34925-0.042059 0.089418-0.13386 0.20169-0.27581 0.33803-0.14519 0.13994-0.38622 0.30755-0.7328 0.50483-0.34375 0.19488-0.73847 0.3693-1.1777 0.5301-0.44001 0.15398-0.91803 0.27748-1.4361 0.37371s-1.0483 0.14556-1.595 0.14556c-1.2246 0-2.3121-0.19087-3.2531-0.57701-0.94836-0.38013-1.7382-0.9423-2.3828-1.6933-0.64464-0.74502-1.1275-1.6548-1.4543-2.7299-0.32717-1.0774-0.48732-2.308-0.48732-3.6966 0-1.6023 0.19655-2.9833 0.59813-4.1469 0.39673-1.1689 0.952-2.1332 1.6642-2.8947 0.71501-0.76467 1.557-1.3345 2.5321-1.7054 0.97545-0.37051 2.0459-0.55616 3.2123-0.55616 0.47317 0 0.94189 0.042504 1.4013 0.12711 0.45457 0.083003 0.88567 0.19808 1.2812 0.34003 0.39673 0.14155 0.75545 0.30274 1.0713 0.48438 0.31181 0.17844 0.53788 0.33321 0.66648 0.46554 0.13427 0.13232 0.22405 0.24259 0.27945 0.33201 0.053788 0.087414 0.092612 0.2061 0.12496 0.34845 0.029522 0.14315 0.050552 0.31958 0.067538 0.52929 0.020221 0.20851 0.029522 0.46313 0.029522 0.76266 0 0.69209-0.059045 1.1813-0.17794 1.458-0.11971 0.2851-0.27622 0.42183-0.46508 0.42183-0.20302 0-0.41453-0.083003-0.64181-0.25021-0.22243-0.16601-0.49339-0.35206-0.80115-0.55375-0.30978-0.2025-0.67861-0.38574-1.1085-0.55415-0.42949-0.17042-0.93946-0.25101-1.5311-0.25101-1.1655 0-2.0609 0.4491-2.676 1.3501-0.61755 0.9006-0.92733 2.2254-0.92733 3.9717 0 0.8593 0.075222 1.6216 0.23214 2.2784 0.15368 0.6532 0.38339 1.2074 0.68508 1.6468 0.3025 0.44308 0.68508 0.7771 1.1413 0.99483 0.45861 0.22294 0.99123 0.33161 1.5987 0.33161 0.61552 0 1.1514-0.092225 1.5942-0.27668 0.44445-0.18285 0.8331-0.39296 1.1684-0.61831 0.33162-0.22976 0.61593-0.43145 0.83836-0.61951 0.22486-0.18445 0.41534-0.28069 0.56942-0.28069 0.10879 0 0.19816 0.033281 0.27015 0.096235 0.068751 0.055736 0.12658 0.16961 0.16783 0.33041 0.041655 0.15799 0.074008 0.36529 0.09706 0.61751 0.024265 0.24981 0.038015 0.571 0.038015 0.96837"/>
<path d="m110 39.549c0 0.43525-0.011078 0.79355-0.034024 1.0741-0.024925 0.27972-0.060136 0.49795-0.10682 0.65634-0.045893 0.15635-0.10445 0.26506-0.1816 0.32695-0.075962 0.062295-0.17052 0.08876-0.29039 0.08876-0.089018 0-0.19663-0.017101-0.31136-0.063516-0.11671-0.038273-0.24767-0.087132-0.39326-0.13436-0.14441-0.048044-0.30543-0.096089-0.47713-0.13884-0.17606-0.04153-0.36794-0.061481-0.57881-0.061481-0.24331 0-0.48584 0.053745-0.73152 0.15431-0.24608 0.10627-0.49889 0.26384-0.76159 0.48167-0.25676 0.21742-0.5345 0.5122-0.81817 0.87376-0.28486 0.36481-0.58989 0.81554-0.91549 1.3477v10.122c0 0.12052-0.035211 0.22679-0.10247 0.3184-0.07517 0.086317-0.19188 0.16571-0.36042 0.22638-0.16933 0.059852-0.39168 0.10301-0.6698 0.13558-0.28011 0.034201-0.63578 0.043566-1.0658 0.043566-0.43401 0-0.78335-0.0093646-1.065-0.043566-0.27694-0.032572-0.50522-0.075731-0.67178-0.13558-0.16735-0.060666-0.28525-0.14006-0.35567-0.22638-0.073192-0.09161-0.1088-0.19788-0.1088-0.3184v-16.239c0-0.12378 0.033233-0.22842 0.091391-0.31758 0.05618-0.089167 0.16181-0.16571 0.31334-0.22801 0.14994-0.063109 0.34578-0.10586 0.58514-0.1368 0.2358-0.030944 0.53806-0.045602 0.8965-0.045602 0.37506 0 0.68365 0.014658 0.92618 0.045602 0.24292 0.030944 0.43243 0.073695 0.56813 0.1368 0.13135 0.062295 0.2263 0.13884 0.28881 0.22801 0.052619 0.089167 0.086643 0.19381 0.086643 0.31758v2.0232c0.40632-0.61114 0.78731-1.1079 1.1493-1.5032 0.36002-0.39413 0.70225-0.70927 1.0322-0.93972 0.32204-0.22923 0.65002-0.39046 0.97563-0.48207 0.32284-0.089575 0.64963-0.13558 0.97642-0.13558 0.15113 0 0.31571 0.007736 0.48742 0.029722 0.17566 0.016286 0.35607 0.046823 0.54439 0.090389 0.18436 0.03868 0.34618 0.088353 0.48504 0.14373 0.14005 0.054966 0.24015 0.11238 0.30582 0.17426 0.064884 0.060666 0.10959 0.12744 0.14243 0.19747 0.026507 0.073695 0.051037 0.17345 0.075566 0.30374 0.022551 0.125 0.042332 0.31595 0.050641 0.57368 0.013451 0.25325 0.01899 0.59974 0.01899 1.0358"/>
<path d="m121.82 44.248c0.03378-1.2636-0.20966-2.2594-0.72995-2.9802-0.51523-0.72083-1.3197-1.083-2.4065-1.083-0.54746 0-1.0219 0.10806-1.4284 0.32219-0.4038 0.21373-0.7412 0.5083-1.0072 0.86812-0.27218 0.36662-0.47796 0.79568-0.61851 1.2876-0.14211 0.4943-0.2252 1.025-0.24888 1.5854h6.4394zm4.1797 1.2868c0 0.55033-0.11959 0.95457-0.35527 1.2151-0.23102 0.26416-0.55445 0.39464-0.96446 0.39464h-9.2994c0 0.67961 0.079595 1.2992 0.2283 1.8499 0.15764 0.55673 0.40264 1.029 0.74043 1.4156 0.33624 0.38863 0.77149 0.68281 1.3003 0.88493 0.52843 0.20252 1.1691 0.30458 1.908 0.30458 0.75518 0 1.4168-0.056034 1.9868-0.1653 0.57114-0.11527 1.0654-0.24134 1.4789-0.38183 0.41739-0.13568 0.76334-0.25856 1.0378-0.37503 0.27373-0.11367 0.4997-0.1673 0.66976-0.1673 0.10173 0 0.18714 0.019212 0.2547 0.062037 0.0695 0.042025 0.12735 0.11887 0.17317 0.22173 0.044263 0.10927 0.076489 0.25856 0.093573 0.46068 0.016696 0.19332 0.026014 0.43826 0.026014 0.73884 0 0.26416-0.006212 0.48629-0.020578 0.6712-0.010095 0.18611-0.026791 0.34381-0.045039 0.47589-0.026403 0.12728-0.063288 0.24054-0.10639 0.331-0.047369 0.088853-0.10483 0.17531-0.17938 0.25896-0.072606 0.086452-0.27839 0.19932-0.60919 0.3378-0.33158 0.14729-0.75246 0.28417-1.2646 0.42105-0.51484 0.13808-1.1054 0.25896-1.7658 0.35862-0.66278 0.10046-1.369 0.15209-2.1238 0.15209-1.3554 0-2.5494-0.17891-3.5682-0.53472-1.0223-0.36022-1.8769-0.90254-2.5599-1.6282-0.68335-0.72804-1.1939-1.6466-1.5294-2.7577-0.34012-1.1079-0.5063-2.411-0.5063-3.8991 0-1.4189 0.17472-2.698 0.52766-3.8371 0.35488-1.1431 0.867-2.1065 1.5426-2.9021 0.67132-0.78847 1.4929-1.3972 2.4558-1.8155 0.96407-0.41865 2.0547-0.62558 3.2611-0.62558 1.277 0 2.3731 0.19652 3.2793 0.58995 0.91204 0.39424 1.6536 0.94016 2.2353 1.639 0.58473 0.69842 1.0087 1.5217 1.2848 2.4759 0.2714 0.95177 0.41351 1.9948 0.41351 3.1139v0.71603z"/>
<path d="m201 53.302c0 0.12401-0.034056 0.22442-0.10012 0.31603-0.062778 0.088408-0.18628 0.15601-0.35944 0.21402-0.17562 0.054805-0.4136 0.092809-0.71806 0.12481-0.29912 0.033603-0.68892 0.042804-1.1723 0.042804-0.49608 0-0.89778-0.0092009-1.2076-0.034403-0.3061-0.025202-0.55844-0.065606-0.75622-0.11601-0.19859-0.054005-0.35492-0.12481-0.4612-0.22242-0.11038-0.094409-0.20926-0.22002-0.2905-0.37724l-5.3719-8.4044v8.4432c0 0.11841-0.040212 0.22282-0.11407 0.31283-0.068113 0.084808-0.19367 0.16282-0.36641 0.22242-0.1789 0.058806-0.40868 0.10121-0.69959 0.13321-0.29092 0.033603-0.65774 0.042804-1.1029 0.042804-0.44643 0-0.8153-0.0092009-1.1013-0.042804-0.29297-0.032003-0.52398-0.074407-0.69754-0.13321-0.17808-0.059606-0.29953-0.13761-0.3738-0.22242-0.070575-0.090009-0.10709-0.19442-0.10709-0.31283v-23.521c0-0.11721 0.036518-0.22242 0.10709-0.32163 0.074268-0.091209 0.19572-0.17682 0.3738-0.23922 0.17356-0.066006 0.40457-0.11681 0.69754-0.15441 0.28599-0.034003 0.65487-0.052805 1.1013-0.052805 0.4452 0 0.81202 0.018802 1.1029 0.052805 0.29092 0.037604 0.52069 0.088408 0.69959 0.15441 0.17274 0.062406 0.2983 0.14801 0.36641 0.23922 0.073857 0.09921 0.11407 0.20442 0.11407 0.32163v14.005l4.7724-6.3498c0.098066-0.14241 0.20885-0.26803 0.32866-0.37484 0.12063-0.10921 0.27696-0.19002 0.47802-0.25082 0.20106-0.062006 0.44478-0.10401 0.74227-0.13441 0.29461-0.030403 0.67128-0.044804 1.1304-0.044804 0.44725 0 0.82228 0.014401 1.1312 0.044804 0.30733 0.030403 0.55639 0.072407 0.73898 0.13441 0.18834 0.060806 0.32046 0.13601 0.3935 0.22442 0.070985 0.086808 0.10627 0.19922 0.10627 0.32803 0 0.18002-0.045546 0.37244-0.13458 0.57686-0.09027 0.20002-0.22855 0.41164-0.40704 0.64006l-4.7265 5.2957 5.4691 8.3524c0.14279 0.23802 0.25152 0.44204 0.3143 0.61606 0.066062 0.17362 0.10012 0.33083 0.10012 0.47085"/>
<path d="m107.76 18.199h-1.6492c-0.69566 0-1.2955 0.052827-1.7863 0.16248-0.49389 0.10685-0.8943 0.26654-1.2024 0.48185-0.30888 0.21651-0.5344 0.47304-0.67969 0.7804-0.14217 0.30376-0.21462 0.64833-0.21462 1.0429 0 0.66674 0.20176 1.1934 0.61386 1.574 0.40664 0.38139 0.96597 0.57429 1.6889 0.57429 0.60841 0 3.2294-0.0064033 3.2294-0.0064033v-4.6096zm4.2425 7.1048c0 0.16649-0.055699 0.29575-0.16982 0.3898-0.11452 0.09885-0.29719 0.16608-0.54219 0.20731-0.24383 0.03922-0.61191 0.061632-1.091 0.061632-0.51532 0-5.6284 0.037219-6.613 0.037219-0.81368 0-1.5588-0.11246-2.2397-0.33257-0.68241-0.21971-1.2741-0.54828-1.7719-0.9825-0.49662-0.43462-0.88379-0.9785-1.1592-1.6216-0.27694-0.64153-0.41327-1.3943-0.41327-2.254 0-0.92928 0.17489-1.7361 0.52427-2.424 0.35056-0.68235 0.87132-1.2514 1.5635-1.6989 0.69332-0.44783 1.5526-0.7792 2.5863-0.99211 1.0314-0.21371 2.2252-0.32297 3.5893-0.32297h1.4941v-0.96409c0-0.50306-0.049078-0.93848-0.1449-1.3175-0.097377-0.37379-0.2563-0.68675-0.48221-0.93768-0.22085-0.25093-0.5196-0.43422-0.89353-0.55588-0.37237-0.11726-0.83198-0.17809-1.3827-0.17809-0.72136 0-1.366 0.088445-1.9327 0.25213-0.56634 0.16488-1.0672 0.35098-1.5019 0.55308-0.43586 0.2009-0.79888 0.387-1.0894 0.55348-0.29252 0.17129-0.53245 0.25213-0.71357 0.25213-0.12659 0-0.23604-0.040821-0.33264-0.12526-0.098934-0.082442-0.18229-0.2037-0.24344-0.35778-0.061542-0.15768-0.11374-0.34738-0.14684-0.57349-0.03194-0.22692-0.050246-0.47624-0.050246-0.75118 0-0.36819 0.03155-0.65994 0.083354-0.87525 0.060763-0.21531 0.16866-0.40781 0.32952-0.5823 0.16048-0.17289 0.44053-0.36459 0.83938-0.57149 0.40275-0.20731 0.87366-0.40421 1.4081-0.5835 0.53986-0.17729 1.1257-0.32256 1.7633-0.43742 0.63256-0.11326 1.2908-0.17129 1.967-0.17129 1.2005 0 2.2315 0.12406 3.0818 0.36859 0.85419 0.24372 1.5553 0.62152 2.1049 1.1258 0.54998 0.50866 0.95156 1.1594 1.2012 1.9598 0.25162 0.80081 0.37821 1.7453 0.37821 2.8451v11.005z"/>
<path d="m27.757 47.199h-1.6486c-0.69926 0-1.2937 0.054827-1.7885 0.16248-0.49046 0.10445-0.89209 0.26653-1.201 0.48184-0.31048 0.2149-0.53409 0.47343-0.67978 0.77798-0.14258 0.30575-0.21582 0.65312-0.21582 1.0497 0 0.66472 0.20257 1.1886 0.61278 1.5708 0.40592 0.38019 0.96922 0.57348 1.6899 0.57348 0.60849 0 3.231-0.0080039 3.231-0.0080039v-4.6083zm4.2435 7.1039c0 0.16888-0.056097 0.29695-0.17063 0.39459-0.11414 0.092845-0.29412 0.16448-0.54188 0.2053-0.24425 0.042421-0.60927 0.059229-1.0892 0.059229-0.51617 0-5.6295 0.037618-6.6139 0.037618-0.81457 0-1.5637-0.11286-2.2419-0.33016-0.6829-0.22251-1.2723-0.54907-1.7705-0.98608-0.49942-0.43341-0.88391-0.97528-1.1597-1.6172-0.27698-0.64672-0.41215-1.3975-0.41215-2.2563 0-0.92805 0.17374-1.7389 0.52396-2.4208 0.34944-0.68754 0.86911-1.2542 1.5629-1.7012 0.69225-0.44502 1.554-0.77878 2.5859-0.99449 1.0296-0.21531 2.2248-0.31976 3.5878-0.31976h1.4959v-0.96727c0-0.50104-0.047916-0.93566-0.14608-1.3162-0.098559-0.37138-0.25555-0.68594-0.47916-0.94046-0.224-0.24932-0.5224-0.43221-0.89521-0.55067-0.37359-0.11966-0.83327-0.17889-1.3841-0.17889-0.71913 0-1.3642 0.08124-1.9299 0.24812-0.56681 0.16768-1.0701 0.35497-1.5045 0.55627-0.4367 0.2049-0.79743 0.38659-1.0888 0.55347-0.29373 0.16448-0.5298 0.25252-0.71523 0.25252-0.12583 0-0.23529-0.042421-0.33502-0.12766-0.098169-0.083641-0.17725-0.1989-0.24075-0.35657-0.063888-0.15768-0.1118-0.34457-0.14375-0.56948-0.036619-0.22931-0.054149-0.47783-0.054149-0.75717 0-0.36778 0.030386-0.65832 0.086093-0.87283 0.058044-0.21611 0.16517-0.411 0.3284-0.57988 0.1605-0.17489 0.43903-0.36658 0.84106-0.57708 0.3993-0.2069 0.86833-0.4022 1.4083-0.58028 0.53759-0.18049 1.1274-0.32496 1.76-0.43901 0.63615-0.11165 1.2922-0.17088 1.9688-0.17088 1.2018 0 2.2298 0.12366 3.083 0.36938 0.85236 0.24412 1.5559 0.6179 2.104 1.1258 0.55045 0.50865 0.94936 1.1594 1.2061 1.9586 0.25127 0.79999 0.37437 1.7497 0.37437 2.8462v11.003z"/>
<path d="m59.755 47.199h-1.6477c-0.6992 0-1.2963 0.054827-1.786 0.16248-0.49158 0.10445-0.89591 0.26653-1.2013 0.48184-0.3124 0.2149-0.53833 0.47343-0.68167 0.77798-0.1414 0.30575-0.21229 0.65312-0.21229 1.0497 0 0.66472 0.20255 1.1886 0.60688 1.5708 0.40861 0.38019 0.97265 0.57348 1.6944 0.57348 0.60572 0 3.2276-0.0080039 3.2276-0.0080039v-4.6083zm4.2451 7.1039c0 0.16888-0.056871 0.29695-0.17451 0.39459-0.11296 0.092845-0.29137 0.16448-0.53911 0.2053-0.24462 0.042421-0.61 0.059229-1.0887 0.059229-0.51768 0-5.6318 0.037618-6.6138 0.037618-0.81606 0-1.5624-0.11286-2.2441-0.33016-0.68089-0.22251-1.2702-0.54907-1.7692-0.98608-0.49782-0.43341-0.88462-0.97528-1.1608-1.6172-0.27579-0.64672-0.40978-1.3975-0.40978-2.2563 0-0.92805 0.17178-1.7389 0.52236-2.4208 0.35018-0.68754 0.87059-1.2542 1.564-1.7012 0.69219-0.44502 1.5523-0.77878 2.5841-0.99449 1.0315-0.21531 2.2285-0.31976 3.5911-0.31976h1.4934v-0.96727c0-0.50104-0.046743-0.93566-0.14568-1.3162-0.09855-0.37138-0.25787-0.68594-0.48146-0.94046-0.22086-0.24932-0.51963-0.43221-0.89163-0.55067-0.37239-0.11966-0.83164-0.17889-1.382-0.17889-0.7214 0-1.3661 0.08124-1.9336 0.24812-0.56715 0.16768-1.0665 0.35497-1.5008 0.55627-0.43861 0.2049-0.80243 0.38659-1.0918 0.55347-0.29176 0.16448-0.53093 0.25252-0.71361 0.25252-0.12738 0-0.23917-0.042421-0.33577-0.12766-0.096213-0.083641-0.17685-0.1989-0.23839-0.35657-0.063882-0.15768-0.11218-0.34457-0.1488-0.56948-0.034668-0.22931-0.051028-0.47783-0.051028-0.75717 0-0.36778 0.030383-0.65832 0.087644-0.87283 0.056481-0.21611 0.16399-0.411 0.32564-0.57988 0.16049-0.17489 0.439-0.36658 0.84216-0.57708 0.40238-0.2069 0.86826-0.4022 1.4074-0.58028 0.5395-0.18049 1.1242-0.32496 1.7626-0.43901 0.63337-0.11165 1.2932-0.17088 1.9648-0.17088 1.2021 0 2.2308 0.12366 3.0835 0.36938 0.85657 0.24412 1.5573 0.6179 2.1042 1.1258 0.54845 0.50865 0.95006 1.1594 1.2048 1.9586 0.25047 0.79999 0.37706 1.7497 0.37706 2.8462v11.003z"/>
<path d="m157.76 47.199h-1.6467c-0.70105 0-1.2927 0.054827-1.7896 0.16248-0.49113 0.10445-0.89072 0.26653-1.2007 0.48184-0.30729 0.2149-0.53397 0.47343-0.67807 0.77798-0.14372 0.30575-0.2146 0.65312-0.2146 1.0497 0 0.66472 0.20175 1.1886 0.60914 1.5708 0.40505 0.38019 0.9729 0.57348 1.6942 0.57348 0.60602 0 3.2264-0.0080039 3.2264-0.0080039v-4.6083zm4.2429 7.1039c0 0.16888-0.057642 0.29695-0.17098 0.39459-0.11295 0.092845-0.296 0.16448-0.54292 0.2053-0.24537 0.042421-0.60719 0.059229-1.0878 0.059229-0.5141 0-5.6267 0.037618-6.6156 0.037618-0.81088 0-1.5591-0.11286-2.2414-0.33016-0.6808-0.22251-1.2689-0.54907-1.767-0.98608-0.49814-0.43341-0.88332-0.97528-1.1606-1.6172-0.27341-0.64672-0.41362-1.3975-0.41362-2.2563 0-0.92805 0.17604-1.7389 0.5289-2.4208 0.3443-0.68754 0.86852-1.2542 1.5598-1.7012 0.69521-0.44502 1.5544-0.77878 2.5857-0.99449 1.0302-0.21531 2.229-0.31976 3.5917-0.31976h1.4909v-0.96727c0-0.50104-0.05141-0.93566-0.1441-1.3162-0.097368-0.37138-0.2551-0.68594-0.48217-0.94046-0.22317-0.24932-0.51956-0.43221-0.89384-0.55067-0.37195-0.11966-0.83114-0.17889-1.3819-0.17889-0.72169 0-1.3663 0.08124-1.9302 0.24812-0.56902 0.16768-1.0707 0.35497-1.5073 0.55627-0.4327 0.2049-0.79803 0.38659-1.0913 0.55347-0.29016 0.16448-0.52657 0.25252-0.70845 0.25252-0.12853 0-0.23641-0.042421-0.33495-0.12766-0.098926-0.083641-0.17799-0.1989-0.24225-0.35657-0.061537-0.15768-0.11256-0.34457-0.14566-0.56948-0.033105-0.22931-0.0518-0.47783-0.0518-0.75717 0-0.36778 0.02999-0.65832 0.084905-0.87283 0.061537-0.21611 0.16864-0.411 0.32833-0.57988 0.16007-0.17489 0.44166-0.36658 0.84126-0.57708 0.40038-0.2069 0.86969-0.4022 1.4099-0.58028 0.53708-0.18049 1.1217-0.32496 1.76-0.43901 0.63523-0.11165 1.2899-0.17088 1.9649-0.17088 1.2062 0 2.2293 0.12366 3.0862 0.36938 0.85022 0.24412 1.5517 0.6179 2.102 1.1258 0.54838 0.50865 0.95031 1.1594 1.2019 1.9586 0.25316 0.79999 0.3774 1.7497 0.3774 2.8462v11.003z"/>
<path d="m30.756 17.196h-1.6486c-0.69885 0-1.2964 0.056444-1.788 0.16093-0.49278 0.11089-0.89479 0.26941-1.2021 0.48478-0.30774 0.21377-0.53329 0.47157-0.67704 0.77901-0.14452 0.30384-0.21737 0.65211-0.21737 1.0484 0 0.67012 0.20451 1.1917 0.61315 1.5732 0.40552 0.3831 0.96842 0.57204 1.6895 0.57204 0.61003 0 3.2305-0.0056044 3.2305-0.0056044v-4.6128zm4.2437 7.1063c0 0.16893-0.056874 0.29863-0.17296 0.39511-0.1118 0.096075-0.29528 0.16253-0.54147 0.20336-0.24308 0.044835-0.60848 0.06445-1.09 0.06445-0.51615 0-5.629 0.034827-6.6138 0.034827-0.81494 0-1.5605-0.10848-2.2419-0.32906-0.68132-0.22337-1.2703-0.55083-1.7717-0.98437-0.4959-0.43954-0.88311-0.97836-1.1577-1.6213-0.27697-0.6433-0.41058-1.3963-0.41058-2.2562 0-0.93192 0.17374-1.7349 0.522-2.4219 0.3502-0.68814 0.87064-1.2534 1.5644-1.7001 0.69223-0.44715 1.5527-0.77861 2.5862-0.99517 1.0292-0.21537 2.2255-0.32145 3.5874-0.32145h1.4963v-0.96755c0-0.50199-0.050641-0.94073-0.14608-1.313-0.098556-0.37909-0.25593-0.69054-0.48148-0.94153-0.22126-0.251-0.52239-0.43434-0.89479-0.55523-0.37163-0.11569-0.8313-0.17894-1.3821-0.17894-0.7195 0-1.365 0.085266-1.9302 0.251-0.57147 0.17013-1.0701 0.35107-1.504 0.55563-0.43591 0.20376-0.7978 0.3883-1.0923 0.55443-0.29021 0.16933-0.52823 0.24859-0.71171 0.24859-0.12699 0-0.23762-0.040832-0.33501-0.1225-0.098556-0.083665-0.17802-0.20136-0.24035-0.35828-0.064665-0.15612-0.11219-0.34587-0.14647-0.57325-0.036618-0.22858-0.049083-0.47917-0.049083-0.75018 0-0.36949 0.026879-0.66292 0.083364-0.87668 0.058432-0.21657 0.16595-0.40952 0.32878-0.58245 0.15894-0.17293 0.43863-0.36468 0.8387-0.57084 0.40162-0.20976 0.8722-0.40391 1.4102-0.58485 0.53719-0.17574 1.1254-0.32505 1.76-0.43714 0.63458-0.11489 1.2914-0.16773 1.9688-0.16773 1.2018 0 2.2298 0.11769 3.0825 0.36428 0.85272 0.24299 1.5551 0.61808 2.1063 1.1281 0.54771 0.50479 0.94816 1.1609 1.2018 1.9599 0.25126 0.79902 0.37708 1.7474 0.37708 2.8462v11.004z"/>
<path d="m94.893 37.628c-0.066191-0.088055-0.18549-0.16405-0.34721-0.22516-0.16409-0.062322-0.38526-0.10454-0.66548-0.1347-0.27745-0.03096-0.63258-0.045435-1.0646-0.045435-0.43282 0-0.78795 0.014475-1.0674 0.045435-0.27705 0.030156-0.50218 0.072374-0.66984 0.1347-0.17122 0.061116-0.28815 0.13711-0.35315 0.22516-0.060642 0.087653-0.094332 0.19139-0.094332 0.31362v13.137s-2.937-0.012062-3.497-0.012062c-0.44193 0-0.82798-0.088457-1.1609-0.26537-0.33214-0.17088-0.6088-0.41816-0.82283-0.73821-0.21403-0.31322-0.37455-0.69117-0.47998-1.1375-0.10503-0.44349-0.15696-1.0836-0.15696-1.9223l0.011891-8.9542c0-0.11861-0.034879-0.22436-0.10266-0.31442-0.070154-0.090467-0.19302-0.16284-0.3591-0.22436-0.17043-0.059507-0.39437-0.10293-0.6738-0.1347-0.27903-0.030156-0.63615-0.045837-1.0666-0.045837h-9.3805v-3.5757c0-0.12143-0.037257-0.22758-0.10781-0.32407-0.070155-0.0969-0.18589-0.17611-0.35038-0.24245-0.16092-0.065538-0.38407-0.11218-0.67103-0.14394-0.28656-0.027743-0.64328-0.043424-1.0725-0.043424-0.42013 0-0.77249 0.015681-1.0598 0.043424-0.28577 0.031764-0.5105 0.078405-0.67856 0.14394-0.17162 0.066343-0.28617 0.14555-0.35117 0.24245-0.065795 0.096498-0.097503 0.20265-0.097503 0.32407v3.5757h-1.8522c-0.11455 0-0.21918 0.031764-0.30638 0.090467-0.088783 0.061518-0.16171 0.15922-0.21879 0.29553-0.05549 0.14113-0.10067 0.3297-0.13278 0.56653-0.027745 0.23883-0.043202 0.53717-0.043202 0.88417 0 0.65619 0.061038 1.1282 0.17598 1.4097 0.11811 0.28025 0.28775 0.42218 0.50654 0.42218h1.8708v8.2124c0 0.98308 0.099881 1.8371 0.29727 2.5572 0.20095 0.71891 0.50614 1.3124 0.9243 1.786 0.42251 0.47244 0.95244 0.82345 1.5918 1.051 0.6417 0.22516 1.3975 0.34337 2.2731 0.34337 0.32897 0 0.64962-0.020506 0.97107-0.056693 0.31946-0.037393 0.61752-0.084838 0.89021-0.15319 0.27229-0.066745 0.51645-0.14636 0.72731-0.23039 0.20769-0.090065 0.36663-0.19903 0.47008-0.32729 0.10464-0.12585 0.18946-0.32086 0.24376-0.59105 0.059453-0.26899 0.088783-0.66745 0.088783-1.197 0-0.33051-0.015458-0.60955-0.048355-0.82667-0.023781-0.2139-0.055886-0.38479-0.090369-0.51184-0.036068-0.12464-0.086801-0.20787-0.15022-0.25291-0.06302-0.039001-0.13199-0.061518-0.20016-0.061518-0.083631 0-0.17004 0.022516-0.27229 0.061518-0.097899 0.045032-0.22037 0.09489-0.36385 0.14595-0.14784 0.051466-0.31589 0.10333-0.49901 0.14475-0.18668 0.042218-0.39635 0.059507-0.6302 0.059507-0.68569 0-1.1645-0.21511-1.432-0.65538-0.26992-0.43665-0.4023-1.092-0.4023-1.9658v-7.5321h7.1899l-0.0055489 6.7581c0 1.2215 0.095125 2.2444 0.28775 3.0646 0.19144 0.82104 0.5105 1.5436 0.96155 2.166 0.4451 0.62241 1.0341 1.1142 1.7646 1.476 0.72572 0.35745 1.6298 0.53717 2.7015 0.53717h7.2866c0.36266 0 0.65993-0.016485 0.90091-0.044228 0.2386-0.03096 0.43242-0.074786 0.58026-0.1355 0.1415-0.060714 0.24693-0.13711 0.30281-0.22838 0.057075-0.084034 0.087594-0.19058 0.087594-0.3108v-16.34c0-0.12223-0.036861-0.22597-0.10741-0.31362"/>
<path d="m2 8.7278c0-0.11683 0.025584-0.22674 0.087944-0.3167 0.056364-0.090368 0.1583-0.1669 0.3082-0.22877 0.14511-0.057396 0.34018-0.10421 0.58003-0.13392 0.23945-0.032158 0.54325-0.048441 0.90862-0.048441h7.3493c1.0861 0 1.9875 0.18237 2.7247 0.54913 0.73433 0.36392 1.3272 0.86094 1.7817 1.4923 0.45091 0.62851 0.77191 1.3604 0.96858 2.1916 0.19428 0.83367 0.29101 1.8656 0.29101 3.101v9.9381c0 0.12049-0.03078 0.22511-0.096738 0.31792-0.063959 0.091182-0.18068 0.16649-0.35217 0.22714-0.16989 0.057803-0.39775 0.10624-0.68716 0.13555-0.29061 0.029716-0.64399 0.04722-1.0669 0.04722-0.43492 0-0.79669-0.017504-1.0773-0.04722-0.28142-0.029309-0.50368-0.077749-0.67677-0.13555-0.16989-0.060653-0.29341-0.13596-0.36417-0.22714-0.068756-0.092811-0.10114-0.19743-0.10114-0.31792v-9.1728c0-0.84995-0.054365-1.5013-0.1611-1.9433-0.10593-0.45225-0.26583-0.83652-0.48249-1.1601-0.21746-0.32117-0.49408-0.56704-0.82907-0.74249-0.33579-0.17911-0.72634-0.26622-1.1764-0.26622-0.56284 0-3.5249-0.013026-3.5249-0.013026v13.298c0 0.12049-0.030381 0.22511-0.09434 0.31792-0.063559 0.091182-0.18548 0.16649-0.35537 0.22714-0.16669 0.057803-0.39495 0.10624-0.67557 0.13555-0.28342 0.029716-0.64279 0.04722-1.0749 0.04722-0.43532 0-0.79429-0.017504-1.0745-0.04722-0.28462-0.029309-0.50967-0.077749-0.67237-0.13555-0.16589-0.060653-0.28342-0.13596-0.35337-0.22714-0.070755-0.092811-0.10313-0.19743-0.10313-0.31792v-16.544"/>
<path d="m79 8.7278c0-0.11683 0.025584-0.22674 0.088344-0.3167 0.053566-0.090368 0.1603-0.1669 0.3058-0.22877 0.14711-0.057396 0.34018-0.10421 0.58203-0.13392 0.24105-0.032158 0.54245-0.048441 0.91022-0.048441h7.3493c1.0821 0 1.9871 0.18237 2.7231 0.54913 0.73513 0.36392 1.3299 0.86094 1.7801 1.4923 0.45531 0.62851 0.7743 1.3604 0.97338 2.1916 0.19108 0.83367 0.28782 1.8656 0.28782 3.101v9.9381c0 0.12049-0.03078 0.22511-0.096738 0.31792-0.065958 0.091182-0.18508 0.16649-0.35297 0.22714-0.17109 0.057803-0.39815 0.10624-0.68556 0.13555-0.29101 0.029716-0.64479 0.04722-1.0693 0.04722-0.43172 0-0.79429-0.017504-1.0753-0.04722-0.28222-0.029309-0.50688-0.077749-0.67637-0.13555-0.17349-0.060653-0.29261-0.13596-0.36417-0.22714-0.067956-0.092811-0.10473-0.19743-0.10473-0.31792v-9.1728c0-0.84995-0.050768-1.5013-0.1603-1.9433-0.10393-0.45225-0.26703-0.83652-0.48369-1.1601-0.21466-0.32117-0.49288-0.56704-0.82587-0.74249-0.33618-0.17911-0.72753-0.26622-1.1764-0.26622-0.56324 0-3.5237-0.013026-3.5237-0.013026v13.298c0 0.12049-0.033179 0.22511-0.098337 0.31792-0.06276 0.091182-0.18148 0.16649-0.35257 0.22714-0.16629 0.057803-0.39575 0.10624-0.67637 0.13555-0.27942 0.029716-0.64279 0.04722-1.0757 0.04722-0.43652 0-0.79349-0.017504-1.0749-0.04722-0.28342-0.029309-0.50728-0.077749-0.67037-0.13555-0.16629-0.060653-0.28182-0.13596-0.35497-0.22714-0.068356-0.092811-0.10154-0.19743-0.10154-0.31792v-16.544"/>
<path d="m167 37.728c0-0.12376 0.028781-0.2288 0.084744-0.31714 0.05996-0.089972 0.16269-0.1661 0.31099-0.22839 0.1455-0.063102 0.34057-0.10585 0.58121-0.13679 0.24184-0.03094 0.54564-0.045596 0.9046-0.045596h7.3555c1.0825 0 1.9875 0.18239 2.7222 0.54634 0.73511 0.36436 1.3263 0.86267 1.7804 1.4941 0.4521 0.62817 0.77189 1.361 0.96935 2.1903 0.19507 0.83051 0.29101 1.8666 0.29101 3.1054v9.9359c0 0.12173-0.029181 0.22961-0.095936 0.31714-0.061559 0.089972-0.18268 0.16732-0.35656 0.2288-0.16869 0.061474-0.39614 0.10585-0.68434 0.1372-0.28981 0.028091-0.64437 0.044782-1.0669 0.044782-0.43571 0-0.79027-0.016692-1.0757-0.044782-0.28141-0.031348-0.50966-0.075723-0.67835-0.1372-0.17308-0.061474-0.28981-0.13882-0.36336-0.2288-0.069954-0.087529-0.10313-0.19541-0.10313-0.31714v-9.1714c0-0.85005-0.051566-1.4978-0.15909-1.9497-0.10713-0.4466-0.26622-0.8358-0.48608-1.1566-0.21586-0.3204-0.49247-0.56792-0.82505-0.74379-0.33818-0.17506-0.72632-0.26381-1.172-0.26381-0.56802 0-3.5284-0.013842-3.5284-0.013842v13.299c0 0.12173-0.033577 0.22961-0.095136 0.31714-0.069154 0.089972-0.18428 0.16732-0.35336 0.2288-0.17348 0.061474-0.39813 0.10585-0.68035 0.1372-0.28101 0.028091-0.64037 0.044782-1.0749 0.044782-0.43531 0-0.79427-0.016692-1.0745-0.044782-0.28341-0.031348-0.50606-0.075723-0.66915-0.1372-0.16549-0.061474-0.28181-0.13882-0.35616-0.2288-0.068754-0.087529-0.10153-0.19541-0.10153-0.31714v-16.544"/>
<path d="m141.35 45.58c0-0.67105-0.051724-0.95678-0.15477-1.5769-0.10224-0.62876-0.27599-1.1801-0.52209-1.6654-0.25296-0.48254-0.57502-0.86549-0.97507-1.1568-0.39722-0.28929-0.89991-0.43314-1.5036-0.43314-0.2958 0-3.7075 0.0094848-3.7075 0.0094848v9.4955s2.987-0.036358 3.6162-0.036358c0.58391 0 1.0757-0.14583 1.481-0.43907 0.40045-0.29284 0.73828-0.67935 1.0066-1.1465 0.2671-0.47385 0.45905-0.77025 0.58068-1.3658 0.11759-0.60347 0.17861-1.0813 0.17861-1.6851m4.645-0.31656c0 1.4041-0.14992 2.5431-0.46107 3.6615-0.30792 1.1157-0.75282 1.831-1.3363 2.619-0.57825 0.78882-1.2943 1.399-2.1453 1.8195-0.85182 0.42366-1.8144 0.63627-2.8953 0.63627h-7.2571c-0.3649 0-0.67039-0.01067-0.91365-0.034382-0.24528-0.024107-0.44127-0.064418-0.59038-0.12528-0.14911-0.059675-0.25256-0.13042-0.31034-0.21934-0.058593-0.08892-0.090516-0.19523-0.090516-0.32762v-23.535c0-0.11579 0.035156-0.21973 0.1083-0.31774 0.071524-0.090106 0.19477-0.17428 0.36489-0.23633 0.17457-0.065208 0.40086-0.1154 0.68736-0.15215 0.28569-0.033592 0.64533-0.052562 1.0842-0.052562 0.44127 0 0.80455 0.01897 1.0874 0.052562 0.28892 0.036754 0.51804 0.086944 0.68898 0.15215 0.17255 0.062046 0.29175 0.14622 0.36368 0.23633 0.071928 0.09801 0.10708 0.20195 0.10708 0.31774v7.2223s4.548-0.02964 5.0253-0.02964c1.1747 0 2.1732 0.23198 2.9931 0.69674 0.81869 0.46397 1.4891 1.0931 2.0031 1.8819 0.51966 0.78882 0.89789 1.7096 1.1351 2.7656 0.23437 1.0524 0.35156 1.8005 0.35156 2.968"/>
</g>
</g>
</svg>
