<?xml version="1.0" encoding="UTF-8"?>
<svg width="300px" height="300px" viewBox="0 0 300 300" version="1.1" xmlns="http://www.w3.org/2000/svg" xmlns:xlink="http://www.w3.org/1999/xlink">
    <!-- Generator: Sketch 51.2 (57519) - http://www.bohemiancoding.com/sketch -->
    <title>Reclamefolder</title>
    <desc>Created with Sketch.</desc>
    <defs></defs>
    <g id="Reclamefolder" stroke="none" stroke-width="1" fill="none" fill-rule="evenodd">
        <g id="Group" transform="translate(73.000000, 36.000000)" fill-rule="nonzero">
            <path d="M0.35936451,81.8946682 C0.35936451,82.7594938 0.521348296,83.7864741 0.521348296,84.5972481 C0.521348296,85.4080221 0.71032938,85.4620737 0.71032938,85.9755639 C0.71032938,86.489054 0.872313166,87.705215 1.03429695,88.6781438 C1.03429695,89.0294792 1.22327804,89.5429693 1.22327804,89.8943047 C1.38526182,90.7591303 1.57424291,91.6239559 1.73622669,92.5968846 C1.76463854,93.0227938 1.88434026,93.4375833 2.08719156,93.8130456 C2.2251702,94.7361926 2.4604599,95.6421084 2.7891213,96.5156255 C2.95110509,96.8669609 2.95110509,97.1912705 3.11308887,97.5426059 C3.32161696,98.4670065 3.61069466,99.371328 3.9770024,100.245186 C4.16598348,100.596521 4.16598348,100.947857 4.32796727,101.299192 C4.72006551,102.163309 5.01000096,103.070314 5.19188079,104.001772 C5.38086188,104.353107 5.38086188,104.515262 5.54284566,104.866597 C5.87198216,105.799727 6.27835242,106.703725 6.75772406,107.569177 C6.91970784,107.731332 6.91970784,108.082668 7.08169163,108.271848 C7.49239395,109.201371 7.96127873,110.104024 8.48555111,110.974428 C8.6475349,111.136583 8.6475349,111.325763 8.83651598,111.487918 C9.34946464,112.541924 9.86241329,113.40675 10.3753619,114.190498 C10.3753619,114.352653 10.564343,114.514808 10.564343,114.703988 C11.0772917,115.730969 11.7792214,116.595794 12.2921701,117.6498 C12.2921701,117.811955 12.4541539,117.811955 12.4541539,117.97411 C13.1560836,119.028116 13.6690323,119.892942 14.370962,120.919922 L14.5329458,121.109103 C15.2348755,122.136083 15.909808,123.000909 16.6117377,124.054915 L16.7737215,124.21707 C17.4930916,125.195559 18.3069347,126.100784 19.2034783,126.91965 C20.9313053,128.811455 22.6591324,130.730287 24.3869594,132.324809 L24.3869594,76.1922246 C24.5286069,47.2209819 48.1044989,23.8500983 77.0451885,23.9918947 C105.985878,24.1336911 129.332115,47.734472 129.190469,76.7057148 C129.149697,95.4398717 119.22176,112.757591 103.084082,122.244186 L103.084082,122.406341 L115.016888,143 C119.290392,140.576119 123.275467,137.674823 126.895699,134.351744 C129.365101,132.217535 131.675048,129.905149 133.807007,127.43314 C134.832904,126.216979 135.885799,125.189998 136.749712,123.973837 C136.749712,123.784657 136.911696,123.784657 136.911696,123.622502 C138.828504,121.19018 140.556331,118.433549 142.311156,115.839072 C142.473139,115.649891 142.473139,115.487736 142.662121,115.298556 C143.360704,114.128565 143.991677,112.919427 144.551931,111.677099 C144.740912,111.487918 144.740912,111.163609 144.902896,110.974428 C146.269267,108.220633 147.468328,105.386779 148.493537,102.488327 C148.655521,102.164018 148.655521,101.812682 148.817504,101.461347 C149.168469,100.245186 149.519434,99.2182054 149.870399,98.0020445 C150.032383,97.6507091 150.032383,97.2993737 150.221364,96.7858835 C151.018874,93.8237458 151.649802,90.8191641 152.111175,87.7862924 C152.111175,87.434957 152.273159,86.9214668 152.273159,86.4079766 C152.482156,85.2660963 152.599519,84.1093019 152.624123,82.9486744 C152.593991,82.4723376 152.658215,81.9947364 152.813104,81.5433328 C152.948438,79.9887348 153.002507,78.4281181 152.975088,76.8678696 C153.025955,75.570178 152.998909,74.2705993 152.894096,72.9761545 C151.059998,32.147543 117.4535,-0.00585092491 76.6267304,0.0064968601 C75.2928184,-0.0199181426 73.958529,0.0342317755 72.6311304,0.168651655 C33.4925175,2.24354138 2.22850534,33.55222 0.170383426,72.7329223 C0.170383426,74.111238 0.0083996403,75.4355022 0.0083996403,76.7057148 C-0.022440707,78.0320832 0.0316647725,79.3590669 0.170383426,80.6785072 C0.170383426,81.0298426 0.35936451,81.5433328 0.35936451,81.8946682" id="Shape" fill="#753D96"></path>
            <path d="M93.3773275,47 C92.1189797,47.0377506 90.8642304,47.154863 89.6204819,47.3506465 C84.1524526,47.8552327 78.8038886,49.258488 73.7880613,51.5044583 C68.8656177,53.6540765 64.3805538,56.6991427 60.558598,60.486402 C56.5915813,64.3074187 53.4334788,68.8946529 51.2738226,73.972804 C49.138788,78.7015417 48.0230912,83.8307618 48,89.0236286 L48,149.280873 C62.0508778,155.048185 77.4886394,156.493834 92.3576123,153.434684 L71.050931,114.216227 L93.7261774,114.216227 L93.7261774,92.0985282 L70.5142388,92.0985282 L70.5142388,90.5341056 C70.4698141,87.9752516 71.0018974,85.439451 72.0706462,83.1165845 C73.1321664,80.8615179 74.5862188,78.8153612 76.364184,77.0746764 C80.5252745,73.1203713 85.9209644,70.737473 91.6330778,70.3314754 C92.5207086,70.1946825 93.4190036,70.1405073 94.3165389,70.1696386 L97,70.1696386 L97,47 L93.3773275,47 Z" id="Shape" fill="#454545"></path>
        </g>
        <g id="Group-2" transform="translate(25.000000, 245.000000)" fill-rule="nonzero">
            <path d="M16.8394161,9.38686131 C16.8621373,10.9154275 16.4440032,12.4181763 15.6350365,13.7153285 C14.8658932,14.983289 13.7756273,16.0257141 12.4744526,16.7372263 L16.8540146,24.4087591 L11.9562044,24.4087591 L5.75182482,13.3357664 L8.2919708,13.3357664 C8.82941294,13.3394334 9.36161628,13.2300084 9.8540146,13.0145985 C10.3242628,12.8099635 10.754329,12.5232527 11.1240876,12.1678832 C11.4893199,11.8174478 11.7776656,11.3948722 11.9708029,10.9270073 C12.1779921,10.437662 12.2823429,9.91093899 12.2773723,9.37956204 C12.3029316,8.37968913 11.8927085,7.41806217 11.1532847,6.74452555 C10.7732219,6.37014287 10.3279548,6.0683507 9.83941606,5.8540146 C9.29956727,5.61420738 8.72104446,5.47328515 8.13138686,5.4379562 C7.96593674,5.4379562 7.79075426,5.42335766 7.60583942,5.39416058 L7.0729927,5.39416058 C6.64874863,5.39266649 6.22474565,5.41459768 5.80291971,5.45985401 C5.40875912,5.50364964 5.0729927,5.55474453 4.69343066,5.62043796 L4.69343066,24.4087591 L0.160583942,24.4087591 L0.160583942,2.23357664 L1.7080292,1.72262774 C1.85788124,1.65513873 2.01447724,1.60375567 2.17518248,1.56934307 C2.45985401,1.48175182 2.83941606,1.38686131 3.31386861,1.2919708 C3.78832117,1.19708029 4.34306569,1.10948905 4.98540146,1.02919708 C5.67750104,0.938322439 6.37496077,0.894426372 7.0729927,0.897810219 L7.80291971,0.897810219 C8.05109489,0.897810219 8.29927007,0.897810219 8.53284672,0.948905109 C9.61103594,1.04870414 10.6673106,1.31461945 11.6642336,1.73722628 C12.6476938,2.15319473 13.5459467,2.74708099 14.3138686,3.48905109 C15.0749247,4.24676407 15.6909082,5.1373426 16.1313869,6.11678832 C16.593015,7.1394988 16.8271165,8.25023552 16.8175182,9.37226277" id="Shape" fill="#753D96"></path>
            <path d="M28.0583942,20.1970803 C28.5811489,20.2018623 29.1034619,20.1652516 29.620438,20.0875912 C30.1240876,20.0145985 30.6861314,19.9124088 31.3065693,19.7883212 L32.2043796,24.1678832 C31.4744526,24.3357664 30.810219,24.4671533 30.1970803,24.5547445 C29.4876302,24.6424431 28.7732262,24.6838931 28.0583942,24.6788321 L27.3284672,24.6788321 L26.5985401,24.6277372 C25.5155465,24.5331637 24.4540338,24.2696327 23.4525547,23.8467153 C22.4753498,23.4312165 21.5842029,22.8371187 20.8248175,22.0948905 C20.0502014,21.3422848 19.4237779,20.4509311 18.9781022,19.4671533 C18.5149941,18.4433025 18.290371,17.3276743 18.3211679,16.2043796 C18.3132963,15.091707 18.5318388,13.9890609 18.9635036,12.9635036 C19.3764609,11.9697508 19.9704859,11.0613876 20.7153285,10.2846715 C21.4708608,9.51581688 22.3648954,8.89667936 23.350365,8.45985401 C24.3869577,8.00134602 25.5088829,7.76750795 26.6423358,7.77372263 L26.9635036,7.77372263 C28.9949517,7.83394033 30.917232,8.70698692 32.2992701,10.1970803 C32.904554,10.8596473 33.3976526,11.6165537 33.7591241,12.4379562 C34.1244563,13.2527312 34.3111211,14.1362776 34.3065693,15.0291971 C34.3110384,15.413326 34.2792675,15.7970202 34.2116788,16.1751825 C34.1562779,16.4767513 34.080682,16.774258 33.9854015,17.0656934 C33.9076704,17.3418156 33.7999742,17.6086084 33.6642336,17.8613139 L23.2408759,17.8613139 C23.4375715,18.2218747 23.6832096,18.5534861 23.9708029,18.8467153 C24.3549655,19.2194688 24.8023085,19.5209928 25.2919708,19.7372263 C25.829237,19.9770909 26.4053784,20.1180354 26.9927007,20.1532847 C27.1678832,20.1532847 27.3430657,20.1532847 27.5255474,20.1970803 L28.0510949,20.1970803 M23.9708029,13.3284672 C23.8410129,13.4544446 23.7281456,13.5967556 23.6350365,13.7518248 C23.5157297,13.9724965 23.4132488,14.2018584 23.3284672,14.4379562 L29.6277372,14.4379562 C29.574192,14.1847098 29.488331,13.9393925 29.3722628,13.7080292 C29.2590672,13.5172002 29.1296345,13.3364827 28.9854015,13.1678832 C28.7123842,12.8668131 28.385635,12.6192759 28.0218978,12.4379562 C27.6258011,12.2626248 27.1994054,12.165942 26.7664234,12.1532847 L26.7007299,12.1532847 C26.7007299,12.1532847 26.7007299,12.1532847 26.6350365,12.1532847 C25.6260389,12.1752305 24.6673254,12.5981151 23.9708029,13.3284672" id="Shape" fill="#753D96"></path>
            <path d="M45.8613139,20.1970803 C46.4326099,20.2039592 47.0036012,20.1673572 47.5693431,20.0875912 C48.080292,20.0145985 48.5182482,19.9343066 48.8905109,19.8467153 L49.919708,24.2262774 C49.4233577,24.3284672 48.8321168,24.4306569 48.1459854,24.5255474 C47.3886639,24.6264104 46.6253137,24.6751868 45.8613139,24.6715328 L45.1313869,24.6715328 L44.4014599,24.620438 C43.3189595,24.5276 42.2575515,24.2665577 41.2554745,23.8467153 C39.2733609,22.9935454 37.6805698,21.4319855 36.7883212,19.4671533 C35.8645507,17.390049 35.8645507,15.0187101 36.7883212,12.9416058 C37.2315685,11.9585896 37.858353,11.0691998 38.6350365,10.3211679 C39.3898341,9.57671965 40.2790423,8.98226289 41.2554745,8.56934307 C42.2537115,8.15197648 43.3095454,7.8886333 44.3868613,7.78832117 L45.1167883,7.74452555 C45.3576642,7.74452555 45.5985401,7.74452555 45.8467153,7.74452555 C46.6105407,7.73872559 47.3738715,7.78506196 48.1313869,7.88321168 C48.8175182,7.98053528 49.4087591,8.08272506 49.9051095,8.18978102 L48.8759124,12.5693431 C48.5036496,12.4890511 48.0656934,12.4014599 47.5547445,12.3284672 C46.988637,12.2523293 46.4179108,12.2157443 45.8467153,12.2189781 L45.3211679,12.2189781 L44.7883212,12.270073 C44.201976,12.3065316 43.6264635,12.4448522 43.0875912,12.6788321 C42.6037489,12.8930205 42.1576285,13.1838614 41.7664234,13.540146 C41.417248,13.8813489 41.135017,14.2848898 40.9343066,14.729927 C40.7356627,15.1906787 40.6361844,15.6880703 40.6423358,16.189781 C40.6318645,16.6918834 40.7315245,17.1901833 40.9343066,17.649635 C41.1353862,18.0901606 41.4176848,18.4888454 41.7664234,18.8248175 C42.150586,19.197571 42.5979289,19.499095 43.0875912,19.7153285 C43.6248574,19.9551931 44.2009989,20.0961376 44.7883212,20.1313869 C44.9635036,20.1313869 45.1386861,20.1313869 45.3211679,20.1751825 L45.8467153,20.1751825" id="Shape" fill="#753D96"></path>
            <path d="M57.9270073,19.1094891 C58.5279783,19.7090937 59.3484198,20.0362151 60.1970803,20.0145985 L60.1970803,24.3943505 C59.1659765,24.4015133 58.1445244,24.1952347 57.1970803,23.7883212 C56.2862975,23.4021702 55.4566647,22.8474306 54.7518248,22.1532847 C54.057372,21.4611223 53.5001292,20.6438329 53.1094891,19.7445255 C52.6976492,18.8086555 52.4886849,17.7961736 52.4963504,16.7737226 L52.4963504,2.17518248 C53.1121788,1.95594297 53.7411505,1.77554024 54.379562,1.6350365 C55.2533259,1.44172198 56.1382353,1.30276927 57.0291971,1.2189781 L57.0291971,16.8686131 C57.0106375,17.7095558 57.3409034,18.5206889 57.9416058,19.1094891" id="Shape" fill="#753D96"></path>
            <path d="M79.1240876,9.03649635 L79.1240876,24.4087591 L74.5620438,24.4087591 L74.5620438,24.1532847 C73.4052633,24.4894365 72.2044379,24.6493825 71,24.6277372 C69.8567183,24.6367281 68.7237893,24.4106392 67.6715328,23.9635036 C66.6596817,23.534734 65.7383007,22.9180032 64.9562044,22.1459854 C64.1774822,21.3803647 63.5552087,20.4705066 63.1240876,19.4671533 C62.2205301,17.3705798 62.2205301,14.9943837 63.1240876,12.8978102 C63.556864,11.9125368 64.1794108,11.0221212 64.9562044,10.2773723 C66.5339552,8.79887016 68.5789065,7.91840501 70.7372263,7.78832117 L71.4671533,7.74452555 C71.7153285,7.74452555 71.9562044,7.74452555 72.1970803,7.74452555 C72.8949426,7.73889956 73.5923897,7.7803562 74.2846715,7.86861314 C74.9270073,7.95620438 75.4817518,8.04379562 75.9562044,8.13868613 C76.4306569,8.23357664 76.8029197,8.32846715 77.080292,8.40875912 C77.237094,8.46539871 77.3981973,8.50933597 77.5620438,8.54014599 L79.1240876,9.03649635 Z M74.5620438,12.4087591 C74.2408759,12.350365 73.8832117,12.2992701 73.4744526,12.2554745 C73.0574188,12.2113709 72.6383373,12.1894423 72.2189781,12.189781 L71.6861314,12.189781 L71.1605839,12.2408759 C70.571762,12.2764934 69.9937082,12.4148311 69.4525547,12.649635 C68.9709827,12.8639468 68.5272857,13.1548148 68.1386861,13.5109489 C67.7895638,13.8537982 67.5051989,14.2568545 67.2992701,14.7007299 C67.1041849,15.1637225 66.9953415,15.6584653 66.9781022,16.1605839 C66.9751764,16.693242 67.0846135,17.2205297 67.2992701,17.7080292 C67.7109709,18.6428621 68.4623673,19.3864315 69.4014599,19.7883212 C69.8943149,20.0022897 70.4262105,20.1116514 70.9635036,20.1094891 C71.7164109,20.1314755 72.4685832,20.0454428 73.1970803,19.8540146 C73.6869063,19.7093196 74.1484987,19.482226 74.5620438,19.1824818 L74.5620438,12.4087591 Z" id="Shape" fill="#753D96"></path>
            <path d="M106.094891,10.4087591 C106.785037,11.1663505 107.329435,12.0448105 107.70073,13 C108.090908,14.019357 108.274517,15.1061192 108.240876,16.1970803 L108.240876,24.4087591 L103.715328,24.4087591 L103.715328,16.1970803 C103.732515,15.64688 103.650933,15.0980542 103.474453,14.5766423 C103.308421,14.1505918 103.060431,13.7612464 102.744526,13.4306569 C102.10246,12.765001 101.252967,12.3376801 100.335766,12.2189781 L99.8978102,12.1751825 C99.7421924,12.167293 99.5862748,12.167293 99.4306569,12.1751825 C99.0988496,12.1734411 98.7672711,12.1929458 98.4379562,12.2335766 C98.0948905,12.2773723 97.7737226,12.3357664 97.4744526,12.3941606 L97.4744526,24.4087591 L92.9416058,24.4087591 L92.9416058,16.1970803 C92.9557178,15.6452816 92.8665972,15.0957042 92.6788321,14.5766423 C92.5159775,14.1489885 92.2676062,13.7590456 91.9489051,13.4306569 C91.3068394,12.765001 90.4573461,12.3376801 89.540146,12.2189781 C89.4000144,12.1960396 89.258648,12.1814155 89.1167883,12.1751825 C88.9708029,12.1751825 88.810219,12.1751825 88.6350365,12.1751825 C88.3032291,12.1734411 87.9716507,12.1929458 87.6423358,12.2335766 C87.2992701,12.2773723 86.9781022,12.3357664 86.6715328,12.3941606 L86.6715328,24.4087591 L82.1459854,24.4087591 L82.1459854,9.03649635 L83.6934307,8.51824818 L84.1386861,8.37226277 C84.4982432,8.25767713 84.8637419,8.16264748 85.2335766,8.08759124 C85.6861314,7.98540146 86.2043796,7.89781022 86.7956204,7.81751825 C87.416813,7.72737365 88.0438394,7.68345741 88.6715328,7.68613139 C89.1983712,7.690371 89.7246313,7.72204406 90.2481752,7.7810219 C91.369228,7.95211101 92.4485209,8.3308537 93.4306569,8.89781022 L94.4525547,8.51824818 C94.4525547,8.51824818 94.6277372,8.46715328 94.9124088,8.37226277 C95.2689261,8.25572852 95.6321077,8.16066757 96,8.08759124 C96.4525547,7.98540146 96.9708029,7.89781022 97.5547445,7.81751825 C98.1784129,7.72762358 98.8078472,7.68370956 99.4379562,7.68613139 C99.9647945,7.690371 100.491055,7.72204406 101.014599,7.7810219 C101.969717,7.92724403 102.895883,8.22282885 103.759124,8.65693431 C104.639415,9.09757547 105.431171,9.69634053 106.094891,10.4233577" id="Shape" fill="#753D96"></path>
            <path d="M119.978102,20.1970803 C120.498426,20.2016297 121.018296,20.1650192 121.532847,20.0875912 C122.036496,20.0145985 122.59854,19.9124088 123.218978,19.7883212 L124.124088,24.1678832 C123.394161,24.3357664 122.722628,24.4671533 122.109489,24.5547445 C121.402465,24.6422298 120.690502,24.6836796 119.978102,24.6788321 L119.248175,24.6788321 L118.518248,24.6277372 C117.432893,24.5332032 116.36897,24.2696852 115.364964,23.8467153 C113.38285,22.9935454 111.790059,21.4319855 110.89781,19.4671533 C110.434702,18.4433025 110.210079,17.3276743 110.240876,16.2043796 C110.233004,15.091707 110.451547,13.9890609 110.883212,12.9635036 C111.290921,11.9687126 111.882797,11.0598486 112.627737,10.2846715 C113.384616,9.51741782 114.278329,8.89850329 115.262774,8.45985401 C116.301952,8.00139196 117.426244,7.76757913 118.562044,7.77372263 L118.883212,7.77372263 C120.913718,7.83798811 122.834511,8.71035914 124.218978,10.1970803 C124.827452,10.8571722 125.320914,11.6146364 125.678832,12.4379562 C126.044164,13.2527312 126.230829,14.1362776 126.226277,15.0291971 C126.230746,15.413326 126.198976,15.7970202 126.131387,16.1751825 C126.075986,16.4767513 126.00039,16.774258 125.905109,17.0656934 C125.827378,17.3418156 125.719682,17.6086084 125.583942,17.8613139 L115.153285,17.8613139 C115.352451,18.2202901 115.597854,18.5515844 115.883212,18.8467153 C116.268713,19.2178154 116.715747,19.5191313 117.20438,19.7372263 C117.741646,19.9770909 118.317787,20.1180354 118.905109,20.1532847 C119.080292,20.1532847 119.255474,20.1532847 119.437956,20.1970803 L119.970803,20.1970803 M115.883212,13.3357664 C115.755578,13.4636792 115.64293,13.6057139 115.547445,13.7591241 C115.428138,13.9797957 115.325658,14.2091577 115.240876,14.4452555 L121.540146,14.4452555 C121.489866,14.1911081 121.403854,13.94536 121.284672,13.7153285 C121.17669,13.5211465 121.046896,13.3399248 120.89781,13.1751825 C120.624793,12.8741124 120.298044,12.6265752 119.934307,12.4452555 C119.54053,12.2706671 119.116667,12.1739966 118.686131,12.1605839 L118.620438,12.1605839 C118.620438,12.1605839 118.620438,12.1605839 118.554745,12.1605839 C117.543199,12.1805994 116.581506,12.6036389 115.883212,13.3357664" id="Shape" fill="#753D96"></path>
            <path d="M134.182482,7 C133.835265,7.34168707 133.551098,7.74199116 133.343066,8.18248175 C133.146082,8.64351648 133.049059,9.14106895 133.058394,9.64233577 L133.058394,9.97810219 L137.554745,9.97810219 L137.554745,14.459854 L133.058394,14.459854 L133.058394,24.4087591 L128.525547,24.4087591 L128.525547,9.64233577 C128.497495,8.53104811 128.722119,7.42789501 129.182482,6.41605839 C129.626506,5.43348588 130.253193,4.54423474 131.029197,3.79562044 C131.783317,3.05034174 132.672694,2.45577217 133.649635,2.04379562 C134.643409,1.60545994 135.700264,1.32708078 136.781022,1.2189781 C137.022184,1.17760312 137.266275,1.1556349 137.510949,1.15328467 L138.240876,1.15328467 L138.240876,5.6350365 L137.715328,5.6350365 C137.537106,5.63553086 137.359108,5.64772251 137.182482,5.67153285 C136.054953,5.74092248 134.986644,6.20024365 134.160584,6.97080292" id="Shape" fill="#454545"></path>
            <path d="M154.240876,10.2481752 C154.991054,11.0169979 155.596807,11.9145024 156.029197,12.8978102 C156.909184,14.9991831 156.909184,17.3657804 156.029197,19.4671533 C155.602412,20.4671436 154.985098,21.3745206 154.211679,22.1386861 C153.433687,22.9089058 152.517437,23.5255176 151.510949,23.9562044 C149.392914,24.8414511 147.008546,24.8414511 144.890511,23.9562044 C143.884023,23.5255176 142.967772,22.9089058 142.189781,22.1386861 C139.752784,19.7187519 139.035744,16.0583782 140.379562,12.8978102 C140.814819,11.8945817 141.436525,10.9830759 142.211679,10.2116788 C142.98816,9.44513716 143.905135,8.83547303 144.912409,8.41605839 C147.037956,7.53041363 149.429197,7.53041363 151.554745,8.41605839 C152.557923,8.84162445 153.46987,9.45619739 154.240876,10.2262774 M148.19708,20.1240876 C148.721091,20.1260738 149.240064,20.0217827 149.722628,19.8175182 C150.1966,19.6230731 150.628033,19.3379303 150.992701,18.9781022 C151.738114,18.2367005 152.153772,17.2264942 152.145985,16.1751825 C152.186428,14.5785943 151.23243,13.1243282 149.751825,12.5255474 C149.268798,12.3235908 148.749805,12.2217787 148.226277,12.2262774 C147.693049,12.2190325 147.163969,12.3208743 146.671533,12.5255474 C146.198447,12.7169064 145.77075,13.0053529 145.416058,13.3722628 C145.055207,13.7335229 144.765503,14.1594137 144.562044,14.6277372 C144.347341,15.112651 144.237879,15.6375724 144.240876,16.1678832 C144.236732,16.6991827 144.34105,17.2257398 144.547445,17.7153285 C144.747329,18.1838287 145.034697,18.6099266 145.394161,18.9708029 C145.757309,19.3256329 146.182962,19.6102261 146.649635,19.810219 C147.138544,20.0188265 147.665566,20.1232366 148.19708,20.1167883" id="Shape" fill="#454545"></path>
            <path d="M164.372263,19.1094891 C164.972752,19.7098256 165.793521,20.0370777 166.642336,20.0145985 L166.642336,24.3943083 C165.608958,24.4006309 164.585301,24.1944088 163.635036,23.7883212 C162.725247,23.400333 161.895939,22.8458106 161.189781,22.1532847 C160.493236,21.4541899 159.931537,20.6326755 159.532847,19.729927 C159.126843,18.7924587 158.920516,17.780713 158.927007,16.7591241 L158.927007,2.16058394 C159.540639,1.94222513 160.167128,1.76183554 160.80292,1.62043796 C161.679261,1.42775339 162.56656,1.28880824 163.459854,1.20437956 L163.459854,16.8686131 C163.441294,17.7095558 163.77156,18.5206889 164.372263,19.1094891" id="Shape" fill="#454545"></path>
            <path d="M181.678832,2.13868613 C182.295003,1.91456551 182.923827,1.72689329 183.562044,1.57664234 C184.434591,1.38151291 185.320116,1.24978202 186.211679,1.18248175 L186.211679,23.3576642 L184.708029,23.8613139 C184.656934,23.8613139 184.50365,23.9416058 184.218978,24.0291971 C183.934307,24.1167883 183.569343,24.1970803 183.094891,24.2992701 C182.620438,24.4014599 182.072993,24.4817518 181.423358,24.5693431 C180.721021,24.6545997 180.014057,24.6960424 179.306569,24.6934307 L178.576642,24.6934307 L177.846715,24.6423358 C176.760568,24.54315 175.696617,24.2746993 174.693431,23.8467153 C172.711317,22.9935454 171.118526,21.4319855 170.226277,19.4671533 C169.764022,18.4428014 169.537056,17.3279243 169.562044,16.2043796 C169.553677,15.0729536 169.779843,13.9520677 170.226277,12.9124088 C171.084775,10.8801694 172.711333,9.2693523 174.751825,8.43065693 C175.806042,7.99071339 176.937978,7.76730495 178.080292,7.77372263 C179.294594,7.75558208 180.505572,7.90541922 181.678832,8.2189781 L181.678832,2.13868613 Z M181.678832,13.1751825 C181.254249,12.8778415 180.783072,12.653354 180.284672,12.5109489 C179.571304,12.3184411 178.833415,12.232354 178.094891,12.2554745 C177.037542,12.242332 176.019413,12.6553711 175.270073,13.4014599 C174.520281,14.1375068 174.101437,15.1464195 174.109489,16.1970803 C174.099018,16.6991827 174.198678,17.1974826 174.40146,17.6569343 C174.607638,18.0945056 174.889318,18.4923172 175.233577,18.8321168 C175.617739,19.2048703 176.065082,19.5063943 176.554745,19.7226277 C177.094335,19.9631923 177.672997,20.1041485 178.262774,20.1386861 C178.430657,20.1386861 178.605839,20.1386861 178.788321,20.1824818 L179.321168,20.1824818 C179.750122,20.1857164 180.178947,20.1662244 180.605839,20.1240876 C181.007299,20.080292 181.372263,20.0291971 181.693431,19.9635036 L181.678832,13.1751825 Z" id="Shape" fill="#454545"></path>
            <path d="M198.233577,20.1970803 C198.756331,20.2018623 199.278644,20.1652516 199.79562,20.0875912 C200.29927,20.0145985 200.854015,19.9124088 201.474453,19.7883212 L202.379562,24.1678832 C201.649635,24.3357664 200.978102,24.4671533 200.372263,24.5547445 C199.66277,24.6419753 198.948397,24.6834236 198.233577,24.6788321 L197.50365,24.6788321 L196.773723,24.6277372 C195.688368,24.5332032 194.624444,24.2696852 193.620438,23.8467153 C192.64542,23.4311786 191.756675,22.8370319 191,22.0948905 C190.225384,21.3422848 189.59896,20.4509311 189.153285,19.4671533 C188.690177,18.4433025 188.465553,17.3276743 188.49635,16.2043796 C188.488479,15.091707 188.707021,13.9890609 189.138686,12.9635036 C189.549046,11.9683792 190.14337,11.0595577 190.890511,10.2846715 C191.644666,9.5141831 192.539033,8.89481546 193.525547,8.45985401 C194.56173,8.00007135 195.683932,7.76617559 196.817518,7.77372263 L197.138686,7.77372263 C199.169193,7.83798811 201.089986,8.71035914 202.474453,10.1970803 C203.082926,10.8571722 203.576388,11.6146364 203.934307,12.4379562 C204.299639,13.2527312 204.486304,14.1362776 204.481752,15.0291971 C204.486221,15.413326 204.45445,15.7970202 204.386861,16.1751825 C204.345511,16.4732769 204.284552,16.7683207 204.20438,17.0583942 C204.129036,17.3342373 204.023789,17.601026 203.890511,17.8540146 L193.408759,17.8540146 C193.608137,18.2128546 193.853521,18.5441224 194.138686,18.8394161 C194.515944,19.2138291 194.958831,19.5156845 195.445255,19.729927 C195.982522,19.9697917 196.558663,20.1107362 197.145985,20.1459854 C197.313869,20.1459854 197.489051,20.1459854 197.671533,20.189781 L198.20438,20.189781 M194.124088,13.3211679 C193.994134,13.4488987 193.879047,13.590921 193.781022,13.7445255 C193.664623,13.9656112 193.564598,14.1949369 193.481752,14.4306569 L199.824818,14.4306569 C199.774537,14.1765095 199.688526,13.9307615 199.569343,13.7007299 C199.461362,13.5065479 199.331568,13.3253263 199.182482,13.1605839 C198.618439,12.5459064 197.826825,12.1896802 196.992701,12.1751825 L196.905109,12.1751825 C196.905109,12.1751825 196.905109,12.1751825 196.839416,12.1751825 C195.829702,12.1938893 194.869796,12.6172997 194.175182,13.350365" id="Shape" fill="#454545"></path>
            <path d="M206.751825,24.4087591 L206.751825,9.00729927 L208.291971,8.51824818 C208.454868,8.4834248 208.615701,8.43956134 208.773723,8.38686131 C209.051095,8.30656934 209.430657,8.21167883 209.919708,8.11678832 C210.408759,8.02189781 210.963504,7.93430657 211.613139,7.84671533 C212.322543,7.75851841 213.03698,7.71706645 213.751825,7.72262774 C213.970803,7.72262774 214.189781,7.72262774 214.416058,7.72262774 L215.109489,7.76642336 C215.598911,7.79033009 216.086427,7.84395691 216.569343,7.9270073 L217.182482,8.05109489 L216.343066,11.080292 L216.021898,12.4087591 C216.021898,12.4087591 216.021898,12.4087591 216.021898,12.4087591 C215.969092,12.4211914 215.91412,12.4211914 215.861314,12.4087591 C215.498607,12.3549984 215.132971,12.3233099 214.766423,12.3138686 L214.270073,12.2627737 L213.766423,12.2627737 C213.322759,12.2615331 212.879333,12.2834608 212.437956,12.3284672 C212.021898,12.3722628 211.635036,12.4233577 211.29927,12.4817518 L211.29927,24.4087591 L206.751825,24.4087591 Z" id="Shape" fill="#454545"></path>
            <path d="M245.671533,19.1094891 C246.268804,19.7101681 247.087538,20.0376618 247.934307,20.0145985 L247.934307,24.3943083 C246.900929,24.4006309 245.877272,24.1944088 244.927007,23.7883212 C244.020785,23.3977544 243.194324,22.8434808 242.489051,22.1532847 C241.790145,21.456148 241.228126,20.6341649 240.832117,19.729927 C240.422573,18.7935765 240.216091,17.7810707 240.226277,16.7591241 L240.226277,2.16058394 C240.839278,1.9402676 241.465891,1.75984211 242.10219,1.62043796 C242.976171,1.4282767 243.861009,1.28933515 244.751825,1.20437956 L244.751825,16.8686131 C244.732515,17.7111379 245.065908,18.5234522 245.671533,19.1094891" id="Shape" fill="#753D96"></path>
            <path d="M237.489051,24.4087591 C237.489051,23.7664234 237.489051,23.1970803 237.489051,22.6861314 L237.489051,16.1970803 C237.520015,15.0761254 237.295359,13.9628331 236.832117,12.9416058 C235.939868,10.9767736 234.347077,9.41521375 232.364964,8.5620438 C231.357109,8.14430911 230.291227,7.88337728 229.20438,7.78832117 C228.962644,7.75260928 228.718791,7.73310105 228.474453,7.72992701 L227.744526,7.72992701 C227.046669,7.72452172 226.349237,7.76597748 225.656934,7.8540146 C225.014599,7.94160584 224.452555,8.02919708 223.985401,8.12408759 C223.518248,8.2189781 223.131387,8.31386861 222.839416,8.39416058 C222.547445,8.47445255 222.40146,8.52554745 222.372263,8.52554745 L220.832117,9.05839416 L220.832117,16.9635036 C221.517265,16.6416323 222.264911,16.4746581 223.021898,16.4744526 C223.83632,16.4694742 224.639129,16.6676677 225.357664,17.0510949 L225.357664,12.4087591 C225.70073,12.350365 226.087591,12.2992701 226.467153,12.2554745 C226.888979,12.2102181 227.312982,12.1882869 227.737226,12.189781 L228.270073,12.189781 L228.80292,12.2408759 C229.389111,12.2783579 229.96445,12.4166367 230.50365,12.649635 C230.984256,12.8657122 231.427685,13.1564042 231.817518,13.5109489 C232.175643,13.8549182 232.465416,14.2635724 232.671533,14.7153285 C232.866743,15.177144 232.966076,15.6738104 232.963504,16.1751825 L232.963504,24.4087591 L237.489051,24.4087591 Z" id="Shape" fill="#753D96"></path>
            <path d="M223.007299,24.4087591 C222.318035,24.4269534 221.651144,24.1633598 221.160584,23.6788321 C220.675402,23.2074068 220.401643,22.559705 220.401643,21.8832117 C220.401643,21.2067183 220.675402,20.5590166 221.160584,20.0875912 C221.649226,19.6001314 222.31743,19.3360194 223.007299,19.3576642 C223.687745,19.3406411 224.345156,19.6046616 224.824818,20.0875912 C225.306294,20.5610165 225.577472,21.2079702 225.577472,21.8832117 C225.577472,22.5584532 225.306294,23.2054069 224.824818,23.6788321 C224.343234,24.1588534 223.687122,24.422352 223.007299,24.4087591" id="Shape" fill="#454545"></path>
        </g>
    </g>
</svg>