<?xml version="1.0" encoding="UTF-8"?>
<svg width="248px" height="234px" viewBox="0 0 248 234" version="1.1" xmlns="http://www.w3.org/2000/svg" xmlns:xlink="http://www.w3.org/1999/xlink">
    <!-- Generator: Sketch 51.2 (57519) - http://www.bohemiancoding.com/sketch -->
    <title>reclamesvg</title>
    <desc>Created with Sketch.</desc>
    <defs></defs>
    <g id="Brands" stroke="none" stroke-width="1" fill="none" fill-rule="evenodd">
        <g id="Reclamefolder" transform="translate(-25.000000, -36.000000)">
            <g id="reclamesvg">
                <rect id="Rectangle" fill-opacity="0" fill="#FFFFFF" x="0" y="0" width="300" height="300"></rect>
                <path d="M73.3593645,117.894668 C73.3593645,118.759494 73.5213483,119.786474 73.5213483,120.597248 C73.5213483,121.408022 73.7103294,121.462074 73.7103294,121.975564 C73.7103294,122.489054 73.8723132,123.705215 74.034297,124.678144 C74.034297,125.029479 74.223278,125.542969 74.223278,125.894305 C74.3852618,126.75913 74.5742429,127.623956 74.7362267,128.596885 C74.7646385,129.022794 74.8843403,129.437583 75.0871916,129.813046 C75.2251702,130.736193 75.4604599,131.642108 75.7891213,132.515626 C75.9511051,132.866961 75.9511051,133.19127 76.1130889,133.542606 C76.321617,134.467006 76.6106947,135.371328 76.9770024,136.245186 C77.1659835,136.596521 77.1659835,136.947857 77.3279673,137.299192 C77.7200655,138.163309 78.010001,139.070314 78.1918808,140.001772 C78.3808619,140.353107 78.3808619,140.515262 78.5428457,140.866597 C78.8719822,141.799727 79.2783524,142.703725 79.7577241,143.569177 C79.9197078,143.731332 79.9197078,144.082668 80.0816916,144.271848 C80.4923939,145.201371 80.9612787,146.104024 81.4855511,146.974428 C81.6475349,147.136583 81.6475349,147.325763 81.836516,147.487918 C82.3494646,148.541924 82.8624133,149.40675 83.3753619,150.190498 C83.3753619,150.352653 83.564343,150.514808 83.564343,150.703988 C84.0772917,151.730969 84.7792214,152.595794 85.2921701,153.6498 C85.2921701,153.811955 85.4541539,153.811955 85.4541539,153.97411 C86.1560836,155.028116 86.6690323,155.892942 87.370962,156.919922 L87.5329458,157.109103 C88.2348755,158.136083 88.909808,159.000909 89.6117377,160.054915 L89.7737215,160.21707 C90.4930916,161.195559 91.3069347,162.100784 92.2034783,162.91965 C93.9313053,164.811455 95.6591324,166.730287 97.3869594,168.324809 L97.3869594,112.192225 C97.5286069,83.2209819 121.104499,59.8500983 150.045189,59.9918947 C178.985878,60.1336911 202.332115,83.734472 202.190469,112.705715 C202.149697,131.439872 192.22176,148.757591 176.084082,158.244186 L176.084082,158.406341 L188.016888,179 C192.290392,176.576119 196.275467,173.674823 199.895699,170.351744 C202.365101,168.217535 204.675048,165.905149 206.807007,163.43314 C207.832904,162.216979 208.885799,161.189998 209.749712,159.973837 C209.749712,159.784657 209.911696,159.784657 209.911696,159.622502 C211.828504,157.19018 213.556331,154.433549 215.311156,151.839072 C215.473139,151.649891 215.473139,151.487736 215.662121,151.298556 C216.360704,150.128565 216.991677,148.919427 217.551931,147.677099 C217.740912,147.487918 217.740912,147.163609 217.902896,146.974428 C219.269267,144.220633 220.468328,141.386779 221.493537,138.488327 C221.655521,138.164018 221.655521,137.812682 221.817504,137.461347 C222.168469,136.245186 222.519434,135.218205 222.870399,134.002044 C223.032383,133.650709 223.032383,133.299374 223.221364,132.785884 C224.018874,129.823746 224.649802,126.819164 225.111175,123.786292 C225.111175,123.434957 225.273159,122.921467 225.273159,122.407977 C225.482156,121.266096 225.599519,120.109302 225.624123,118.948674 C225.593991,118.472338 225.658215,117.994736 225.813104,117.543333 C225.948438,115.988735 226.002507,114.428118 225.975088,112.86787 C226.025955,111.570178 225.998909,110.270599 225.894096,108.976154 C224.059998,68.147543 190.4535,35.9941491 149.62673,36.0064969 C148.292818,35.9800819 146.958529,36.0342318 145.63113,36.1686517 C106.492518,38.2435414 75.2285053,69.55222 73.1703834,108.732922 C73.1703834,110.111238 73.0083996,111.435502 73.0083996,112.705715 C72.9775593,114.032083 73.0316648,115.359067 73.1703834,116.678507 C73.1703834,117.029843 73.3593645,117.543333 73.3593645,117.894668" id="Shape" fill="#753D96" fill-rule="nonzero"></path>
                <path d="M166.377327,83 C165.11898,83.0377506 163.86423,83.154863 162.620482,83.3506465 C157.152453,83.8552327 151.803889,85.258488 146.788061,87.5044583 C141.865618,89.6540765 137.380554,92.6991427 133.558598,96.486402 C129.591581,100.307419 126.433479,104.894653 124.273823,109.972804 C122.138788,114.701542 121.023091,119.830762 121,125.023629 L121,185.280873 C135.050878,191.048185 150.488639,192.493834 165.357612,189.434684 L144.050931,150.216227 L166.726177,150.216227 L166.726177,128.098528 L143.514239,128.098528 L143.514239,126.534106 C143.469814,123.975252 144.001897,121.439451 145.070646,119.116584 C146.132166,116.861518 147.586219,114.815361 149.364184,113.074676 C153.525274,109.120371 158.920964,106.737473 164.633078,106.331475 C165.520709,106.194683 166.419004,106.140507 167.316539,106.169639 L170,106.169639 L170,83 L166.377327,83 Z" id="Shape" fill="#454545" fill-rule="nonzero"></path>
                <path d="M41.8394161,254.386861 C41.8621373,255.915428 41.4440032,257.418176 40.6350365,258.715328 C39.8658932,259.983289 38.7756273,261.025714 37.4744526,261.737226 L41.8540146,269.408759 L36.9562044,269.408759 L30.7518248,258.335766 L33.2919708,258.335766 C33.8294129,258.339433 34.3616163,258.230008 34.8540146,258.014599 C35.3242628,257.809964 35.754329,257.523253 36.1240876,257.167883 C36.4893199,256.817448 36.7776656,256.394872 36.9708029,255.927007 C37.1779921,255.437662 37.2823429,254.910939 37.2773723,254.379562 C37.3029316,253.379689 36.8927085,252.418062 36.1532847,251.744526 C35.7732219,251.370143 35.3279548,251.068351 34.8394161,250.854015 C34.2995673,250.614207 33.7210445,250.473285 33.1313869,250.437956 C32.9659367,250.437956 32.7907543,250.423358 32.6058394,250.394161 L32.0729927,250.394161 C31.6487486,250.392666 31.2247457,250.414598 30.8029197,250.459854 C30.4087591,250.50365 30.0729927,250.554745 29.6934307,250.620438 L29.6934307,269.408759 L25.1605839,269.408759 L25.1605839,247.233577 L26.7080292,246.722628 C26.8578812,246.655139 27.0144772,246.603756 27.1751825,246.569343 C27.459854,246.481752 27.8394161,246.386861 28.3138686,246.291971 C28.7883212,246.19708 29.3430657,246.109489 29.9854015,246.029197 C30.677501,245.938322 31.3749608,245.894426 32.0729927,245.89781 L32.8029197,245.89781 C33.0510949,245.89781 33.2992701,245.89781 33.5328467,245.948905 C34.6110359,246.048704 35.6673106,246.314619 36.6642336,246.737226 C37.6476938,247.153195 38.5459467,247.747081 39.3138686,248.489051 C40.0749247,249.246764 40.6909082,250.137343 41.1313869,251.116788 C41.593015,252.139499 41.8271165,253.250236 41.8175182,254.372263" id="Shape" fill="#753D96" fill-rule="nonzero"></path>
                <path d="M53.0583942,265.19708 C53.5811489,265.201862 54.1034619,265.165252 54.620438,265.087591 C55.1240876,265.014599 55.6861314,264.912409 56.3065693,264.788321 L57.2043796,269.167883 C56.4744526,269.335766 55.810219,269.467153 55.1970803,269.554745 C54.4876302,269.642443 53.7732262,269.683893 53.0583942,269.678832 L52.3284672,269.678832 L51.5985401,269.627737 C50.5155465,269.533164 49.4540338,269.269633 48.4525547,268.846715 C47.4753498,268.431217 46.5842029,267.837119 45.8248175,267.094891 C45.0502014,266.342285 44.4237779,265.450931 43.9781022,264.467153 C43.5149941,263.443303 43.290371,262.327674 43.3211679,261.20438 C43.3132963,260.091707 43.5318388,258.989061 43.9635036,257.963504 C44.3764609,256.969751 44.9704859,256.061388 45.7153285,255.284672 C46.4708608,254.515817 47.3648954,253.896679 48.350365,253.459854 C49.3869577,253.001346 50.5088829,252.767508 51.6423358,252.773723 L51.9635036,252.773723 C53.9949517,252.83394 55.917232,253.706987 57.2992701,255.19708 C57.904554,255.859647 58.3976526,256.616554 58.7591241,257.437956 C59.1244563,258.252731 59.3111211,259.136278 59.3065693,260.029197 C59.3110384,260.413326 59.2792675,260.79702 59.2116788,261.175182 C59.1562779,261.476751 59.080682,261.774258 58.9854015,262.065693 C58.9076704,262.341816 58.7999742,262.608608 58.6642336,262.861314 L48.2408759,262.861314 C48.4375715,263.221875 48.6832096,263.553486 48.9708029,263.846715 C49.3549655,264.219469 49.8023085,264.520993 50.2919708,264.737226 C50.829237,264.977091 51.4053784,265.118035 51.9927007,265.153285 C52.1678832,265.153285 52.3430657,265.153285 52.5255474,265.19708 L53.0510949,265.19708 M48.9708029,258.328467 C48.8410129,258.454445 48.7281456,258.596756 48.6350365,258.751825 C48.5157297,258.972496 48.4132488,259.201858 48.3284672,259.437956 L54.6277372,259.437956 C54.574192,259.18471 54.488331,258.939393 54.3722628,258.708029 C54.2590672,258.5172 54.1296345,258.336483 53.9854015,258.167883 C53.7123842,257.866813 53.385635,257.619276 53.0218978,257.437956 C52.6258011,257.262625 52.1994054,257.165942 51.7664234,257.153285 L51.7007299,257.153285 C51.7007299,257.153285 51.7007299,257.153285 51.6350365,257.153285 C50.6260389,257.175231 49.6673254,257.598115 48.9708029,258.328467" id="Shape" fill="#753D96" fill-rule="nonzero"></path>
                <path d="M70.8613139,265.19708 C71.4326099,265.203959 72.0036012,265.167357 72.5693431,265.087591 C73.080292,265.014599 73.5182482,264.934307 73.8905109,264.846715 L74.919708,269.226277 C74.4233577,269.328467 73.8321168,269.430657 73.1459854,269.525547 C72.3886639,269.62641 71.6253137,269.675187 70.8613139,269.671533 L70.1313869,269.671533 L69.4014599,269.620438 C68.3189595,269.5276 67.2575515,269.266558 66.2554745,268.846715 C64.2733609,267.993545 62.6805698,266.431986 61.7883212,264.467153 C60.8645507,262.390049 60.8645507,260.01871 61.7883212,257.941606 C62.2315685,256.95859 62.858353,256.0692 63.6350365,255.321168 C64.3898341,254.57672 65.2790423,253.982263 66.2554745,253.569343 C67.2537115,253.151976 68.3095454,252.888633 69.3868613,252.788321 L70.1167883,252.744526 C70.3576642,252.744526 70.5985401,252.744526 70.8467153,252.744526 C71.6105407,252.738726 72.3738715,252.785062 73.1313869,252.883212 C73.8175182,252.980535 74.4087591,253.082725 74.9051095,253.189781 L73.8759124,257.569343 C73.5036496,257.489051 73.0656934,257.40146 72.5547445,257.328467 C71.988637,257.252329 71.4179108,257.215744 70.8467153,257.218978 L70.3211679,257.218978 L69.7883212,257.270073 C69.201976,257.306532 68.6264635,257.444852 68.0875912,257.678832 C67.6037489,257.893021 67.1576285,258.183861 66.7664234,258.540146 C66.417248,258.881349 66.135017,259.28489 65.9343066,259.729927 C65.7356627,260.190679 65.6361844,260.68807 65.6423358,261.189781 C65.6318645,261.691883 65.7315245,262.190183 65.9343066,262.649635 C66.1353862,263.090161 66.4176848,263.488845 66.7664234,263.824818 C67.150586,264.197571 67.5979289,264.499095 68.0875912,264.715328 C68.6248574,264.955193 69.2009989,265.096138 69.7883212,265.131387 C69.9635036,265.131387 70.1386861,265.131387 70.3211679,265.175182 L70.8467153,265.175182" id="Shape" fill="#753D96" fill-rule="nonzero"></path>
                <path d="M82.9270073,264.109489 C83.5279783,264.709094 84.3484198,265.036215 85.1970803,265.014599 L85.1970803,269.39435 C84.1659765,269.401513 83.1445244,269.195235 82.1970803,268.788321 C81.2862975,268.40217 80.4566647,267.847431 79.7518248,267.153285 C79.057372,266.461122 78.5001292,265.643833 78.1094891,264.744526 C77.6976492,263.808656 77.4886849,262.796174 77.4963504,261.773723 L77.4963504,247.175182 C78.1121788,246.955943 78.7411505,246.77554 79.379562,246.635036 C80.2533259,246.441722 81.1382353,246.302769 82.0291971,246.218978 L82.0291971,261.868613 C82.0106375,262.709556 82.3409034,263.520689 82.9416058,264.109489" id="Shape" fill="#753D96" fill-rule="nonzero"></path>
                <path d="M104.124088,254.036496 L104.124088,269.408759 L99.5620438,269.408759 L99.5620438,269.153285 C98.4052633,269.489436 97.2044379,269.649382 96,269.627737 C94.8567183,269.636728 93.7237893,269.410639 92.6715328,268.963504 C91.6596817,268.534734 90.7383007,267.918003 89.9562044,267.145985 C89.1774822,266.380365 88.5552087,265.470507 88.1240876,264.467153 C87.2205301,262.37058 87.2205301,259.994384 88.1240876,257.89781 C88.556864,256.912537 89.1794108,256.022121 89.9562044,255.277372 C91.5339552,253.79887 93.5789065,252.918405 95.7372263,252.788321 L96.4671533,252.744526 C96.7153285,252.744526 96.9562044,252.744526 97.1970803,252.744526 C97.8949426,252.7389 98.5923897,252.780356 99.2846715,252.868613 C99.9270073,252.956204 100.481752,253.043796 100.956204,253.138686 C101.430657,253.233577 101.80292,253.328467 102.080292,253.408759 C102.237094,253.465399 102.398197,253.509336 102.562044,253.540146 L104.124088,254.036496 Z M99.5620438,257.408759 C99.2408759,257.350365 98.8832117,257.29927 98.4744526,257.255474 C98.0574188,257.211371 97.6383373,257.189442 97.2189781,257.189781 L96.6861314,257.189781 L96.1605839,257.240876 C95.571762,257.276493 94.9937082,257.414831 94.4525547,257.649635 C93.9709827,257.863947 93.5272857,258.154815 93.1386861,258.510949 C92.7895638,258.853798 92.5051989,259.256855 92.2992701,259.70073 C92.1041849,260.163723 91.9953415,260.658465 91.9781022,261.160584 C91.9751764,261.693242 92.0846135,262.22053 92.2992701,262.708029 C92.7109709,263.642862 93.4623673,264.386431 94.4014599,264.788321 C94.8943149,265.00229 95.4262105,265.111651 95.9635036,265.109489 C96.7164109,265.131476 97.4685832,265.045443 98.1970803,264.854015 C98.6869063,264.70932 99.1484987,264.482226 99.5620438,264.182482 L99.5620438,257.408759 Z" id="Shape" fill="#753D96" fill-rule="nonzero"></path>
                <path d="M131.094891,255.408759 C131.785037,256.166351 132.329435,257.04481 132.70073,258 C133.090908,259.019357 133.274517,260.106119 133.240876,261.19708 L133.240876,269.408759 L128.715328,269.408759 L128.715328,261.19708 C128.732515,260.64688 128.650933,260.098054 128.474453,259.576642 C128.308421,259.150592 128.060431,258.761246 127.744526,258.430657 C127.10246,257.765001 126.252967,257.33768 125.335766,257.218978 L124.89781,257.175182 C124.742192,257.167293 124.586275,257.167293 124.430657,257.175182 C124.09885,257.173441 123.767271,257.192946 123.437956,257.233577 C123.094891,257.277372 122.773723,257.335766 122.474453,257.394161 L122.474453,269.408759 L117.941606,269.408759 L117.941606,261.19708 C117.955718,260.645282 117.866597,260.095704 117.678832,259.576642 C117.515977,259.148988 117.267606,258.759046 116.948905,258.430657 C116.306839,257.765001 115.457346,257.33768 114.540146,257.218978 C114.400014,257.19604 114.258648,257.181415 114.116788,257.175182 C113.970803,257.175182 113.810219,257.175182 113.635036,257.175182 C113.303229,257.173441 112.971651,257.192946 112.642336,257.233577 C112.29927,257.277372 111.978102,257.335766 111.671533,257.394161 L111.671533,269.408759 L107.145985,269.408759 L107.145985,254.036496 L108.693431,253.518248 L109.138686,253.372263 C109.498243,253.257677 109.863742,253.162647 110.233577,253.087591 C110.686131,252.985401 111.20438,252.89781 111.79562,252.817518 C112.416813,252.727374 113.043839,252.683457 113.671533,252.686131 C114.198371,252.690371 114.724631,252.722044 115.248175,252.781022 C116.369228,252.952111 117.448521,253.330854 118.430657,253.89781 L119.452555,253.518248 C119.452555,253.518248 119.627737,253.467153 119.912409,253.372263 C120.268926,253.255729 120.632108,253.160668 121,253.087591 C121.452555,252.985401 121.970803,252.89781 122.554745,252.817518 C123.178413,252.727624 123.807847,252.68371 124.437956,252.686131 C124.964795,252.690371 125.491055,252.722044 126.014599,252.781022 C126.969717,252.927244 127.895883,253.222829 128.759124,253.656934 C129.639415,254.097575 130.431171,254.696341 131.094891,255.423358" id="Shape" fill="#753D96" fill-rule="nonzero"></path>
                <path d="M144.978102,265.19708 C145.498426,265.20163 146.018296,265.165019 146.532847,265.087591 C147.036496,265.014599 147.59854,264.912409 148.218978,264.788321 L149.124088,269.167883 C148.394161,269.335766 147.722628,269.467153 147.109489,269.554745 C146.402465,269.64223 145.690502,269.68368 144.978102,269.678832 L144.248175,269.678832 L143.518248,269.627737 C142.432893,269.533203 141.36897,269.269685 140.364964,268.846715 C138.38285,267.993545 136.790059,266.431986 135.89781,264.467153 C135.434702,263.443303 135.210079,262.327674 135.240876,261.20438 C135.233004,260.091707 135.451547,258.989061 135.883212,257.963504 C136.290921,256.968713 136.882797,256.059849 137.627737,255.284672 C138.384616,254.517418 139.278329,253.898503 140.262774,253.459854 C141.301952,253.001392 142.426244,252.767579 143.562044,252.773723 L143.883212,252.773723 C145.913718,252.837988 147.834511,253.710359 149.218978,255.19708 C149.827452,255.857172 150.320914,256.614636 150.678832,257.437956 C151.044164,258.252731 151.230829,259.136278 151.226277,260.029197 C151.230746,260.413326 151.198976,260.79702 151.131387,261.175182 C151.075986,261.476751 151.00039,261.774258 150.905109,262.065693 C150.827378,262.341816 150.719682,262.608608 150.583942,262.861314 L140.153285,262.861314 C140.352451,263.22029 140.597854,263.551584 140.883212,263.846715 C141.268713,264.217815 141.715747,264.519131 142.20438,264.737226 C142.741646,264.977091 143.317787,265.118035 143.905109,265.153285 C144.080292,265.153285 144.255474,265.153285 144.437956,265.19708 L144.970803,265.19708 M140.883212,258.335766 C140.755578,258.463679 140.64293,258.605714 140.547445,258.759124 C140.428138,258.979796 140.325658,259.209158 140.240876,259.445255 L146.540146,259.445255 C146.489866,259.191108 146.403854,258.94536 146.284672,258.715328 C146.17669,258.521146 146.046896,258.339925 145.89781,258.175182 C145.624793,257.874112 145.298044,257.626575 144.934307,257.445255 C144.54053,257.270667 144.116667,257.173997 143.686131,257.160584 L143.620438,257.160584 C143.620438,257.160584 143.620438,257.160584 143.554745,257.160584 C142.543199,257.180599 141.581506,257.603639 140.883212,258.335766" id="Shape" fill="#753D96" fill-rule="nonzero"></path>
                <path d="M159.182482,252 C158.835265,252.341687 158.551098,252.741991 158.343066,253.182482 C158.146082,253.643516 158.049059,254.141069 158.058394,254.642336 L158.058394,254.978102 L162.554745,254.978102 L162.554745,259.459854 L158.058394,259.459854 L158.058394,269.408759 L153.525547,269.408759 L153.525547,254.642336 C153.497495,253.531048 153.722119,252.427895 154.182482,251.416058 C154.626506,250.433486 155.253193,249.544235 156.029197,248.79562 C156.783317,248.050342 157.672694,247.455772 158.649635,247.043796 C159.643409,246.60546 160.700264,246.327081 161.781022,246.218978 C162.022184,246.177603 162.266275,246.155635 162.510949,246.153285 L163.240876,246.153285 L163.240876,250.635036 L162.715328,250.635036 C162.537106,250.635531 162.359108,250.647723 162.182482,250.671533 C161.054953,250.740922 159.986644,251.200244 159.160584,251.970803" id="Shape" fill="#454545" fill-rule="nonzero"></path>
                <path d="M179.240876,255.248175 C179.991054,256.016998 180.596807,256.914502 181.029197,257.89781 C181.909184,259.999183 181.909184,262.36578 181.029197,264.467153 C180.602412,265.467144 179.985098,266.374521 179.211679,267.138686 C178.433687,267.908906 177.517437,268.525518 176.510949,268.956204 C174.392914,269.841451 172.008546,269.841451 169.890511,268.956204 C168.884023,268.525518 167.967772,267.908906 167.189781,267.138686 C164.752784,264.718752 164.035744,261.058378 165.379562,257.89781 C165.814819,256.894582 166.436525,255.983076 167.211679,255.211679 C167.98816,254.445137 168.905135,253.835473 169.912409,253.416058 C172.037956,252.530414 174.429197,252.530414 176.554745,253.416058 C177.557923,253.841624 178.46987,254.456197 179.240876,255.226277 M173.19708,265.124088 C173.721091,265.126074 174.240064,265.021783 174.722628,264.817518 C175.1966,264.623073 175.628033,264.33793 175.992701,263.978102 C176.738114,263.236701 177.153772,262.226494 177.145985,261.175182 C177.186428,259.578594 176.23243,258.124328 174.751825,257.525547 C174.268798,257.323591 173.749805,257.221779 173.226277,257.226277 C172.693049,257.219033 172.163969,257.320874 171.671533,257.525547 C171.198447,257.716906 170.77075,258.005353 170.416058,258.372263 C170.055207,258.733523 169.765503,259.159414 169.562044,259.627737 C169.347341,260.112651 169.237879,260.637572 169.240876,261.167883 C169.236732,261.699183 169.34105,262.22574 169.547445,262.715328 C169.747329,263.183829 170.034697,263.609927 170.394161,263.970803 C170.757309,264.325633 171.182962,264.610226 171.649635,264.810219 C172.138544,265.018826 172.665566,265.123237 173.19708,265.116788" id="Shape" fill="#454545" fill-rule="nonzero"></path>
                <path d="M189.372263,264.109489 C189.972752,264.709826 190.793521,265.037078 191.642336,265.014599 L191.642336,269.394308 C190.608958,269.400631 189.585301,269.194409 188.635036,268.788321 C187.725247,268.400333 186.895939,267.845811 186.189781,267.153285 C185.493236,266.45419 184.931537,265.632676 184.532847,264.729927 C184.126843,263.792459 183.920516,262.780713 183.927007,261.759124 L183.927007,247.160584 C184.540639,246.942225 185.167128,246.761836 185.80292,246.620438 C186.679261,246.427753 187.56656,246.288808 188.459854,246.20438 L188.459854,261.868613 C188.441294,262.709556 188.77156,263.520689 189.372263,264.109489" id="Shape" fill="#454545" fill-rule="nonzero"></path>
                <path d="M206.678832,247.138686 C207.295003,246.914566 207.923827,246.726893 208.562044,246.576642 C209.434591,246.381513 210.320116,246.249782 211.211679,246.182482 L211.211679,268.357664 L209.708029,268.861314 C209.656934,268.861314 209.50365,268.941606 209.218978,269.029197 C208.934307,269.116788 208.569343,269.19708 208.094891,269.29927 C207.620438,269.40146 207.072993,269.481752 206.423358,269.569343 C205.721021,269.6546 205.014057,269.696042 204.306569,269.693431 L203.576642,269.693431 L202.846715,269.642336 C201.760568,269.54315 200.696617,269.274699 199.693431,268.846715 C197.711317,267.993545 196.118526,266.431986 195.226277,264.467153 C194.764022,263.442801 194.537056,262.327924 194.562044,261.20438 C194.553677,260.072954 194.779843,258.952068 195.226277,257.912409 C196.084775,255.880169 197.711333,254.269352 199.751825,253.430657 C200.806042,252.990713 201.937978,252.767305 203.080292,252.773723 C204.294594,252.755582 205.505572,252.905419 206.678832,253.218978 L206.678832,247.138686 Z M206.678832,258.175182 C206.254249,257.877841 205.783072,257.653354 205.284672,257.510949 C204.571304,257.318441 203.833415,257.232354 203.094891,257.255474 C202.037542,257.242332 201.019413,257.655371 200.270073,258.40146 C199.520281,259.137507 199.101437,260.14642 199.109489,261.19708 C199.099018,261.699183 199.198678,262.197483 199.40146,262.656934 C199.607638,263.094506 199.889318,263.492317 200.233577,263.832117 C200.617739,264.20487 201.065082,264.506394 201.554745,264.722628 C202.094335,264.963192 202.672997,265.104149 203.262774,265.138686 C203.430657,265.138686 203.605839,265.138686 203.788321,265.182482 L204.321168,265.182482 C204.750122,265.185716 205.178947,265.166224 205.605839,265.124088 C206.007299,265.080292 206.372263,265.029197 206.693431,264.963504 L206.678832,258.175182 Z" id="Shape" fill="#454545" fill-rule="nonzero"></path>
                <path d="M223.233577,265.19708 C223.756331,265.201862 224.278644,265.165252 224.79562,265.087591 C225.29927,265.014599 225.854015,264.912409 226.474453,264.788321 L227.379562,269.167883 C226.649635,269.335766 225.978102,269.467153 225.372263,269.554745 C224.66277,269.641975 223.948397,269.683424 223.233577,269.678832 L222.50365,269.678832 L221.773723,269.627737 C220.688368,269.533203 219.624444,269.269685 218.620438,268.846715 C217.64542,268.431179 216.756675,267.837032 216,267.094891 C215.225384,266.342285 214.59896,265.450931 214.153285,264.467153 C213.690177,263.443303 213.465553,262.327674 213.49635,261.20438 C213.488479,260.091707 213.707021,258.989061 214.138686,257.963504 C214.549046,256.968379 215.14337,256.059558 215.890511,255.284672 C216.644666,254.514183 217.539033,253.894815 218.525547,253.459854 C219.56173,253.000071 220.683932,252.766176 221.817518,252.773723 L222.138686,252.773723 C224.169193,252.837988 226.089986,253.710359 227.474453,255.19708 C228.082926,255.857172 228.576388,256.614636 228.934307,257.437956 C229.299639,258.252731 229.486304,259.136278 229.481752,260.029197 C229.486221,260.413326 229.45445,260.79702 229.386861,261.175182 C229.345511,261.473277 229.284552,261.768321 229.20438,262.058394 C229.129036,262.334237 229.023789,262.601026 228.890511,262.854015 L218.408759,262.854015 C218.608137,263.212855 218.853521,263.544122 219.138686,263.839416 C219.515944,264.213829 219.958831,264.515685 220.445255,264.729927 C220.982522,264.969792 221.558663,265.110736 222.145985,265.145985 C222.313869,265.145985 222.489051,265.145985 222.671533,265.189781 L223.20438,265.189781 M219.124088,258.321168 C218.994134,258.448899 218.879047,258.590921 218.781022,258.744526 C218.664623,258.965611 218.564598,259.194937 218.481752,259.430657 L224.824818,259.430657 C224.774537,259.17651 224.688526,258.930761 224.569343,258.70073 C224.461362,258.506548 224.331568,258.325326 224.182482,258.160584 C223.618439,257.545906 222.826825,257.18968 221.992701,257.175182 L221.905109,257.175182 C221.905109,257.175182 221.905109,257.175182 221.839416,257.175182 C220.829702,257.193889 219.869796,257.6173 219.175182,258.350365" id="Shape" fill="#454545" fill-rule="nonzero"></path>
                <path d="M231.751825,269.408759 L231.751825,254.007299 L233.291971,253.518248 C233.454868,253.483425 233.615701,253.439561 233.773723,253.386861 C234.051095,253.306569 234.430657,253.211679 234.919708,253.116788 C235.408759,253.021898 235.963504,252.934307 236.613139,252.846715 C237.322543,252.758518 238.03698,252.717066 238.751825,252.722628 C238.970803,252.722628 239.189781,252.722628 239.416058,252.722628 L240.109489,252.766423 C240.598911,252.79033 241.086427,252.843957 241.569343,252.927007 L242.182482,253.051095 L241.343066,256.080292 L241.021898,257.408759 C241.021898,257.408759 241.021898,257.408759 241.021898,257.408759 C240.969092,257.421191 240.91412,257.421191 240.861314,257.408759 C240.498607,257.354998 240.132971,257.32331 239.766423,257.313869 L239.270073,257.262774 L238.766423,257.262774 C238.322759,257.261533 237.879333,257.283461 237.437956,257.328467 C237.021898,257.372263 236.635036,257.423358 236.29927,257.481752 L236.29927,269.408759 L231.751825,269.408759 Z" id="Shape" fill="#454545" fill-rule="nonzero"></path>
                <path d="M270.671533,264.109489 C271.268804,264.710168 272.087538,265.037662 272.934307,265.014599 L272.934307,269.394308 C271.900929,269.400631 270.877272,269.194409 269.927007,268.788321 C269.020785,268.397754 268.194324,267.843481 267.489051,267.153285 C266.790145,266.456148 266.228126,265.634165 265.832117,264.729927 C265.422573,263.793577 265.216091,262.781071 265.226277,261.759124 L265.226277,247.160584 C265.839278,246.940268 266.465891,246.759842 267.10219,246.620438 C267.976171,246.428277 268.861009,246.289335 269.751825,246.20438 L269.751825,261.868613 C269.732515,262.711138 270.065908,263.523452 270.671533,264.109489" id="Shape" fill="#753D96" fill-rule="nonzero"></path>
                <path d="M262.489051,269.408759 C262.489051,268.766423 262.489051,268.19708 262.489051,267.686131 L262.489051,261.19708 C262.520015,260.076125 262.295359,258.962833 261.832117,257.941606 C260.939868,255.976774 259.347077,254.415214 257.364964,253.562044 C256.357109,253.144309 255.291227,252.883377 254.20438,252.788321 C253.962644,252.752609 253.718791,252.733101 253.474453,252.729927 L252.744526,252.729927 C252.046669,252.724522 251.349237,252.765977 250.656934,252.854015 C250.014599,252.941606 249.452555,253.029197 248.985401,253.124088 C248.518248,253.218978 248.131387,253.313869 247.839416,253.394161 C247.547445,253.474453 247.40146,253.525547 247.372263,253.525547 L245.832117,254.058394 L245.832117,261.963504 C246.517265,261.641632 247.264911,261.474658 248.021898,261.474453 C248.83632,261.469474 249.639129,261.667668 250.357664,262.051095 L250.357664,257.408759 C250.70073,257.350365 251.087591,257.29927 251.467153,257.255474 C251.888979,257.210218 252.312982,257.188287 252.737226,257.189781 L253.270073,257.189781 L253.80292,257.240876 C254.389111,257.278358 254.96445,257.416637 255.50365,257.649635 C255.984256,257.865712 256.427685,258.156404 256.817518,258.510949 C257.175643,258.854918 257.465416,259.263572 257.671533,259.715328 C257.866743,260.177144 257.966076,260.67381 257.963504,261.175182 L257.963504,269.408759 L262.489051,269.408759 Z" id="Shape" fill="#753D96" fill-rule="nonzero"></path>
                <path d="M248.007299,269.408759 C247.318035,269.426953 246.651144,269.16336 246.160584,268.678832 C245.675402,268.207407 245.401643,267.559705 245.401643,266.883212 C245.401643,266.206718 245.675402,265.559017 246.160584,265.087591 C246.649226,264.600131 247.31743,264.336019 248.007299,264.357664 C248.687745,264.340641 249.345156,264.604662 249.824818,265.087591 C250.306294,265.561016 250.577472,266.20797 250.577472,266.883212 C250.577472,267.558453 250.306294,268.205407 249.824818,268.678832 C249.343234,269.158853 248.687122,269.422352 248.007299,269.408759" id="Shape" fill="#454545" fill-rule="nonzero"></path>
            </g>
        </g>
    </g>
</svg>