<svg width="300" height="300" xmlns="http://www.w3.org/2000/svg"><g fill="none" fill-rule="nonzero"><path d="M73.35936451 117.8946682c0 .8648256.16198379 1.8918059.16198379 2.7025799 0 .810774.18898108.8648256.18898108 1.3783158 0 .5134901.16198379 1.7296511.32396757 2.7025799 0 .3513354.18898109.8648255.18898109 1.2161609.16198378.8648256.35096487 1.7296512.51294865 2.7025799.02841185.4259092.14811357.8406987.35096487 1.216161.13797864.923147.37326834 1.8290628.70192974 2.7025799.16198379.3513354.16198379.675645.32396757 1.0269804.20852809.9244006.49760579 1.8287221.86391353 2.7025801.18898108.351335.18898108.702671.35096487 1.054006.39209824.864117.68203369 1.771122.86391352 2.70258.18898109.351335.18898109.51349.35096487.864825.3291365.93313.73550676 1.837128 1.2148784 2.70258.16198378.162155.16198378.513491.32396757.702671.41070232.929523.8795871 1.832176 1.40385948 2.70258.16198379.162155.16198379.351335.35096487.51349.51294866 1.054006 1.02589731 1.918832 1.53884592 2.70258 0 .162155.1889811.32431.1889811.51349.5129487 1.026981 1.2148784 1.891806 1.7278271 2.945812 0 .162155.1619838.162155.1619838.32431.7019297 1.054006 1.2148784 1.918832 1.9168081 2.945812l.1619838.189181c.7019297 1.02698 1.3768622 1.891806 2.0787919 2.945812l.1619838.162155c.7193701.978489 1.5332132 1.883714 2.4297568 2.70258 1.727827 1.891805 3.4556541 3.810637 5.1834811 5.405159v-56.1325844c.1416475-28.9712427 23.7175395-52.3421263 52.6582291-52.2003299 28.9406895.1417964 52.2869265 23.7425773 52.1452805 52.7138201-.040772 18.7341569-9.968709 36.0518762-26.106387 45.5384712v.162155L188.016888 179c4.273504-2.423881 8.258579-5.325177 11.878811-8.648256 2.469402-2.134209 4.779349-4.446595 6.911308-6.918604 1.025897-1.216161 2.078792-2.243142 2.942705-3.459303 0-.18918.161984-.18918.161984-.351335 1.916808-2.432322 3.644635-5.188953 5.39946-7.78343.161983-.189181.161983-.351336.350965-.540516.698583-1.169991 1.329556-2.379129 1.88981-3.621457.188981-.189181.188981-.51349.350965-.702671 1.366371-2.753795 2.565432-5.587649 3.590641-8.486101.161984-.324309.161984-.675645.323967-1.02698.350965-1.216161.70193-2.2431416 1.052895-3.4593025.161984-.3513354.161984-.7026708.350965-1.216161.79751-2.9621377 1.428438-5.9667194 1.889811-8.9995911 0-.3513354.161984-.8648256.161984-1.3783158.208997-1.1418803.32636-2.2986747.350964-3.4593022-.030132-.4763368.034092-.953938.188981-1.4053416a44.82851388 44.82851388 0 0 0 .161984-4.6754632c.050867-1.2976916.023821-2.5972703-.080992-3.8917151-1.834098-40.8286115-35.440596-72.98200542-76.2673656-72.96965764-1.333912-.026415-2.6682014.02773492-3.9956.1621548C106.4925175 38.24354137 75.22850534 69.55222 73.17038343 108.7329223c0 1.3783157-.16198379 2.7025799-.16198379 3.9727925-.03084035 1.3263684.02326513 2.6533521.16198379 3.9727924 0 .3513354.18898108.8648256.18898108 1.216161" fill="#753D96"/><path d="M166.3773275 83c-1.2583478.0377506-2.5130971.154863-3.7568456.3506465-5.4680293.5045862-10.8165933 1.9078415-15.8324206 4.1538118-4.9224436 2.1496182-9.4075075 5.1946844-13.2294633 8.9819437-3.9670167 3.8210167-7.1251192 8.4082509-9.2847754 13.486402-2.1350346 4.7287377-3.2507314 9.8579578-3.2738226 15.0508246v60.2572444c14.0508778 5.767312 29.4886394 7.212961 44.3576123 4.153811l-21.3066813-39.218457h22.6752464v-22.1176988h-23.2119386v-1.5644226c-.0444247-2.558854.4876586-5.0946546 1.5564074-7.4175211 1.0615202-2.2550666 2.5155726-4.3012233 4.2935378-6.0419081 4.1610905-3.9543051 9.5567804-6.3372034 15.2688938-6.743201.8876308-.1367929 1.7859258-.1909681 2.6834611-.1618368H170V83h-3.6226725z" fill="#454545"/><g><path d="M41.8394161 254.38686131c.0227212 1.52856619-.3954129 3.03131499-1.2043796 4.32846719-.7691433 1.2679605-1.8594092 2.3103856-3.1605839 3.0218978l4.379562 7.6715328h-4.8978102l-6.20437958-11.0729927h2.54014598c.53744214.003667 1.06964548-.105758 1.5620438-.3211679.4702482-.204635.9003144-.4913458 1.270073-.8467153.3652323-.3504354.653578-.773011.8467153-1.2408759.2071892-.4893453.31154-1.01606831.3065694-1.54744526.0255593-.99987291-.3846638-1.96149987-1.1240876-2.63503649-.3800628-.37438268-.8253299-.67617485-1.31386864-.89051095-.53984879-.23980722-1.1183716-.38072945-1.7080292-.4160584-.16545012 0-.3406326-.01459854-.52554744-.04379562h-.53284672a11.52554927 11.52554927 0 0 0-1.27007299.06569343c-.39416059.04379563-.72992701.09489052-1.10948905.16058395v18.78832114h-4.53284672v-22.17518246l1.54744526-.5109489a2.32116787 2.32116787 0 0 1 .46715328-.15328467c.28467153-.08759125.66423358-.18248176 1.13868613-.27737227.47445256-.09489051 1.02919708-.18248175 1.67153285-.26277372a15.45985413 15.45985413 0 0 1 2.08759124-.13138686h.72992701c.24817518 0 .49635036 0 .72992701.05109489 1.07818922.09979903 2.13446388.36571434 3.13138688.78832117.9834602.41596845 1.8817131 1.00985471 2.649635 1.75182481.7610561.75771298 1.3770396 1.64829151 1.8175183 2.62773723.4616281 1.02271048.6957296 2.1334472.6861313 3.25547445M53.0583942 265.1970803a9.9050979 9.9050979 0 0 0 1.5620438-.1094891c.5036496-.0729927 1.0656934-.1751824 1.6861313-.29927l.8978103 4.379562c-.729927.1678832-1.3941606.2992701-2.0072993.3868613a16.48174017 16.48174017 0 0 1-2.1386861.1240876h-.729927l-.7299271-.0510949c-1.0829936-.0945735-2.1445063-.3581045-3.1459854-.7810219-.9772049-.4154988-1.8683518-1.0095966-2.6277372-1.7518248-.7746161-.7526057-1.4010396-1.6439594-1.8467153-2.6277372-.4631081-1.0238508-.6877312-2.139479-.6569343-3.2627737-.0078716-1.1126726.2106709-2.2153187.6423357-3.240876.4129573-.9937528 1.0069823-1.902116 1.7518249-2.6788321.7555323-.76885462 1.6495669-1.38799214 2.6350365-1.82481749 1.0365927-.45850799 2.1585179-.69234606 3.2919708-.68613138h.3211678c2.0314481.0602177 3.9537284.93326429 5.3357665 2.42335767.6052839.662567 1.0983825 1.4194734 1.459854 2.2408759.3653322.814775.551997 1.6983214.5474452 2.5912409a6.1094824 6.1094824 0 0 1-.0948905 1.1459854 6.84671427 6.84671427 0 0 1-.2262773.8905109 3.93431013 3.93431013 0 0 1-.3211679.7956205H48.2408759c.1966956.3605608.4423337.6921722.729927.9854014.3841626.3727535.8315056.6742775 1.3211679.890511.5372662.2398646 1.1134076.3808091 1.7007299.4160584.1751825 0 .350365 0 .5328467.0437956h.5255475m-4.080292-6.8686131a2.08759152 2.08759152 0 0 0-.3357664.4233576 4.985406 4.985406 0 0 0-.3065693.6861314h6.29927a3.02189607 3.02189607 0 0 0-.2554744-.729927 3.86132213 3.86132213 0 0 0-.3868613-.540146c-.2730173-.3010701-.5997665-.5486073-.9635037-.729927-.3960967-.1753314-.8224924-.2720142-1.2554744-.2846715h-.0656935-.0656934c-1.0089976.0219458-1.9677111.4448304-2.6642336 1.1751825M70.8613139 265.1970803a11.26276413 11.26276413 0 0 0 1.7080292-.1094891c.5109489-.0729927.9489051-.1532846 1.3211678-.2408759l1.0291971 4.3795621c-.4963503.1021898-1.0875912.2043795-1.7737226.29927a16.70071655 16.70071655 0 0 1-2.2846715.1459854h-.729927l-.729927-.0510948c-1.0825004-.092838-2.1439084-.3538803-3.1459854-.7737227-1.9821136-.8531699-3.5749047-2.4147298-4.4671533-4.379562-.9237705-2.0771043-.9237705-4.4484432 0-6.5255475.4432473-.9830162 1.0700318-1.872406 1.8467153-2.6204379.7547976-.74444825 1.6440058-1.33890501 2.620438-1.75182483.998237-.41736659 2.0540709-.68070977 3.1313868-.7810219l.729927-.04379562h.729927a16.78832115 16.78832115 0 0 1 2.2846716.13868613c.6861313.0973236 1.2773722.19951338 1.7737226.30656934l-1.0291971 4.37956208c-.3722628-.080292-.810219-.1678832-1.3211679-.2408759a12.29196436 12.29196436 0 0 0-1.7080292-.1094891h-.5255474l-.5328467.0510949c-.5863452.0364586-1.1618577.1747792-1.70073.4087591-.4838423.2141884-.9299627.5050293-1.3211678.8613139-.3491754.3412029-.6314064.7447438-.8321168 1.189781-.1986439.4607517-.2981222.9581433-.2919708 1.459854-.0104713.5021024.0891887 1.0004023.2919708 1.459854.2010796.4405256.4833782.8392104.8321168 1.1751825.3841626.3727535.8315055.6742775 1.3211678.890511.5372662.2398646 1.1134077.3808091 1.70073.4160584.1751824 0 .3503649 0 .5328467.0437956h.5255474M82.9270073 264.1094891c.600971.5996046 1.4214125.926726 2.270073.9051094v4.379752c-1.0311038.0071628-2.0525559-.1991158-3-.6060293-.9107828-.386151-1.7404156-.9408906-2.4452555-1.6350365-.6944528-.6921624-1.2516956-1.5094518-1.6423357-2.4087592-.4118399-.93587-.6208042-1.9483519-.6131387-2.9708029v-14.59854012a15.63503691 15.63503691 0 0 1 1.8832116-.54014598 21.6496339 21.6496339 0 0 1 2.6496351-.4160584v15.649635c-.0185596.8409427.3117063 1.6520758.9124087 2.240876M104.1240876 254.03649635v15.37226275h-4.5620438v-.2554744c-1.1567805.3361518-2.3576059.4960978-3.5620438.4744525-1.1432817.0089909-2.2762107-.217098-3.3284672-.6642336-1.0118511-.4287696-1.9332321-1.0455004-2.7153284-1.8175182-.7787222-.7656207-1.4009957-1.6754788-1.8321168-2.6788321-.9035575-2.0965735-.9035575-4.4727696 0-6.5693431.4327764-.9852734 1.0553232-1.875689 1.8321168-2.6204379 1.5777508-1.47850214 3.6227021-2.35896729 5.7810219-2.48905113l.729927-.04379562h.729927a15.51824738 15.51824738 0 0 1 2.0875912.12408759c.6423358.08759124 1.1970803.17518248 1.6715329.27007299.4744525.09489051.8467153.18978102 1.1240876.27007299a3.10948625 3.10948625 0 0 0 .4817518.13138687l1.5620438.49635036zm-4.5620438 3.37226275c-.3211679-.0583941-.6788321-.109489-1.0875912-.1532846a11.84671075 11.84671075 0 0 0-1.2554745-.0656935h-.5328467l-.5255475.0510949c-.5888219.0356175-1.1668757.1739552-1.7080292.4087591-.481572.2143118-.925269.5051798-1.3138686.8613139-.3491223.3428493-.6334872.7459056-.839416 1.189781-.1950852.4629926-.3039286.9577354-.3211679 1.459854-.0029258.5326581.1065113 1.0599458.3211679 1.5474453.4117008.9348329 1.1630972 1.6784023 2.1021898 2.080292.492855.2139685 1.0247506.3233302 1.5620437.3211679.7529073.0219864 1.5050796-.0640463 2.2335767-.2554745.489826-.144695.9514184-.3717886 1.3649635-.6715328v-6.7737227zM131.094891 255.4087591c.690146.7575914 1.234544 1.6360514 1.605839 2.5912409.390178 1.019357.573787 2.1061192.540146 3.1970803v8.2116788h-4.525548v-8.2116788c.017187-.5502003-.064395-1.0990261-.240875-1.620438-.166032-.4260505-.414022-.8153959-.729927-1.1459854-.642066-.6656559-1.491559-1.0929768-2.40876-1.2116788l-.4379558-.0437956a4.613141 4.613141 0 0 0-.4671533 0 7.7737283 7.7737283 0 0 0-.9927007.0583941c-.3430657.0437957-.6642336.1021898-.9635036.160584v12.0145985h-4.5328468v-8.2116788c.014112-.5517987-.0750086-1.1013761-.2627737-1.620438-.1628546-.4276538-.4112259-.8175967-.729927-1.1459854-.6420657-.6656559-1.491559-1.0929768-2.4087591-1.2116788a3.59853728 3.59853728 0 0 0-.4233577-.0437956h-.4817518a7.77372724 7.77372724 0 0 0-.9927007.0583941c-.3430657.0437957-.6642336.1021898-.970803.160584v12.0145985h-4.5255474v-15.37226275l1.5474453-.51824817.4452554-.14598541a10.45255847 10.45255847 0 0 1 1.0948905-.28467153c.4525548-.10218978.970803-.18978102 1.5620438-.27007299a12.68613208 12.68613208 0 0 1 1.8759124-.13138686 15.17518047 15.17518047 0 0 1 1.5766424.09489051c1.1210528.17108911 2.2003457.5498318 3.1824817 1.11678832l1.0218978-.37956204s.1751825-.0510949.4598541-.14598541A9.38685625 9.38685625 0 0 1 121 253.08759124c.4525547-.10218978.9708029-.18978102 1.5547445-.27007299a12.8540141 12.8540141 0 0 1 1.8832117-.13138686 15.17519146 15.17519146 0 0 1 1.5766428.09489051c.955118.14622213 1.881284.44180695 2.744525.87591241.880291.44064116 1.672047 1.03940622 2.335767 1.76642339M144.978102 265.1970803a9.8686068 9.8686068 0 0 0 1.554745-.1094891c.503649-.0729927 1.065693-.1751824 1.686131-.29927l.90511 4.379562c-.729927.1678832-1.40146.2992701-2.014599.3868613a16.44524015 16.44524015 0 0 1-2.131387.1240876h-.729927l-.729927-.0510949c-1.085355-.094534-2.149278-.358052-3.153284-.7810219-1.982114-.8531699-3.574905-2.4147298-4.467154-4.379562-.463108-1.0238508-.687731-2.139479-.656934-3.2627737-.007872-1.1126726.210671-2.2153187.642336-3.240876.407709-.994791.999585-1.903655 1.744525-2.6788321.756879-.76725368 1.650592-1.38616821 2.635037-1.82481749 1.039178-.45846205 2.16347-.69227488 3.29927-.68613138h.321168c2.030506.06426548 3.951299.93663651 5.335766 2.42335767.608474.6600919 1.101936 1.4175561 1.459854 2.2408759.365332.814775.551997 1.6983214.547445 2.5912409.004469.3841289-.027301.7678231-.09489 1.1459854a6.84665248 6.84665248 0 0 1-.226278.8905109 3.93433603 3.93433603 0 0 1-.321167.7956205h-10.430657c.199166.3589762.444569.6902705.729927.9854014.385501.3711001.832535.672416 1.321168.890511.537266.2398646 1.113407.3808091 1.700729.4160584.175183 0 .350365 0 .532847.0437956h.532847m-4.087591-6.8613139c-.127634.1279128-.240282.2699475-.335767.4233577-.119307.2206716-.221787.4500336-.306569.6861314h6.29927c-.05028-.2541474-.136292-.4998955-.255474-.729927-.107982-.194182-.237776-.3754037-.386862-.540146-.273017-.3010701-.599766-.5486073-.963503-.729927-.393777-.1745884-.81764-.2712589-1.248176-.2846716h-.065693-.065693c-1.011546.0200155-1.973239.443055-2.671533 1.1751825" fill="#753D96"/><path d="M159.182482 252c-.347217.34168707-.631384.74199116-.839416 1.18248175-.196984.46103473-.294007.9585872-.284672 1.45985402v.33576642h4.496351v4.48175181h-4.496351v9.9489051h-4.532847v-14.76642333c-.028052-1.11128766.196572-2.21444076.656935-3.22627738.444024-.98257251 1.070711-1.87182365 1.846715-2.62043795.75412-.7452787 1.643497-1.33984827 2.620438-1.75182482.993774-.43833568 2.050629-.71671484 3.131387-.82481752a4.57664496 4.57664496 0 0 1 .729927-.06569343h.729927v4.48175183h-.525548a4.07299205 4.07299205 0 0 0-.532846.03649635c-1.127529.06938963-2.195838.5287108-3.021898 1.29927007M179.240876 255.2481752c.750178.7688227 1.355931 1.6663272 1.788321 2.649635.879987 2.1013729.879987 4.4679702 0 6.5693431-.426785.9999903-1.044099 1.9073673-1.817518 2.6715328-.777992.7702197-1.694242 1.3868315-2.70073 1.8175183-2.118035.8852467-4.502403.8852467-6.620438 0-1.006488-.4306868-1.922739-1.0472986-2.70073-1.8175183-2.436997-2.4199342-3.154037-6.0803079-1.810219-9.2408759.435257-1.0032285 1.056963-1.9147343 1.832117-2.6861314.776481-.76654164 1.693456-1.37620577 2.70073-1.79562041 2.125547-.88564476 4.516788-.88564476 6.642336 0 1.003178.42556606 1.915125 1.040139 2.686131 1.81021901m-6.043796 9.8978102c.524011.0019862 1.042984-.1023049 1.525548-.3065694.473972-.1944451.905405-.4795879 1.270073-.839416.745413-.7414017 1.161071-1.751608 1.153284-2.8029197.040443-1.5965882-.913555-3.0508543-2.39416-3.6496351-.483027-.2019566-1.00202-.3037687-1.525548-.29927-.533228-.0072449-1.062308.0945969-1.554744.29927-.473086.191359-.900783.4798055-1.255475.8467154-.360851.3612601-.650555.7871509-.854014 1.2554744-.214703.4849138-.324165 1.0098352-.321168 1.540146-.004144.5312995.100174 1.0578566.306569 1.5474453.199884.4685002.487252.8945981.846716 1.2554744.363148.35483.788801.6394232 1.255474.8394161.488909.2086075 1.015931.3130176 1.547445.3065693M189.372263 264.1094891c.600489.6003365 1.421258.9275886 2.270073.9051094v4.3797098c-1.033378.0063226-2.057035-.1998995-3.0073-.6059871-.909789-.3879882-1.739097-.9425106-2.445255-1.6350365-.696545-.6990948-1.258244-1.5206092-1.656934-2.4233577-.406004-.9374683-.612331-1.949214-.60584-2.9708029v-14.59854016c.613632-.21835881 1.240121-.3987484 1.875913-.54014598a22.02186686 22.02186686 0 0 1 2.656934-.4160584v15.66423354c-.01856.8409427.311706 1.6520758.912409 2.240876M206.678832 247.13868613a16.71535644 16.71535644 0 0 1 1.883212-.56204379 18.53284406 18.53284406 0 0 1 2.649635-.39416059v22.17518245l-1.50365.5036497c-.051095 0-.204379.0802919-.489051.1678832-.284671.0875912-.649635.1678832-1.124087.270073-.474453.1021898-1.021898.1824817-1.671533.270073a17.04383363 17.04383363 0 0 1-2.116789.1240876h-.729927l-.729927-.0510949c-1.086147-.0991858-2.150098-.3676365-3.153284-.7956205-1.982114-.8531699-3.574905-2.4147298-4.467154-4.379562-.462255-1.0243519-.689221-2.139229-.664233-3.2627737-.008367-1.131426.217799-2.2523119.664233-3.2919708.858498-2.0322394 2.485056-3.6430565 4.525548-4.48175187 1.054217-.43994354 2.186153-.66335198 3.328467-.6569343 1.214302-.01814055 2.42528.13169659 3.59854.44525547v-6.08029197zm0 11.03649637c-.424583-.297341-.89576-.5218285-1.39416-.6642336-.713368-.1925078-1.451257-.2785949-2.189781-.2554744-1.057349-.0131425-2.075478.3998966-2.824818 1.1459854-.749792.7360469-1.168636 1.7449596-1.160584 2.7956204-.010471.5021024.089189 1.0004023.291971 1.459854.206178.4375713.487858.8353829.832117 1.1751825.384162.3727535.831505.6742775 1.321168.8905109.53959.2405646 1.118252.3815208 1.708029.4160584.167883 0 .343065 0 .525547.0437957h.532847a12.14600193 12.14600193 0 0 0 1.284671-.0583942c.40146-.0437956.766424-.0948905 1.087592-.160584l-.014599-6.7883211zM223.233577 265.1970803a9.90509283 9.90509283 0 0 0 1.562043-.1094891c.50365-.0729927 1.058395-.1751824 1.678833-.29927l.905109 4.379562c-.729927.1678832-1.40146.2992701-2.007299.3868613a16.64963181 16.64963181 0 0 1-2.138686.1240876h-.729927l-.729927-.0510949c-1.085355-.094534-2.149279-.358052-3.153285-.7810219-.975018-.4155367-1.863763-1.0096834-2.620438-1.7518248-.774616-.7526057-1.40104-1.6439594-1.846715-2.6277372-.463108-1.0238508-.687732-2.139479-.656935-3.2627737-.007871-1.1126726.210671-2.2153187.642336-3.240876.41036-.9951244 1.004684-1.9039459 1.751825-2.6788321.754155-.7704884 1.648522-1.38985604 2.635036-1.82481749 1.036183-.45978266 2.158385-.69367842 3.291971-.68613138h.321168c2.030507.06426548 3.9513.93663651 5.335767 2.42335767.608473.6600919 1.101935 1.4175561 1.459854 2.2408759.365332.814775.551997 1.6983214.547445 2.5912409a6.10946607 6.10946607 0 0 1-.094891 1.1459854c-.04135.2980944-.102309.5931382-.182481.8832117a3.92699022 3.92699022 0 0 1-.313869.7956204h-10.481752c.199378.35884.444762.6901078.729927.9854015.377258.374413.820145.6762684 1.306569.8905109.537267.2398647 1.113408.3808092 1.70073.4160584.167884 0 .343066 0 .525548.0437956h.532847m-4.080292-6.8686131a2.41607833 2.41607833 0 0 0-.343066.4233576 5.10935736 5.10935736 0 0 0-.29927.6861314h6.343066c-.050281-.2541474-.136292-.4998954-.255475-.729927-.107981-.194182-.237775-.3754036-.386861-.540146-.564043-.6146775-1.355657-.9709037-2.189781-.9854014h-.087592-.065693c-1.009714.0187068-1.96962.4421172-2.664234 1.1751825M231.751825 269.4087591v-15.40145983l1.540146-.48905109a4.48908321 4.48908321 0 0 0 .481752-.13138687c.277372-.08029197.656934-.17518248 1.145985-.27007299.489051-.09489051 1.043796-.18248175 1.693431-.27007299a16.30655462 16.30655462 0 0 1 2.138686-.12408759h.664233l.693431.04379562a12.09488464 12.09488464 0 0 1 1.459854.16058394l.613139.12408759-.839416 3.02919711-.321168 1.3284671c-.052806.0124323-.107778.0124323-.160584 0a9.05840348 9.05840348 0 0 0-1.094891-.0948905l-.49635-.0510949h-.50365a12.74450594 12.74450594 0 0 0-1.328467.0656935c-.416058.0437956-.80292.0948905-1.138686.1532846v11.9270073h-4.547445z" fill="#454545"/><path d="M270.671533 264.1094891c.597271.600679 1.416005.9281727 2.262774.9051094v4.3797098c-1.033378.0063226-2.057035-.1998995-3.0073-.6059871-.906222-.3905668-1.732683-.9448404-2.437956-1.6350365-.698906-.6971367-1.260925-1.5191198-1.656934-2.4233577-.409544-.9363505-.616026-1.9488563-.60584-2.9708029v-14.59854016a15.10218323 15.10218323 0 0 1 1.875913-.54014598 22.11675393 22.11675393 0 0 1 2.649635-.4160584v15.66423354c-.01931.8425248.314083 1.6548391.919708 2.240876M262.489051 269.4087591v-8.2116788c.030964-1.1209549-.193692-2.2342472-.656934-3.2554745-.892249-1.9648322-2.48504-3.52639205-4.467153-4.379562-1.007855-.41773469-2.073737-.67866652-3.160584-.77372263a5.48176369 5.48176369 0 0 0-.729927-.05839416h-.729927a15.59125491 15.59125491 0 0 0-2.087592.12408759c-.642335.08759124-1.204379.17518248-1.671533.27007299-.467153.09489051-.854014.18978102-1.145985.27007299-.291971.08029197-.437956.13138687-.467153.13138687l-1.540146.53284671v7.90510944c.685148-.3218713 1.432794-.4888455 2.189781-.489051.814422-.0049784 1.617231.1932151 2.335766.5766423v-4.6423358c.343066-.0583941.729927-.109489 1.109489-.1532846a11.52553153 11.52553153 0 0 1 1.270073-.0656935h.532847l.532847.0510949c.586191.037482 1.16153.1757608 1.70073.4087591.480606.2160772.924035.5067692 1.313868.8613139.358125.3439693.647898.7526235.854015 1.2043796.19521.4618155.294543.9584819.291971 1.459854v8.2335766h4.525547z" fill="#753D96"/><path d="M248.007299 269.4087591c-.689264.0181943-1.356155-.2453993-1.846715-.729927-.485182-.4714253-.758941-1.1191271-.758941-1.7956204 0-.6764934.273759-1.3241951.758941-1.7956205.488642-.4874598 1.156846-.7515718 1.846715-.729927.680446-.0170231 1.337857.2469974 1.817519.729927.481476.4734253.752654 1.120379.752654 1.7956205s-.271178 1.3221952-.752654 1.7956204c-.481584.4800213-1.137696.7435199-1.817519.729927" fill="#454545"/></g></g></svg>