<?xml version="1.0" encoding="UTF-8"?>
<svg width="300px" height="300px" viewBox="0 0 300 300" version="1.1" xmlns="http://www.w3.org/2000/svg" xmlns:xlink="http://www.w3.org/1999/xlink">
    <!-- Generator: Sketch 51.2 (57519) - http://www.bohemiancoding.com/sketch -->
    <title>reclamefolder</title>
    <desc>Created with Sketch.</desc>
    <defs></defs>
    <g id="reclamefolder" stroke="none" stroke-width="1" fill="none" fill-rule="evenodd">
        <path d="M73.3593645,117.894668 C73.3593645,118.759494 73.5213483,119.786474 73.5213483,120.597248 C73.5213483,121.408022 73.7103294,121.462074 73.7103294,121.975564 C73.7103294,122.489054 73.8723132,123.705215 74.034297,124.678144 C74.034297,125.029479 74.223278,125.542969 74.223278,125.894305 C74.3852618,126.75913 74.5742429,127.623956 74.7362267,128.596885 C74.7646385,129.022794 74.8843403,129.437583 75.0871916,129.813046 C75.2251702,130.736193 75.4604599,131.642108 75.7891213,132.515626 C75.9511051,132.866961 75.9511051,133.19127 76.1130889,133.542606 C76.321617,134.467006 76.6106947,135.371328 76.9770024,136.245186 C77.1659835,136.596521 77.1659835,136.947857 77.3279673,137.299192 C77.7200655,138.163309 78.010001,139.070314 78.1918808,140.001772 C78.3808619,140.353107 78.3808619,140.515262 78.5428457,140.866597 C78.8719822,141.799727 79.2783524,142.703725 79.7577241,143.569177 C79.9197078,143.731332 79.9197078,144.082668 80.0816916,144.271848 C80.4923939,145.201371 80.9612787,146.104024 81.4855511,146.974428 C81.6475349,147.136583 81.6475349,147.325763 81.836516,147.487918 C82.3494646,148.541924 82.8624133,149.40675 83.3753619,150.190498 C83.3753619,150.352653 83.564343,150.514808 83.564343,150.703988 C84.0772917,151.730969 84.7792214,152.595794 85.2921701,153.6498 C85.2921701,153.811955 85.4541539,153.811955 85.4541539,153.97411 C86.1560836,155.028116 86.6690323,155.892942 87.370962,156.919922 L87.5329458,157.109103 C88.2348755,158.136083 88.909808,159.000909 89.6117377,160.054915 L89.7737215,160.21707 C90.4930916,161.195559 91.3069347,162.100784 92.2034783,162.91965 C93.9313053,164.811455 95.6591324,166.730287 97.3869594,168.324809 L97.3869594,112.192225 C97.5286069,83.2209819 121.104499,59.8500983 150.045189,59.9918947 C178.985878,60.1336911 202.332115,83.734472 202.190469,112.705715 C202.149697,131.439872 192.22176,148.757591 176.084082,158.244186 L176.084082,158.406341 L188.016888,179 C192.290392,176.576119 196.275467,173.674823 199.895699,170.351744 C202.365101,168.217535 204.675048,165.905149 206.807007,163.43314 C207.832904,162.216979 208.885799,161.189998 209.749712,159.973837 C209.749712,159.784657 209.911696,159.784657 209.911696,159.622502 C211.828504,157.19018 213.556331,154.433549 215.311156,151.839072 C215.473139,151.649891 215.473139,151.487736 215.662121,151.298556 C216.360704,150.128565 216.991677,148.919427 217.551931,147.677099 C217.740912,147.487918 217.740912,147.163609 217.902896,146.974428 C219.269267,144.220633 220.468328,141.386779 221.493537,138.488327 C221.655521,138.164018 221.655521,137.812682 221.817504,137.461347 C222.168469,136.245186 222.519434,135.218205 222.870399,134.002044 C223.032383,133.650709 223.032383,133.299374 223.221364,132.785884 C224.018874,129.823746 224.649802,126.819164 225.111175,123.786292 C225.111175,123.434957 225.273159,122.921467 225.273159,122.407977 C225.482156,121.266096 225.599519,120.109302 225.624123,118.948674 C225.593991,118.472338 225.658215,117.994736 225.813104,117.543333 C225.948438,115.988735 226.002507,114.428118 225.975088,112.86787 C226.025955,111.570178 225.998909,110.270599 225.894096,108.976154 C224.059998,68.147543 190.4535,35.9941491 149.62673,36.0064969 C148.292818,35.9800819 146.958529,36.0342318 145.63113,36.1686517 C106.492518,38.2435414 75.2285053,69.55222 73.1703834,108.732922 C73.1703834,110.111238 73.0083996,111.435502 73.0083996,112.705715 C72.9775593,114.032083 73.0316648,115.359067 73.1703834,116.678507 C73.1703834,117.029843 73.3593645,117.543333 73.3593645,117.894668" id="Shape" fill="#753D96" fill-rule="nonzero"></path>
        <path d="M166.377327,83 C165.11898,83.0377506 163.86423,83.154863 162.620482,83.3506465 C157.152453,83.8552327 151.803889,85.258488 146.788061,87.5044583 C141.865618,89.6540765 137.380554,92.6991427 133.558598,96.486402 C129.591581,100.307419 126.433479,104.894653 124.273823,109.972804 C122.138788,114.701542 121.023091,119.830762 121,125.023629 L121,185.280873 C135.050878,191.048185 150.488639,192.493834 165.357612,189.434684 L144.050931,150.216227 L166.726177,150.216227 L166.726177,128.098528 L143.514239,128.098528 L143.514239,126.534106 C143.469814,123.975252 144.001897,121.439451 145.070646,119.116584 C146.132166,116.861518 147.586219,114.815361 149.364184,113.074676 C153.525274,109.120371 158.920964,106.737473 164.633078,106.331475 C165.520709,106.194683 166.419004,106.140507 167.316539,106.169639 L170,106.169639 L170,83 L166.377327,83 Z" id="Shape" fill="#454545" fill-rule="nonzero"></path>
        <path d="M70.8613139,265.19708 C71.4326099,265.203959 72.0036012,265.167357 72.5693431,265.087591 C73.080292,265.014599 73.5182482,264.934307 73.8905109,264.846715 L74.919708,269.226277 C74.4233577,269.328467 73.8321168,269.430657 73.1459854,269.525547 C72.3886639,269.62641 71.6253137,269.675187 70.8613139,269.671533 L70.1313869,269.671533 L69.4014599,269.620438 C68.3189595,269.5276 67.2575515,269.266558 66.2554745,268.846715 C64.2733609,267.993545 62.6805698,266.431986 61.7883212,264.467153 C60.8645507,262.390049 60.8645507,260.01871 61.7883212,257.941606 C62.2315685,256.95859 62.858353,256.0692 63.6350365,255.321168 C64.3898341,254.57672 65.2790423,253.982263 66.2554745,253.569343 C67.2537115,253.151976 68.3095454,252.888633 69.3868613,252.788321 L70.1167883,252.744526 C70.3576642,252.744526 70.5985401,252.744526 70.8467153,252.744526 C71.6105407,252.738726 72.3738715,252.785062 73.1313869,252.883212 C73.8175182,252.980535 74.4087591,253.082725 74.9051095,253.189781 L73.8759124,257.569343 C73.5036496,257.489051 73.0656934,257.40146 72.5547445,257.328467 C71.988637,257.252329 71.4179108,257.215744 70.8467153,257.218978 L70.3211679,257.218978 L69.7883212,257.270073 C69.201976,257.306532 68.6264635,257.444852 68.0875912,257.678832 C67.6037489,257.893021 67.1576285,258.183861 66.7664234,258.540146 C66.417248,258.881349 66.135017,259.28489 65.9343066,259.729927 C65.7356627,260.190679 65.6361844,260.68807 65.6423358,261.189781 C65.6318645,261.691883 65.7315245,262.190183 65.9343066,262.649635 C66.1353862,263.090161 66.4176848,263.488845 66.7664234,263.824818 C67.150586,264.197571 67.5979289,264.499095 68.0875912,264.715328 C68.6248574,264.955193 69.2009989,265.096138 69.7883212,265.131387 C69.9635036,265.131387 70.1386861,265.131387 70.3211679,265.175182 L70.8467153,265.175182" id="Shape" fill="#753D96" fill-rule="nonzero"></path>
        <path d="M82.9270073,264.109489 C83.5279783,264.709094 84.3484198,265.036215 85.1970803,265.014599 L85.1970803,269.39435 C84.1659765,269.401513 83.1445244,269.195235 82.1970803,268.788321 C81.2862975,268.40217 80.4566647,267.847431 79.7518248,267.153285 C79.057372,266.461122 78.5001292,265.643833 78.1094891,264.744526 C77.6976492,263.808656 77.4886849,262.796174 77.4963504,261.773723 L77.4963504,247.175182 C78.1121788,246.955943 78.7411505,246.77554 79.379562,246.635036 C80.2533259,246.441722 81.1382353,246.302769 82.0291971,246.218978 L82.0291971,261.868613 C82.0106375,262.709556 82.3409034,263.520689 82.9416058,264.109489" id="Shape" fill="#753D96" fill-rule="nonzero"></path>
        <path d="M104.124088,254.036496 L104.124088,269.408759 L99.5620438,269.408759 L99.5620438,269.153285 C98.4052633,269.489436 97.2044379,269.649382 96,269.627737 C94.8567183,269.636728 93.7237893,269.410639 92.6715328,268.963504 C91.6596817,268.534734 90.7383007,267.918003 89.9562044,267.145985 C89.1774822,266.380365 88.5552087,265.470507 88.1240876,264.467153 C87.2205301,262.37058 87.2205301,259.994384 88.1240876,257.89781 C88.556864,256.912537 89.1794108,256.022121 89.9562044,255.277372 C91.5339552,253.79887 93.5789065,252.918405 95.7372263,252.788321 L96.4671533,252.744526 C96.7153285,252.744526 96.9562044,252.744526 97.1970803,252.744526 C97.8949426,252.7389 98.5923897,252.780356 99.2846715,252.868613 C99.9270073,252.956204 100.481752,253.043796 100.956204,253.138686 C101.430657,253.233577 101.80292,253.328467 102.080292,253.408759 C102.237094,253.465399 102.398197,253.509336 102.562044,253.540146 L104.124088,254.036496 Z" id="Shape" fill="#753D96" fill-rule="nonzero"></path>
        <path d="M99.5620438,257.408759 C99.2408759,257.350365 98.8832117,257.29927 98.4744526,257.255474 C98.0574188,257.211371 97.6383373,257.189442 97.2189781,257.189781 L96.6861314,257.189781 L96.1605839,257.240876 C95.571762,257.276493 94.9937082,257.414831 94.4525547,257.649635 C93.9709827,257.863947 93.5272857,258.154815 93.1386861,258.510949 C92.7895638,258.853798 92.5051989,259.256855 92.2992701,259.70073 C92.1041849,260.163723 91.9953415,260.658465 91.9781022,261.160584 C91.9751764,261.693242 92.0846135,262.22053 92.2992701,262.708029 C92.7109709,263.642862 93.4623673,264.386431 94.4014599,264.788321 C94.8943149,265.00229 95.4262105,265.111651 95.9635036,265.109489 C96.7164109,265.131476 97.4685832,265.045443 98.1970803,264.854015 C98.6869063,264.70932 99.1484987,264.482226 99.5620438,264.182482 L99.5620438,257.408759 Z" id="Path" fill="#753D96" fill-rule="nonzero"></path>
        <path d="M131.094891,255.408759 C131.785037,256.166351 132.329435,257.04481 132.70073,258 C133.090908,259.019357 133.274517,260.106119 133.240876,261.19708 L133.240876,269.408759 L128.715328,269.408759 L128.715328,261.19708 C128.732515,260.64688 128.650933,260.098054 128.474453,259.576642 C128.308421,259.150592 128.060431,258.761246 127.744526,258.430657 C127.10246,257.765001 126.252967,257.33768 125.335766,257.218978 L124.89781,257.175182 C124.742192,257.167293 124.586275,257.167293 124.430657,257.175182 C124.09885,257.173441 123.767271,257.192946 123.437956,257.233577 C123.094891,257.277372 122.773723,257.335766 122.474453,257.394161 L122.474453,269.408759 L117.941606,269.408759 L117.941606,261.19708 C117.955718,260.645282 117.866597,260.095704 117.678832,259.576642 C117.515977,259.148988 117.267606,258.759046 116.948905,258.430657 C116.306839,257.765001 115.457346,257.33768 114.540146,257.218978 C114.400014,257.19604 114.258648,257.181415 114.116788,257.175182 C113.970803,257.175182 113.810219,257.175182 113.635036,257.175182 C113.303229,257.173441 112.971651,257.192946 112.642336,257.233577 C112.29927,257.277372 111.978102,257.335766 111.671533,257.394161 L111.671533,269.408759 L107.145985,269.408759 L107.145985,254.036496 L108.693431,253.518248 L109.138686,253.372263 C109.498243,253.257677 109.863742,253.162647 110.233577,253.087591 C110.686131,252.985401 111.20438,252.89781 111.79562,252.817518 C112.416813,252.727374 113.043839,252.683457 113.671533,252.686131 C114.198371,252.690371 114.724631,252.722044 115.248175,252.781022 C116.369228,252.952111 117.448521,253.330854 118.430657,253.89781 L119.452555,253.518248 C119.452555,253.518248 119.627737,253.467153 119.912409,253.372263 C120.268926,253.255729 120.632108,253.160668 121,253.087591 C121.452555,252.985401 121.970803,252.89781 122.554745,252.817518 C123.178413,252.727624 123.807847,252.68371 124.437956,252.686131 C124.964795,252.690371 125.491055,252.722044 126.014599,252.781022 C126.969717,252.927244 127.895883,253.222829 128.759124,253.656934 C129.639415,254.097575 130.431171,254.696341 131.094891,255.423358" id="Shape" fill="#753D96" fill-rule="nonzero"></path>
    </g>
</svg>