<?xml version="1.0" encoding="UTF-8"?>
<svg version="1.1" viewBox="0 0 300 300" xmlns="http://www.w3.org/2000/svg" xmlns:xlink="http://www.w3.org/1999/xlink">
<title>Topics</title>
<desc>Created with Sketch.</desc>
<defs>
<polygon id="c" points="0.046182 0.75399 126.55 0.75399 126.55 185.95 0.046182 185.95"/>
<polygon id="b" points="0.38367 0.16366 70.104 0.16366 70.104 38.276 0.38367 38.276"/>
</defs>
<g fill="none" fill-rule="evenodd">
<g transform="translate(69 35)">
<path d="m163 145.89c0 8.8608-7.2979 16.111-16.208 16.111h-130.58c-8.9197 0-16.21-7.25-16.21-16.111v-129.77c0-8.8631 7.2902-16.115 16.21-16.115h130.58c8.9105 0 16.208 7.2523 16.208 16.115v129.77" fill="#DE4540"/>
<g transform="translate(0 35)">
<mask id="d" fill="white">
<use xlink:href="#c"/>
</mask>
<path d="m110.37 59.454c-1.8211 1.6125-3.6969 3.0129-5.665 4.2211-1.9704 1.2082-4.4042 1.8177-7.3452 1.8177-2.2083 0-4.2241-0.69327-6.0383-2.0337-1.8434-1.362-2.7455-5.1726-2.7455-7.779v-26.707h17.421v-28.219h-63.419v28.219h17.534v32.182c0 0.53725 0.022321 1.0361 0.053879 1.5149 0.82512 16.196 17.434 29.498 37.843 29.498 0.63115 0 2.0189-0.034587 2.0866-0.034587 4.5281 0 9.1763-0.97612 13.919-2.2412 4.7282-1.2674 8.9239-3.8522 12.538-7.7897l-16.181-22.648" fill="#FFFFFE" mask="url(#d)"/>
</g>
</g>
<g transform="translate(43 236)" fill="#DE4540">
<path d="m29.119 25.918c-0.783 0.693-1.59 1.296-2.435 1.816-0.848 0.519-1.893 0.783-3.157 0.783-0.949 0-1.816-0.301-2.595-0.875-0.793-0.588-1.18-2.227-1.18-3.348v-11.496h7.488v-12.146h-27.24v12.146h7.535v13.85c0 0.234 0.01 0.447 0.022 0.652 0.357 6.973 7.494 12.7 16.25 12.7 0.269 0 0.865-0.018 0.896-0.018 1.945 0 3.943-0.418 5.983-0.965 2.031-0.545 3.834-1.658 5.388-3.352l-6.955-9.747"/>
<path d="m63.891 21.961c-0.387 0.875-0.924 1.63-1.602 2.265-0.682 0.643-1.482 1.147-2.393 1.531-0.929 0.385-1.892 0.573-2.929 0.573-1.016 0-1.987-0.188-2.906-0.573-0.916-0.384-1.709-0.888-2.362-1.531-0.664-0.635-1.193-1.39-1.599-2.265-0.407-0.864-0.606-1.792-0.606-2.766 0-0.973 0.199-1.905 0.606-2.768 0.406-0.871 0.935-1.627 1.599-2.267 0.653-0.633 1.446-1.147 2.362-1.528 0.919-0.386 1.89-0.572 2.906-0.572 1.037 0 2 0.186 2.929 0.572 0.911 0.381 1.711 0.895 2.393 1.528 0.678 0.64 1.215 1.396 1.602 2.267 0.384 0.863 0.574 1.795 0.574 2.768 0 0.974-0.19 1.902-0.574 2.766zm11.295-10.063c-1.041-2.332-2.463-4.34-4.258-6.049-1.793-1.709-3.903-3.06-6.33-4.072-2.434-0.998-5.014-1.494-7.752-1.494-2.77 0-5.362 0.496-7.774 1.494-2.418 1.012-4.517 2.363-6.308 4.072-1.785 1.709-3.213 3.717-4.256 6.049-1.039 2.326-1.569 4.791-1.569 7.391 0 2.644 0.53 5.121 1.569 7.427 1.043 2.297 2.471 4.319 4.256 6.037 1.791 1.737 3.89 3.094 6.308 4.079 0.944 0.384 1.912 0.693 2.908 0.923 1.555 0.364 3.178 0.543 4.866 0.543 2.738 0 5.318-0.482 7.752-1.466 2.427-0.985 4.537-2.342 6.33-4.079 1.795-1.718 3.217-3.74 4.258-6.037 1.044-2.306 1.568-4.783 1.568-7.427 0-2.6-0.524-5.065-1.568-7.391z"/>
<path d="m100.28 15.564c0-0.764-0.281-1.42-0.843-1.967-0.561-0.525-1.256-0.791-2.08-0.791h-1.819v5.598h1.819c0.824 0 1.519-0.274 2.08-0.815 0.562-0.525 0.843-1.209 0.843-2.025zm12.274 2.309c-0.25 1.818-0.85 3.517-1.78 5.074-0.931 1.554-2.082 2.904-3.453 4.025-1.422 1.131-2.961 2.01-4.699 2.633-1.736 0.633-3.531 0.947-5.398 0.947h-0.844c-0.346 0-0.633-0.025-0.842-0.068v7.478h-12.217v-37.316h11.567c2.469 0 4.789 0.322 6.949 0.973 2.17 0.656 4.051 1.595 5.713 2.826 1.605 1.244 2.875 2.767 3.795 4.586 0.941 1.822 1.402 3.883 1.402 6.18 0 0.951-0.06 1.837-0.193 2.662z"/>
<polyline points="119.23 0.646 136.84 0.646 136.84 11.179 134.12 11.179 134.12 27.433 136.84 27.433 136.84 37.962 119.23 37.962 119.23 27.433 121.89 27.433 121.89 11.179 119.23 11.179 119.23 0.646"/>
<g transform="translate(143)">
<mask id="a" fill="white">
<use xlink:href="#b"/>
</mask>
<path d="m37.285 30.418c-0.494 0.638-1.088 1.29-1.756 1.99-0.677 0.685-1.193 1.168-1.545 1.474-2.007 1.485-4.199 2.61-6.584 3.369-2.396 0.76-4.826 1.092-7.285 1.014-2.728-0.101-5.404-0.746-8.029-1.951-2.621-1.188-4.914-2.814-6.881-4.889-1.668-1.867-2.904-3.92-3.719-6.132-0.81-2.219-1.173-4.475-1.091-6.776 0.095-2.588 0.738-5.098 1.955-7.492 1.218-2.408 2.959-4.506 5.228-6.293 2.041-1.529 4.246-2.676 6.578-3.44 2.354-0.765 4.739-1.105 7.168-1.019 2.805 0.1 5.569 0.793 8.278 2.049 2.705 1.271 5.125 3.093 7.253 5.455l-9.5 7.34c-0.953-1.043-1.986-1.817-3.097-2.358-1.108-0.531-2.219-0.818-3.352-0.855-1.902-0.071-3.705 0.521-5.385 1.75-0.853 0.666-1.509 1.472-1.984 2.41-0.461 0.93-0.707 1.904-0.742 2.898-0.029 0.868 0.105 1.739 0.396 2.608 0.289 0.879 0.795 1.693 1.51 2.465 0.787 0.884 1.694 1.57 2.686 2.013 1.004 0.444 2.049 0.69 3.133 0.731 0.945 0.025 1.89-0.094 2.81-0.365 0.914-0.264 1.777-0.735 2.578-1.405 0.221-0.119 0.5-0.361 0.84-0.742 0.34-0.379 0.572-0.68 0.707-0.894l9.83 7.045" mask="url(#a)"/>
<path d="m44.934 23.867c3.521 2.64 6.004 3.552 8.716 3.75 1.858 0.134 2.846-0.504 2.819-1.676-0.039-1.678-1.854-2.012-4.83-2.887-6.16-1.767-9.354-5.4-9.479-10.691-0.18-7.631 5.567-12.801 14.707-12.143 4.119 0.301 6.946 0.852 10.813 2.36l-1.43 10.173c-2.709-1.107-6.084-2.338-8.346-2.503-1.806-0.129-2.797 0.458-2.771 1.529 0.043 1.779 2.459 2.207 6.75 3.486 4.797 1.41 8.097 5.256 8.217 10.344 0.183 7.785-5.807 13.24-15.198 12.562-4.722-0.343-8.181-0.578-13.254-3.523l3.286-10.781" mask="url(#a)"/>
</g>
</g>
</g>
</svg>
