<?xml version="1.0" encoding="UTF-8"?>
<svg width="300px" height="300px" viewBox="0 0 300 300" version="1.1" xmlns="http://www.w3.org/2000/svg" xmlns:xlink="http://www.w3.org/1999/xlink">
    <!-- Generator: Sketch 51.2 (57519) - http://www.bohemiancoding.com/sketch -->
    <title>Topics</title>
    <desc>Created with Sketch.</desc>
    <defs>
        <polygon id="path-1" points="0.0461818182 0.753991736 126.547418 0.753991736 126.547418 185.953884 0.0461818182 185.953884"></polygon>
        <polygon id="path-3" points="0.383668979 0.163661219 70.104 0.163661219 70.104 38.2761138 0.383668979 38.2761138"></polygon>
    </defs>
    <g id="Topics" stroke="none" stroke-width="1" fill="none" fill-rule="evenodd">
        <g id="Group-2" transform="translate(69.000000, 35.000000)">
            <path d="M163,145.889228 C163,154.750038 155.702101,162 146.791599,162 L16.2099405,162 C7.29020117,162 0,154.750038 0,145.889228 L0,16.1153635 C0,7.25225795 7.29020117,0 16.2099405,0 L146.791599,0 C155.702101,0 163,7.25225795 163,16.1153635 L163,145.889228" id="Fill-1" fill="#DE4540"></path>
            <g id="Group-5" transform="translate(0.000000, 35.000000)">
                <mask id="mask-2" fill="white">
                    <use xlink:href="#path-1"></use>
                </mask>
                <g id="Clip-3"></g>
                <path d="M110.366079,59.4539008 C108.544976,61.0664132 106.669224,62.4667934 104.701109,63.6750248 C102.730685,64.8832562 100.296903,65.4927521 97.3558909,65.4927521 C95.1476303,65.4927521 93.1317939,64.7994793 91.3176182,63.4590496 C89.4741939,62.0970992 88.5721091,58.286405 88.5721091,55.6800992 L88.5721091,28.9729587 L105.992661,28.9729587 L105.992661,0.753991736 L42.5734788,0.753991736 L42.5734788,28.9729587 L60.1071758,28.9729587 L60.1071758,61.1548017 C60.1071758,61.6920496 60.129497,62.1908678 60.1610545,62.6697025 C60.9861697,78.8655372 77.5954606,92.1676116 98.0039758,92.1676116 C98.6351273,92.1676116 100.022891,92.1330248 100.090624,92.1330248 C104.618752,92.1330248 109.266952,91.1569091 114.009824,89.8918017 C118.738073,88.6243884 122.933691,86.0396033 126.547418,82.1020909 L110.366079,59.4539008" id="Fill-2" fill="#FFFFFE" mask="url(#mask-2)"></path>
            </g>
        </g>
        <g id="Group" transform="translate(43.000000, 236.000000)">
            <path d="M29.119,25.918 C28.336,26.611 27.529,27.214 26.684,27.734 C25.836,28.253 24.791,28.517 23.527,28.517 C22.578,28.517 21.711,28.216 20.932,27.642 C20.139,27.054 19.752,25.415 19.752,24.294 L19.752,12.798 L27.24,12.798 L27.24,0.652 L0,0.652 L0,12.798 L7.535,12.798 L7.535,26.648 C7.535,26.882 7.545,27.095 7.557,27.3 C7.914,34.273 15.051,40 23.807,40 C24.076,40 24.672,39.982 24.703,39.982 C26.648,39.982 28.646,39.564 30.686,39.017 C32.717,38.472 34.52,37.359 36.074,35.665 L29.119,25.918" id="Fill-4" fill="#DE4540"></path>
            <path d="M63.891,21.961 C63.504,22.836 62.967,23.591 62.289,24.226 C61.607,24.869 60.807,25.373 59.896,25.757 C58.967,26.142 58.004,26.33 56.967,26.33 C55.951,26.33 54.98,26.142 54.061,25.757 C53.145,25.373 52.352,24.869 51.699,24.226 C51.035,23.591 50.506,22.836 50.1,21.961 C49.693,21.097 49.494,20.169 49.494,19.195 C49.494,18.222 49.693,17.29 50.1,16.427 C50.506,15.556 51.035,14.8 51.699,14.16 C52.352,13.527 53.145,13.013 54.061,12.632 C54.98,12.246 55.951,12.06 56.967,12.06 C58.004,12.06 58.967,12.246 59.896,12.632 C60.807,13.013 61.607,13.527 62.289,14.16 C62.967,14.8 63.504,15.556 63.891,16.427 C64.275,17.29 64.465,18.222 64.465,19.195 C64.465,20.169 64.275,21.097 63.891,21.961 Z M75.186,11.898 C74.145,9.566 72.723,7.558 70.928,5.849 C69.135,4.14 67.025,2.789 64.598,1.777 C62.164,0.779 59.584,0.283 56.846,0.283 C54.076,0.283 51.484,0.779 49.072,1.777 C46.654,2.789 44.555,4.14 42.764,5.849 C40.979,7.558 39.551,9.566 38.508,11.898 C37.469,14.224 36.939,16.689 36.939,19.289 C36.939,21.933 37.469,24.41 38.508,26.716 C39.551,29.013 40.979,31.035 42.764,32.753 C44.555,34.49 46.654,35.847 49.072,36.832 C50.016,37.216 50.984,37.525 51.98,37.755 C53.535,38.119 55.158,38.298 56.846,38.298 C59.584,38.298 62.164,37.816 64.598,36.832 C67.025,35.847 69.135,34.49 70.928,32.753 C72.723,31.035 74.145,29.013 75.186,26.716 C76.23,24.41 76.754,21.933 76.754,19.289 C76.754,16.689 76.23,14.224 75.186,11.898 Z" id="Fill-6" fill="#DE4540"></path>
            <path d="M100.277,15.564 C100.277,14.8 99.996,14.144 99.434,13.597 C98.873,13.072 98.178,12.806 97.354,12.806 L95.535,12.806 L95.535,18.404 L97.354,18.404 C98.178,18.404 98.873,18.13 99.434,17.589 C99.996,17.064 100.277,16.38 100.277,15.564 Z M112.551,17.873 C112.301,19.691 111.701,21.39 110.771,22.947 C109.84,24.501 108.689,25.851 107.318,26.972 C105.896,28.103 104.357,28.982 102.619,29.605 C100.883,30.238 99.088,30.552 97.221,30.552 C97.008,30.552 96.725,30.552 96.377,30.552 C96.031,30.552 95.744,30.527 95.535,30.484 L95.535,37.962 L83.318,37.962 L83.318,0.646 L94.885,0.646 C97.354,0.646 99.674,0.968 101.834,1.619 C104.004,2.275 105.885,3.214 107.547,4.445 C109.152,5.689 110.422,7.212 111.342,9.031 C112.283,10.853 112.744,12.914 112.744,15.211 C112.744,16.162 112.684,17.048 112.551,17.873 Z" id="Fill-7" fill="#DE4540"></path>
            <polyline id="Fill-8" fill="#DE4540" points="119.232 0.646 136.838 0.646 136.838 11.179 134.117 11.179 134.117 27.433 136.838 27.433 136.838 37.962 119.232 37.962 119.232 27.433 121.893 27.433 121.893 11.179 119.232 11.179 119.232 0.646"></polyline>
            <g id="Group-12" transform="translate(143.000000, 0.000000)">
                <mask id="mask-4" fill="white">
                    <use xlink:href="#path-3"></use>
                </mask>
                <g id="Clip-10"></g>
                <path d="M37.285,30.418 C36.791,31.056 36.197,31.708 35.529,32.408 C34.852,33.093 34.336,33.576 33.984,33.882 C31.977,35.367 29.785,36.492 27.4,37.251 C25.004,38.011 22.574,38.343 20.115,38.265 C17.387,38.164 14.711,37.519 12.086,36.314 C9.465,35.126 7.172,33.5 5.205,31.425 C3.537,29.558 2.301,27.505 1.486,25.293 C0.676,23.074 0.313,20.818 0.395,18.517 C0.49,15.929 1.133,13.419 2.35,11.025 C3.568,8.617 5.309,6.519 7.578,4.732 C9.619,3.203 11.824,2.056 14.156,1.292 C16.51,0.527 18.895,0.187 21.324,0.273 C24.129,0.373 26.893,1.066 29.602,2.322 C32.307,3.593 34.727,5.415 36.855,7.777 L27.355,15.117 C26.402,14.074 25.369,13.3 24.258,12.759 C23.15,12.228 22.039,11.941 20.906,11.904 C19.004,11.833 17.201,12.425 15.521,13.654 C14.668,14.32 14.012,15.126 13.537,16.064 C13.076,16.994 12.83,17.968 12.795,18.962 C12.766,19.83 12.9,20.701 13.191,21.57 C13.48,22.449 13.986,23.263 14.701,24.035 C15.488,24.919 16.395,25.605 17.387,26.048 C18.391,26.492 19.436,26.738 20.52,26.779 C21.465,26.804 22.41,26.685 23.33,26.414 C24.244,26.15 25.107,25.679 25.908,25.009 C26.129,24.89 26.408,24.648 26.748,24.267 C27.088,23.888 27.32,23.587 27.455,23.373 L37.285,30.418" id="Fill-9" fill="#DE4540" mask="url(#mask-4)"></path>
                <path d="M44.934,23.867 C48.455,26.507 50.938,27.419 53.65,27.617 C55.508,27.751 56.496,27.113 56.469,25.941 C56.43,24.263 54.615,23.929 51.639,23.054 C45.479,21.287 42.285,17.654 42.16,12.363 C41.98,4.732 47.727,-0.438 56.867,0.22 C60.986,0.521 63.813,1.072 67.68,2.58 L66.25,12.753 C63.541,11.646 60.166,10.415 57.904,10.25 C56.098,10.121 55.107,10.708 55.133,11.779 C55.176,13.558 57.592,13.986 61.883,15.265 C66.68,16.675 69.98,20.521 70.1,25.609 C70.283,33.394 64.293,38.849 54.902,38.171 C50.18,37.828 46.721,37.593 41.648,34.648 L44.934,23.867" id="Fill-11" fill="#DE4540" mask="url(#mask-4)"></path>
            </g>
        </g>
    </g>
</svg>