<?xml version="1.0" encoding="UTF-8"?>
<svg width="300px" height="300px" viewBox="0 0 300 300" version="1.1" xmlns="http://www.w3.org/2000/svg" xmlns:xlink="http://www.w3.org/1999/xlink">
    <!-- Generator: Sketch 51.2 (57519) - http://www.bohemiancoding.com/sketch -->
    <title>Trouw</title>
    <desc>Created with Sketch.</desc>
    <defs></defs>
    <g id="Trouw" stroke="none" stroke-width="1" fill="none" fill-rule="evenodd">
        <g id="Trouw_C75_M15_Y0_K55" transform="translate(26.000000, 119.000000)" fill="#0C546E">
            <polyline id="Fill-1" points="47 3 44.587461 14.1985634 29.8631983 14.1985634 19.9640134 61 4.40927835 61 14.3084632 14.1985634 0 14.1985634 2.32915368 3 47 3"></polyline>
            <path d="M67.7144168,30.4162861 C65.0863954,29.6667351 62.951267,29.2501924 61.3079191,29.2501924 C54.5720842,29.2501924 51.6981725,33.4991534 49.7266001,42.4994099 L45.7845679,61 L31,61 L39.6239604,17.9990251 L53.0121832,17.9990251 L51.4511696,25.833188 C55.5589831,19.8322644 59.6656838,17 65.4146199,17 C67.2215237,17 69.0284276,17.3330084 71,17.9166196 L67.7144168,30.4162861" id="Fill-2"></path>
            <path d="M94.801071,26.7779718 C88.769894,26.7779718 83.2424497,33.2431084 83.2424497,42.3587377 C83.2424497,47.9942622 86.6766808,51.9716852 91.5336162,51.9716852 C97.5647932,51.9716852 102.841506,45.5087938 102.841506,36.3909193 C102.841506,30.4253461 99.574051,26.7779718 94.801071,26.7779718 Z M118,37.0543844 C118,51.6405139 107.279799,62 90.1097774,62 C76.2911665,62 68,54.4582762 68,42.523762 C68,27.27529 78.3843798,17 95.6383563,17 C109.624878,17 118,24.6236747 118,37.0543844 Z" id="Fill-3"></path>
            <path d="M140.067489,18 L135.589824,39.5402647 C135.257313,41.0433106 135.092181,42.4626655 135.092181,43.7983293 C135.092181,47.9727027 137.082753,50.2267061 140.732511,50.2267061 C146.122335,50.2267061 150.268612,45.4676263 152.259185,36.1179797 L156.071828,18 L171,18 L161.877291,60.9142784 L148.5263,60.9142784 L150.185485,53.6501221 C145.374185,59.1612903 139.902357,62 133.931762,62 C125.141564,62 120,56.6562139 120,47.0543632 C120,44.2156535 120.497643,40.2086621 121.574934,35.1159491 L125.141564,18 L140.067489,18" id="Fill-4"></path>
            <path d="M187.53843,18 L187.952471,38.6631177 C187.952471,39.6671498 187.952471,43.4317038 187.868543,49.9567795 C189.109547,45.8579259 190.842924,42.3449466 192.331233,39.248992 L202.406973,18 L219.840332,18 L220.334943,39.751008 C220.334943,40.671182 220.334943,44.1003031 220.334943,49.9567795 C221.327522,46.4438002 222.812474,42.7631045 224.630897,38.8308341 L234.295954,18 L249,18 L226.613817,61 L209.760115,61 L209.018199,41.6752141 C208.934272,38.9985505 208.853702,36.3207537 208.853702,33.5602319 C208.853702,31.8876005 208.853702,30.2138358 208.934272,28.5412044 C207.116968,33.2259323 205.796513,36.4034787 204.969551,38.1611016 L194.311915,61 L177.047529,61 L173,18 L187.53843,18" id="Fill-5"></path>
            <path d="M57.0003736,4.82978161 C56.711172,4.75995069 56.3894632,4.72560761 55.9321211,4.72560761 C53.9155561,4.72560761 52.6769212,6.12794998 52.6769212,8.32590701 C52.6769212,10.4380063 53.7967368,11.754491 55.5924773,11.754491 C56.0341263,11.754491 56.4230913,11.6846601 57.0003736,11.5117999 L57.0003736,4.82978161 Z M57.0003736,13 L57.0003736,11.9445227 C56.5766596,12.1345544 56.304272,12.2559 55.8133018,12.4802747 C55.049944,12.8271398 54.694607,12.9313138 54.1857018,12.9313138 C52.3888405,12.9313138 51,11.1305918 51,8.82846073 C51,5.9894329 52.9481878,3.92999296 55.7112966,3.92999296 C56.1686387,3.92999296 56.7627351,4.03302219 57.0003736,4.15436774 L57.0003736,1.59237408 L55.4064018,1.10813667 L55.4064018,0.726928496 L58.5932246,0 L58.5932246,11.4591405 L60,11.9101796 L60,12.290243 L57.0003736,13 Z" id="Fill-6"></path>
            <path d="M65.8919124,5.33231591 C65.5865005,4.89965662 65.2480997,4.72682182 64.6692004,4.72682182 C63.5103375,4.72682182 62.8505625,5.71346814 62.7058376,7.6169401 L66.3101247,7.25295689 C66.2941624,6.23197253 66.1973244,5.7649752 65.8919124,5.33231591 Z M62.6898753,8.17092713 C62.7058376,9.48607402 62.8984494,10.2483785 63.4624506,10.9225486 C63.9934631,11.5635254 64.8139252,11.909195 65.8429614,11.909195 C66.2782001,11.909195 67.0667376,11.8233499 67.7743995,11.7020221 L67.8712375,12.2903472 C67.8712375,12.2903472 67.1635756,12.5158337 66.7613256,12.6531858 C65.8919124,12.9301793 65.2970508,13 64.7170873,13 C62.4802372,13 61,11.2338802 61,8.6734071 C61,7.21861885 61.4831256,5.90347196 62.3035877,5.07249142 C62.9633627,4.38000763 63.8636364,4 64.8618121,4 C66.1494375,4 67.2114625,4.67417016 67.6786257,5.81762686 C67.8871998,6.33613125 67.951049,6.87294926 68,8.17092713 L62.6898753,8.17092713 Z" id="Fill-7"></path>
            <path d="M78.6511147,1.06408346 L74.2466372,12 L73.3763522,12 L69.365817,1.06408346 L68,0.439269747 L68,0 L72.5399304,0 L72.5399304,0.439269747 L71.1921738,1.06408346 L73.6664472,8.28129657 C73.8030289,8.67026826 73.7860973,8.63673621 74.212774,9.97131148 L77.438811,1.06408346 L76.0910545,0.439269747 L76.0910545,0 L80,0 L80,0.439269747 L78.6511147,1.06408346" id="Fill-8"></path>
            <path d="M82.8919124,5.33231591 C82.5865005,4.89965662 82.2491639,4.72682182 81.6692004,4.72682182 C80.5103375,4.72682182 79.8505625,5.71346814 79.7058376,7.6169401 L83.3101247,7.25295689 C83.2941624,6.23197253 83.1983886,5.7649752 82.8919124,5.33231591 Z M79.6898753,8.17092713 C79.7058376,9.48607402 79.8995135,10.2483785 80.4624506,10.9225486 C80.9934631,11.5635254 81.8139252,11.909195 82.8440255,11.909195 C83.2782001,11.909195 84.0667376,11.8233499 84.7754637,11.7020221 L84.8712375,12.2903472 C84.8712375,12.2903472 84.1635756,12.5158337 83.7613256,12.6531858 C82.8919124,12.9301793 82.2970508,13 81.7170873,13 C79.4802372,13 78,11.2338802 78,8.6734071 C78,7.21861885 78.4831256,5.90347196 79.3035877,5.07249142 C79.9633627,4.38000763 80.8647005,4 81.8618121,4 C83.1494375,4 84.2114625,4.67417016 84.6786257,5.81762686 C84.8871998,6.33613125 84.951049,6.87294926 85,8.17092713 L79.6898753,8.17092713 Z" id="Fill-9"></path>
            <path d="M92.7237569,5.35893155 L92.1752888,4.29330936 C91.9631676,4.27597278 91.8389419,4.27597278 91.6971371,4.27597278 C91.2541436,4.27597278 90.7396618,4.41582124 90.3142474,4.57300629 L90.3142474,10.8997046 L92.2456052,11.5457814 L92.2456052,12 L87.0714884,12 L87.0714884,11.5457814 L88.6477482,10.8997046 L88.6477482,4.59034288 L87,4.11878772 L87,3.71657891 L90.3142474,3 L90.3142474,4.11878772 C91.7674535,3.40220881 92.5116357,3.08783871 93.0612757,3.08783871 C93.3976226,3.08783871 93.6636531,3.19185823 94,3.36637986 L94,5.35893155 L92.7237569,5.35893155" id="Fill-10"></path>
            <path d="M100.000374,4.82978161 C99.7122929,4.75995069 99.3894632,4.72560761 98.9321211,4.72560761 C96.9155561,4.72560761 95.6780421,6.12794998 95.6780421,8.32590701 C95.6780421,10.4380063 96.7967368,11.754491 98.5924773,11.754491 C99.0341263,11.754491 99.4242122,11.6846601 100.000374,11.5117999 L100.000374,4.82978161 Z M100.000374,13 L100.000374,11.9445227 C99.5766596,12.1345544 99.305393,12.2559 98.8133018,12.4802747 C98.049944,12.8271398 97.694607,12.9313138 97.1868228,12.9313138 C95.3899614,12.9313138 94,11.1305918 94,8.82846073 C94,5.9894329 95.9481878,3.92999296 98.7112966,3.92999296 C99.1697596,3.92999296 99.7627351,4.03302219 100.000374,4.15436774 L100.000374,1.59237408 L98.4064018,1.10813667 L98.4064018,0.726928496 L101.593225,0 L101.593225,11.4591405 L103,11.9101796 L103,12.290243 L100.000374,13 Z" id="Fill-11"></path>
            <path d="M106.508541,1.78286332 C105.733773,1.78286332 105.346999,1.48770159 105.346999,0.899540499 C105.346999,0.294080548 105.715471,0 106.508541,0 C107.284529,0 107.653001,0.277862871 107.653001,0.867105145 C107.653001,1.48770159 107.284529,1.78286332 106.508541,1.78286332 Z M104,12 L104,11.5750969 L105.641044,10.9707181 L105.641044,5.05234706 L104,4.61122624 L104,4.23497612 L107.376037,3.58086314 L107.376037,10.9707181 L109,11.5750969 L109,12 L104,12 Z" id="Fill-12"></path>
            <path d="M113.891912,5.33231591 C113.5865,4.89965662 113.2481,4.72682182 112.6692,4.72682182 C111.510337,4.72682182 110.850562,5.71346814 110.705838,7.6169401 L114.311189,7.25295689 C114.294162,6.23197253 114.198389,5.7649752 113.891912,5.33231591 Z M110.689875,8.17092713 C110.705838,9.48607402 110.899514,10.2483785 111.462451,10.9225486 C111.993463,11.5635254 112.813925,11.909195 113.844026,11.909195 C114.2782,11.909195 115.066738,11.8233499 115.7744,11.7020221 L115.871237,12.2903472 C115.871237,12.2903472 115.163576,12.5158337 114.761326,12.6531858 C113.891912,12.9301793 113.297051,13 112.717087,13 C110.480237,13 109,11.2338802 109,8.6734071 C109,7.21861885 109.483126,5.90347196 110.303588,5.07249142 C110.963363,4.38000763 111.864701,4 112.861812,4 C114.149438,4 115.211462,4.67417016 115.678626,5.81762686 C115.8872,6.33613125 115.952113,6.87294926 116,8.17092713 L110.689875,8.17092713 Z" id="Fill-13"></path>
            <path d="M121.508867,4.27573333 C120.955788,4.27573333 120.453695,4.38088889 120.051355,4.53688889 L120.051355,11.3003556 C120.419335,11.3350222 120.704187,11.3523556 121.040025,11.3523556 C121.876847,11.3523556 122.464286,11.1952 122.967488,10.8450667 C123.83867,10.2337778 124.341872,9.08053333 124.341872,7.7528 C124.341872,5.65546667 123.235714,4.27573333 121.508867,4.27573333 Z M121.157512,12.1739556 C120.687562,12.1739556 120.402709,12.1392889 120.051355,12.0688 L120.051355,14.9692444 L121.894581,15.5458667 L121.894581,16 L117,16 L117,15.5458667 L118.475246,14.9692444 L118.475246,4.60737778 L117,4.13591111 L117,3.71644444 L120.051355,3 L120.051355,4.11857778 C120.336207,3.96026667 120.587808,3.8216 121.190764,3.54195556 C121.959975,3.19182222 122.4133,3.08782222 122.733621,3.08782222 C124.592365,3.08782222 126,4.94017778 126,7.22933333 C126,10.0592889 123.972783,12.1739556 121.157512,12.1739556 Z" id="Fill-14"></path>
            <path d="M129.510368,1.78286332 C128.735789,1.78286332 128.34667,1.48770159 128.34667,0.899540499 C128.34667,0.294080548 128.716272,0 129.510368,0 C130.283728,0 130.65333,0.277862871 130.65333,0.867105145 C130.65333,1.48770159 130.283728,1.78286332 129.510368,1.78286332 Z M127,12 L127,11.5750969 L128.641864,10.9707181 L128.641864,5.05234706 L127,4.61122624 L127,4.23497612 L130.376433,3.58086314 L130.376433,10.9707181 L132,11.5750969 L132,12 L127,12 Z" id="Fill-15"></path>
            <path d="M137.530278,12 L137.530278,11.5449048 L138.930969,10.8975811 L138.930969,6.30957283 C138.930969,5.48739063 138.710159,4.94428718 138.222817,4.64552239 C137.868183,4.41855378 137.361882,4.3131755 136.688302,4.3131755 C136.199844,4.3131755 135.624401,4.3490736 135.154901,4.41855378 L135.154901,10.8975811 L136.470838,11.5449048 L136.470838,12 L132.084755,12 L132.084755,11.5449048 L133.567971,10.8975811 L133.567971,4.59341225 L132,4.12094699 L132,3.71796191 L135.169399,3 L135.169399,3.99819866 C135.556373,3.84071024 135.913237,3.66585178 136.266756,3.5257334 C137.210215,3.15748842 137.380841,3.07063819 138.105721,3.07063819 C138.828371,3.07063819 139.436155,3.34971693 139.891156,3.85808029 C140.364001,4.36644364 140.516784,4.96165723 140.516784,5.97722594 L140.516784,10.8975811 L142,11.5449048 L142,12 L137.530278,12" id="Fill-16"></path>
            <path d="M148.23369,4.39150066 C147.908988,4.00823373 147.483595,3.78264719 147.021999,3.78264719 C146.0445,3.78264719 145.326084,4.65276671 145.326084,5.87162461 C145.326084,6.89827357 145.686989,7.68092076 146.285481,8.09871625 C146.541169,8.27366091 146.8489,8.39451085 147.191703,8.39451085 C148.20088,8.39451085 148.884224,7.55891988 148.884224,6.34121293 C148.884224,5.54130146 148.627404,4.84497565 148.23369,4.39150066 Z M149.723696,12.4677291 C149.483847,12.327313 149.193086,12.2766711 148.558391,12.2766711 L146.011691,12.2766711 C145.670019,12.2766711 145.531992,12.2582559 145.275173,12.1719345 C144.830547,12.5022576 144.419862,13.1813192 144.419862,13.5979637 C144.419862,14.5382913 145.565933,15.2518814 147.088749,15.2518814 C148.764299,15.2518814 150.134381,14.3472333 150.134381,13.2158477 C150.134381,12.9200531 149.979384,12.6242585 149.723696,12.4677291 Z M149.313011,3.99096946 C149.688624,4.2522355 149.979384,4.56529438 150.185292,4.91403276 C150.390069,5.29729969 150.491892,5.71394422 150.491892,6.16626826 C150.491892,7.83860115 149.089001,9.03904382 147.173602,9.03904382 C146.867002,9.03904382 146.693903,9.03904382 146.285481,8.95157149 C145.857825,9.43957503 145.581772,9.90916335 145.581772,10.1692784 C145.581772,10.3614874 145.686989,10.5180168 145.873664,10.6400177 C146.097674,10.7792829 146.437084,10.84834 146.899811,10.84834 L149.313011,10.84834 C150.203394,10.84834 150.666122,10.9876051 151.023633,11.3708721 C151.314393,11.6839309 151.46939,12.1017264 151.46939,12.6069942 C151.46939,13.5289066 150.990823,14.3817618 150.066499,15.0608234 C149.260968,15.6524126 148.045883,16 146.985795,16 C145.787681,16 144.846386,15.7744135 144.061219,15.3036742 C143.410685,14.9042939 143,14.3472333 143,13.8247012 C143,13.42417 143.222879,13.0593183 143.718416,12.6933156 C144.010308,12.4677291 144.40176,12.2409916 144.900691,12.0142541 C144.40176,11.6666667 144.164173,11.300664 144.164173,10.918548 C144.164173,10.6227534 144.315776,10.3269588 144.626901,10.0139 C144.983281,9.61336875 145.43017,9.16104471 145.839723,8.82957061 C145.275173,8.65577689 144.967442,8.51651173 144.641609,8.25524568 C144.010308,7.75112882 143.633564,6.98459495 143.633564,6.18468349 C143.633564,4.51350155 145.121307,3.13926516 146.934884,3.13926516 C147.67027,3.13926516 148.252923,3.2957946 148.902326,3.64338203 L152,3 L152,4.56529438 L149.313011,3.99096946 Z" id="Fill-17"></path>
        </g>
    </g>
</svg>