<?xml version="1.0" encoding="UTF-8"?>
<svg version="1.1" viewBox="0 0 300 300" xmlns="http://www.w3.org/2000/svg">
<title>Trouw</title>
<desc>Created with Sketch.</desc>
<g fill="none" fill-rule="evenodd">
<g transform="translate(26 119)" fill="#0C546E">
<polyline points="47 3 44.587 14.199 29.863 14.199 19.964 61 4.4093 61 14.308 14.199 0 14.199 2.3292 3 47 3"/>
<path d="m67.714 30.416c-2.628-0.74955-4.7631-1.1661-6.4065-1.1661-6.7358 0-9.6097 4.249-11.581 13.249l-3.942 18.501h-14.785l8.624-43.001h13.388l-1.561 7.8342c4.1078-6.0009 8.2145-8.8332 13.963-8.8332 1.8069 0 3.6138 0.33301 5.5854 0.91662l-3.2856 12.5"/>
<path d="m94.801 26.778c-6.0312 0-11.559 6.4651-11.559 15.581 0 5.6355 3.4342 9.6129 8.2912 9.6129 6.0312 0 11.308-6.4629 11.308-15.581 0-5.9656-3.2675-9.6129-8.0404-9.6129zm23.199 10.276c0 14.586-10.72 24.946-27.89 24.946-13.819 0-22.11-7.5417-22.11-19.476 0-15.248 10.384-25.524 27.638-25.524 13.987 0 22.362 7.6237 22.362 20.054z"/>
<path d="m140.07 18l-4.4777 21.54c-0.33251 1.503-0.49764 2.9224-0.49764 4.2581 0 4.1744 1.9906 6.4284 5.6403 6.4284 5.3898 0 9.5361-4.7591 11.527-14.109l3.8126-18.118h14.928l-9.1227 42.914h-13.351l1.6592-7.2642c-4.8113 5.5112-10.283 8.3499-16.254 8.3499-8.7902 0-13.932-5.3438-13.932-14.946 0-2.8387 0.49764-6.8457 1.5749-11.938l3.5666-17.116h14.926"/>
<path d="m187.54 18l0.41404 20.663c0 1.004 0 4.7686-0.083928 11.294 1.241-4.0989 2.9744-7.6118 4.4627-10.708l10.076-21.249h17.433l0.49461 21.751v10.206c0.99258-3.513 2.4775-7.1937 4.296-11.126l9.6651-20.831h14.704l-22.386 43h-16.854l-0.74192-19.325c-0.083927-2.6767-0.1645-5.3545-0.1645-8.115 0-1.6726 0-3.3464 0.08057-5.019-1.8173 4.6847-3.1378 7.8623-3.9647 9.6199l-10.658 22.839h-17.264l-4.0475-43h14.538"/>
<path d="m57 4.8298c-0.2892-0.069831-0.61091-0.10417-1.0683-0.10417-2.0166 0-3.2552 1.4023-3.2552 3.6003 0 2.1121 1.1198 3.4286 2.9156 3.4286 0.44165 0 0.83061-0.069831 1.4079-0.24269v-6.682zm0 8.1702v-1.0555c-0.42371 0.19003-0.6961 0.31138-1.1871 0.53575-0.76336 0.34687-1.1187 0.45104-1.6276 0.45104-1.7969 0-3.1857-1.8007-3.1857-4.1029 0-2.839 1.9482-4.8985 4.7113-4.8985 0.45734 0 1.0514 0.10303 1.2891 0.22437v-2.562l-1.594-0.48424v-0.38121l3.1868-0.72693v11.459l1.4068 0.45104v0.38006l-2.9996 0.70976z"/>
<path d="m65.892 5.3323c-0.30541-0.43266-0.64381-0.60549-1.2227-0.60549-1.1589 0-1.8186 0.98665-1.9634 2.8901l3.6043-0.36398c-0.015962-1.021-0.1128-1.488-0.41821-1.9206zm-3.202 2.8386c0.015962 1.3151 0.20857 2.0775 0.77258 2.7516 0.53101 0.64098 1.3515 0.98665 2.3805 0.98665 0.43524 0 1.2238-0.085845 1.9314-0.20717l0.096838 0.58833s-0.70766 0.22549-1.1099 0.36284c-0.86941 0.27699-1.4643 0.34681-2.0442 0.34681-2.2369 0-3.7171-1.7661-3.7171-4.3266 0-1.4548 0.48313-2.7699 1.3036-3.6009 0.65978-0.69248 1.56-1.0725 2.5582-1.0725 1.2876 0 2.3497 0.67417 2.8168 1.8176 0.20857 0.5185 0.27242 1.0553 0.32137 2.3533h-5.3101z"/>
<path d="m78.651 1.0641l-4.4045 10.936h-0.87028l-4.0105-10.936-1.3658-0.62481v-0.43927h4.5399v0.43927l-1.3478 0.62481 2.4743 7.2172c0.13658 0.38897 0.11965 0.35544 0.54633 1.69l3.226-8.9072-1.3478-0.62481v-0.43927h3.9089v0.43927l-1.3489 0.62481"/>
<path d="m82.892 5.3323c-0.30541-0.43266-0.64275-0.60549-1.2227-0.60549-1.1589 0-1.8186 0.98665-1.9634 2.8901l3.6043-0.36398c-0.015962-1.021-0.11174-1.488-0.41821-1.9206zm-3.202 2.8386c0.015962 1.3151 0.20964 2.0775 0.77258 2.7516 0.53101 0.64098 1.3515 0.98665 2.3816 0.98665 0.43417 0 1.2227-0.085845 1.9314-0.20717l0.095774 0.58833s-0.70766 0.22549-1.1099 0.36284c-0.86941 0.27699-1.4643 0.34681-2.0442 0.34681-2.2369 0-3.7171-1.7661-3.7171-4.3266 0-1.4548 0.48313-2.7699 1.3036-3.6009 0.65978-0.69248 1.5611-1.0725 2.5582-1.0725 1.2876 0 2.3497 0.67417 2.8168 1.8176 0.20857 0.5185 0.27242 1.0553 0.32137 2.3533h-5.3101z"/>
<path d="m92.724 5.3589l-0.54847-1.0656c-0.21212-0.017337-0.33635-0.017337-0.47815-0.017337-0.44299 0-0.95748 0.13985-1.3829 0.29703v6.3267l1.9314 0.64608v0.45422h-5.1741v-0.45422l1.5763-0.64608v-6.3094l-1.6477-0.47156v-0.40221l3.3142-0.71658v1.1188c1.4532-0.71658 2.1974-1.0309 2.747-1.0309 0.33635 0 0.60238 0.10402 0.93872 0.27854v1.9926h-1.2762"/>
<path d="m100 4.8298c-0.28808-0.069831-0.61091-0.10417-1.0683-0.10417-2.0166 0-3.2541 1.4023-3.2541 3.6003 0 2.1121 1.1187 3.4286 2.9144 3.4286 0.44165 0 0.83173-0.069831 1.4079-0.24269v-6.682zm0 8.1702v-1.0555c-0.42371 0.19003-0.69498 0.31138-1.1871 0.53575-0.76336 0.34687-1.1187 0.45104-1.6265 0.45104-1.7969 0-3.1868-1.8007-3.1868-4.1029 0-2.839 1.9482-4.8985 4.7113-4.8985 0.45846 0 1.0514 0.10303 1.2891 0.22437v-2.562l-1.594-0.48424v-0.38121l3.1868-0.72693v11.459l1.4068 0.45104v0.38006l-2.9996 0.70976z"/>
<path d="m106.51 1.7829c-0.77477 0-1.1615-0.29516-1.1615-0.88332 0-0.60546 0.36847-0.89954 1.1615-0.89954 0.77599 0 1.1445 0.27786 1.1445 0.86711 0 0.6206-0.36847 0.91576-1.1445 0.91576zm-2.5085 10.217v-0.4249l1.641-0.60438v-5.9184l-1.641-0.44112v-0.37625l3.376-0.65411v7.3899l1.624 0.60438v0.4249h-5z"/>
<path d="m113.89 5.3323c-0.30541-0.43266-0.64381-0.60549-1.2227-0.60549-1.1589 0-1.8186 0.98665-1.9634 2.8901l3.6054-0.36398c-0.017027-1.021-0.1128-1.488-0.41928-1.9206zm-3.202 2.8386c0.015963 1.3151 0.20964 2.0775 0.77258 2.7516 0.53101 0.64098 1.3515 0.98665 2.3816 0.98665 0.43417 0 1.2227-0.085845 1.9304-0.20717l0.096837 0.58833s-0.70766 0.22549-1.1099 0.36284c-0.86941 0.27699-1.4643 0.34681-2.0442 0.34681-2.2368 0-3.7171-1.7661-3.7171-4.3266 0-1.4548 0.48313-2.7699 1.3036-3.6009 0.65978-0.69248 1.5611-1.0725 2.5582-1.0725 1.2876 0 2.3496 0.67417 2.8168 1.8176 0.20857 0.5185 0.27349 1.0553 0.32137 2.3533h-5.3101z"/>
<path d="m121.51 4.2757c-0.55308 0-1.0552 0.10516-1.4575 0.26116v6.7635c0.36798 0.034667 0.65283 0.052 0.98867 0.052 0.83682 0 1.4243-0.15716 1.9275-0.50729 0.87118-0.61129 1.3744-1.7645 1.3744-3.0923 0-2.0973-1.1062-3.4771-2.833-3.4771zm-0.35136 7.8982c-0.46995 0-0.7548-0.034667-1.1062-0.10516v2.9004l1.8432 0.57662v0.45413h-4.8946v-0.45413l1.4752-0.57662v-10.362l-1.4752-0.47147v-0.41947l3.0514-0.71644v1.1186c0.28485-0.15831 0.53645-0.29698 1.1394-0.57662 0.76921-0.35013 1.2225-0.45413 1.5429-0.45413 1.8587 0 3.2664 1.8524 3.2664 4.1415 0 2.83-2.0272 4.9446-4.8425 4.9446z"/>
<path d="m129.51 1.7829c-0.77458 0-1.1637-0.29516-1.1637-0.88332 0-0.60546 0.3696-0.89954 1.1637-0.89954 0.77336 0 1.143 0.27786 1.143 0.86711 0 0.6206-0.3696 0.91576-1.143 0.91576zm-2.5104 10.217v-0.4249l1.6419-0.60438v-5.9184l-1.6419-0.44112v-0.37625l3.3764-0.65411v7.3899l1.6236 0.60438v0.4249h-5z"/>
<path d="m137.53 12v-0.4551l1.4007-0.64732v-4.588c0-0.82218-0.22081-1.3653-0.70815-1.6641-0.35463-0.22697-0.86094-0.33235-1.5345-0.33235-0.48846 0-1.0639 0.035898-1.5334 0.10538v6.479l1.3159 0.64732v0.4551h-4.3861v-0.4551l1.4832-0.64732v-6.3042l-1.568-0.47247v-0.40299l3.1694-0.71796v0.9982c0.38697-0.15749 0.74384-0.33235 1.0974-0.47247 0.94346-0.36824 1.1141-0.4551 1.839-0.4551 0.72265 0 1.3304 0.27908 1.7854 0.78744 0.47284 0.50836 0.62563 1.1036 0.62563 2.1191v4.9204l1.4832 0.64732v0.4551h-4.4697"/>
<path d="m148.23 4.3915c-0.3247-0.38327-0.7501-0.60885-1.2117-0.60885-0.9775 0-1.6959 0.87012-1.6959 2.089 0 1.0266 0.3609 1.8093 0.9594 2.2271 0.25569 0.17494 0.56342 0.29579 0.90622 0.29579 1.0092 0 1.6925-0.83559 1.6925-2.0533 0-0.79991-0.25682-1.4962-0.65053-1.9497zm1.49 8.0762c-0.23985-0.14042-0.53061-0.19106-1.1653-0.19106h-2.5467c-0.34167 0-0.4797-0.018415-0.73652-0.10474-0.44463 0.33032-0.85531 1.0094-0.85531 1.426 0 0.94033 1.1461 1.6539 2.6689 1.6539 1.6756 0 3.0456-0.90465 3.0456-2.036 0-0.29579-0.155-0.59159-0.41068-0.74812zm-0.41068-8.4768c0.37561 0.26127 0.66637 0.57432 0.87228 0.92306 0.20478 0.38327 0.3066 0.79991 0.3066 1.2522 0 1.6723-1.4029 2.8728-3.3183 2.8728-0.3066 0-0.4797 0-0.88812-0.087472-0.42766 0.488-0.70371 0.95759-0.70371 1.2177 0 0.19221 0.10522 0.34874 0.29189 0.47074 0.22401 0.13927 0.56342 0.20832 1.0261 0.20832h2.4132c0.89038 0 1.3531 0.13927 1.7106 0.52253 0.29076 0.31306 0.44576 0.73085 0.44576 1.2361 0 0.92191-0.47857 1.7748-1.4029 2.4538-0.80553 0.59159-2.0206 0.93918-3.0807 0.93918-1.1981 0-2.1394-0.22559-2.9246-0.69633-0.65053-0.39938-1.0612-0.95644-1.0612-1.479 0-0.40053 0.22288-0.76538 0.71842-1.1314 0.29189-0.22559 0.68334-0.45232 1.1823-0.67906-0.49893-0.34759-0.73652-0.71359-0.73652-1.0957 0-0.29579 0.1516-0.59159 0.46273-0.90465 0.35638-0.40053 0.80327-0.85286 1.2128-1.1843-0.56455-0.17379-0.87228-0.31306-1.1981-0.57432-0.6313-0.50412-1.008-1.2707-1.008-2.0706 0-1.6712 1.4877-3.0454 3.3013-3.0454 0.73539 0 1.318 0.15653 1.9674 0.50412l3.0977-0.64338v1.5653l-2.687-0.57432z"/>
</g>
</g>
</svg>
