<?xml version="1.0" encoding="UTF-8"?>
<svg version="1.1" viewBox="0 0 300 300" xmlns="http://www.w3.org/2000/svg" xmlns:xlink="http://www.w3.org/1999/xlink">
<title>Tweakers</title>
<desc>Created with Sketch.</desc>
<defs>
<polygon id="c" points="0 0.056 153.94 0.056 153.94 153.88 0 153.88"/>
<polygon id="b" points="0.834 0.545 189.34 0.545 189.34 27.347 0.834 27.347"/>
</defs>
<g fill="none" fill-rule="evenodd">
<g transform="translate(73 36)">
<mask id="d" fill="white">
<use xlink:href="#c"/>
</mask>
<path d="m149.43 51.014c0.034 0.112 0.054 0.184 0.054 0.184l-41.938 56.66c-2.356 2.996-4.872 4.906-9.078 4.856h-41.196c-5.484 2e-3 -7.798-1.524-10.1-7.284l-12.472-40.218c-1.548-3.482-1.214-7.514 0.884-10.694l41.75-54.454c-0.12 0-0.238-8e-3 -0.358-8e-3 -42.51 0-76.972 34.46-76.972 76.972 0 42.51 34.462 76.972 76.972 76.972 42.512 0 76.972-34.462 76.972-76.972 0-9.132-1.598-17.888-4.518-26.014" fill="#C6D634" mask="url(#d)"/>
<path d="m52.011 51.384h51.034v16.574h-17.138v28.214h-16.57v-28.214h-17.326v-16.574zm-17.048 13.764l12.472 40.218c2.302 5.76 4.616 7.286 10.1 7.284h41.196c4.206 0.05 6.722-1.86 9.078-4.856l41.938-56.66s-0.02-0.072-0.054-0.184c-10.628-29.602-38.872-50.798-72.096-50.95l-41.75 54.454c-2.098 3.18-2.432 7.212-0.884 10.694z" fill="#000"/>
<polyline points="69.326 96.788 85.896 96.788 85.896 68.574 103.03 68.574 103.03 52 52 52 52 68.574 69.326 68.574 69.326 96.788" fill="#FFFFFE"/>
</g>
<g transform="translate(55 235)" fill="#000">
<polyline points="50.655 27.331 43.545 27.331 39.34 13.221 35.253 27.331 28.121 27.331 21 5 27.634 5 32.057 18.74 35.68 5.035 43.163 5.035 46.8 18.74 51.076 5 57.687 5 50.655 27.331"/>
<path d="m70.021 10.205c-1.332-0.017-4.273 0.088-4.228 4.229h8.302c-0.051-3.862-2.063-4.203-4.074-4.229zm5.899 17.038c-2.153 0.595-3.633 0.636-5.882 0.636-7.217 0-11.038-5.237-11.038-11.228 0-5 2.311-11.651 10.708-11.651 8.208 0 11.085 5.045 10.094 14.199h-14.057c-0.027 2.083 2.43 3.445 4.647 3.445 1.11 0 2.433-0.041 3.795-0.473l1.733 5.072z"/>
<path d="m141.02 10.205c-1.332-0.017-4.273 0.088-4.229 4.23h8.303c-0.051-3.863-2.063-4.204-4.074-4.23zm5.899 17.039c-2.153 0.594-3.634 0.635-5.882 0.635-7.218 0-11.039-5.236-11.039-11.227 0-5.001 2.312-11.652 10.709-11.652 8.208 0 11.084 5.046 10.094 14.199h-14.057c-0.028 2.083 2.429 3.445 4.646 3.445 1.111 0 2.434-0.041 3.796-0.473l1.733 5.073z"/>
<path d="m96.005 18.268h-1.054c-4.311 0-6.191 0.676-6.191 2.832 0 1.581 1.226 2.217 2.663 2.217 1.389 0 3.767-0.46 4.582-1.37v-3.679zm-9.258-12.219c2.38-0.587 4.634-1.049 7.15-1.049 5.03 0 8.359 2.203 8.359 6.993v15.654h-5.524c-0.048 0-0.232-1.045-0.318-1.003-1.409 0.707-3.397 1.27-5.6 1.27-6.131 0-7.814-3.988-7.814-6.647 0-4.454 3.095-7.752 11.28-7.693h1.677v-0.719c0-1.054 0.101-2.63-2.39-2.63-1.716 0-3.478 0.294-5.067 0.733l-1.753-4.909z"/>
<polyline points="120.85 27.51 113.83 16.96 113.83 27.51 107 27.51 107 1 113.83 1 113.83 13.126 119.58 5.195 127.33 5.195 120.16 14.93 128.51 27.51 120.85 27.51"/>
<path d="m170.09 5.761c-0.273 0.798-1.84 5.182-1.84 5.182-2.298-1.238-6.57-0.123-6.635 4.856v11.795h-6.617v-22.315h5.092l0.747 1.176c1.234-0.929 2.967-1.455 5.208-1.455 1.592 0 2.919 0.289 3.968 0.704"/>
<mask id="a" fill="white">
<use xlink:href="#b"/>
</mask>
<path d="m17.987 21.184c-1.144 0.016-2.709 0.049-3.993-0.973-1.322-1.051-1.231-2.862-1.251-4.605v-0.036c-0.018-1.539-0.019-3.239-0.02-4.669h5.264v-6.087h-5.281v-4.269h-6.201v4.269h-5.671v6.087h5.636c2e-3 1.442 2e-3 3.178 0.02 4.74v0.036c0.03 2.593 0.074 6.511 2.843 9.205 1.772 1.724 5.114 2.46 8.358 2.46 0.098 0 0.197-1e-3 0.296-2e-3v-6.156" mask="url(#a)"/>
<path d="m187.65 25.204c-1.201 1.305-2.38 2.143-6.055 2.143-1.636 0-3.503-0.332-4.776-0.623-1.274-0.291-2.664-0.707-4.169-1.247l1.936-5.546c2.222 0.648 1.686 0.491 2.687 0.789 2.83 0.843 4.776 1.422 5.229 0.054 0.24-0.725 0.039-1.252-0.243-1.529-0.283-0.277-0.775-0.589-1.477-0.938-0.702-0.348-5.4-2.313-6.517-3.254-1.207-1.015-1.706-2.337-1.706-3.858 0-1.079 0.403-4.275 3.335-5.962 3.012-1.734 8.768-0.212 9.861 0.058s2.131 0.654 3.116 1.151l-1.744 4.875c0.311 0.184-6.331-2.712-7.215-0.955-0.532 1.059-0.032 1.485 0.315 1.791 0.348 0.305 4.469 2.139 5.594 2.689 5.738 2.807 2.991 9.099 1.829 10.362" mask="url(#a)"/>
</g>
</g>
</svg>
