<?xml version="1.0" encoding="UTF-8"?>
<svg width="300px" height="300px" viewBox="0 0 300 300" version="1.1" xmlns="http://www.w3.org/2000/svg" xmlns:xlink="http://www.w3.org/1999/xlink">
    <!-- Generator: Sketch 51.2 (57519) - http://www.bohemiancoding.com/sketch -->
    <title>Tweakers</title>
    <desc>Created with Sketch.</desc>
    <defs>
        <polygon id="path-1" points="0 0.056 153.944 0.056 153.944 153.88 0 153.88"></polygon>
        <polygon id="path-3" points="0.834 0.545 189.338 0.545 189.338 27.347 0.834 27.347"></polygon>
    </defs>
    <g id="Tweakers" stroke="none" stroke-width="1" fill="none" fill-rule="evenodd">
        <g id="Group-2" transform="translate(73.000000, 36.000000)">
            <g id="Group-3">
                <mask id="mask-2" fill="white">
                    <use xlink:href="#path-1"></use>
                </mask>
                <g id="Clip-2"></g>
                <path d="M149.426,51.014 C149.46,51.126 149.48,51.198 149.48,51.198 L107.542,107.858 C105.186,110.854 102.67,112.764 98.464,112.714 L57.268,112.714 C51.784,112.716 49.47,111.19 47.168,105.43 L34.696,65.212 C33.148,61.73 33.482,57.698 35.58,54.518 L77.33,0.064 C77.21,0.064 77.092,0.056 76.972,0.056 C34.462,0.056 0,34.516 0,77.028 C0,119.538 34.462,154 76.972,154 C119.484,154 153.944,119.538 153.944,77.028 C153.944,67.896 152.346,59.14 149.426,51.014" id="Fill-1" fill="#C6D634" mask="url(#mask-2)"></path>
            </g>
            <path d="M52.0113276,51.384 L103.045328,51.384 L103.045328,67.958 L85.9073276,67.958 L85.9073276,96.172 L69.3373276,96.172 L69.3373276,67.958 L52.0113276,67.958 L52.0113276,51.384 Z M34.9633276,65.148 L47.4353276,105.366 C49.7373276,111.126 52.0513276,112.652 57.5353276,112.65 L98.7313276,112.65 C102.937328,112.7 105.453328,110.79 107.809328,107.794 L149.747328,51.134 C149.747328,51.134 149.727328,51.062 149.693328,50.95 C139.065328,21.348 110.821328,0.152 77.5973276,0 L35.8473276,54.454 C33.7493276,57.634 33.4153276,61.666 34.9633276,65.148 Z" id="Fill-4" fill="#000000"></path>
            <polyline id="Fill-5" fill="#FFFFFE" points="69.326 96.788 85.896 96.788 85.896 68.574 103.034 68.574 103.034 52 52 52 52 68.574 69.326 68.574 69.326 96.788"></polyline>
        </g>
        <g id="Group" transform="translate(55.000000, 235.000000)">
            <polyline id="Fill-6" fill="#000000" points="50.655 27.331 43.545 27.331 39.34 13.221 35.253 27.331 28.121 27.331 21 5 27.634 5 32.057 18.74 35.68 5.035 43.163 5.035 46.8 18.74 51.076 5 57.687 5 50.655 27.331"></polyline>
            <path d="M70.021,10.205 C68.689,10.188 65.748,10.293 65.793,14.434 L74.095,14.434 C74.044,10.572 72.032,10.231 70.021,10.205 Z M75.92,27.243 C73.767,27.838 72.287,27.879 70.038,27.879 C62.821,27.879 59,22.642 59,16.651 C59,11.651 61.311,5 69.708,5 C77.916,5 80.793,10.045 79.802,19.199 L65.745,19.199 C65.718,21.282 68.175,22.644 70.392,22.644 C71.502,22.644 72.825,22.603 74.187,22.171 L75.92,27.243 Z" id="Fill-7" fill="#000000"></path>
            <path d="M141.022,10.205 C139.69,10.188 136.749,10.293 136.793,14.435 L145.096,14.435 C145.045,10.572 143.033,10.231 141.022,10.205 Z M146.921,27.244 C144.768,27.838 143.287,27.879 141.039,27.879 C133.821,27.879 130,22.643 130,16.652 C130,11.651 132.312,5 140.709,5 C148.917,5 151.793,10.046 150.803,19.199 L136.746,19.199 C136.718,21.282 139.175,22.644 141.392,22.644 C142.503,22.644 143.826,22.603 145.188,22.171 L146.921,27.244 Z" id="Fill-8" fill="#000000"></path>
            <path d="M96.005,18.268 L94.951,18.268 C90.64,18.268 88.76,18.944 88.76,21.1 C88.76,22.681 89.986,23.317 91.423,23.317 C92.812,23.317 95.19,22.857 96.005,21.947 L96.005,18.268 Z M86.747,6.049 C89.127,5.462 91.381,5 93.897,5 C98.927,5 102.256,7.203 102.256,11.993 C102.256,11.993 102.256,24.877 102.256,27.647 L96.732,27.647 C96.684,27.647 96.5,26.602 96.414,26.644 C95.005,27.351 93.017,27.914 90.814,27.914 C84.683,27.914 83,23.926 83,21.267 C83,16.813 86.095,13.515 94.28,13.574 L95.957,13.574 L95.957,12.855 C95.957,11.801 96.058,10.225 93.567,10.225 C91.851,10.225 90.089,10.519 88.5,10.958 L86.747,6.049 Z" id="Fill-9" fill="#000000"></path>
            <polyline id="Fill-10" fill="#000000" points="120.852 27.51 113.832 16.96 113.832 27.51 107 27.51 107 1 113.832 1 113.832 13.126 119.58 5.195 127.333 5.195 120.165 14.93 128.511 27.51 120.852 27.51"></polyline>
            <path d="M170.092,5.761 C169.819,6.559 168.252,10.943 168.252,10.943 C165.954,9.705 161.682,10.82 161.617,15.799 L161.617,27.594 L155,27.594 C155,27.594 155,6.613 155,5.279 L160.092,5.279 L160.839,6.455 C162.073,5.526 163.806,5 166.047,5 C167.639,5 168.966,5.289 170.015,5.704" id="Fill-11" fill="#000000"></path>
            <g id="Group-15">
                <mask id="mask-4" fill="white">
                    <use xlink:href="#path-3"></use>
                </mask>
                <g id="Clip-13"></g>
                <path d="M17.987,21.184 C16.843,21.2 15.278,21.233 13.994,20.211 C12.672,19.16 12.763,17.349 12.743,15.606 L12.743,15.57 C12.725,14.031 12.724,12.331 12.723,10.901 L17.987,10.901 L17.987,4.814 L12.706,4.814 L12.706,0.545 L6.505,0.545 L6.505,4.814 L0.834,4.814 L0.834,10.901 L6.47,10.901 C6.472,12.343 6.472,14.079 6.49,15.641 L6.49,15.677 C6.52,18.27 6.564,22.188 9.333,24.882 C11.105,26.606 14.447,27.342 17.691,27.342 C17.789,27.342 17.888,27.341 17.987,27.34 L17.987,21.184" id="Fill-12" fill="#000000" mask="url(#mask-4)"></path>
                <path d="M187.654,25.204 C186.453,26.509 185.274,27.347 181.599,27.347 C179.963,27.347 178.096,27.015 176.823,26.724 C175.549,26.433 174.159,26.017 172.654,25.477 L174.59,19.931 C176.812,20.579 176.276,20.422 177.277,20.72 C180.107,21.563 182.053,22.142 182.506,20.774 C182.746,20.049 182.545,19.522 182.263,19.245 C181.98,18.968 181.488,18.656 180.786,18.307 C180.084,17.959 175.386,15.994 174.269,15.053 C173.062,14.038 172.563,12.716 172.563,11.195 C172.563,10.116 172.966,6.92 175.898,5.233 C178.91,3.499 184.666,5.021 185.759,5.291 C186.852,5.561 187.89,5.945 188.875,6.442 L187.131,11.317 C187.442,11.501 180.8,8.605 179.916,10.362 C179.384,11.421 179.884,11.847 180.231,12.153 C180.579,12.458 184.7,14.292 185.825,14.842 C191.563,17.649 188.816,23.941 187.654,25.204" id="Fill-14" fill="#000000" mask="url(#mask-4)"></path>
            </g>
        </g>
    </g>
</svg>