<?xml version="1.0" encoding="UTF-8"?>
<svg version="1.1" viewBox="0 0 300 300" xmlns="http://www.w3.org/2000/svg">
<title>Volkskrant</title>
<desc>Created with Sketch.</desc>
<g fill="#1A1919" fill-rule="evenodd">
<path d="m149.02 197.59l-58.336-126.73c-1.416-2.9729-2.6897-5.5217-3.8225-6.7954-1.8416-2.1248-4.2481-2.8321-11.045-2.8321h-4.8129v-5.2385h76.742v5.2385h-2.6897c-5.6641 0-6.6545 0.14083-8.637 0.42558-3.3985 0.56486-5.2401 2.5473-5.2401 5.5202 0 2.5488 1.1328 5.6641 4.3889 13.027l32.567 73.062 30.301-68.39c2.1248-4.8129 5.6641-12.602 5.6641-16.848 0-5.2401-3.3985-6.7969-16.143-6.7969h-1.1328v-5.2385h44.178v5.2385h-1.416c-5.0992 0-6.5137 0.14083-8.3553 0.56641-2.9729 0.84962-4.3889 2.6897-7.221 9.061l-57.486 126.73h-7.5057"/>
<path d="m53 270.03v-1.0928h-0.74471c-1.9661 0-2.2641-0.20655-2.2641-1.6827v-26.752h-10.725v1.0924h1.3106c1.9665 0 2.2644 0.17686 2.2644 1.5059v14.734c-1.281-0.91526-3.2175-1.5059-5.184-1.5059-3.873 0-7.6568 2.6874-7.6568 7.0868 0 4.3698 3.8434 7.0865 7.6568 7.0865 2.4432 0 4.2009-0.62029 5.5116-1.7418v1.2696h9.8317zm-10.1-5.0201c0 1.7718-0.2084 2.5396-0.86389 3.1005-0.50668 0.44311-1.2514 0.73808-2.0261 0.73808-2.4429 0-2.4429-2.0077-2.4429-4.0748v-2.7164c0-2.0671 0-4.0751 2.4429-4.0751 0.77467 0 1.5194 0.29562 2.0261 0.73873 0.65549 0.5609 0.86389 1.3284 0.86389 3.1001v3.1889z"/>
<path d="m71 263.23c-0.085159-4.6476-3.1848-7.2327-8.7015-7.2327-5.7156 0-9.2985 2.7013-9.2985 7.0292 0 4.1825 3.7821 6.9708 9.4409 6.9708 3.6115 0 6.5405-1.3362 8.3885-3.8629l-0.65392-0.72635c-1.7632 2.1203-4.0948 3.34-6.4836 3.34-1.9618 0-3.2699-0.78381-3.6395-2.0908-0.17063-0.55206-0.22751-1.4527-0.22751-2.7594v-0.66794h11.175zm-6.5688-1.1619h-4.6064v-1.1911c0-1.8298 0.056876-2.3235 0.36954-2.8464 0.34126-0.58095 1.0807-0.92952 2.019-0.92952 1.0238 0 1.7346 0.43587 1.9904 1.1911 0.19922 0.55175 0.22751 1.0454 0.22751 2.5267v1.2492z"/>
<path d="m85.091 270l-12.032-25.955c-0.29206-0.60888-0.55475-1.1309-0.78839-1.3918-0.37983-0.43519-0.87617-0.58004-2.278-0.58004h-0.99267v-1.0729h15.828v1.0729h-0.55475c-1.1682 0-1.3725 0.028843-1.7814 0.087164-0.70093 0.11569-1.0808 0.52172-1.0808 1.1306 0 0.52203 0.23364 1.1601 0.90521 2.6682l6.7169 14.964 6.2497-14.007c0.43824-0.98575 1.1682-2.581 1.1682-3.4508 0-1.0732-0.70093-1.3921-3.3294-1.3921h-0.23364v-1.0729h9.1118v1.0729h-0.29206c-1.0517 0-1.3435 0.028843-1.7233 0.11601-0.61316 0.17401-0.90521 0.55088-1.4893 1.8558l-11.856 25.955h-1.5481"/>
<path d="m113 262.94c0-4.1944-3.9467-6.9421-9.9998-6.9421-6.1128 0-10 2.7189-10 7 0 4.2807 3.8873 7 10 7 6.1423 0 9.9998-2.7193 9.9998-7.0579zm-7.4186 1.6775c0 1.9093-0.029514 2.4591-0.23708 2.9794-0.32659 0.80999-1.187 1.3016-2.3442 1.3016-1.1575 0-2.0179-0.49162-2.3445-1.3016-0.20757-0.52039-0.2374-1.0702-0.2374-2.9794v-3.24c0-1.9086 0.029838-2.4581 0.2374-2.9788 0.32659-0.80999 1.187-1.3022 2.3445-1.3022 1.1572 0 2.0176 0.49225 2.3442 1.3022 0.20757 0.52071 0.23708 1.0702 0.23708 2.9788v3.24z"/>
<path d="m112.53 268.93h0.70336c1.8573 0 2.1387-0.17369 2.1387-1.4789v-23.896c0-1.3052-0.2814-1.4789-2.1387-1.4789h-1.2379v-1.0729h10.13v26.419c0 1.3341 0.3097 1.5078 2.1667 1.5078h0.70367v1.0732h-12.465v-1.0732"/>
<path d="m141.49 270l-4.9296-6.3449v3.593c0 1.4483 0.32295 1.6798 2.2594 1.6798h0.38164v1.0722h-12.647v-1.0722h0.73378c1.9364 0 2.2299-0.20234 2.2299-1.651v-23.728c0-1.3039-0.29345-1.4775-2.2299-1.4775h-1.2912v-1.0718h10.563v22.047l3.1397-2.2596c0.38164-0.28973 0.99772-0.72448 1.2912-0.9854 0.4987-0.43412 0.67476-0.69504 0.67476-1.0136 0-0.26092-0.17607-0.43476-0.38132-0.5212-0.23476-0.087394-0.38164-0.11653-1.4085-0.11653h-0.99772v-1.0715h10.27v1.0715c-3.345 0.087394-5.487 0.63772-7.0126 1.7387l6.4257 7.9668c0.46951 0.57946 0.79246 0.86951 1.0859 0.95595 0.32263 0.087078 0.58689 0.11589 0.9092 0.11589 0.23508 0.029131 0.44065 0 0.44065 0v1.0722h-9.5073"/>
<path d="m160.52 270.3c-2.2096 0-4.0666-0.35371-6.4234-1.1497-0.2657-0.088267-0.38324-0.14722-0.56005-0.14722-0.38292 0-0.5008 0.26545-0.5301 0.8846h-1.0022v-5.0402h1.0022v0.1179c0 1.0608 0.17649 1.68 0.61867 2.1812 0.82478 0.94291 2.4747 1.6797 4.0366 1.6797 1.1787 0 1.7977-0.41234 1.7977-1.0905 0-0.61851-0.44218-1.0315-1.6209-1.5624l-1.0309-0.4713c-3.2711-1.4442-4.5384-2.7408-4.5384-4.7452 0-2.8887 2.7407-4.6569 7.1902-4.6569 1.7088 0 3.2115 0.26512 4.9793 0.79569 0.58936 0.17653 0.73686 0.20617 0.97261 0.20617 0.41255 0 0.56005-0.17686 0.6483-0.55988h0.9726v4.3621h-0.9726v-0.32408c0-1.0315-0.1475-1.4148-0.6483-1.8568-0.73686-0.64847-2.151-1.1201-3.4183-1.1201-1.1491 0-1.7678 0.41266-1.7678 1.1201 0 0.67779 0.41255 1.0315 2.151 1.7096l1.7681 0.67779c2.8582 1.1198 3.8598 2.1809 3.8598 4.126 0 3.0066-2.8286 4.8634-7.4842 4.8634"/>
<path d="m183.49 270l-4.9296-6.3449v3.593c0 1.4483 0.32263 1.6798 2.2594 1.6798h0.38132v1.0722h-12.647v-1.0722h0.73346c1.9368 0 2.2299-0.20234 2.2299-1.651v-23.728c0-1.3039-0.29313-1.4775-2.2299-1.4775h-1.2912v-1.0718h10.564v22.047l3.1398-2.2596c0.381-0.28973 0.99741-0.72448 1.2909-0.9854 0.49902-0.43412 0.6751-0.69504 0.6751-1.0136 0-0.26092-0.17607-0.43476-0.38164-0.5212-0.23444-0.087394-0.38132-0.11653-1.4079-0.11653h-0.99805v-1.0715h10.27v1.0715c-3.3453 0.087394-5.4877 0.63772-7.013 1.7387l6.4261 7.9668c0.46952 0.57946 0.79215 0.86951 1.0856 0.95595 0.32263 0.087078 0.5869 0.11589 0.90953 0.11589 0.23508 0.029131 0.44001 0 0.44001 0v1.0722h-9.5068"/>
<path d="m205.22 268.88h0.84434v1.1166h-12.745v-1.1166h0.55303c1.9205 0 2.2112-0.18071 2.2112-1.5387v-8.0863c0-1.3577-0.29067-1.5387-2.2112-1.5387h-0.87296v-1.1163h9.7476v3.5002c0.98872-2.5649 2.7928-4.1036 5.1204-4.1036 2.5899 0 4.132 1.7197 4.132 4.2847 0 2.4436-1.4839 4.073-3.7243 4.073-2.1533 0-3.6661-1.448-3.6661-3.4695 0-0.48311 0.057879-0.90522 0.29067-1.3583 0.11639-0.24106 0.087455-0.2714 0.087455-0.33175 0-0.090357-0.1164-0.1507-0.17427-0.1507-0.23279 0-0.52378 0.27173-0.84402 0.78452-0.31993 0.51279-0.61091 1.237-0.75656 1.8408-0.14533 0.6635-0.23279 1.6291-0.23279 2.8964v2.7457c0 1.3577 0.32024 1.5687 2.2401 1.5687"/>
<path d="m233 270.02v-1.0862h-0.59088c-1.3293 0-1.566-0.4106-1.566-1.6726v-4.4028c0-1.7021-0.02906-2.2015-0.20633-2.8178-0.14788-0.52833-0.41362-1.0563-0.79753-1.526-1.1227-1.4089-3.1911-2.1133-6.0561-2.1133-1.6845 0-3.5747 0.35222-5.5837 0.90974-0.23635 0.059024-0.94509 0.29352-1.1818 0.29352-0.35453 0-0.47271-0.14692-0.50241-0.64542h-0.88633v4.3437h0.97512v-0.32303c0-1.0563 0.20665-1.6142 0.73844-2.0254 0.73909-0.58704 2.2157-0.99732 3.6338-0.99732 1.3887 0 2.3045 0.41028 2.5999 1.1738 0.14756 0.38141 0.17727 0.76315 0.17727 1.6732v0.96845c-1.093-0.088215-1.8614-0.11773-2.9247-0.11773-4.6383 0-7.8287 1.2036-7.8287 4.4323 0 2.9053 2.5111 4.3142 5.5243 4.3142 1.9796 0 3.9292-0.49882 5.4652-1.6142v1.2328h9.0105zm-9.2465-4.696c0 0.32271 0 0.79266-0.029706 1.2912-0.029383 0.61655-0.11818 0.93926-0.35453 1.2328-0.32515 0.38141-0.85662 0.61623-1.4475 0.61623-1.1521 0-1.5657-0.67525-1.5657-2.4656v-0.61655c0-1.8487 0.67936-2.5531 2.5111-2.5531 0.38391 0 0.35453 0 0.88633 0.029512v2.4656z"/>
<path d="m245.56 270v-0.93688h0.17811c0.59262 0 0.94788-0.085312 1.1555-0.28355 0.20726-0.19886 0.26652-0.68157 0.26652-1.902v-4.797c0-1.5322-0.029469-1.9581-0.17779-2.2705-0.20726-0.4824-0.71082-0.70949-1.4518-0.70949-0.77009 0-1.511 0.3124-1.9553 0.82303-0.44463 0.53917-0.53336 0.93688-0.53336 2.5544v4.3996c0 0.56771 0.029469 1.1069 0.058938 1.3907 0.089056 0.56771 0.41484 0.7948 1.3634 0.7948h0.29631v0.93688h-11.437v-1.0504h0.56283c1.9557 0 2.252-0.17 2.252-1.5328v-7.4361c0-1.3628-0.29631-1.5331-2.252-1.5331h-0.88894v-1.0501h9.8075v1.8167c1.6001-1.4761 3.6147-2.2141 5.9557-2.2141 1.9557 0 3.4962 0.56771 4.4735 1.5893 0.53369 0.56771 0.83 1.2775 0.9482 2.0723 0.059263 0.53917 0.089056 0.7948 0.089056 1.9017v4.8535c0 1.3628 0.29631 1.5328 2.2516 1.5328h0.47442v1.0504h-11.437"/>
<path d="m270.56 267.56c-0.82325 1.6151-2.6761 2.4374-5.529 2.4374-2.1473 0-3.6177-0.44069-4.5296-1.4681-0.58794-0.64611-0.91165-1.5567-0.99972-2.6136-0.058827-0.58737-0.088079-1.0576-0.088079-2.4374v-5.8731h-2.4122v-0.96964l9.0586-5.6381 0.38253 0.29368v5.139h4.5004v1.1751h-4.5004v6.7833c0 0.85185-0.058826 1.8205 0.14755 2.4374 0.17616 0.55784 0.61687 0.91026 1.353 0.91026 1.9699 0 2.0583-1.6738 2.0583-3.3182v-0.32322h1v0.44037c0 1.6154-0.088079 2.3495-0.44136 3.0248"/>
</g>
</svg>
