<?xml version="1.0" encoding="UTF-8"?>
<svg width="300px" height="300px" viewBox="0 0 300 300" version="1.1" xmlns="http://www.w3.org/2000/svg" xmlns:xlink="http://www.w3.org/1999/xlink">
    <!-- Generator: Sketch 51.2 (57519) - http://www.bohemiancoding.com/sketch -->
    <title>Volkskrant</title>
    <desc>Created with Sketch.</desc>
    <defs></defs>
    <g id="Volkskrant" stroke="none" stroke-width="1" fill="none" fill-rule="evenodd">
        <path d="M149.016017,197.593222 L90.6804271,70.8659419 C89.2644021,67.893063 87.9907533,65.3442179 86.8579332,64.0705691 C85.0163268,61.9457577 82.609858,61.238519 75.8129377,61.238519 L71,61.238519 L71,56 L147.742369,56 L147.742369,61.238519 L145.052695,61.238519 C139.388594,61.238519 138.398151,61.3793477 136.415716,61.6641003 C133.017255,62.2289627 131.175649,64.2113978 131.175649,67.1842767 C131.175649,69.7331218 132.308469,72.848377 135.564553,80.2117074 L168.131582,153.273958 L198.432971,84.8838163 C200.557782,80.0708786 204.097071,72.281967 204.097071,68.0354393 C204.097071,62.7953728 200.698611,61.238519 187.954385,61.238519 L186.821565,61.238519 L186.821565,56 L231,56 L231,61.238519 L229.583975,61.238519 C224.484737,61.238519 223.07026,61.3793477 221.228653,61.804929 C218.255774,62.654544 216.839749,64.4946029 214.007699,70.8659419 L156.521724,197.593222 L149.016017,197.593222" id="Fill-3" fill="#1A1919"></path>
        <path d="M53,270.027846 L53,268.935083 L52.2552914,268.935083 C50.2891566,268.935083 49.9912081,268.728536 49.9912081,267.252369 L49.9912081,240.5 L39.2657115,240.5 L39.2657115,241.592441 L40.5763595,241.592441 C42.5428199,241.592441 42.8407685,241.769297 42.8407685,243.098298 L42.8407685,257.83253 C41.5597525,256.917268 39.6232498,256.326673 37.6567893,256.326673 C33.7837838,256.326673 30,259.014044 30,263.413498 C30,267.78326 33.8433735,270.5 37.6567893,270.5 C40.0999674,270.5 41.8577011,269.879713 43.1683491,268.758227 L43.1683491,270.027846 L53,270.027846 Z M42.9003582,265.007783 C42.9003582,266.77957 42.691957,267.547344 42.0364702,268.108249 C41.5297949,268.551357 40.7850863,268.846332 40.0104201,268.846332 C37.5675676,268.846332 37.5675676,266.83863 37.5675676,264.771545 L37.5675676,262.055128 C37.5675676,259.988043 37.5675676,257.980018 40.0104201,257.980018 C40.7850863,257.980018 41.5297949,258.275638 42.0364702,258.718746 C42.691957,259.279651 42.9003582,260.047102 42.9003582,261.818889 L42.9003582,265.007783 Z" id="Fill-1" fill="#1A1919"></path>
        <path d="M71,263.232698 C70.9148407,258.585079 67.8152292,256 62.2985237,256 C56.582906,256 53,258.70127 53,263.029206 C53,267.211746 56.782129,270 62.4408702,270 C66.0523699,270 68.981352,268.66381 70.8293706,266.137143 L70.1754468,265.410794 C68.4122766,267.531111 66.0806527,268.750794 63.6918415,268.750794 C61.7300699,268.750794 60.4219114,267.966984 60.0523699,266.66 C59.8817405,266.107937 59.824864,265.207302 59.824864,263.900635 L59.824864,263.232698 L71,263.232698 Z M64.4312354,262.070794 L59.824864,262.070794 L59.824864,260.879683 C59.824864,259.049841 59.8817405,258.55619 60.1944056,258.033333 C60.5356643,257.452381 61.2750583,257.10381 62.2133644,257.10381 C63.2371406,257.10381 63.9479409,257.539683 64.2037296,258.294921 C64.4029526,258.846667 64.4312354,259.340317 64.4312354,260.821587 L64.4312354,262.070794 Z" id="Fill-2" fill="#1A1919"></path>
        <path d="M85.0908036,270 L73.0590881,244.044724 C72.7670329,243.435843 72.5043429,242.913809 72.2706987,242.65295 C71.8908674,242.217763 71.3945332,242.072912 69.9926684,242.072912 L69,242.072912 L69,241 L84.8281135,241 L84.8281135,242.072912 L84.2733683,242.072912 C83.1051476,242.072912 82.9008686,242.101755 82.4919913,242.160076 C81.7910589,242.275767 81.4112276,242.681793 81.4112276,243.290675 C81.4112276,243.812709 81.6448717,244.450751 82.316439,245.95885 L89.0333888,260.92288 L95.2830503,246.915754 C95.7212926,245.930006 96.4512709,244.334743 96.4512709,243.465003 C96.4512709,242.391774 95.7503385,242.072912 93.121842,242.072912 L92.8881979,242.072912 L92.8881979,241 L102,241 L102,242.072912 L101.707945,242.072912 C100.656227,242.072912 100.364491,242.101755 99.9846597,242.188919 C99.3715035,242.362931 99.0794483,242.739797 98.495338,244.044724 L86.6388556,270 L85.0908036,270" id="Fill-3" fill="#1A1919"></path>
        <path d="M113,262.942144 C113,258.747708 109.053319,256 103.000162,256 C96.8873303,256 93,258.718938 93,263 C93,267.280746 96.8873303,270 103.000162,270 C109.142507,270 113,267.280746 113,262.942144 Z M105.581446,264.619665 C105.581446,266.528928 105.551932,267.078723 105.344366,267.599115 C105.017773,268.409105 104.157345,268.900727 103.000162,268.900727 C101.842655,268.900727 100.982227,268.409105 100.655634,267.599115 C100.448068,267.078723 100.41823,266.528928 100.41823,264.619665 L100.41823,261.379703 C100.41823,259.471072 100.448068,258.921593 100.655634,258.400885 C100.982227,257.590895 101.842655,257.098641 103.000162,257.098641 C104.157345,257.098641 105.017773,257.590895 105.344366,258.400885 C105.551932,258.921593 105.581446,259.471072 105.581446,261.379703 L105.581446,264.619665 Z" id="Fill-4" fill="#1A1919"></path>
        <path d="M112.534516,268.926771 L113.237876,268.926771 C115.09515,268.926771 115.376555,268.753077 115.376555,267.447833 L115.376555,243.55185 C115.376555,242.246606 115.09515,242.072912 113.237876,242.072912 L112,242.072912 L112,241 L122.129666,241 L122.129666,267.418989 C122.129666,268.753077 122.439366,268.926771 124.296333,268.926771 L125,268.926771 L125,270 L112.534516,270 L112.534516,268.926771" id="Fill-5" fill="#1A1919"></path>
        <path d="M141.492669,270 L136.563096,263.655053 L136.563096,267.248032 C136.563096,268.696369 136.886047,268.927838 138.82247,268.927838 L139.20411,268.927838 L139.20411,270 L126.557387,270 L126.557387,268.927838 L127.291163,268.927838 C129.227586,268.927838 129.521032,268.725501 129.521032,267.276847 L129.521032,243.549315 C129.521032,242.245368 129.227586,242.071846 127.291163,242.071846 L126,242.071846 L126,241 L136.563096,241 L136.563096,263.046776 L139.702808,260.787192 C140.084448,260.497461 140.700525,260.062707 140.993971,259.801791 C141.492669,259.367669 141.668736,259.106753 141.668736,258.788208 C141.668736,258.527292 141.492669,258.353453 141.287417,258.267009 C141.05266,258.179615 140.905777,258.150483 139.878876,258.150483 L138.881159,258.150483 L138.881159,257.078954 L149.15113,257.078954 L149.15113,258.150483 C145.806165,258.237877 143.664169,258.788208 142.138571,259.889185 L148.564237,267.855992 C149.033751,268.435453 149.356702,268.725501 149.650148,268.811945 C149.972778,268.899023 150.23704,268.927838 150.55935,268.927838 C150.794427,268.956969 151,268.927838 151,268.927838 L151,270 L141.492669,270" id="Fill-6" fill="#1A1919"></path>
        <path d="M160.515771,270.299988 C158.306153,270.299988 156.449186,269.946275 154.092389,269.15026 C153.826694,269.061993 153.709144,269.003041 153.532336,269.003041 C153.149413,269.003041 153.031541,269.268487 153.002234,269.887645 L152,269.887645 L152,264.8474 L153.002234,264.8474 L153.002234,264.965305 C153.002234,266.02612 153.17872,266.645279 153.620901,267.146533 C154.445683,268.089445 156.09557,268.826185 157.657535,268.826185 C158.836255,268.826185 159.455244,268.413842 159.455244,267.735732 C159.455244,267.117218 159.013063,266.704231 157.834343,266.17334 L156.803446,265.702045 C153.532336,264.257879 152.265051,262.961255 152.265051,260.956883 C152.265051,258.068229 155.005737,256.299988 159.455244,256.299988 C161.164067,256.299988 162.666774,256.565111 164.434532,257.09568 C165.023892,257.272214 165.171393,257.301852 165.407138,257.301852 C165.81969,257.301852 165.967191,257.124995 166.055434,256.741968 L167.028039,256.741968 L167.028039,261.104102 L166.055434,261.104102 L166.055434,260.780026 C166.055434,259.748525 165.907933,259.365176 165.407138,258.923196 C164.670276,258.274723 163.256134,257.803106 161.988849,257.803106 C160.839758,257.803106 160.221091,258.21577 160.221091,258.923196 C160.221091,259.600984 160.633643,259.954697 162.372094,260.632807 L164.140174,261.310595 C166.99841,262.430364 168,263.491502 168,265.436599 C168,268.443157 165.171393,270.299988 160.515771,270.299988" id="Fill-7" fill="#1A1919"></path>
        <path d="M183.493188,270 L178.563552,263.655053 L178.563552,267.248032 C178.563552,268.696369 178.886186,268.927838 180.822955,268.927838 L181.20428,268.927838 L181.20428,270 L168.557715,270 L168.557715,268.927838 L169.291179,268.927838 C171.227948,268.927838 171.521077,268.725501 171.521077,267.276847 L171.521077,243.549315 C171.521077,242.245368 171.227948,242.071846 169.291179,242.071846 L168,242.071846 L168,241 L178.563552,241 L178.563552,263.046776 L181.703305,260.787192 C182.084308,260.497461 182.700713,260.062707 182.994163,259.801791 C183.493188,259.367669 183.669258,259.106753 183.669258,258.788208 C183.669258,258.527292 183.493188,258.353453 183.287613,258.267009 C183.053174,258.179615 182.906288,258.150483 181.879695,258.150483 L180.881645,258.150483 L180.881645,257.078954 L191.151747,257.078954 L191.151747,258.150483 C187.806419,258.237877 185.664075,258.788208 184.138778,259.889185 L190.564848,267.855992 C191.034367,268.435453 191.357002,268.725501 191.650452,268.811945 C191.973086,268.899023 192.237351,268.927838 192.559986,268.927838 C192.795066,268.956969 193,268.927838 193,268.927838 L193,270 L183.493188,270" id="Fill-8" fill="#1A1919"></path>
        <path d="M205.220169,268.883403 L206.064507,268.883403 L206.064507,270 L193.319926,270 L193.319926,268.883403 L193.87296,268.883403 C195.793472,268.883403 196.084141,268.70269 196.084141,267.344703 L196.084141,259.258444 C196.084141,257.900787 195.793472,257.719744 193.87296,257.719744 L193,257.719744 L193,256.603477 L202.747577,256.603477 L202.747577,260.103642 C203.736296,257.538701 205.540413,256 207.867989,256 C210.45793,256 212,257.719744 212,260.284685 C212,262.728271 210.516127,264.357658 208.275688,264.357658 C206.122387,264.357658 204.609574,262.909643 204.609574,260.888161 C204.609574,260.40505 204.667453,259.982946 204.900243,259.529844 C205.016637,259.288783 204.987698,259.258444 204.987698,259.198097 C204.987698,259.10774 204.871303,259.047392 204.813424,259.047392 C204.580634,259.047392 204.289648,259.319122 203.969403,259.831912 C203.649477,260.344703 203.35849,261.068875 203.212838,261.672681 C203.067504,262.336176 202.980049,263.301738 202.980049,264.569039 L202.980049,267.314694 C202.980049,268.672351 203.300293,268.883403 205.220169,268.883403" id="Fill-9" fill="#1A1919"></path>
        <path d="M233,270.018581 L233,268.932405 L232.409115,268.932405 C231.079786,268.932405 230.843109,268.5218 230.843109,267.259834 L230.843109,262.857066 C230.843109,261.154983 230.814049,260.655522 230.636783,260.039295 C230.488901,259.510962 230.223164,258.982951 229.83925,258.513322 C228.716569,257.104437 226.648149,256.399994 223.783165,256.399994 C222.098658,256.399994 220.208473,256.752215 218.199464,257.309739 C217.96311,257.368763 217.254371,257.603257 217.017694,257.603257 C216.663163,257.603257 216.544986,257.456337 216.515281,256.957838 L215.628953,256.957838 L215.628953,261.301582 L216.604075,261.301582 L216.604075,260.978552 C216.604075,259.922208 216.810723,259.364364 217.342519,258.953118 C218.08161,258.366082 219.558176,257.955799 220.9763,257.955799 C222.365041,257.955799 223.280751,258.366082 223.576193,259.12955 C223.723753,259.510962 223.753459,259.892696 223.753459,260.802762 L223.753459,261.77121 C222.660483,261.682995 221.89201,261.653482 220.82874,261.653482 C216.190455,261.653482 213,262.857066 213,266.085763 C213,268.991108 215.511099,270.399994 218.524289,270.399994 C220.503915,270.399994 222.453512,269.901174 223.98949,268.785806 L223.98949,270.018581 L233,270.018581 Z M223.753459,265.322616 C223.753459,265.645325 223.753459,266.115275 223.723753,266.613774 C223.69437,267.230322 223.605576,267.553031 223.369222,267.846549 C223.044074,268.227962 222.512601,268.462776 221.921716,268.462776 C220.769652,268.462776 220.356032,267.787525 220.356032,265.997226 L220.356032,265.380678 C220.356032,263.531997 221.035389,262.827554 222.867132,262.827554 C223.251045,262.827554 223.221663,262.827554 223.753459,262.857066 L223.753459,265.322616 Z" id="Fill-10" fill="#1A1919"></path>
        <path d="M245.56267,270 L245.56267,269.063119 L245.740781,269.063119 C246.333405,269.063119 246.688656,268.977807 246.896237,268.779573 C247.103493,268.580718 247.162756,268.098007 247.162756,266.87758 C247.162756,265.430068 247.162756,263.528075 247.162756,262.080563 C247.162756,260.548359 247.133287,260.12242 246.984968,259.810023 C246.777712,259.327622 246.274143,259.100537 245.5332,259.100537 C244.763112,259.100537 244.022169,259.412934 243.577863,259.923565 C243.133233,260.462737 243.044501,260.860446 243.044501,262.477962 L243.044501,266.87758 C243.044501,267.445293 243.07397,267.984465 243.103439,268.268321 C243.192495,268.836034 243.518277,269.063119 244.4668,269.063119 L244.763112,269.063119 L244.763112,270 L233.326105,270 L233.326105,268.949576 L233.888937,268.949576 C235.844598,268.949576 236.14091,268.779573 236.14091,267.416752 L236.14091,259.980647 C236.14091,258.617826 235.844598,258.447512 233.888937,258.447512 L233,258.447512 L233,257.397399 L242.807451,257.397399 L242.807451,259.214079 C244.407537,257.738026 246.422137,257 248.763166,257 C250.718827,257 252.259327,257.567713 253.236672,258.589285 C253.770358,259.156998 254.06667,259.866794 254.184871,260.661592 C254.244134,261.200764 254.273927,261.456389 254.273927,262.563274 L254.273927,267.416752 C254.273927,268.779573 254.570239,268.949576 256.525577,268.949576 L257,268.949576 L257,270 L245.56267,270" id="Fill-11" fill="#1A1919"></path>
        <path d="M270.558643,267.562572 C269.735397,269.177681 267.882531,270 265.02962,270 C262.882302,270 261.411967,269.559311 260.5,268.531894 C259.912059,267.885786 259.588354,266.975201 259.500276,265.918255 C259.441449,265.330884 259.412197,264.860666 259.412197,263.480826 L259.412197,257.607761 L257,257.607761 L257,256.638117 L266.058597,251 L266.441128,251.293685 L266.441128,256.432698 L270.941495,256.432698 L270.941495,257.607761 L266.441128,257.607761 L266.441128,264.391091 C266.441128,265.242939 266.382302,266.211619 266.588676,266.828519 C266.764833,267.386361 267.205547,267.738783 267.941679,267.738783 C269.911554,267.738783 269.999954,266.064937 269.999954,264.42062 L269.999954,264.097405 L271,264.097405 L271,264.537773 C271,266.153203 270.911921,266.887256 270.558643,267.562572" id="Fill-12" fill="#1A1919"></path>
    </g>
</svg>